<?xml version="1.0" encoding="UTF-8" standalone="no"?><!DOCTYPE svg PUBLIC "-//W3C//DTD SVG 1.1//EN" "http://www.w3.org/Graphics/SVG/1.1/DTD/svg11.dtd"><svg width="100%" height="100%" viewBox="0 0 1678 1708" version="1.1" xmlns="http://www.w3.org/2000/svg" xmlns:xlink="http://www.w3.org/1999/xlink" xml:space="preserve" xmlns:serif="http://www.serif.com/" style="fill-rule:evenodd;clip-rule:evenodd;stroke-linejoin:round;stroke-miterlimit:2;"><path d="M1677.45,203.68c-0,-112.489 -91.191,-203.68 -203.68,-203.68c-322.6,0 -947.489,0 -1270.09,0c-112.489,-0 -203.68,91.191 -203.68,203.68l-0,1300.36c0,112.489 91.191,203.68 203.68,203.68l1270.09,0c112.489,0 203.68,-91.191 203.68,-203.68c0,-328.549 0,-971.806 0,-1300.36Z" style="fill:#f6f6f6;"/><rect id="Artboard2" x="0" y="0" width="1677.45" height="1707.72" style="fill:none;"/><g><g><path d="M510.31,607.584c0,-147.332 119.869,-267.217 267.217,-267.217c147.349,-0 267.218,119.885 267.218,267.217c-0,147.365 -119.869,267.25 -267.218,267.25c-147.348,0 -267.217,-119.885 -267.217,-267.25Zm520.01,324.767c-16.817,-8.104 -34.048,-14.92 -51.393,-21.34c98.133,-65.356 162.994,-176.907 162.994,-303.427c-0,-200.921 -163.456,-364.393 -364.394,-364.393c-200.937,-0 -364.393,163.472 -364.393,364.393c0,126.685 65.043,238.368 163.407,303.691c-222.59,82.124 -382.053,295.819 -382.053,546.582l97.176,-0c0,-267.911 217.953,-485.863 485.863,-485.863c73.823,-0 144.692,16.108 210.625,47.911l42.168,-87.554Z" style="fill:#365d97;fill-rule:nonzero;"/><path d="M1227.87,1391.64c-100.46,0 -182.188,-81.728 -182.188,-182.204c-0,-100.461 81.728,-182.189 182.188,-182.189c100.477,0 182.205,81.728 182.205,182.189c-0,100.476 -81.728,182.204 -182.205,182.204Zm-0,-437.275c-140.648,0 -255.07,114.423 -255.07,255.071c-0,140.68 114.422,255.086 255.07,255.086c140.664,0 255.087,-114.406 255.087,-255.086c-0,-140.648 -114.423,-255.071 -255.087,-255.071Z" style="fill:#f26343;fill-rule:nonzero;"/><path d="M1264.32,1085.94l-72.882,-0l-0,87.059l-87.059,-0l-0,72.882l87.059,-0l-0,87.091l72.882,0l-0,-87.091l87.092,-0l-0,-72.882l-87.092,-0l-0,-87.059Z" style="fill:#f26343;fill-rule:nonzero;"/></g></g></svg>