<?xml version="1.0" encoding="UTF-8" standalone="no"?><!DOCTYPE svg PUBLIC "-//W3C//DTD SVG 1.1//EN" "http://www.w3.org/Graphics/SVG/1.1/DTD/svg11.dtd"><svg width="100%" height="100%" viewBox="0 0 1678 1708" version="1.1" xmlns="http://www.w3.org/2000/svg" xmlns:xlink="http://www.w3.org/1999/xlink" xml:space="preserve" xmlns:serif="http://www.serif.com/" style="fill-rule:evenodd;clip-rule:evenodd;stroke-linejoin:round;stroke-miterlimit:2;"><path d="M1677.45,203.68c-0,-112.489 -91.191,-203.68 -203.68,-203.68c-322.6,0 -947.489,0 -1270.09,0c-112.489,-0 -203.68,91.191 -203.68,203.68l-0,1300.36c0,112.489 91.191,203.68 203.68,203.68l1270.09,0c112.489,0 203.68,-91.191 203.68,-203.68c0,-328.549 0,-971.806 0,-1300.36Z" style="fill:#f6f6f6;"/><rect id="Artboard2" x="0" y="0" width="1677.45" height="1707.72" style="fill:none;"/><g><g><path d="M838.725,1021.03c-77.991,-0 -141.449,-63.458 -141.449,-141.459c0,-77.991 63.458,-141.448 141.449,-141.448c78,0 141.448,63.457 141.448,141.448c0,78.001 -63.448,141.459 -141.448,141.459Zm106.378,19.29c52.078,-34.574 86.509,-93.691 86.509,-160.749c0,-106.367 -86.53,-192.888 -192.887,-192.888c-106.368,0 -192.888,86.521 -192.888,192.888c0,67.058 34.431,126.175 86.5,160.749c-117.829,43.477 -202.249,156.579 -202.249,289.326l51.459,-0c0,-141.814 115.364,-257.187 257.178,-257.187c141.823,-0 257.187,115.373 257.187,257.187l51.439,-0c-0,-132.747 -84.411,-245.849 -202.248,-289.326Z" style="fill:#365d97;fill-rule:nonzero;"/><path d="M1202.3,911.732c52.068,-34.584 86.499,-93.691 86.499,-160.748c0,-106.368 -86.52,-192.888 -192.887,-192.888c-51.531,0 -98.295,20.426 -132.929,53.458c-12.83,12.231 -23.905,26.206 -32.992,41.551c16.044,6.491 31.318,14.503 45.466,24.097c9.097,-14.797 20.791,-27.779 34.523,-38.316c23.843,-18.326 53.589,-29.351 85.932,-29.351c77.991,0 141.448,63.448 141.448,141.449c-0,64.745 -43.782,119.339 -103.254,136.063c-12.17,3.418 -24.949,5.385 -38.194,5.385c-4.554,0 -9.037,-0.264 -13.479,-0.68c-0.913,18.52 -3.834,36.481 -8.661,53.691c7.353,-0.628 14.614,-1.572 22.14,-1.572c10.446,0 20.689,0.812 30.81,2.029c127.311,15.294 226.377,123.781 226.377,255.148l51.429,0c0,-132.736 -84.401,-245.838 -202.228,-289.316Z" style="fill:#365d97;fill-rule:nonzero;"/><path d="M581.547,943.871c7.506,0 14.777,0.944 22.12,1.572c-4.828,-17.21 -7.728,-35.171 -8.651,-53.691c-4.442,0.416 -8.925,0.68 -13.469,0.68c-13.254,0 -26.033,-1.967 -38.204,-5.385c-59.471,-16.724 -103.254,-71.318 -103.254,-136.063c0,-78.001 63.448,-141.449 141.458,-141.449c32.323,0 62.079,11.025 85.923,29.351c13.732,10.537 25.425,23.519 34.522,38.316c14.148,-9.594 29.422,-17.606 45.466,-24.097c-9.077,-15.345 -20.162,-29.32 -33.001,-41.551c-34.635,-33.032 -81.389,-53.458 -132.91,-53.458c-106.377,0 -192.897,86.52 -192.897,192.888c-0,67.057 34.442,126.164 86.5,160.748c-117.828,43.478 -202.229,156.58 -202.229,289.316l51.429,0c0,-131.367 99.066,-239.854 226.387,-255.148c10.121,-1.217 20.355,-2.029 30.81,-2.029Z" style="fill:#365d97;fill-rule:nonzero;"/><path d="M1382.33,731.694c52.069,-34.574 86.5,-93.68 86.5,-160.738c-0,-106.368 -86.52,-192.888 -192.888,-192.888c-51.53,0 -98.284,20.426 -132.919,53.458c-12.839,12.231 -23.914,26.216 -33.001,41.551c16.044,6.491 31.318,14.503 45.466,24.097c9.097,-14.797 20.791,-27.779 34.523,-38.316c23.843,-18.326 53.589,-29.36 85.931,-29.36c77.991,-0 141.449,63.457 141.449,141.458c-0,56.997 -33.955,106.053 -82.656,128.406c2.17,12.2 3.509,24.685 3.509,37.494c-0,11.694 -1.258,23.063 -3.073,34.249c113.294,26.846 197.959,128.528 197.959,249.926l51.429,-0c-0,-132.747 -84.4,-245.849 -202.229,-289.337Z" style="fill:#f26443;fill-rule:nonzero;"/><path d="M339.209,736.856c-0,-12.809 1.338,-25.294 3.498,-37.494c-48.691,-22.353 -82.646,-71.409 -82.646,-128.406c0,-78.001 63.448,-141.458 141.449,-141.458c32.332,-0 62.078,11.034 85.921,29.36c13.733,10.537 25.436,23.519 34.523,38.316c14.158,-9.594 29.422,-17.606 45.476,-24.097c-9.077,-15.335 -20.172,-29.32 -33.011,-41.551c-34.625,-33.032 -81.378,-53.458 -132.909,-53.458c-106.358,0 -192.888,86.52 -192.888,192.888c0,67.058 34.431,126.164 86.51,160.738c-117.838,43.488 -202.239,156.59 -202.239,289.337l51.43,-0c-0,-121.398 84.654,-223.08 197.958,-249.926c-1.815,-11.186 -3.072,-22.555 -3.072,-34.249Z" style="fill:#f26443;fill-rule:nonzero;"/><path d="M838.725,429.498c68.772,-0 125.627,49.573 138.233,114.714c28.164,-16.978 48.488,-20.781 48.488,-20.781c-21.247,-83.416 -96.784,-145.363 -186.721,-145.363c-89.938,0 -165.465,61.947 -186.722,145.363c0,0 20.325,3.803 48.478,20.781c12.616,-65.141 69.472,-114.714 138.244,-114.714Z" style="fill:#f26443;fill-rule:nonzero;"/></g></g></svg>