<?xml version="1.0" encoding="UTF-8" standalone="no"?><!DOCTYPE svg PUBLIC "-//W3C//DTD SVG 1.1//EN" "http://www.w3.org/Graphics/SVG/1.1/DTD/svg11.dtd"><svg width="100%" height="100%" viewBox="0 0 1678 1708" version="1.1" xmlns="http://www.w3.org/2000/svg" xmlns:xlink="http://www.w3.org/1999/xlink" xml:space="preserve" xmlns:serif="http://www.serif.com/" style="fill-rule:evenodd;clip-rule:evenodd;stroke-linejoin:round;stroke-miterlimit:2;"><path d="M1677.45,203.68c-0,-112.489 -91.191,-203.68 -203.68,-203.68c-322.6,0 -947.489,0 -1270.09,0c-112.489,-0 -203.68,91.191 -203.68,203.68l-0,1300.36c0,112.489 91.191,203.68 203.68,203.68l1270.09,0c112.489,0 203.68,-91.191 203.68,-203.68c0,-328.549 0,-971.806 0,-1300.36Z" style="fill:#f6f6f6;"/><rect id="Artboard2" x="0" y="0" width="1677.45" height="1707.72" style="fill:none;"/><g><g><path d="M838.717,322.991c146.349,0 265.437,119.072 265.437,265.421c-0,146.383 -119.088,265.438 -265.437,265.438c-146.333,0 -265.438,-119.055 -265.438,-265.438c-0,-146.349 119.105,-265.421 265.438,-265.421Zm-0,627.381c199.6,0 361.96,-162.344 361.96,-361.96c-0,-199.584 -162.36,-361.96 -361.96,-361.96c-199.6,0 -361.961,162.376 -361.961,361.96c0,199.616 162.361,361.96 361.961,361.96Z" style="fill:#f26343;fill-rule:nonzero;"/><path d="M1127.88,931.964c-28.337,23.903 -59.789,44.038 -93.473,60.425c154.762,69.033 267.018,216.769 284.529,392.336l-960.433,-0c17.495,-175.567 129.751,-323.303 284.53,-392.336c-33.669,-16.387 -65.137,-36.522 -93.473,-60.425c-173.057,100.273 -289.977,287.058 -289.977,501.038l0,48.261l1158.29,0l-0,-48.261c-0,-213.98 -116.936,-400.765 -289.992,-501.038Z" style="fill:#365d97;fill-rule:nonzero;"/></g></g></svg>