<?xml version="1.0" encoding="UTF-8" standalone="no"?><!DOCTYPE svg PUBLIC "-//W3C//DTD SVG 1.1//EN" "http://www.w3.org/Graphics/SVG/1.1/DTD/svg11.dtd"><svg width="100%" height="100%" viewBox="0 0 2084 2084" version="1.1" xmlns="http://www.w3.org/2000/svg" xmlns:xlink="http://www.w3.org/1999/xlink" xml:space="preserve" xmlns:serif="http://www.serif.com/" style="fill-rule:evenodd;clip-rule:evenodd;stroke-linejoin:round;stroke-miterlimit:2;"><g id="freepik--Floor--inject-9" opacity="0.45"><ellipse id="freepik--floor--inject-9" cx="1041.67" cy="1548.97" rx="911.117" ry="526.033" style="fill:#f0f0f0;"/></g><g id="freepik--Envelopes--inject-9" opacity="0.45"><g id="freepik--Letter--inject-9"><path d="M484.17,485.805l-140.988,-81.392c-1.042,-0.783 -2.486,-0.783 -3.527,0c-0.832,0.714 -5.904,3.289 -6.776,3.963c-1.122,0.992 -1.686,2.476 -1.506,3.962l0,126.803c0.157,3.648 1.985,7.027 4.953,9.154l24.766,14.265l126.407,-72.991c-0.744,-1.536 -1.895,-2.838 -3.329,-3.764Z" style="fill:#ff725e;fill-rule:nonzero;"/><path d="M484.17,485.805l-140.988,-81.392c-1.042,-0.783 -2.486,-0.783 -3.527,0c-0.832,0.714 -5.904,3.289 -6.776,3.963c-1.122,0.992 -1.686,2.476 -1.506,3.962l0,126.803c0.157,3.648 1.985,7.027 4.953,9.154l24.766,14.265l126.407,-72.991c-0.744,-1.536 -1.895,-2.838 -3.329,-3.764Z" style="fill:#fff;fill-opacity:0.5;fill-rule:nonzero;"/><path d="M480.525,629.845c0.99,-0.595 6.102,-3.448 6.974,-3.963c1.155,-0.971 1.738,-2.466 1.545,-3.962l0,-126.803c-0.046,-1.961 -0.577,-3.881 -1.545,-5.587l-126.486,73.03l116.223,67.126c0.966,0.7 2.26,0.762 3.289,0.159Z" style="fill:#ff725e;fill-rule:nonzero;"/><path d="M480.525,629.845c0.99,-0.595 6.102,-3.448 6.974,-3.963c1.155,-0.971 1.738,-2.466 1.545,-3.962l0,-126.803c-0.046,-1.961 -0.577,-3.881 -1.545,-5.587l-126.486,73.03l116.223,67.126c0.966,0.7 2.26,0.762 3.289,0.159Z" style="fill-opacity:0.2;fill-rule:nonzero;"/><path d="M477.236,629.686l-140.91,-81.391c-2.981,-2.177 -4.784,-5.622 -4.874,-9.312l0,-126.803c0,-3.566 2.18,-5.231 4.874,-3.646l140.989,81.392c3.004,2.139 4.815,5.585 4.874,9.272l0,126.803c-0.079,3.566 -2.259,5.231 -4.953,3.685Z" style="fill:#ff725e;fill-rule:nonzero;"/><path d="M482.11,626.001l-0,-2.496l-58.29,-96.608l57.537,-31.701c-0,-0.357 -0.277,-0.713 -0.436,-1.07l-71.683,29.72c-1.506,0.634 -3.487,-0.476 -4.993,-2.853l-71.604,-112.498l-0.436,0.475l57.458,98.233l-58.29,29.283l0,2.497c0.045,2.001 0.547,3.967 1.466,5.745l59.796,-32.453l8.48,14.463c3.328,5.706 7.925,8.361 11.293,6.499l8.44,-4.676l59.677,101.284c1.12,-0.947 1.712,-2.382 1.585,-3.844Z" style="fill-opacity:0.2;fill-rule:nonzero;"/><path d="M800.345,683.498l-295.648,-180.258l-0,18.902l295.648,161.356Z" style="fill:#e0e0e0;fill-rule:nonzero;"/><path d="M692.761,738.539l-188.025,-118.403l-0.039,0.04l-0,18.743l188.064,99.62Z" style="fill:#e0e0e0;fill-rule:nonzero;"/><path d="M504.736,561.688l-0.039,0.04l-0,18.822l238.349,128.943l-238.31,-147.805Z" style="fill:#e0e0e0;fill-rule:nonzero;"/></g><g id="freepik--letter--inject-9"><path d="M795.986,396.369l-140.83,-81.391c-1.049,-0.804 -2.517,-0.804 -3.566,-0c-0.793,0.673 -5.905,3.249 -6.776,3.962c-1.12,0.992 -1.671,2.481 -1.466,3.963l-0,126.803c0.046,3.7 1.859,7.165 4.873,9.312l24.925,14.107l126.486,-73.071c-0.859,-1.536 -2.119,-2.81 -3.646,-3.685Z" style="fill:#ff725e;fill-rule:nonzero;"/><path d="M795.986,396.369l-140.83,-81.391c-1.049,-0.804 -2.517,-0.804 -3.566,-0c-0.793,0.673 -5.905,3.249 -6.776,3.962c-1.12,0.992 -1.671,2.481 -1.466,3.963l-0,126.803c0.046,3.7 1.859,7.165 4.873,9.312l24.925,14.107l126.486,-73.071c-0.859,-1.536 -2.119,-2.81 -3.646,-3.685Z" style="fill:#fff;fill-opacity:0.5;fill-rule:nonzero;"/><path d="M792.499,540.409c0.951,-0.634 6.063,-3.447 6.935,-3.962c1.154,-0.971 1.738,-2.467 1.545,-3.963l0,-126.803c-0.046,-1.961 -0.577,-3.881 -1.545,-5.587l-126.288,73.031l116.223,67.086c0.929,0.629 2.13,0.705 3.13,0.198Z" style="fill:#ff725e;fill-rule:nonzero;"/><path d="M792.499,540.409c0.951,-0.634 6.063,-3.447 6.935,-3.962c1.154,-0.971 1.738,-2.467 1.545,-3.963l0,-126.803c-0.046,-1.961 -0.577,-3.881 -1.545,-5.587l-126.288,73.031l116.223,67.086c0.929,0.629 2.13,0.705 3.13,0.198Z" style="fill-opacity:0.2;fill-rule:nonzero;"/><path d="M789.171,540.211l-140.95,-81.391c-3.014,-2.148 -4.827,-5.612 -4.873,-9.312l-0,-126.803c-0,-3.606 2.179,-5.231 4.873,-3.685l140.95,81.391c3.014,2.147 4.827,5.611 4.874,9.312l-0,126.803c-0,3.606 -2.021,5.231 -4.874,3.685Z" style="fill:#ff725e;fill-rule:nonzero;"/><path d="M794.045,536.526l-0,-2.497l-58.29,-96.568l57.537,-31.7c-0,-0.357 -0.278,-0.714 -0.396,-1.031l-71.723,29.878c-1.506,0.634 -3.448,-0.515 -4.993,-2.893l-71.564,-112.537c-0.166,0.139 -0.312,0.299 -0.436,0.476l57.457,98.232l-58.289,29.284l-0,2.496c0.02,2.005 0.523,3.976 1.466,5.746l59.755,-32.454l8.48,14.464c3.369,5.745 7.926,8.4 11.294,6.538l8.48,-4.716l59.676,101.324c1.15,-1.009 1.729,-2.524 1.546,-4.042Z" style="fill-opacity:0.2;fill-rule:nonzero;"/><path d="M1112.32,594.063l-295.649,-180.298l0,18.902l295.649,161.396Z" style="fill:#e0e0e0;fill-rule:nonzero;"/><path d="M1004.74,649.063l-188.064,-118.362l0,18.743l188.064,99.619Z" style="fill:#e0e0e0;fill-rule:nonzero;"/><path d="M816.671,472.253l0,18.822l238.31,128.982l-238.31,-147.804Z" style="fill:#e0e0e0;fill-rule:nonzero;"/></g><g id="freepik--letter--inject-91" serif:id="freepik--letter--inject-9"><path d="M535.248,768.733l-140.989,-81.391c-1.041,-0.784 -2.485,-0.784 -3.526,-0c-0.833,0.713 -5.905,3.249 -6.776,3.963c-1.123,0.991 -1.686,2.475 -1.506,3.962l-0,126.803c0.089,3.69 1.893,7.135 4.874,9.312l24.766,14.265l126.327,-73.228c-0.718,-1.484 -1.811,-2.754 -3.17,-3.686Z" style="fill:#ff725e;fill-rule:nonzero;"/><path d="M535.248,768.733l-140.989,-81.391c-1.041,-0.784 -2.485,-0.784 -3.526,-0c-0.833,0.713 -5.905,3.249 -6.776,3.963c-1.123,0.991 -1.686,2.475 -1.506,3.962l-0,126.803c0.089,3.69 1.893,7.135 4.874,9.312l24.766,14.265l126.327,-73.228c-0.718,-1.484 -1.811,-2.754 -3.17,-3.686Z" style="fill:#fff;fill-opacity:0.5;fill-rule:nonzero;"/><path d="M531.603,912.773c0.951,-0.634 6.102,-3.447 6.974,-3.962c1.154,-0.971 1.737,-2.466 1.545,-3.963l0,-126.802c-0.049,-1.974 -0.58,-3.906 -1.545,-5.627l-126.486,73.07l116.223,67.126c0.966,0.699 2.26,0.762 3.289,0.158Z" style="fill:#ff725e;fill-rule:nonzero;"/><path d="M531.603,912.773c0.951,-0.634 6.102,-3.447 6.974,-3.962c1.154,-0.971 1.737,-2.466 1.545,-3.963l0,-126.802c-0.049,-1.974 -0.58,-3.906 -1.545,-5.627l-126.486,73.07l116.223,67.126c0.966,0.699 2.26,0.762 3.289,0.158Z" style="fill-opacity:0.2;fill-rule:nonzero;"/><path d="M528.314,912.615l-140.989,-81.392c-2.981,-2.176 -4.785,-5.622 -4.874,-9.312l-0,-126.802c-0,-3.567 2.179,-5.231 4.874,-3.686l140.989,81.432c3.003,2.138 4.815,5.585 4.874,9.272l-0,126.803c-0,3.566 -2.18,5.23 -4.874,3.685Z" style="fill:#ff725e;fill-rule:nonzero;"/><path d="M533.188,908.93l-0,-2.497l-58.171,-96.608l57.537,-31.7c-0,-0.357 -0.278,-0.713 -0.436,-1.07l-71.683,29.878c-1.506,0.634 -3.488,-0.476 -4.993,-2.893l-71.565,-112.617c-0.174,0.13 -0.322,0.291 -0.436,0.476l57.458,98.232l-58.29,29.284l0,2.496c0.044,1.99 0.546,3.942 1.466,5.706l59.796,-32.453l8.44,14.463c3.368,5.746 7.925,8.401 11.294,6.539l8.48,-4.676l59.676,101.283c1.062,-0.978 1.593,-2.409 1.427,-3.843Z" style="fill-opacity:0.2;fill-rule:nonzero;"/><path d="M851.423,966.427l-295.649,-180.258l0,18.901l295.649,161.357Z" style="fill:#e0e0e0;fill-rule:nonzero;"/><path d="M743.839,1021.47l-188.065,-118.402l0,18.743l188.065,99.659Z" style="fill:#e0e0e0;fill-rule:nonzero;"/><path d="M555.814,844.617l-0.04,0.04l0,18.822l238.35,128.942l-238.31,-147.804Z" style="fill:#e0e0e0;fill-rule:nonzero;"/></g></g><g id="freepik--Character--inject-9" opacity="0.45"><g id="freepik--character--inject-9"><path d="M1522.68,1835.82c0.277,11.888 -1.387,24.846 -11.491,33.405c-20.923,17.832 -60.787,9.708 -80.045,-0.555c-23.339,-12.403 -33.761,-31.502 -51.513,-42.4c-10.6,-5.771 -21.637,-10.7 -33.009,-14.74c-8.916,-3.686 -18.386,-6.975 -20.249,-17.951c-0.435,-3.288 -0.435,-6.619 0,-9.906c0.063,-1.35 0.317,-2.684 0.753,-3.963c0.792,-1.692 1.99,-3.162 3.487,-4.28c7.014,-5.666 16.564,-6.855 25.52,-7.925c6.157,-0.864 12.395,-0.997 18.584,-0.396c6.89,1.11 13.57,3.261 19.813,6.38l22.587,10.937l45.173,21.952l60.39,29.442Z" style="fill:#37474f;fill-rule:nonzero;"/><path d="M1341.79,1707.87c5.31,-7.925 17.277,-4.636 25.836,-3.962c11.454,1.033 22.809,2.967 33.959,5.785c6.618,1.704 15.375,4.478 18.743,10.937c3.963,7.925 6.182,16.643 10.184,24.528c6.53,11.494 15.598,21.347 26.51,28.808c10.58,7.925 21.913,14.702 31.899,23.261c5.933,5.034 11.361,10.634 16.207,16.722c5.135,5.978 8.98,12.953 11.293,20.486c2.18,7.926 1.783,19.219 -4.438,25.242c-6.768,5.749 -15.196,9.192 -24.053,9.827c-16.821,0.917 -33.597,-2.523 -48.7,-9.985c-13.909,-6.895 -24.647,-18.347 -35.346,-29.284c-4.579,-5.32 -9.781,-10.069 -15.494,-14.146c-6.065,-3.578 -12.413,-6.653 -18.981,-9.194c-12.125,-5.151 -24.568,-10.144 -34.989,-18.386c-2.317,-1.655 -4.25,-3.791 -5.667,-6.261c-1.273,-3.109 -1.75,-6.487 -1.387,-9.827c1.079,-10.456 3.517,-20.726 7.252,-30.552c1.662,-5.064 2.817,-10.28 3.447,-15.573c0.094,-5.364 0.894,-10.694 2.378,-15.85c0.357,-0.903 0.809,-1.767 1.347,-2.576Z" style="fill:#ff725e;fill-rule:nonzero;"/><path d="M1439.15,1861.06c-4.476,-1.776 -8.527,-4.477 -11.888,-7.925c-0,-13.75 1.783,-25.004 9.946,-36.852c9.946,-14.424 26.51,-22.032 44.024,-25.044c11.888,2.655 17.317,3.765 26.748,12.284c8.192,7.323 13.9,17.022 16.326,27.738c2.093,11.426 -2.649,23.081 -12.126,29.799c-7.498,5.426 -16.252,8.862 -25.44,9.986c-17.395,1.466 -28.768,-1.229 -47.59,-9.986Z" style="fill:#fafafa;fill-rule:nonzero;"/><path d="M1346.79,1753.95c-0,0 -10.184,-3.13 -21.319,-28.451c-4.035,-9.667 -5.771,-20.14 -5.072,-30.591c0.856,-24.809 -9.801,-48.671 -28.848,-64.59c-32.283,-27.351 -59.813,-59.863 -81.47,-96.212c-28.056,-45.966 -32.573,35.029 38.476,114.202c0,-0 -6.776,-0.793 -25.955,-13.592c-11.135,-7.41 -21.754,-17.832 -31.7,-25.123c-20.328,-14.899 -4.201,49.691 59.835,88.009c-0,0 -24.965,-2.774 -40.656,-9.827c-15.692,-7.053 -8.797,19.456 28.609,39.23c20.629,10.416 42.434,18.319 64.947,23.537c11.168,2.651 21.546,7.922 30.274,15.375l8.163,6.974l4.716,-18.941Z" style="fill:#ff725e;fill-rule:nonzero;"/><path d="M1346.79,1753.95c-0,0 -10.184,-3.13 -21.319,-28.451c-4.035,-9.667 -5.771,-20.14 -5.072,-30.591c0.856,-24.809 -9.801,-48.671 -28.848,-64.59c-32.283,-27.351 -59.813,-59.863 -81.47,-96.212c-28.056,-45.966 -32.573,35.029 38.476,114.202c0,-0 -6.776,-0.793 -25.955,-13.592c-11.135,-7.41 -21.754,-17.832 -31.7,-25.123c-20.328,-14.899 -4.201,49.691 59.835,88.009c-0,0 -24.965,-2.774 -40.656,-9.827c-15.692,-7.053 -8.797,19.456 28.609,39.23c20.629,10.416 42.434,18.319 64.947,23.537c11.168,2.651 21.546,7.922 30.274,15.375l8.163,6.974l4.716,-18.941Z" style="fill:#fff;fill-opacity:0.6;fill-rule:nonzero;"/><path d="M1248.55,1648.31c-41.924,-53.693 -55.872,-124.98 -47.788,-125.773c-18.704,-14.107 -14.385,56.507 47.788,125.773Z" style="fill-opacity:0.1;fill-rule:nonzero;"/><path d="M1190.9,1609.59c-20.328,-14.899 -4.201,49.691 59.835,88.009c-48.106,-35.98 -65.145,-85.79 -59.835,-88.009Z" style="fill-opacity:0.1;fill-rule:nonzero;"/><path d="M1292.86,1747.73c-18.069,-8.837 -40.498,-18.466 -56.506,-29.284c-20.289,-13.71 -32.058,-28.055 -30.988,-31.7c-0.197,-0.023 -0.397,-0.023 -0.594,-0c-0.317,0.045 -0.624,0.138 -0.912,0.277l-0.515,0.396c-0.191,0.166 -0.364,0.352 -0.515,0.555c-0.116,0.2 -0.209,0.413 -0.277,0.634l-0.238,0.793c-0.02,0.277 -0.02,0.555 -0,0.832l-0,2.06c0.1,0.471 0.233,0.935 0.396,1.387l0.357,1.031c0.244,0.609 0.522,1.204 0.832,1.783l0.475,0.99c0.555,0.951 1.15,1.982 1.863,3.012l0.277,0.357c0.672,1.017 1.399,1.996 2.18,2.932l0.99,1.149l2.021,2.298l1.348,1.387c0.713,0.714 1.466,1.466 2.298,2.219l1.624,1.466c0.833,0.753 1.704,1.467 2.616,2.22l1.862,1.505l3.051,2.299c0.674,0.475 1.308,0.951 2.021,1.387c0.714,0.435 2.497,1.664 3.963,2.496l1.862,1.189c1.982,1.189 3.963,2.417 6.301,3.566c17.269,8.853 35.444,15.815 54.208,20.764Z" style="fill-opacity:0.1;fill-rule:nonzero;"/><path d="M1266.19,1041.24l121.374,3.962c-0,0 64.828,257.251 60.152,345.339c-4.914,91.932 -35.267,328.578 -35.267,328.578c-0.753,14.028 -67.364,10.501 -66.492,-3.487c-0,0 -3.963,-38.08 -5.271,-55.08c-5.23,-65.739 -9.391,-87.692 -14.701,-143.683c-7.053,-74.259 0,-94.865 1.348,-123.673c-0,0 -67.166,-164.883 -94.706,-256.458c-16.168,-53.614 23.775,-75.844 33.563,-95.498Z" style="fill:#ffa8a7;fill-rule:nonzero;"/><path d="M1345.12,1748.64c8.329,5.408 13.58,14.493 14.106,24.41c0,8.955 -6.3,12.601 -14.106,8.123c-8.305,-5.425 -13.537,-14.504 -14.068,-24.409c-0.119,-8.956 6.301,-12.601 14.068,-8.124Z" style="fill:#455a64;fill-rule:nonzero;"/><path d="M1345.12,1757.6c3.649,2.389 5.948,6.382 6.181,10.738c0,3.963 -2.774,5.548 -6.181,3.567c-3.65,-2.39 -5.949,-6.383 -6.182,-10.739c-0.079,-3.566 2.774,-5.349 6.182,-3.566Z" style="fill:#37474f;fill-rule:nonzero;"/><path d="M654.086,1469.79c-5.879,-1.143 -11.233,-4.161 -15.256,-8.599c-4.953,-5.191 -5.785,-33.84 13.988,-62.331c15.275,-21.402 35.969,-38.363 59.954,-49.136c14.899,-7.212 23.538,-19.219 33.167,-33.405c9.629,-14.186 28.451,-29.006 37.882,-28.491c9.431,0.515 22.627,11.888 22.627,11.888l-152.362,170.074Z" style="fill:#37474f;fill-rule:nonzero;"/><path d="M830.263,1401.2l-0.238,1.704c-0.196,1.867 -0.805,3.668 -1.783,5.27c-2.677,2.85 -6.433,4.447 -10.343,4.398c-16.801,2.021 -32.612,3.963 -47.947,11.452c-14.146,7.164 -26.917,16.769 -37.724,28.372c-4.222,4.751 -8.693,9.275 -13.393,13.552c-5.27,4.439 -11.095,5.905 -16.92,9.194c-4.134,2.216 -8.585,3.78 -13.196,4.636c-3.811,0.824 -7.718,1.117 -11.61,0.872c-8.799,-0.469 -17.077,-4.352 -23.063,-10.818c-3.239,-3.511 -5.123,-8.065 -5.309,-12.839c-0.555,-15.018 9.351,-48.978 37.882,-75.566c15.533,-14.504 38.239,-14.385 58.567,-40.538c10.303,-13.235 33.959,-43.152 51.514,-46.481c7.925,-1.506 21.16,11.175 25.875,16.366c7.093,7.925 14.424,17.554 22.904,23.775c2.989,1.841 5.755,4.022 8.242,6.499c7.925,9.431 -8.282,14.899 -13.116,20.566c-8.955,10.619 -8.52,26.549 -10.342,39.586Z" style="fill:#ff725e;fill-rule:nonzero;"/><path d="M848.768,1345.49c67.958,-14.345 160.643,-49.414 229.513,-34.276c19.813,-107.307 43.985,-211.167 76.953,-310.945c44.659,-9.906 88.96,-19.02 134.015,-28.847c15.85,65.026 25.281,117.451 1.347,184.617c-25.677,71.921 -65.026,157.314 -97.242,226.184c-24.409,52.187 -55.753,46.6 -112.814,44.817c-66.849,-2.1 -189.769,-13.433 -247.385,-17.435c-31.502,2.179 -19.297,-59.796 15.613,-64.115Z" style="fill:#ffa8a7;fill-rule:nonzero;"/><path d="M1078.16,1311.05c-32.493,-7.133 -70.296,-3.091 -108.297,4.676c43.588,-5.112 93.2,-2.497 96.766,15.454c5.429,27.461 19.813,36.852 19.813,36.852c-14.82,-18.149 -9.114,-52.584 -8.282,-56.982Z" style="fill-opacity:0.2;fill-rule:nonzero;"/><path d="M675.524,1393.04c-0,-0 18.069,4.24 39.348,22.468c12.293,9.575 18.138,25.342 15.058,40.616c-3.08,15.275 -15.85,28.729 -46.996,26.391c-25.361,-1.902 -34.197,-14.305 -34.197,-14.305c-0,0 -6.658,-14.86 2.694,-38.001c5.544,-13.835 13.728,-26.459 24.093,-37.169Z" style="fill:#fafafa;fill-rule:nonzero;"/><path d="M797.413,1359.67c-0,-0 2.1,-10.461 26.193,-24.013c9.24,-4.918 19.494,-7.63 29.957,-7.926c24.774,-1.605 47.465,-14.575 61.42,-35.108c24.044,-34.773 53.691,-65.317 87.731,-90.387c42.955,-32.493 -38.08,-29.006 -109.882,49.533c-0,-0 -0,-6.816 10.976,-27.184c6.261,-11.887 15.613,-23.419 21.874,-33.999c12.799,-21.715 -49.85,0.714 -81.669,68.236c-0,0 0.317,-25.123 5.746,-41.449c5.428,-16.325 -20.21,-6.855 -36.179,32.335c-8.35,21.554 -14.058,44.041 -16.999,66.968c-1.562,11.394 -5.799,22.258 -12.364,31.701l-6.102,8.757l19.298,2.536Z" style="fill:#ff725e;fill-rule:nonzero;"/><path d="M797.413,1359.67c-0,-0 2.1,-10.461 26.193,-24.013c9.24,-4.918 19.494,-7.63 29.957,-7.926c24.774,-1.605 47.465,-14.575 61.42,-35.108c24.044,-34.773 53.691,-65.317 87.731,-90.387c42.955,-32.493 -38.08,-29.006 -109.882,49.533c-0,-0 -0,-6.816 10.976,-27.184c6.261,-11.887 15.613,-23.419 21.874,-33.999c12.799,-21.715 -49.85,0.714 -81.669,68.236c-0,0 0.317,-25.123 5.746,-41.449c5.428,-16.325 -20.21,-6.855 -36.179,32.335c-8.35,21.554 -14.058,44.041 -16.999,66.968c-1.562,11.394 -5.799,22.258 -12.364,31.701l-6.102,8.757l19.298,2.536Z" style="fill:#fff;fill-opacity:0.6;fill-rule:nonzero;"/><path d="M892.832,1251.65c49.295,-47.036 118.878,-67.919 120.463,-59.994c12.204,-19.971 -57.656,-8.638 -120.463,59.994Z" style="fill-opacity:0.1;fill-rule:nonzero;"/><path d="M925.682,1190.47c12.799,-21.715 -49.85,0.713 -81.669,68.235c31.225,-51.434 78.776,-73.308 81.669,-68.235Z" style="fill-opacity:0.1;fill-rule:nonzero;"/><path d="M798.285,1305.55c7.013,-18.822 14.384,-42.122 23.577,-59.122c11.65,-21.556 24.766,-34.633 28.57,-33.999c-0.041,-0.18 -0.108,-0.353 -0.198,-0.515c-0.063,-0.323 -0.184,-0.631 -0.357,-0.911c-0.113,-0.174 -0.262,-0.323 -0.435,-0.436c-0.17,-0.191 -0.371,-0.352 -0.595,-0.476c-0.215,-0.103 -0.441,-0.182 -0.673,-0.237c-0.276,-0.045 -0.557,-0.045 -0.833,-0l-0.832,-0l-1.07,0.198l-0.951,0.237l-1.307,0.555l-1.031,0.476l-1.664,0.99l-0.951,0.555c-0.911,0.634 -1.823,1.347 -2.813,2.14c-0.116,0.095 -0.222,0.202 -0.317,0.317c-0.872,0.753 -1.783,1.545 -2.695,2.457l-1.07,1.07c-0.673,0.753 -1.387,1.466 -2.1,2.298c-0.713,0.832 -0.792,0.951 -1.189,1.466l-2.021,2.497l-1.307,1.743l-1.942,2.813l-1.308,2.021c-0.673,1.031 -1.307,2.14 -1.981,3.289l-1.189,2.101c-0.713,1.307 -1.426,2.654 -2.1,3.962c-0.356,0.674 -0.673,1.308 -0.99,1.981c-1.031,2.101 -2.021,4.32 -2.933,6.618c-7.087,18.035 -12.215,36.78 -15.295,55.912Z" style="fill-opacity:0.1;fill-rule:nonzero;"/><path d="M775.222,1352.82c4.99,-8.642 13.848,-14.37 23.776,-15.375c8.995,-0.476 12.958,5.627 8.876,13.631c-4.999,8.632 -13.852,14.357 -23.775,15.375c-8.996,0.475 -12.958,-5.627 -8.877,-13.631Z" style="fill:#455a64;fill-rule:nonzero;"/><path d="M784.297,1352.3c2.214,-3.744 6.061,-6.24 10.382,-6.737c3.962,0 5.706,2.497 3.962,5.984c-2.174,3.77 -6.017,6.288 -10.342,6.776c-4.2,0.198 -5.785,-2.497 -4.002,-6.023Z" style="fill:#37474f;fill-rule:nonzero;"/><path d="M1132.81,1032.13c-13.328,39.154 -24.441,79.028 -33.286,119.432c-12.799,60.826 -27.975,139.404 -27.975,139.404c-0,-0 30.551,60.588 140.632,59.201l57.101,-102.592l42.677,112.776c-0,-0 86.265,9.906 135.996,-41.568c-0.793,-6.499 -41.925,-217.348 -56.982,-276.549l-258.163,-10.104Z" style="fill:#ff725e;fill-rule:nonzero;"/><path d="M1269.28,1247.57l36.574,-67.364c14.554,-2.977 28.432,-8.619 40.934,-16.642c12.502,-8.024 -7.054,16.088 -30.71,28.847c-2.14,3.606 -30.274,59.835 -30.274,59.835l26.311,108.1l-42.835,-112.776Z" style="fill:#263238;fill-opacity:0.15;fill-rule:nonzero;"/><path d="M1118.38,925.652c0,-0 69.544,-38.12 97.638,-79.45l22.349,24.528c0,0 -52.821,62.451 -110.714,84.76l-9.273,-29.838Z" style="fill:#ff725e;fill-rule:nonzero;"/><path d="M1118.38,925.652c0,-0 69.544,-38.12 97.638,-79.45l22.349,24.528c0,0 -52.821,62.451 -110.714,84.76l-9.273,-29.838Z" style="fill-opacity:0.3;fill-rule:nonzero;"/><path d="M782.632,1063.55c3.487,-23.776 19.813,-35.663 67.364,-82.62c47.551,-46.957 85.196,-77.627 129.498,-78.222c44.301,-0.594 132.112,8.243 138.888,22.944c6.776,14.701 -138.888,161.039 -138.888,161.039l-196.862,-23.141Z" style="fill:#ff725e;fill-rule:nonzero;"/><path d="M782.632,1063.55c3.487,-23.776 19.813,-35.663 67.364,-82.62c47.551,-46.957 85.196,-77.627 129.498,-78.222c44.301,-0.594 132.112,8.243 138.888,22.944c6.776,14.701 -138.888,161.039 -138.888,161.039l-196.862,-23.141Z" style="fill-opacity:0.2;fill-rule:nonzero;"/><path d="M979.494,1086.69l148.042,-131.399l-9.154,-29.64l-149.904,135.758l11.016,25.281Z" style="fill:#ff725e;fill-rule:nonzero;"/><path d="M979.494,1086.69l148.042,-131.399l-9.154,-29.64l-149.904,135.758l11.016,25.281Z" style="fill-opacity:0.4;fill-rule:nonzero;"/><path d="M1127.54,955.292c1.268,-1.149 2.1,-12.561 2.496,-14.543c2.084,-10.117 2.432,-20.515 1.031,-30.749c-2.908,-22.134 -19.567,-40.131 -41.409,-44.738c-5.939,-1.877 -12.413,-1.035 -17.674,2.298c-5.864,4.597 -6.498,13.037 -8.242,20.289c-4.557,18.782 -19.218,33.563 -35.386,44.103c-16.167,10.541 -34.276,17.792 -50.84,27.738c-10.223,6.246 -19.972,13.24 -29.164,20.923c-4.386,3.187 -8.08,7.231 -10.858,11.888c-2.778,4.744 -2.655,10.67 0.317,15.295c2.181,2.383 4.771,4.356 7.648,5.825c15.533,9.669 30.67,29.403 23.023,47.868l11.016,25.282l148.042,-131.479Z" style="fill:#ff725e;fill-rule:nonzero;"/><path d="M1127.54,955.292c1.268,-1.149 2.1,-12.561 2.496,-14.543c2.084,-10.117 2.432,-20.515 1.031,-30.749c-2.908,-22.134 -19.567,-40.131 -41.409,-44.738c-5.939,-1.877 -12.413,-1.035 -17.674,2.298c-5.864,4.597 -6.498,13.037 -8.242,20.289c-4.557,18.782 -19.218,33.563 -35.386,44.103c-16.167,10.541 -34.276,17.792 -50.84,27.738c-10.223,6.246 -19.972,13.24 -29.164,20.923c-4.386,3.187 -8.08,7.231 -10.858,11.888c-2.778,4.744 -2.655,10.67 0.317,15.295c2.181,2.383 4.771,4.356 7.648,5.825c15.533,9.669 30.67,29.403 23.023,47.868l11.016,25.282l148.042,-131.479Z" style="fill-opacity:0.4;fill-rule:nonzero;"/><path d="M979.494,1086.69c-37.605,21.636 -79.569,54.446 -114.915,48.304c-35.347,-6.142 -102.354,-67.126 -76.399,-78.38c25.955,-11.253 180.139,4.795 180.139,4.795l11.175,25.281Z" style="fill:#ff725e;fill-rule:nonzero;"/><path d="M979.494,1086.69c-37.605,21.636 -79.569,54.446 -114.915,48.304c-35.347,-6.142 -102.354,-67.126 -76.399,-78.38c25.955,-11.253 180.139,4.795 180.139,4.795l11.175,25.281Z" style="fill-opacity:0.4;fill-rule:nonzero;"/><path d="M1453.78,1013.23c22.586,6.697 56.149,14.662 81.47,19.813c63.164,13.116 91.14,10.857 107.624,-11.293c26.51,-35.386 12.839,-44.619 -21.794,-43.589c-14.496,0.619 -29.009,-0.794 -43.113,-4.2c6.98,-2.001 13.648,-4.961 19.813,-8.797c9.589,-6.895 8.52,-15.85 6.34,-19.615c-1.704,-2.813 -8.401,1.942 -21.636,3.408c-16.92,1.862 -27.064,-2.18 -44.301,4.319c-6.42,2.378 -18.823,5.191 -40.736,-0.357c-25.638,-6.538 -115.628,-52.781 -115.628,-52.781l-30.987,83.214c-0,0 69.107,19.813 102.948,29.878Z" style="fill:#ffa8a7;fill-rule:nonzero;"/><path d="M1346.79,689.521c29.402,-1.783 68.156,13.196 77.746,48.225c11.016,40.181 -21.517,139.047 -21.517,139.047l-56.229,-187.272Z" style="fill:#ffa8a7;fill-rule:nonzero;"/><path d="M1359.47,689.363c19.456,-2.173 38.86,4.783 52.504,18.822c24.727,24.013 16.326,61.262 14.662,82.065c-1.664,20.804 -21.557,90.704 -21.557,90.704l-45.609,-191.591Z" style="fill:#e0e0e0;fill-rule:nonzero;"/><path d="M1180.36,688.372c-17.039,5.548 -34.593,22.627 -31.066,84.324c3.724,65.581 4.953,175.978 4.953,175.978c-0.832,20.17 -11.65,45.808 -21.398,83.453c33.127,44.301 215.564,53.059 258.162,10.104c0,0 25.519,-155.254 21.042,-248.058c-2.774,-56.387 -11.888,-97.995 -65.383,-104.652l-93.676,-6.181c0,-0 -55.397,-0.555 -72.634,5.032Z" style="fill:#f0f0f0;fill-rule:nonzero;"/><path d="M1227.91,569.732c0,0 10.937,56.784 15.573,66.176c3.108,5.8 8.332,10.186 14.583,12.244l-0,-39.626l-30.156,-38.794Z" style="fill:#263238;fill-rule:nonzero;"/><path d="M1244.59,489.014c-8.501,-1.182 -17.087,1.646 -23.221,7.648c-10.105,9.946 -5.35,41.766 6.538,73.07l22.627,3.052l-5.944,-83.77Z" style="fill:#263238;fill-rule:nonzero;"/><path d="M1257.35,572.784c-4.596,2.615 -10.897,-6.261 -16.405,-12.205c-5.508,-5.944 -23.775,-14.345 -33.127,4.715c-9.352,19.06 7.172,45.649 21.477,50.484c24.687,8.242 28.729,-7.609 28.729,-7.609l-0,89.634c10.501,12.165 52.029,54.644 71.326,54.01c19.298,-0.634 16.287,-44.42 9.59,-54.842l0.436,-27.263c-0,0 22.428,3.963 33.444,2.378c18.307,-2.457 30.076,-16.643 36.02,-36.337c9.51,-31.701 13.393,-57.14 7.053,-119.749c-6.974,-68.593 -86.582,-70.851 -130.091,-44.619c-43.51,26.232 -28.452,101.403 -28.452,101.403Z" style="fill:#ffa8a7;fill-rule:nonzero;"/><path d="M1257.23,580.709c-2.298,-0 -10.738,-14.622 -16.286,-19.813c-7.648,-7.252 3.487,-70.732 3.646,-71.723c0.158,-0.991 -1.229,-4.715 -1.229,-6.499c0.031,-3.522 0.689,-7.011 1.942,-10.302c2.58,-6.737 6.951,-12.643 12.641,-17.079c9.838,-7.008 21.186,-11.609 33.127,-13.433c12.601,-2.351 25.33,-3.952 38.12,-4.795c16.02,-1.832 32.214,-1.499 48.145,0.991c5.058,0.883 9.984,2.4 14.662,4.517c4.569,2.272 8.853,5.078 12.759,8.361c7.694,6.291 13.111,14.94 15.415,24.608c2.576,9.351 -5.231,13.789 -13.354,16.246c-0,0 -8.52,7.291 -37.684,10.263c-29.165,2.972 -74.378,-2.139 -80.56,-3.09c-8.4,-1.308 -10.382,6.815 -15.335,29.085c-4.398,19.377 -8.321,52.663 -16.009,52.663Z" style="fill:#263238;fill-rule:nonzero;"/><path d="M1339.5,669.867c-0,-0 -40.617,-8.995 -54.724,-16.841c-8.282,-4.52 -15.019,-11.424 -19.337,-19.813c2.002,8.383 5.668,16.28 10.778,23.221c10.144,13.552 63.164,20.883 63.164,20.883l0.119,-7.45Z" style="fill:#f28f8f;fill-rule:nonzero;"/><path d="M1331.73,564.185c0,0.013 0,0.026 0,0.04c0,4.521 -3.721,8.242 -8.242,8.242c-0.027,-0 -0.053,-0 -0.079,-0c-4.543,-0.234 -8.104,-4.134 -7.926,-8.679c0.107,-4.403 3.759,-7.967 8.163,-7.967c4.48,0 8.166,3.686 8.166,8.166c-0,0.066 -0.001,0.132 -0.003,0.198l-0.079,-0Z" style="fill:#263238;fill-rule:nonzero;"/><path d="M1316.55,537.12l-17.673,9.312c-2.366,-4.956 -0.464,-10.973 4.319,-13.671c1.413,-0.759 2.993,-1.157 4.598,-1.157c3.731,-0 7.145,2.151 8.756,5.516Z" style="fill:#263238;fill-rule:nonzero;"/><path d="M1336.76,620.731l18.506,7.37c-1.348,3.93 -5.067,6.585 -9.221,6.585c-1.225,0 -2.439,-0.231 -3.578,-0.68c-5.128,-2.162 -7.667,-8.067 -5.707,-13.275Z" style="fill:#f28f8f;fill-rule:nonzero;"/><path d="M1409.91,546.512l-15.851,-12.601c1.826,-2.505 4.746,-3.989 7.845,-3.989c2.204,-0 4.343,0.75 6.064,2.126c4.357,3.522 5.215,9.917 1.942,14.464Z" style="fill:#263238;fill-rule:nonzero;"/><path d="M1399.73,563.154c-0.272,4.275 -3.864,7.645 -8.147,7.645c-4.478,0 -8.162,-3.685 -8.162,-8.163c-0,-4.478 3.684,-8.163 8.162,-8.163c0.074,0 0.148,0.001 0.222,0.003c4.551,0.213 8.125,4.126 7.925,8.678Z" style="fill:#263238;fill-rule:nonzero;"/><path d="M1359.47,555.824l0,49.572l29.442,-5.905l-29.442,-43.667Z" style="fill:#f28f8f;fill-rule:nonzero;"/><path d="M1343.85,689.323c0,0 53.931,69.662 -3.566,200.864c-57.497,131.201 -237.042,174.354 -371.809,171.223l11.016,25.281c-0,0 213.108,8.52 320.969,-91.971c91.14,-84.76 124.624,-213.108 74.021,-302.187c0.04,-0 -11.293,-6.816 -30.631,-3.21Z" style="fill:#ff725e;fill-rule:nonzero;"/><path d="M1343.85,689.323c0,0 53.931,69.662 -3.566,200.864c-57.497,131.201 -237.042,174.354 -371.809,171.223l11.016,25.281c-0,0 213.108,8.52 320.969,-91.971c91.14,-84.76 124.624,-213.108 74.021,-302.187c0.04,-0 -11.293,-6.816 -30.631,-3.21Z" style="fill-opacity:0.3;fill-rule:nonzero;"/><path d="M1092.78,1077.34c-9.954,-10.552 -18.396,-22.435 -25.083,-35.307c6.069,3.934 12.658,7.001 19.575,9.114c11.452,2.734 17.634,-3.963 18.941,-7.925c1.03,-3.131 -6.934,-5.033 -16.722,-14.107c-12.522,-11.571 -13.909,-20.843 -27.183,-33.642c-4.953,-4.795 -11.611,-8.322 -13.156,-15.019c-8.876,-38.318 -12.522,-85.274 -16.603,-126.802l118.56,-40.26c0,-0 25.995,-7.529 50.484,-34.95c27.302,-30.552 36.772,-67.681 10.183,-94.151c-12.202,-2.45 -24.839,-1.616 -36.614,2.417c-24.806,9.153 -44.5,18.149 -83.69,36.575c-34.157,16.088 -127.912,56.585 -145.427,82.025c-7.172,10.501 -4.16,35.228 8.48,88.802c5.746,26.351 13.037,55.872 20.645,87.652c6.012,24.969 13.555,49.544 22.587,73.585c24.608,59.439 48.78,68.949 76.438,67.008c44.104,-3.17 42.123,-19.576 18.585,-45.015Z" style="fill:#ffa8a7;fill-rule:nonzero;"/><path d="M1227.91,683.34c0,-0 -38.278,-6.103 -66.294,6.023c-44.5,19.298 -140.355,63.718 -140.355,63.718c0,0 -5.468,22.587 5.469,54.644c10.936,32.058 25.796,44.381 25.796,44.381c0,0 103.027,-33.523 125.178,-44.381c22.151,-10.857 70.455,-60.588 50.206,-124.385Z" style="fill:#e0e0e0;fill-rule:nonzero;"/><path d="M1276.81,525.233c-0,-0 59.438,37.446 124.425,18.227c68.632,-20.367 17.633,-58.329 17.633,-58.329l-142.058,40.102Z" style="fill:#37474f;fill-rule:nonzero;"/><path d="M1440.07,436.788c-20.764,-21.715 -95.498,-40.617 -161.356,-19.377c-65.859,21.239 -79.252,48.937 -79.252,48.937c28.347,14.311 60.42,19.569 91.853,15.058c53.217,-7.489 148.755,-44.618 148.755,-44.618Z" style="fill:#ff725e;fill-rule:nonzero;"/><path d="M1440.07,436.788c-20.764,-21.715 -95.498,-40.617 -161.356,-19.377c-65.859,21.239 -79.252,48.937 -79.252,48.937c28.347,14.311 60.42,19.569 91.853,15.058c53.217,-7.489 148.755,-44.618 148.755,-44.618Z" style="fill:#fff;fill-opacity:0.4;fill-rule:nonzero;"/><path d="M1209.64,486.716c-4.408,-6.233 -7.842,-13.101 -10.184,-20.368c-2.342,-7.266 8.559,6.975 53.416,-3.962c42.597,-10.263 85.433,-39.15 133.142,-45.292c47.71,-6.142 54.05,19.575 54.05,19.575c0,-0 1.466,18.743 -17.475,38.239c0,-0 -18.783,30.749 -74.814,36.931c-56.031,6.182 -138.135,-25.123 -138.135,-25.123Z" style="fill:#ff725e;fill-rule:nonzero;"/><path d="M1365.65,463.099c1.109,13.077 10.818,21.477 21.675,18.783c10.858,-2.695 18.743,-15.454 17.634,-28.531c-1.11,-13.076 -10.818,-21.477 -21.676,-18.782c-10.857,2.694 -18.743,15.374 -17.633,28.53Z" style="fill:#f5f5f5;fill-rule:nonzero;"/><path d="M1209.64,486.716l1.387,8.956c0.832,5.508 1.704,10.144 4.755,12.759c41.554,17.341 87.114,22.828 131.597,15.851c39.626,-6.341 58.409,-15.851 66.374,-22.983c7.964,-7.133 8.995,-12.126 8.955,-17.634l-0,-8.678c-0,-0 -14.226,16.167 -79.252,27.183c-65.026,11.016 -133.816,-15.454 -133.816,-15.454Z" style="fill:#455a64;fill-rule:nonzero;"/><path d="M1232.82,507.163c-0,0 -6.261,0 -17.198,-11.888c-4.046,-4.552 -6.989,-9.976 -8.599,-15.85c-4.243,-13.907 -14.678,-25.104 -28.253,-30.314c-23.084,-9.031 -44.51,-21.833 -63.401,-37.882c-24.251,-20.13 -11.412,25.598 42.994,55.991c-0,0 -3.963,0.832 -17,-2.615c-7.568,-1.981 -15.414,-5.785 -22.309,-7.925c-14.067,-4.399 7.093,28.332 49.849,37.407c-8.01,1.773 -16.209,2.545 -24.409,2.298c-9.986,-0.951 -1.189,12.442 23.3,16.286c13.396,1.85 26.965,2.089 40.418,0.713c6.731,-0.655 13.521,0.296 19.813,2.774l5.865,2.338l-1.07,-11.333Z" style="fill:#ff725e;fill-rule:nonzero;"/><path d="M1232.82,507.163c-0,0 -6.261,0 -17.198,-11.888c-4.046,-4.552 -6.989,-9.976 -8.599,-15.85c-4.243,-13.907 -14.678,-25.104 -28.253,-30.314c-23.084,-9.031 -44.51,-21.833 -63.401,-37.882c-24.251,-20.13 -11.412,25.598 42.994,55.991c-0,0 -3.963,0.832 -17,-2.615c-7.568,-1.981 -15.414,-5.785 -22.309,-7.925c-14.067,-4.399 7.093,28.332 49.849,37.407c-8.01,1.773 -16.209,2.545 -24.409,2.298c-9.986,-0.951 -1.189,12.442 23.3,16.286c13.396,1.85 26.965,2.089 40.418,0.713c6.731,-0.655 13.521,0.296 19.813,2.774l5.865,2.338l-1.07,-11.333Z" style="fill:#fff;fill-opacity:0.6;fill-rule:nonzero;"/><path d="M1158.48,467.26c-33.445,-21.794 -54.684,-58.646 -50.365,-60.628c-13.037,-4.24 2.774,34.039 50.365,60.628Z" style="fill-opacity:0.1;fill-rule:nonzero;"/><path d="M1119.17,456.719c-14.067,-4.398 7.093,28.333 49.849,37.407c-33.484,-10.818 -52.385,-35.148 -49.849,-37.407Z" style="fill-opacity:0.1;fill-rule:nonzero;"/><path d="M1201.87,513.939c-12.401,-1.075 -24.723,-2.927 -36.892,-5.547c-13.829,-3.725 -23.062,-9.471 -23.181,-11.888l-0.317,-0l-0.436,0.317c-0.223,0.147 -0.346,0.408 -0.317,0.673c-0.014,0.132 -0.014,0.265 0,0.397c-0.019,0.131 -0.019,0.265 0,0.396c-0.019,0.171 -0.019,0.344 0,0.515l0,0.476c0.093,0.192 0.173,0.391 0.238,0.594l0.277,0.475l0.476,0.714l0.436,0.515l0.792,0.792l0.436,0.476c0.504,0.465 1.033,0.901 1.585,1.308l0.238,-0c0.515,0.396 1.11,0.792 1.744,1.188l0.752,0.476l1.586,0.872l0.99,0.515l1.704,0.792l1.189,0.515l1.862,0.753l3.448,1.149l1.387,0.397l2.575,0.673l1.268,0.278c1.308,0.317 2.695,0.554 4.161,0.792c11.252,1.667 22.649,2.132 33.999,1.387Z" style="fill-opacity:0.1;fill-rule:nonzero;"/><path d="M1236.47,496.504c8.309,5.408 13.555,14.471 14.107,24.37c0,8.995 -6.3,12.64 -14.107,8.163c-8.3,-5.43 -13.53,-14.506 -14.067,-24.41c0,-8.995 6.301,-12.601 14.067,-8.123Z" style="fill:#ff725e;fill-rule:nonzero;"/><path d="M1236.47,496.504c8.309,5.408 13.555,14.471 14.107,24.37c0,8.995 -6.3,12.64 -14.107,8.163c-8.3,-5.43 -13.53,-14.506 -14.067,-24.41c0,-8.995 6.301,-12.601 14.067,-8.123Z" style="fill-opacity:0.3;fill-rule:nonzero;"/><path d="M1236.47,505.618c3.639,2.381 5.937,6.357 6.182,10.699c0,3.962 -2.774,5.547 -6.182,3.566c-3.599,-2.327 -5.893,-6.224 -6.181,-10.501c-0,-3.962 2.774,-5.746 6.181,-3.764Z" style="fill:#263238;fill-rule:nonzero;"/></g></g></svg>