<?xml version="1.0" encoding="UTF-8" standalone="no"?><!DOCTYPE svg PUBLIC "-//W3C//DTD SVG 1.1//EN" "http://www.w3.org/Graphics/SVG/1.1/DTD/svg11.dtd"><svg width="100%" height="100%" viewBox="0 0 2084 2084" version="1.1" xmlns="http://www.w3.org/2000/svg" xmlns:xlink="http://www.w3.org/1999/xlink" xml:space="preserve" xmlns:serif="http://www.serif.com/" style="fill-rule:evenodd;clip-rule:evenodd;stroke-linecap:round;stroke-linejoin:round;"><g opacity="0.13"><g id="freepik--background-simple--inject-15"><path d="M1539.75,1392.24c52.043,-36.733 94.675,-85.251 124.409,-141.587c185.962,-348.403 143.961,-862.143 -214.17,-1082.49c-165.531,-101.83 -403.776,-166.28 -582.711,-61.716c-145.1,84.847 -234.047,244.555 -307.639,389.851c-46.23,91.387 -84.327,189.737 -141.326,275.235c-73.917,110.875 -155.283,258.968 -73.136,387.802c111.949,175.487 323.385,255.617 515.106,308.387c208.021,57.227 441.938,65.328 634.082,-46.296c15.551,-9.044 30.68,-18.771 45.385,-29.182Z" style="fill:#ff725e;fill-rule:nonzero;"/><path d="M1539.75,1392.24c52.043,-36.733 94.675,-85.251 124.409,-141.587c185.962,-348.403 143.961,-862.143 -214.17,-1082.49c-165.531,-101.83 -403.776,-166.28 -582.711,-61.716c-145.1,84.847 -234.047,244.555 -307.639,389.851c-46.23,91.387 -84.327,189.737 -141.326,275.235c-73.917,110.875 -155.283,258.968 -73.136,387.802c111.949,175.487 323.385,255.617 515.106,308.387c208.021,57.227 441.938,65.328 634.082,-46.296c15.551,-9.044 30.68,-18.771 45.385,-29.182Z" style="fill:#fff;fill-opacity:0.7;fill-rule:nonzero;"/></g><g id="freepik--Artboard--inject-15"><rect x="639.246" y="135.138" width="869.236" height="887.585" style="fill:#263238;stroke:#263238;stroke-width:3.25px;"/><path d="M666.217,199.327l-21.765,0" style="fill:none;fill-rule:nonzero;stroke:#ababab;stroke-width:3.25px;"/><path d="M666.217,239.474l-21.765,-0" style="fill:none;fill-rule:nonzero;stroke:#ababab;stroke-width:3.25px;"/><path d="M666.217,279.588l-21.765,-0" style="fill:none;fill-rule:nonzero;stroke:#ababab;stroke-width:3.25px;"/><path d="M666.217,319.735l-21.765,-0" style="fill:none;fill-rule:nonzero;stroke:#ababab;stroke-width:3.25px;"/><path d="M666.217,359.849l-21.765,-0" style="fill:none;fill-rule:nonzero;stroke:#ababab;stroke-width:3.25px;"/><path d="M666.217,399.995l-21.765,0" style="fill:none;fill-rule:nonzero;stroke:#ababab;stroke-width:3.25px;"/><path d="M666.217,440.109l-21.765,0" style="fill:none;fill-rule:nonzero;stroke:#ababab;stroke-width:3.25px;"/><path d="M666.217,480.223l-21.765,0" style="fill:none;fill-rule:nonzero;stroke:#ababab;stroke-width:3.25px;"/><path d="M666.217,520.37l-21.765,-0" style="fill:none;fill-rule:nonzero;stroke:#ababab;stroke-width:3.25px;"/><path d="M666.217,560.484l-21.765,-0" style="fill:none;fill-rule:nonzero;stroke:#ababab;stroke-width:3.25px;"/><path d="M666.217,600.631l-21.765,-0" style="fill:none;fill-rule:nonzero;stroke:#ababab;stroke-width:3.25px;"/><path d="M666.217,640.745l-21.765,-0" style="fill:none;fill-rule:nonzero;stroke:#ababab;stroke-width:3.25px;"/><path d="M666.217,680.859l-21.765,-0" style="fill:none;fill-rule:nonzero;stroke:#ababab;stroke-width:3.25px;"/><path d="M666.217,721.005l-21.765,0" style="fill:none;fill-rule:nonzero;stroke:#ababab;stroke-width:3.25px;"/><path d="M666.217,761.119l-21.765,0" style="fill:none;fill-rule:nonzero;stroke:#ababab;stroke-width:3.25px;"/><path d="M666.217,801.266l-21.765,-0" style="fill:none;fill-rule:nonzero;stroke:#ababab;stroke-width:3.25px;"/><path d="M666.217,841.38l-21.765,0" style="fill:none;fill-rule:nonzero;stroke:#ababab;stroke-width:3.25px;"/><path d="M666.217,881.527l-21.765,-0" style="fill:none;fill-rule:nonzero;stroke:#ababab;stroke-width:3.25px;"/><path d="M666.217,921.641l-21.765,-0" style="fill:none;fill-rule:nonzero;stroke:#ababab;stroke-width:3.25px;"/><path d="M666.217,961.755l-21.765,-0" style="fill:none;fill-rule:nonzero;stroke:#ababab;stroke-width:3.25px;"/><path d="M667.518,193.992l0,-15.389" style="fill:none;fill-rule:nonzero;stroke:#ababab;stroke-width:3.25px;"/><path d="M709.812,193.992l-0,-15.389" style="fill:none;fill-rule:nonzero;stroke:#ababab;stroke-width:3.25px;"/><path d="M752.138,193.992l0,-15.389" style="fill:none;fill-rule:nonzero;stroke:#ababab;stroke-width:3.25px;"/><path d="M794.432,193.992l0,-15.389" style="fill:none;fill-rule:nonzero;stroke:#ababab;stroke-width:3.25px;"/><path d="M836.726,193.992l-0,-15.389" style="fill:none;fill-rule:nonzero;stroke:#ababab;stroke-width:3.25px;"/><path d="M879.052,193.992l0,-15.389" style="fill:none;fill-rule:nonzero;stroke:#ababab;stroke-width:3.25px;"/><path d="M921.346,193.992l0,-15.389" style="fill:none;fill-rule:nonzero;stroke:#ababab;stroke-width:3.25px;"/><path d="M963.64,193.992l-0,-15.389" style="fill:none;fill-rule:nonzero;stroke:#ababab;stroke-width:3.25px;"/><path d="M1005.97,193.992l0,-15.389" style="fill:none;fill-rule:nonzero;stroke:#ababab;stroke-width:3.25px;"/><path d="M1048.26,193.992l0,-15.389" style="fill:none;fill-rule:nonzero;stroke:#ababab;stroke-width:3.25px;"/><path d="M1090.55,193.992l-0,-15.389" style="fill:none;fill-rule:nonzero;stroke:#ababab;stroke-width:3.25px;"/><path d="M1132.88,193.992l0,-15.389" style="fill:none;fill-rule:nonzero;stroke:#ababab;stroke-width:3.25px;"/><path d="M1175.17,193.992l0,-15.389" style="fill:none;fill-rule:nonzero;stroke:#ababab;stroke-width:3.25px;"/><path d="M1217.47,193.992l-0,-15.389" style="fill:none;fill-rule:nonzero;stroke:#ababab;stroke-width:3.25px;"/><path d="M1259.79,193.992l0,-15.389" style="fill:none;fill-rule:nonzero;stroke:#ababab;stroke-width:3.25px;"/><path d="M1302.09,193.992l0,-15.389" style="fill:none;fill-rule:nonzero;stroke:#ababab;stroke-width:3.25px;"/><path d="M1344.38,193.992l-0,-15.389" style="fill:none;fill-rule:nonzero;stroke:#ababab;stroke-width:3.25px;"/><path d="M1386.71,193.992l0,-15.389" style="fill:none;fill-rule:nonzero;stroke:#ababab;stroke-width:3.25px;"/><path d="M1429,193.992l0,-15.389" style="fill:none;fill-rule:nonzero;stroke:#ababab;stroke-width:3.25px;"/><rect x="1480.14" y="135.138" width="28.369" height="887.585" style="fill:#696969;stroke:#263238;stroke-width:3.25px;"/><rect x="1480.14" y="566.145" width="28.369" height="76.226" style="fill:#263238;stroke:#263238;stroke-width:3.25px;"/><rect x="639.246" y="995.525" width="869.236" height="27.198" style="fill:#696969;stroke:#263238;stroke-width:3.25px;"/><rect x="666.217" y="199.327" width="815.327" height="795.84" style="fill:#fff;stroke:#263238;stroke-width:3.25px;"/><path d="M665.468,744.787l816.857,0" style="fill:none;fill-rule:nonzero;stroke:#263238;stroke-width:3.25px;"/><rect x="639.246" y="135.138" width="869.236" height="38.975" style="fill:#696969;stroke:#263238;stroke-width:3.25px;"/><rect x="639.246" y="135.138" width="240.814" height="38.975" style="fill:#8a8a8a;stroke:#263238;stroke-width:3.25px;"/><path d="M1056.46,788.252c-0.456,-2.179 -3.709,-4.164 -9.012,-5.042l-3.677,-111.916c-0.253,-2.279 -2.201,-4.022 -4.494,-4.022c-2.403,-0 -4.407,1.915 -4.517,4.315l3.643,111.232c-7.19,0.456 -13.241,2.798 -12.623,5.433c1.204,5.271 32.501,8.72 30.68,0Z" style="fill:#fff;fill-rule:nonzero;stroke:#263238;stroke-width:3.25px;"/><path d="M1202.63,573.237c-0,0 15.974,6.507 10.638,19.976c-5.335,13.469 -41.285,59.927 -75.934,70.598c-34.648,10.671 -62.594,6.669 -89.24,7.971c-26.645,1.301 -101.212,2.668 -121.188,-0c-10.559,-1.092 -20.893,-3.779 -30.646,-7.971c-9.754,-4.192 26.645,11.972 74.599,-38.65c47.955,-50.622 55.828,-95.877 129.192,-94.38c73.363,1.496 102.579,42.456 102.579,42.456Z" style="fill:#fff;fill-rule:nonzero;stroke:#263238;stroke-width:3.25px;"/><path d="M952.188,581.208c0,-0 -15.974,-23.977 -39.951,-33.282c-23.978,-9.305 -122.555,-31.981 -135.861,-12.005c-13.306,19.976 23.977,70.598 59.927,98.577c35.95,27.979 73.266,41.285 109.248,33.315c35.982,-7.971 118.553,-93.242 133.193,-101.245c14.64,-8.003 111.884,1.334 123.889,6.669c-0,0 50.622,-169.175 50.622,-181.18c-0,-12.005 -16.007,-9.305 -27.979,5.336c-11.972,14.64 -78.601,47.954 -147.866,25.311c-69.264,-22.644 -86.507,-65.263 -115.787,-41.286c-29.281,23.978 -37.284,87.841 -22.774,141.197c14.51,53.355 13.339,58.593 13.339,58.593Z" style="fill:#ff725e;fill-rule:nonzero;stroke:#263238;stroke-width:3.25px;"/><path d="M879.768,634.889c-2.44,-0.944 -4.945,-1.952 -7.483,-3.026" style="fill:none;fill-rule:nonzero;stroke:#263238;stroke-width:3.25px;"/><path d="M1190.63,562.566c-0,0 -93.242,-13.306 -110.615,-7.971c-17.373,5.336 -49.289,52.054 -90.574,73.234c-34.486,17.796 -62.465,21.667 -96.365,11.614" style="fill:none;fill-rule:nonzero;stroke:#263238;stroke-width:3.25px;"/><path d="M995.23,616.344c1.627,0.781 3.254,1.497 4.913,2.18" style="fill:none;fill-rule:nonzero;stroke:#263238;stroke-width:3.25px;"/><path d="M952.188,581.208c10.37,12.407 22.661,23.073 36.405,31.59" style="fill:none;fill-rule:nonzero;stroke:#263238;stroke-width:3.25px;"/><path d="M890.049,661.241c-2.365,-0.714 -4.899,0.633 -5.629,2.993l-54.884,179.131c-10.378,0.195 -18.642,3.253 -18.642,7.092c0,3.839 8.817,7.125 19.683,7.125c10.866,-0 19.715,-3.254 19.715,-7.125c0,-2.863 -4.717,-5.336 -11.516,-6.507l54.266,-177.113c0.694,-2.355 -0.65,-4.866 -2.993,-5.596Z" style="fill:#fff;fill-rule:nonzero;stroke:#263238;stroke-width:3.25px;"/><path d="M1059.91,903.357l-5.043,-237.887c-0.016,-2.434 -2.023,-4.427 -4.457,-4.427c-0.054,-0 -0.108,0.001 -0.162,0.003c-2.444,0.052 -4.426,2.076 -4.426,4.521c-0,0.033 0,0.066 0.001,0.098l5.075,237.497c-9.044,0.65 -15.844,3.546 -15.844,6.994c0,3.449 8.817,7.125 19.716,7.125c10.899,0 19.715,-3.253 19.715,-7.125c0,-3.221 -6.181,-5.986 -14.575,-6.799Z" style="fill:#fff;fill-rule:nonzero;stroke:#263238;stroke-width:3.25px;"/><path d="M1251.56,840.502l-47.532,-229.949c-0.508,-1.997 -2.321,-3.407 -4.382,-3.407c-2.481,0 -4.522,2.042 -4.522,4.522c-0,0.237 0.018,0.473 0.055,0.707l47.207,228.419c-5.986,0.814 -10.216,2.896 -10.216,5.368c0,3.254 7.158,5.791 16.007,5.791c8.849,0 16.006,-2.602 16.006,-5.791c0,-3.188 -5.4,-5.107 -12.623,-5.66Z" style="fill:#fff;fill-rule:nonzero;stroke:#263238;stroke-width:3.25px;"/><path d="M1269.78,509.829l-73.656,-33.607l34.095,73.428l9.272,-25.213l24.856,24.725c0.683,0.679 1.607,1.06 2.57,1.06c2,0 3.646,-1.646 3.646,-3.646c0,-0.971 -0.387,-1.902 -1.076,-2.587l-25.278,-25.116l25.571,-9.044Z" style="fill:#fff;fill-rule:nonzero;stroke:#263238;stroke-width:3.25px;"/><path d="M1275.61,573.27l-0,1.626l-1.627,0" style="fill:none;fill-rule:nonzero;stroke:#263238;stroke-width:1.63px;"/><path d="M1271.05,574.896l-21.928,0" style="fill:none;fill-rule:nonzero;stroke:#263238;stroke-width:1.63px;stroke-dasharray:2.92,2.92;"/><path d="M1247.66,574.896l-1.627,0l0,-1.626" style="fill:none;fill-rule:nonzero;stroke:#263238;stroke-width:1.63px;"/><path d="M1246.03,569.984l0,-18.252" style="fill:none;fill-rule:nonzero;stroke:#263238;stroke-width:1.63px;stroke-dasharray:3.31,3.31;"/><path d="M1246.03,550.106l0,-1.627l1.627,0" style="fill:none;fill-rule:nonzero;stroke:#263238;stroke-width:1.63px;"/><path d="M1250.59,548.447l21.928,-0" style="fill:none;fill-rule:nonzero;stroke:#263238;stroke-width:1.63px;stroke-dasharray:2.92,2.92;"/><path d="M1273.98,548.479l1.627,0l-0,1.627" style="fill:none;fill-rule:nonzero;stroke:#263238;stroke-width:1.63px;"/><path d="M1275.61,553.392l-0,18.219" style="fill:none;fill-rule:nonzero;stroke:#263238;stroke-width:1.63px;stroke-dasharray:3.31,3.31;"/><rect x="1258.49" y="556.255" width="34.225" height="34.225" style="fill:#fff;stroke:#263238;stroke-width:3.25px;"/><path d="M1275.21,562.371l0,20.366" style="fill:none;fill-rule:nonzero;stroke:#263238;stroke-width:3.25px;"/><path d="M1264.28,573.27l21.83,-0" style="fill:none;fill-rule:nonzero;stroke:#263238;stroke-width:3.25px;"/><circle cx="780.898" cy="300.41" r="74.047" style="fill:#fff;stroke:#263238;stroke-width:3.25px;"/><circle cx="780.898" cy="300.41" r="58.821" style="fill:#fff;stroke:#263238;stroke-width:3.25px;"/><circle cx="780.898" cy="300.41" r="5.531" style="fill:#fff;stroke:#263238;stroke-width:3.25px;"/><path d="M786.429,300.41l21.57,8.393" style="fill:none;fill-rule:nonzero;stroke:#263238;stroke-width:3.25px;"/><path d="M780.898,294.879l0,-41.741" style="fill:none;fill-rule:nonzero;stroke:#263238;stroke-width:3.25px;"/></g><g id="freepik--tools-2--inject-15"><rect x="1308.04" y="230.397" width="352.633" height="233.397" style="fill:#263238;"/><rect x="1427.54" y="240.125" width="233.169" height="44.864" style="fill:#fff;fill-opacity:0.1;"/><path d="M1427.54,285.021l0,-44.864l-119.496,0l-0,223.637l352.665,-0l0,-178.773l-233.169,0Z" style="fill:#fff;fill-opacity:0.2;fill-rule:nonzero;"/><path d="M1589.75,297.709l16.95,0" style="fill:none;fill-rule:nonzero;stroke:#fff;stroke-width:1.63px;"/><path d="M1589.75,304.183l16.95,0" style="fill:none;fill-rule:nonzero;stroke:#fff;stroke-width:1.63px;"/><path d="M1589.75,310.625l16.95,0" style="fill:none;fill-rule:nonzero;stroke:#fff;stroke-width:1.63px;"/><path d="M1589.75,317.099l16.95,0" style="fill:none;fill-rule:nonzero;stroke:#fff;stroke-width:1.63px;"/><path d="M1589.75,323.574l16.95,-0" style="fill:none;fill-rule:nonzero;stroke:#fff;stroke-width:1.63px;"/><rect x="1616.59" y="295.041" width="30.712" height="30.712" style="fill:#263238;fill-opacity:0.8;"/><rect x="1620.69" y="298.523" width="6.116" height="6.116" style="fill:#fff;"/><rect x="1628.73" y="298.523" width="6.116" height="6.116" style="fill:#fff;"/><rect x="1636.76" y="298.523" width="6.116" height="6.116" style="fill:#fff;"/><rect x="1620.69" y="306.591" width="6.116" height="6.116" style="fill:#fff;"/><rect x="1628.73" y="306.591" width="6.116" height="6.116" style="fill:#fff;"/><rect x="1636.76" y="306.591" width="6.116" height="6.116" style="fill:#fff;"/><rect x="1620.69" y="314.627" width="6.116" height="6.116" style="fill:#fff;"/><rect x="1628.73" y="314.627" width="6.116" height="6.116" style="fill:#fff;"/><rect x="1636.76" y="314.627" width="6.116" height="6.116" style="fill:#fff;"/><rect x="1506.4" y="362.744" width="41.155" height="36.926" style="fill:#263238;"/><rect x="1372.91" y="362.744" width="41.155" height="36.926" style="fill:#263238;"/><rect x="1372.91" y="362.744" width="41.155" height="36.926" style="fill:#fff;fill-opacity:0.75;"/><rect x="1328.44" y="362.744" width="41.123" height="36.926" style="fill:#fff;fill-opacity:0.75;"/><rect x="1461.93" y="362.744" width="41.155" height="36.926" style="fill:#263238;"/><rect x="1461.93" y="362.744" width="41.155" height="36.926" style="fill:#fff;fill-opacity:0.15;"/><rect x="1417.42" y="362.744" width="41.123" height="36.926" style="fill:#263238;"/><rect x="1417.42" y="362.744" width="41.123" height="36.926" style="fill:#fff;fill-opacity:0.25;"/><rect x="1551.56" y="402.208" width="40.862" height="39.106" style="fill:#ff725e;"/><g><rect x="1551.56" y="402.208" width="40.862" height="39.106" style="fill-opacity:0.5;"/></g><rect x="1506.92" y="402.208" width="40.862" height="39.106" style="fill:#ff725e;"/><rect x="1506.92" y="402.208" width="40.862" height="39.106" style="fill-opacity:0.2;"/><rect x="1462.32" y="402.208" width="40.862" height="39.106" style="fill:#ff725e;"/><rect x="1417.71" y="402.208" width="40.862" height="39.106" style="fill:#ff725e;"/><rect x="1417.71" y="402.208" width="40.862" height="39.106" style="fill:#ff725e;fill-opacity:0.3;"/><rect x="1373.08" y="402.208" width="40.862" height="39.106" style="fill:#ff725e;"/><rect x="1373.08" y="402.208" width="40.862" height="39.106" style="fill:#fff;fill-opacity:0.6;"/><rect x="1328.47" y="402.208" width="40.862" height="39.106" style="fill:#fff;"/><rect x="1595.97" y="402.208" width="40.862" height="39.106" style="fill:#ff725e;"/><rect x="1595.97" y="402.208" width="40.862" height="39.106" style="fill-opacity:0.8;"/><rect x="1341.42" y="306.981" width="27.621" height="26.417" style="fill:none;stroke:#263238;stroke-width:6.51px;"/><rect x="1328.54" y="292.081" width="27.621" height="26.417" style="fill:#ff725e;"/><rect x="1328.54" y="292.081" width="27.621" height="26.417" style="fill:#ff725e;fill-opacity:0.3;"/><path d="M1332.9,263.549l71.217,-0" style="fill:none;fill-rule:nonzero;stroke:#fff;stroke-width:6.51px;"/><path d="M1596.75,250.861l-0,2.375l4.912,4.131l-4.912,4.1l-0,2.375l7.71,-6.475l-7.71,-6.506Z" style="fill:#fff;fill-rule:nonzero;"/><path d="M1605.17,250.861l0,2.375l4.913,4.131l-4.913,4.1l0,2.375l7.711,-6.475l-7.711,-6.506Z" style="fill:#fff;fill-rule:nonzero;"/><path d="M1622.64,246.957l-0,22.448" style="fill:none;fill-rule:nonzero;stroke:#fff;stroke-width:1.63px;"/><path d="M1632.4,253.789l17.568,-0" style="fill:none;fill-rule:nonzero;stroke:#fff;stroke-width:1.63px;"/><path d="M1632.4,257.693l17.568,-0" style="fill:none;fill-rule:nonzero;stroke:#fff;stroke-width:1.63px;"/><path d="M1632.4,261.597l17.568,-0" style="fill:none;fill-rule:nonzero;stroke:#fff;stroke-width:1.63px;"/><path d="M1632.4,265.501l17.568,-0" style="fill:none;fill-rule:nonzero;stroke:#fff;stroke-width:1.63px;"/></g><g id="freepik--tools-1--inject-15"><rect x="418.245" y="688.472" width="352.633" height="233.397" style="fill:#5b6a72;"/><rect x="537.709" y="698.199" width="233.169" height="44.864" style="fill:#fff;fill-opacity:0.1;"/><path d="M537.709,743.096l-0,-44.864l-119.464,-0l-0,223.604l352.633,-0l-0,-178.74l-233.169,-0Z" style="fill:#fff;fill-opacity:0.2;fill-rule:nonzero;"/><rect x="451.624" y="765.056" width="27.621" height="26.417" style="fill:#5b6a72;stroke:#263238;stroke-width:6.51px;"/><rect x="438.741" y="750.156" width="27.621" height="26.417" style="fill:#ff725e;"/><rect x="438.741" y="750.156" width="27.621" height="26.417" style="fill:#ff725e;fill-opacity:0.3;"/><path d="M443.068,721.623l71.249,0" style="fill:none;fill-rule:nonzero;stroke:#fff;stroke-width:6.51px;"/><path d="M706.949,708.935l-0,2.375l4.88,4.132l-4.88,4.099l-0,2.375l7.71,-6.474l-7.71,-6.507Z" style="fill:#fff;fill-rule:nonzero;"/><path d="M715.375,708.935l0,2.375l4.88,4.132l-4.88,4.099l0,2.375l7.711,-6.474l-7.711,-6.507Z" style="fill:#fff;fill-rule:nonzero;"/><path d="M732.846,705.031l-0,22.449" style="fill:none;fill-rule:nonzero;stroke:#fff;stroke-width:1.63px;"/><path d="M742.606,711.863l17.536,0" style="fill:none;fill-rule:nonzero;stroke:#fff;stroke-width:1.63px;"/><path d="M742.606,715.767l17.536,0" style="fill:none;fill-rule:nonzero;stroke:#fff;stroke-width:1.63px;"/><path d="M742.606,719.671l17.536,0" style="fill:none;fill-rule:nonzero;stroke:#fff;stroke-width:1.63px;"/><path d="M742.606,723.575l17.536,0" style="fill:none;fill-rule:nonzero;stroke:#fff;stroke-width:1.63px;"/><path d="M524.012,776.67l144.938,0" style="fill:none;fill-rule:nonzero;stroke:#9e9e9e;stroke-width:9.76px;stroke-linecap:butt;stroke-linejoin:miter;stroke-miterlimit:10;"/><path d="M528.014,780.184l-6.149,7.255l-0,5.433l12.655,0l0,-5.433l-6.506,-7.255Z" style="fill:#8f8f8f;fill-rule:nonzero;"/><path d="M524.012,817.305l144.938,0" style="fill:none;fill-rule:nonzero;stroke:#ff725e;stroke-width:9.76px;stroke-linecap:butt;stroke-linejoin:miter;stroke-miterlimit:10;"/><path d="M661.174,820.786l-6.116,7.288l-0,5.433l12.655,-0l0,-5.433l-6.539,-7.288Z" style="fill:#8f8f8f;fill-rule:nonzero;"/><path d="M524.012,857.907l144.938,0" style="fill:none;fill-rule:nonzero;stroke:#fff;stroke-width:9.76px;stroke-linecap:butt;stroke-linejoin:miter;stroke-miterlimit:10;"/><path d="M524.988,861.421l-6.116,7.287l-0,5.433l12.655,0l0,-5.433l-6.539,-7.287Z" style="fill:#8f8f8f;fill-rule:nonzero;"/><rect x="667.551" y="886.179" width="53.42" height="22.578" style="fill:#5b6a72;"/><rect x="675.814" y="844.796" width="43.628" height="22.578" style="fill:#5b6a72;"/><rect x="675.814" y="806.406" width="43.628" height="22.578" style="fill:#5b6a72;"/><rect x="675.814" y="768.049" width="43.628" height="43.628" style="fill:#5b6a72;"/></g><g id="freepik--Character--inject-15"><path d="M1337.22,1096.09c0,0 -75.152,17.081 -98.219,23.913c-23.066,6.832 -44.408,11.972 -40.146,22.22c4.262,10.248 -23.067,95.649 -23.067,95.649l-38.487,93.242l54.656,42.717l43.563,-84.588l39.268,192.177l263.946,-0c0,-0 -7.678,-320.295 -20.496,-336.497c-12.818,-16.201 -114.454,-51.273 -139.244,-53.81c-14.122,-1.731 -28.454,-0.023 -41.774,4.977Z" style="fill:#ff725e;fill-rule:nonzero;stroke:#263238;stroke-width:3.25px;"/><path d="M1461.47,1280.23c-11.376,-24.344 -21.03,-49.457 -28.89,-75.153" style="fill:none;fill-rule:nonzero;stroke:#263238;stroke-width:3.25px;"/><path d="M1436.97,1273.27c8.678,10.697 21.012,17.815 34.616,19.976" style="fill:none;fill-rule:nonzero;stroke:#263238;stroke-width:3.25px;"/><path d="M1426.86,1255.66c1.294,3.608 2.974,7.066 5.01,10.313" style="fill:none;fill-rule:nonzero;stroke:#263238;stroke-width:3.25px;"/><path d="M1220.95,1209.6l14.64,79.513l-26.71,-79.545" style="fill:none;fill-rule:nonzero;stroke:#263238;stroke-width:3.25px;"/><path d="M1215.84,1181.78l3.058,16.723" style="fill:none;fill-rule:nonzero;stroke:#263238;stroke-width:3.25px;"/><path d="M1302.48,1091.01c0,0 -19.357,23.392 -20.951,45.97c-1.594,22.579 2.212,94.348 2.212,94.348c0,0 39.724,-21.733 55.86,-21.733c16.137,0 53.226,31.461 53.226,31.461c-0,-0 25.018,-80.651 12.102,-128.248c-12.916,-47.597 -68.548,-59.732 -102.449,-21.798Z" style="fill:#fff;fill-rule:nonzero;stroke:#263238;stroke-width:3.25px;"/><path d="M1304.11,1099.08c0,0 6.507,29.834 11.289,49.191c4.783,19.358 17.731,64.515 24.205,61.294c6.475,-3.221 34.681,-70.175 35.495,-87.093c0.325,-7.32 14.868,-41.318 2.017,-50.004c-16.95,-11.387 -63.376,4.88 -73.006,26.612Z" style="fill:#fff;fill-rule:nonzero;stroke:#263238;stroke-width:3.25px;"/><path d="M1315.39,1148.27c1.237,4.913 2.961,11.485 5.011,18.48c4.099,-3.547 8.914,-7.808 14.607,-13.014c31.363,-28.662 38.195,-51.826 38.195,-51.826l-66.987,6.832c2.31,10.378 6.084,27.166 9.174,39.528Z" style="fill:#263238;fill-rule:nonzero;stroke:#263238;stroke-width:3.25px;stroke-linejoin:miter;stroke-miterlimit:10;"/><path d="M1203.12,1352.32c-0,-0 -5.108,-20.496 -34.161,-31.59c-29.052,-11.094 -32.534,-5.987 -36.73,2.57c-4.197,8.556 -17.081,21.342 -14.51,29.866c2.57,8.524 12.818,29.052 50.394,36.73c37.577,7.678 29.899,-11.094 34.161,-16.267c4.262,-5.172 8.523,-2.505 0.846,-21.309Z" style="fill:#fff;fill-rule:nonzero;stroke:#263238;stroke-width:3.25px;"/><path d="M923.819,1431.67c-0,-0 -38.423,12.818 -36.731,21.374c1.692,8.557 37.577,-10.248 37.577,-10.248c-0,0 5.986,11.094 17.112,6.832c11.127,-4.262 1.692,-21.374 -4.294,-20.496c-5.986,0.878 -13.664,2.538 -13.664,2.538Z" style="fill:#fff;fill-rule:nonzero;stroke:#263238;stroke-width:3.25px;"/><path d="M1129.66,1424.84c0,0 52.054,-28.174 52.054,-41.838c0,-13.664 -39.3,-31.59 -49.548,-30.744c-10.249,0.846 -14.511,4.262 -22.188,17.08c-7.678,12.818 -70.046,70.891 -70.046,70.891c0,-0 -40.992,-29.053 -52.964,-29.053c-11.973,0 -39.301,31.623 -40.993,44.441c-1.692,12.819 56.446,18.642 79.48,18.642c28.402,0 104.205,-49.419 104.205,-49.419Z" style="fill:#fff;fill-rule:nonzero;stroke:#263238;stroke-width:3.25px;"/><path d="M1004.24,1454.15c-0,0 -32.176,-36.275 -73.591,-19.683c-41.416,16.593 -37.707,44.572 -37.707,44.572l120.375,-0c0.564,-9.193 -2.727,-18.218 -9.077,-24.889Z" style="fill:#fff;fill-rule:nonzero;stroke:#263238;stroke-width:3.25px;"/><path d="M942.103,1410.95c-0,-0 -14.803,2.342 -17.406,6.018c-2.603,3.677 -18.512,25.051 -13.013,29.606c5.498,4.555 21.83,-21.082 25.343,-23.034c3.514,-1.952 9.37,-6.897 5.076,-12.59Z" style="fill:#fff;fill-rule:nonzero;stroke:#263238;stroke-width:3.25px;"/><path d="M956.027,1414.27c0,0 -6.214,-9.24 -13.892,-3.253c-7.678,5.986 -19.52,31.395 -18.512,37.674c1.009,6.279 9.761,2.83 13.925,-1.855c4.164,-4.685 18.479,-32.566 18.479,-32.566Z" style="fill:#fff;fill-rule:nonzero;stroke:#263238;stroke-width:3.25px;"/><path d="M992.172,1416.32c-0,-0 -16.267,-13.664 -25.637,-14.51c-9.369,-0.846 -12.818,5.953 -13.664,13.664c-0.846,7.71 -12.818,42.684 -9.402,44.408c3.416,1.725 10.248,0.846 14.51,-6.832c4.838,-10.613 9.117,-21.472 12.818,-32.533l6.832,5.14" style="fill:#fff;fill-rule:nonzero;stroke:#263238;stroke-width:3.25px;"/><path d="M1006.1,1436.75c0,-0 -2.765,7.352 -5.53,13.794c-2.766,6.442 -48.801,14.705 -50.59,23.001c-1.79,8.297 26.677,2.733 36.795,2.733c10.118,0 28.5,2.766 39.561,-6.506c4.56,-4.122 9.481,-7.824 14.706,-11.062" style="fill:#fff;fill-rule:nonzero;stroke:#263238;stroke-width:3.25px;"/><path d="M1472.17,1181.45c-5.22,9.065 -9.786,18.491 -13.664,28.207c-3.416,10.248 5.986,136.641 5.986,136.641c11.334,-3.534 23.385,-4.116 35.007,-1.692c17.926,4.262 53.81,23.913 53.81,23.913c0,-0 3.416,-36.731 -2.57,-64.059c-5.986,-27.329 -17.08,-137.52 -24.758,-148.614c-7.678,-11.094 -5.108,-17.08 -21.342,-11.094" style="fill:#ff725e;fill-rule:nonzero;stroke:#263238;stroke-width:3.25px;"/><path d="M1565.29,1347.38c-0,-0 -23.067,-19.52 -40.993,-23.913c-17.926,-4.392 -52.054,0 -57.227,1.692c-5.172,1.692 -8.556,7.678 -9.402,16.267c-0.846,8.589 -6.832,14.51 -2.57,19.52c4.262,5.01 28.174,21.342 47.825,26.483c19.65,5.14 49.548,3.253 53.81,-9.403c4.262,-12.655 12.819,-21.439 8.557,-30.646Z" style="fill:#fff;fill-rule:nonzero;stroke:#263238;stroke-width:3.25px;"/><path d="M1107.83,1416.28c0,0 -27.491,11.777 -36.34,14.738c-8.849,2.96 -11.81,11.061 -3.904,13.729c7.906,2.668 43.758,-10.769 47.141,-9.76c3.384,1.009 40.277,12.786 52.054,13.762c7.79,0.188 15.415,-2.293 21.603,-7.028c6.188,-4.734 -55.991,-35.266 -80.554,-25.441Z" style="fill:#fff;fill-rule:nonzero;stroke:#263238;stroke-width:3.25px;"/><path d="M1528.56,1401.94c10.051,-3.294 16.891,-12.734 16.891,-23.311c-0,-8.741 -4.673,-16.847 -12.238,-21.228c-6.014,-3.424 -12.474,-5.997 -19.195,-7.645c-20.376,-4.902 -41.744,-3.772 -61.489,3.253c-8.524,3.416 -200.278,62.139 -214.039,64.091c-13.762,1.952 -104.108,-28.499 -117.87,-29.475c-18.219,-1.301 -39.268,46.816 -45.157,59.634c-1.103,1.999 -1.726,4.226 -1.822,6.507c-0.034,2.386 1.546,4.514 3.839,5.173c2.603,0.455 4.848,-1.724 6.507,-3.774c12.135,-15.128 18.805,-34.909 34.128,-46.849l-21.245,41.025c-1.318,2.15 -2.161,4.557 -2.472,7.06c-0.267,2.55 1.105,5.006 3.416,6.117c3.253,1.203 6.669,-1.757 8.719,-4.685c4.328,-7.154 8.197,-14.576 11.582,-22.221c3.871,-7.418 9.044,-14.607 16.56,-18.219c-8.36,14.445 -15.113,29.763 -20.139,45.678c-0.879,2.495 0.224,5.286 2.57,6.506c3.254,1.464 5.824,-1.756 7.418,-4.522l22.774,-39.854c-6.03,13.751 -11.452,27.73 -16.267,41.936c-0.431,0.935 -0.567,1.979 -0.391,2.993c0.336,1 1.099,1.8 2.083,2.18c2.66,0.913 5.621,0.23 7.612,-1.757c1.903,-2 3.396,-4.355 4.393,-6.929c4.099,-9.012 6.994,-18.61 11.256,-27.426c11.777,2.505 21.603,13.501 34.486,15.486c12.883,1.984 36.34,-3.937 36.34,-3.937c0,0 234.243,-32.176 265.117,-38.162c12.332,-1.93 24.559,-4.482 36.633,-7.645Z" style="fill:#fff;fill-rule:nonzero;stroke:#263238;stroke-width:3.25px;"/><path d="M1396.76,994.191c5.94,-3.494 13.527,-2.642 18.544,2.082c5.141,4.978 3.839,22.481 2.083,33.868c-3.254,22.285 -19.521,28.759 -19.521,28.759c0,0 -23.749,53.323 -43.725,71.575c-19.976,18.251 -43.335,24.4 -72.485,-19.163c-12.818,-19.195 -32.176,-110.614 -32.176,-110.614c0,-0 -7.222,-21.277 3.676,-39.041c10.899,-17.763 46.166,-33.965 69.362,-35.169c23.197,-1.204 43.075,13.014 54.657,25.442c11.582,12.427 17.503,32.175 17.503,32.175l1.464,10.444l0.618,-0.358Z" style="fill:#fff;fill-rule:nonzero;stroke:#263238;stroke-width:3.25px;stroke-linecap:butt;stroke-linejoin:miter;stroke-miterlimit:10;"/><path d="M1319.49,1023.96c0.488,3.676 2.407,6.507 4.262,6.247c1.854,-0.261 2.928,-3.449 2.44,-7.158c-0.488,-3.709 -2.408,-6.507 -4.23,-6.246c-1.822,0.26 -3.091,3.448 -2.472,7.157Z" style="fill:#263238;fill-rule:nonzero;"/><path d="M1276.42,1030.69c0.488,3.708 2.375,6.506 4.229,6.246c1.855,-0.26 2.961,-3.416 2.44,-7.125c-0.52,-3.709 -2.375,-6.507 -4.229,-6.246c-1.854,0.26 -2.928,3.448 -2.44,7.125Z" style="fill:#263238;fill-rule:nonzero;"/><path d="M1336.31,1000.24c-6.852,-5.633 -16.127,-7.39 -24.563,-4.652" style="fill:none;fill-rule:nonzero;stroke:#263238;stroke-width:6.51px;stroke-linejoin:miter;stroke-miterlimit:10;"/><path d="M1283.97,1007.04c-8.01,-0.354 -15.445,4.312 -18.609,11.679" style="fill:none;fill-rule:nonzero;stroke:#263238;stroke-width:6.51px;stroke-linejoin:miter;stroke-miterlimit:10;"/><path d="M1296.46,1015.53c-0,-0 4.164,33.38 5.465,41.025c1.302,7.645 -6.506,14.185 -3.058,19.162c3.449,4.978 10.899,2.766 10.899,2.766" style="fill:none;fill-rule:nonzero;stroke:#263238;stroke-width:3.25px;stroke-linejoin:miter;stroke-miterlimit:10;"/><path d="M1314.48,1094.07c0,0 19.098,-0.943 27.817,-14.9" style="fill:none;fill-rule:nonzero;stroke:#263238;stroke-width:3.25px;stroke-linejoin:miter;stroke-miterlimit:10;"/><path d="M1333.32,899.388c0,-0 -38.259,-13.697 -65.685,-3.254c-27.426,10.444 -25.637,25.246 -42.099,33.12c-16.462,7.873 -36.763,19.194 -31.525,43.66c3.644,16.95 27.361,32.533 55.47,27.686c28.109,-4.848 61.651,-26.808 71.574,-32.143c9.724,-4.51 19.747,-8.347 29.996,-11.485c10.25,-3.137 1.757,27.817 12.591,32.534c10.834,4.717 14.185,9.532 16.267,14.738c2.654,5.54 5.709,10.879 9.142,15.974l8.849,-0.423l-1.627,-15.877c6.225,-15.365 8.05,-32.164 5.271,-48.507c-5.173,-24.986 -33.803,-40.928 -33.803,-40.928l-34.421,-15.095Z" style="fill:#7f5854;fill-rule:nonzero;"/><path d="M1242.52,991.23c-0,0 47.857,-8.784 77.235,-36.763c29.378,-27.979 -11.94,-45.254 -11.94,-45.254" style="fill:none;fill-rule:nonzero;stroke:#fff;stroke-width:1.4px;stroke-linejoin:miter;stroke-miterlimit:10;"/><path d="M1314.13,904.007c3.611,-1.366 42.586,9.761 43.074,29.086c0.488,19.325 -11.094,25.083 -11.094,25.083" style="fill:none;fill-rule:nonzero;stroke:#fff;stroke-width:1.4px;stroke-linejoin:miter;stroke-miterlimit:10;"/></g><g id="freepik--Plant--inject-15"><path d="M455.04,1246.1c5.043,2.213 17.439,1.92 17.439,1.92c-0,-0 -2.668,-8.101 -2.896,-8.589c-2.7,-5.693 -11.322,-15.063 -18.284,-14.12c-4.019,0.648 -7.003,4.152 -7.003,8.223c-0,0.75 0.101,1.497 0.301,2.221c1.139,4.847 6.247,8.458 10.443,10.345Z" style="fill:#263238;fill-rule:nonzero;"/><path d="M617.188,1203.94c-6.994,-0.749 -15.323,8.881 -17.893,14.607c-0.228,0.521 -2.798,8.687 -2.668,8.687c-1.334,1.496 -2.733,3.253 -4.229,4.945c-2.766,3.253 -5.824,7.19 -8.882,11.614c-3.355,4.694 -6.43,9.583 -9.207,14.641c-3.124,5.648 -5.747,11.559 -7.841,17.665c0.005,0.076 0.005,0.152 0,0.228l0,-8.263c-0.813,-6.247 -6.018,-17.861 -13.013,-19.13c-0.465,-0.08 -0.937,-0.12 -1.409,-0.12c-4.435,0 -8.138,3.53 -8.351,7.96c-0.391,4.978 3.253,9.923 6.702,13.014c3.448,3.091 14.965,6.93 15.844,7.222c-1.99,6.273 -3.544,12.676 -4.653,19.163c-0.683,3.774 -1.236,7.58 -1.756,11.419l-0,-3.611c-0.814,-6.247 -6.019,-17.829 -13.014,-19.098c-0.475,-0.083 -0.957,-0.125 -1.439,-0.125c-4.433,0 -8.128,3.538 -8.321,7.966c-0.39,4.945 3.253,9.76 6.702,13.014c4.725,3.137 9.904,5.529 15.356,7.092c-0.195,1.464 -0.391,2.928 -0.553,4.425c-0.846,7.059 -1.659,14.119 -2.668,21.049c-0.358,2.44 -0.813,4.815 -1.236,7.19l-0,-3.254c-0.781,-6.246 -6.019,-17.828 -13.014,-19.129c-0.378,-0.053 -0.76,-0.079 -1.142,-0.079c-4.476,-0 -8.193,3.608 -8.325,8.082c-0.423,4.945 3.253,9.923 6.702,13.013c4.558,3.082 9.577,5.42 14.868,6.93c-0.488,2.44 -1.009,4.88 -1.627,7.223c-0.455,1.561 -0.781,3.253 -1.301,4.684c-0.521,1.432 -1.009,3.254 -1.497,4.653c-1.073,2.895 -2.147,5.921 -3.253,8.719c-0.748,1.984 -1.497,3.839 -2.278,5.693c0.391,-2.407 1.042,-7.157 1.042,-7.548c-0.066,-5.543 -1.557,-10.977 -4.327,-15.779c0.048,-0.617 0.048,-1.237 -0,-1.854c-0.506,-4.143 -4.062,-7.292 -8.236,-7.292c-0.656,0 -1.31,0.078 -1.948,0.232c-6.832,1.79 -11.159,13.762 -11.484,20.041c0,0.39 0.228,4.425 0.423,6.995c-0.325,-1.497 -0.651,-2.928 -1.041,-4.457c-0.716,-3.026 -1.497,-5.987 -2.342,-9.207c-0.488,-1.562 -0.944,-3.091 -1.432,-4.685c-0.488,-1.594 -1.106,-3.254 -1.627,-4.75c-1.366,-3.709 -2.895,-7.353 -4.554,-11.029c5.522,-1.133 10.835,-3.12 15.746,-5.889c3.709,-2.863 7.678,-7.548 7.645,-12.525c0.001,-0.037 0.001,-0.074 0.001,-0.112c0,-4.586 -3.774,-8.361 -8.361,-8.361c-0.294,0 -0.587,0.016 -0.879,0.047c-7.027,0.78 -13.014,11.939 -14.38,18.121c-0,0.39 -0.488,4.912 -0.683,7.385c-0.976,-2.18 -1.985,-4.392 -3.058,-6.507c-3.254,-6.311 -6.507,-12.59 -9.761,-18.902c-1.041,-1.919 -2.017,-3.839 -3.025,-5.758c0.943,-0.228 12.102,-2.831 16.267,-6.052c4.164,-3.22 7.678,-7.547 7.645,-12.525c0.002,-0.075 0.003,-0.149 0.003,-0.224c0,-4.568 -3.76,-8.328 -8.329,-8.328c-0.229,-0 -0.458,0.009 -0.686,0.028c-7.027,0.748 -13.013,11.907 -14.38,18.089c0,0.455 -0.683,6.995 -0.748,8.654c-2.212,-4.262 -4.359,-8.524 -6.507,-12.786c-2.598,-5.847 -4.815,-11.857 -6.637,-17.991c0.423,-0 12.103,-2.733 16.267,-6.051c3.742,-2.863 7.678,-7.548 7.646,-12.526c-0,-0.028 0,-0.055 0,-0.083c0,-4.587 -3.774,-8.361 -8.361,-8.361c-0.185,-0 -0.369,0.006 -0.554,0.018c-6.994,0.781 -13.013,11.94 -14.379,18.121c-0,0.488 -0.716,7.483 -0.749,8.784c0,-0.358 -0.26,-0.715 -0.358,-1.073c-1.741,-6.14 -2.939,-12.422 -3.578,-18.772c-0.391,-3.514 -0.553,-6.865 -0.651,-10.151c2.212,-0.26 12.363,-1.626 16.56,-4.164c4.197,-2.538 8.458,-6.669 8.979,-11.615c0.044,-0.347 0.066,-0.697 0.066,-1.047c-0,-4.482 -3.591,-8.214 -8.069,-8.387c-7.06,-0 -14.315,10.443 -16.267,16.267c-0,0.325 -0.814,3.741 -1.302,6.246l0,-4.425c0,-5.335 0.358,-10.215 0.684,-14.542c0.227,-2.44 0.455,-4.652 0.715,-6.735c2.018,-1.399 10.183,-7.157 12.689,-11.289c2.505,-4.132 4.457,-9.76 2.635,-14.445c-1.189,-3.314 -4.349,-5.539 -7.871,-5.539c-1.25,0 -2.486,0.281 -3.614,0.822c-6.279,3.253 -7.938,15.876 -6.897,22.058c0,0.553 2.473,8.784 2.57,8.719c-0.292,1.984 -0.553,4.131 -0.813,6.506c-0.423,4.327 -0.878,9.207 -0.976,14.576c-0.219,5.761 -0.089,11.53 0.39,17.275c0.511,6.45 1.599,12.842 3.254,19.097c-0.014,0.075 -0.014,0.153 -0,0.228c-1.106,-1.757 -4.392,-6.507 -4.685,-6.865c-4.099,-4.75 -14.868,-11.549 -21.375,-8.784c-2.955,1.365 -4.856,4.336 -4.856,7.592c-0,1.508 0.407,2.988 1.18,4.283c2.375,4.36 8.133,6.507 12.786,7.19c5.238,0.748 16.267,-2.44 17.178,-2.7c1.823,6.322 4.062,12.517 6.702,18.544c1.529,3.514 3.253,6.995 4.847,10.508c-1.008,-1.496 -1.919,-2.798 -2.082,-2.96c-4.099,-4.783 -14.868,-11.55 -21.375,-8.784c-2.882,1.394 -4.72,4.325 -4.72,7.527c-0,1.482 0.394,2.938 1.142,4.217c2.375,4.36 8.133,6.507 12.785,7.19c4.653,0.683 14.185,-1.854 16.69,-2.537c0.651,1.333 1.301,2.667 1.985,3.969c3.253,6.506 6.506,12.72 9.369,19.032c1.074,2.245 2.017,4.457 2.961,6.702c-0.878,-1.301 -1.659,-2.408 -1.789,-2.57c-4.132,-4.75 -14.868,-11.55 -21.375,-8.784c-2.969,1.358 -4.882,4.337 -4.882,7.603c-0,1.503 0.405,2.979 1.173,4.271c2.408,4.36 8.134,6.507 12.818,7.19c5.516,0.027 11.002,-0.796 16.267,-2.44c0.911,2.31 1.822,4.62 2.603,6.897c0.488,1.595 1.106,3.059 1.496,4.653c0.391,1.594 0.879,3.253 1.302,4.685c0.748,3.025 1.496,6.149 2.114,9.077c0.456,2.082 0.879,4.034 1.269,6.018c-1.008,-2.245 -3.253,-6.506 -3.253,-6.897c-3.253,-5.335 -13.014,-13.664 -19.781,-11.907c-3.584,1.005 -6.08,4.297 -6.08,8.019c0,1.077 0.209,2.143 0.615,3.14c2.338,4.558 6.564,7.867 11.549,9.044c4.978,1.497 15.942,0 17.308,0c0.651,3.254 1.269,6.507 1.79,9.5c0.78,4.555 1.464,8.752 2.017,12.591l-6.507,-0l-0,76.356l30.354,0l-0,-76.454l-4.002,0c1.204,-2.765 2.44,-5.661 3.709,-8.817c1.269,-3.155 2.603,-6.506 3.937,-9.987c1.333,0.292 12.167,2.472 17.242,1.333c5.076,-1.138 10.151,-3.611 12.201,-8.166c0.567,-1.147 0.862,-2.41 0.862,-3.689c-0,-3.494 -2.199,-6.633 -5.482,-7.827c-6.67,-2.245 -16.885,5.335 -20.627,10.41c-0.227,0.293 -2.244,3.807 -3.481,6.052l1.594,-4.295c1.042,-2.895 2.018,-5.823 3.091,-8.979c0.456,-1.562 0.944,-3.254 1.399,-4.685c0.456,-1.431 0.846,-3.253 1.269,-4.88c0.911,-3.806 1.627,-7.743 2.277,-11.68c2.57,0.911 11.647,4.1 16.267,3.742c4.62,-0.358 10.574,-2.05 13.306,-6.214c0.992,-1.405 1.524,-3.083 1.524,-4.802c-0,-3.035 -1.66,-5.84 -4.321,-7.301c-6.279,-3.253 -17.504,2.733 -21.993,7.158c-0.26,0.292 -3.254,3.839 -4.62,5.823c0.358,-2.375 0.748,-4.75 1.041,-7.19c0.878,-6.995 1.529,-14.087 2.212,-21.179l0.684,-6.507c0.911,0.358 11.647,4.36 16.917,3.969c4.685,-0.325 10.574,-2.049 13.306,-6.214c0.982,-1.404 1.509,-3.077 1.509,-4.79c-0,-3.035 -1.653,-5.841 -4.307,-7.312c-6.279,-3.254 -17.503,2.733 -21.992,7.157c-0.326,0.358 -4.425,5.466 -5.401,6.8c0.521,-4.75 1.074,-9.5 1.789,-14.153c0.962,-6.293 2.32,-12.519 4.067,-18.641c0.423,0.162 11.615,4.392 17.015,4.001c4.685,-0.325 10.574,-2.049 13.307,-6.214c0.976,-1.401 1.499,-3.069 1.499,-4.777c-0,-3.044 -1.663,-5.857 -4.33,-7.325c-6.246,-3.254 -17.503,2.733 -21.96,7.157c-0.358,0.358 -4.75,5.856 -5.466,6.93c0,-0.358 0.163,-0.748 0.293,-1.106c1.918,-6.076 4.379,-11.967 7.353,-17.601c1.626,-3.253 3.253,-6.051 5.042,-8.849c2.017,0.976 11.225,5.466 16.267,5.661c5.043,0.195 10.769,-0.879 13.925,-4.75c1.332,-1.524 2.067,-3.481 2.067,-5.505c0,-2.711 -1.318,-5.26 -3.531,-6.825c-5.889,-3.904 -17.699,0.813 -22.774,4.717l-4.522,4.522c0.813,-1.269 1.594,-2.57 2.407,-3.741c2.928,-4.457 5.921,-8.329 8.589,-11.745c1.529,-1.952 2.928,-3.644 4.295,-5.238c2.472,0 12.46,-0.358 16.82,-2.407c4.779,-1.865 8.497,-5.75 10.15,-10.606c0.147,-0.626 0.221,-1.267 0.221,-1.91c0,-4.132 -3.062,-7.675 -7.151,-8.273Zm-77.625,188.402c-1.659,3.774 -3.253,7.255 -4.717,10.444l-10.574,-0c-0.683,-4.035 -1.464,-8.492 -2.44,-13.372c-0.65,-3.253 -1.431,-6.864 -2.245,-10.508c3.341,-1.312 6.6,-2.822 9.76,-4.522c4.249,3.652 8.978,6.706 14.055,9.077c-1.464,2.96 -2.603,6.214 -3.839,8.881Z" style="fill:#263238;fill-rule:nonzero;"/><path d="M580.263,1248.8c-0,-0 2.245,-8.231 2.31,-8.752c0.878,-6.246 -1.107,-18.804 -7.483,-21.863c-1.079,-0.488 -2.25,-0.741 -3.435,-0.741c-3.597,0 -6.806,2.331 -7.919,5.752c-1.692,4.684 0.455,10.41 3.025,14.379c2.993,4.62 13.469,11.225 13.502,11.225Z" style="fill:#263238;fill-rule:nonzero;"/></g><g id="freepik--Device--inject-15"><rect x="965.852" y="1468.5" width="218.887" height="11.452" style="fill:#fff;stroke:#263238;stroke-width:3.25px;"/><rect x="854.262" y="1468.5" width="273.901" height="11.452" style="fill:#fff;stroke:#263238;stroke-width:3.25px;"/><rect x="753.407" y="1472.31" width="151.607" height="7.06" style="fill:#fff;stroke:#263238;stroke-width:3.25px;"/><rect x="636.806" y="1221.99" width="326.769" height="210.721" style="fill:#fff;stroke:#263238;stroke-width:3.25px;"/><rect x="636.806" y="1221.99" width="308.908" height="210.721" style="fill:#263238;stroke:#263238;stroke-width:3.25px;"/><rect x="749.893" y="1319.92" width="71.477" height="162.669" style="fill:#fff;stroke:#263238;stroke-width:3.25px;"/><rect x="743.289" y="1319.92" width="71.477" height="162.669" style="fill:#263238;stroke:#263238;stroke-width:3.25px;"/><path d="M819.516,1321.81l-77.886,0l-0,111.396" style="fill:none;fill-rule:nonzero;stroke:#fff;stroke-width:3.25px;"/></g><g id="freepik--Table--inject-15"><rect x="559.376" y="1479.85" width="1148.31" height="25.832" style="fill:#fff;stroke:#263238;stroke-width:3.25px;"/><rect x="463.825" y="1479.85" width="831.724" height="25.832" style="fill:#263238;stroke:#263238;stroke-width:3.25px;"/></g></g></svg>