<?xml version="1.0" encoding="UTF-8" standalone="no"?><!DOCTYPE svg PUBLIC "-//W3C//DTD SVG 1.1//EN" "http://www.w3.org/Graphics/SVG/1.1/DTD/svg11.dtd"><svg width="100%" height="100%" viewBox="0 0 2084 2084" version="1.1" xmlns="http://www.w3.org/2000/svg" xmlns:xlink="http://www.w3.org/1999/xlink" xml:space="preserve" xmlns:serif="http://www.serif.com/" style="fill-rule:evenodd;clip-rule:evenodd;stroke-linejoin:round;stroke-miterlimit:2;"><g id="freepik--background-complete--inject-47" opacity="0.4"><path d="M830.503,277.32c2.007,-14.396 -18.37,-26.244 -33.654,-27.479c-7.294,-0.617 -14.858,0.502 -21.767,-1.891c-14.935,-5.21 -20.918,-24.546 -35.545,-30.875c-10.922,-4.593 -23.465,-0.502 -34.039,4.824c-10.575,5.326 -21.073,12.041 -32.882,12.813c-10.266,0.656 -21.459,-3.164 -30.451,1.853c-6.715,3.859 -10.227,11.578 -16.402,16.016c-6.426,3.973 -13.868,5.998 -21.42,5.828c-7.531,-0.204 -15.034,1.013 -22.114,3.589c-6.831,3.126 -12.466,10.382 -11.038,17.753l259.312,-2.431Z" style="fill:#f5f5f5;fill-rule:nonzero;"/><path d="M1855.21,1129.13c3.319,-23.967 -30.528,-43.688 -55.961,-45.734c-12.119,-1.003 -24.7,0.849 -36.201,-3.165c-24.855,-8.645 -34.735,-40.793 -59.088,-51.059c-18.139,-7.719 -39.057,-0.811 -56.655,8.027c-17.599,8.838 -34.967,19.992 -54.649,21.266c-17.098,1.08 -35.661,-5.249 -50.636,3.126c-11.153,6.213 -16.981,19.065 -27.247,26.629c-10.266,7.565 -23.156,8.993 -35.661,9.688c-12.504,0.694 -25.394,0.771 -36.741,5.982c-11.347,5.21 -20.764,17.212 -18.409,29.485l431.248,-4.245Z" style="fill:#ebebeb;fill-rule:nonzero;"/><path d="M568.489,544.197c2.509,-18.332 -23.388,-33.423 -42.839,-35.005c-9.263,-0.733 -18.872,0.695 -27.672,-2.393c-19.027,-6.638 -26.63,-31.222 -45.232,-39.057c-13.855,-5.866 -29.872,-0.617 -43.341,6.137c-13.469,6.754 -26.745,15.437 -41.797,16.286c-13.083,0.811 -27.286,-3.859 -38.594,2.355c-8.529,4.785 -12.968,14.588 -20.841,20.377c-7.873,5.789 -17.714,6.908 -27.286,7.41c-9.571,0.502 -19.297,0.618 -28.096,4.593c-8.799,3.975 -15.862,13.16 -14.087,22.539l329.785,-3.242Z" style="fill:#f5f5f5;fill-rule:nonzero;"/><path d="M1593.04,1543.2l-85.872,372.817l36.317,-0.116l86.026,-369.189l-36.471,-3.512Z" style="fill:#e0e0e0;fill-rule:nonzero;"/><path d="M1749.66,1543.2l86.18,372.817l34.503,0l-83.363,-372.817l-37.32,-0Z" style="fill:#e0e0e0;fill-rule:nonzero;"/><path d="M1535.07,1263.2l48.899,256.688l55.537,0l-52.218,-256.688l-52.218,0Z" style="fill:#e0e0e0;fill-rule:nonzero;"/><path d="M683.576,1543.2l-70.048,372.817l35.661,0l73.174,-372.817l-38.787,-0Z" style="fill:#e0e0e0;fill-rule:nonzero;"/><path d="M830.851,1543.2l80.043,370.772l35.237,-0l-77.304,-370.772l-37.976,-0Z" style="fill:#e0e0e0;fill-rule:nonzero;"/><path d="M625.608,1263.2l48.899,256.688l55.536,0l-52.217,-256.688l-52.218,0Z" style="fill:#e0e0e0;fill-rule:nonzero;"/><path d="M515.616,1239.89l9.995,46.66l1115.56,0l-13.006,-46.66l-1112.55,0Z" style="fill:#ebebeb;fill-rule:nonzero;"/><path d="M536.919,1330.51l11.81,46.66l1107.99,-0l-10.073,-46.66l-1109.73,-0Z" style="fill:#ebebeb;fill-rule:nonzero;"/><path d="M558.957,1424.33l10.96,46.66l1104.6,-0l-10.459,-46.66l-1105.1,-0Z" style="fill:#ebebeb;fill-rule:nonzero;"/><rect x="643.4" y="1519.89" width="1191.12" height="46.66" style="fill:#ebebeb;"/><path d="M1351.87,941.984c-0.006,0 -0.012,0 -0.018,0c-28.794,0 -52.488,-23.694 -52.488,-52.488c0,-9.167 2.402,-18.177 6.965,-26.128l150.517,-262.438c9.233,-16.33 26.627,-26.432 45.386,-26.36c18.699,-0.111 36.072,9.875 45.387,26.09l152.059,261.551c4.646,8.007 7.094,17.102 7.094,26.36c-0,28.739 -23.587,52.416 -52.326,52.525l-302.537,0.927l-0.039,-0.039Zm150.516,-351.783c-13.166,-0.041 -25.368,7.059 -31.84,18.525l-150.516,262.438c-3.202,5.579 -4.888,11.9 -4.888,18.332c-0,20.194 16.612,36.812 36.805,36.819l302.538,-0.926c20.114,-0.122 36.597,-16.704 36.597,-36.818c-0,-6.448 -1.694,-12.784 -4.911,-18.372l-152.06,-261.512c-6.468,-11.427 -18.632,-18.507 -31.763,-18.486l0.038,-0Z" style="fill:#ebebeb;fill-rule:nonzero;"/><path d="M1472.82,703.744l7.062,97.913c0.555,7.958 7.045,14.315 15.013,14.704c8.402,0.433 15.767,-5.873 16.634,-14.241l10.035,-98.53c0.041,-0.412 0.061,-0.825 0.061,-1.238c0,-6.86 -5.645,-12.504 -12.504,-12.504c-0.085,-0 -0.17,0 -0.255,0.002l-23.889,0.54c-6.733,0.15 -12.189,5.729 -12.189,12.463c-0,0.297 0.01,0.595 0.032,0.891Z" style="fill:#ebebeb;fill-rule:nonzero;"/><path d="M1521.33,871.242c-3.181,9.831 -12.396,16.535 -22.73,16.535c-13.105,0 -23.889,-10.784 -23.889,-23.889c-0,-13.106 10.784,-23.89 23.889,-23.89c2.475,0 4.936,0.385 7.293,1.14c9.862,3.162 16.597,12.393 16.597,22.75c0,2.497 -0.391,4.978 -1.16,7.354Z" style="fill:#ebebeb;fill-rule:nonzero;"/></g><g id="freepik--Device--inject-47" opacity="0.35"><path d="M1302.24,1501.52l-389.798,-0.271c-46.853,0 -84.907,-39.944 -84.907,-89.19l0,-1026.6c0,-49.246 38.054,-89.19 84.907,-89.152l389.606,0.232c46.891,-0 84.906,39.944 84.906,89.19l-0.193,1026.6c0.386,49.284 -37.629,89.191 -84.521,89.191Z" style="fill:#263238;fill-rule:nonzero;"/><path d="M1302.12,332.895l-75.567,0c-10.546,0.517 -18.81,9.599 -18.332,20.146l-0,14.396c0.477,10.561 -7.81,19.649 -18.371,20.146l-147.236,-0c-10.561,-0.517 -18.831,-9.623 -18.332,-20.185l0,-14.357c0.477,-10.547 -7.786,-19.629 -18.332,-20.146l-92.625,0c-32.844,0 -59.473,27.981 -59.473,62.484l-0,1001.98c-0,34.464 26.591,62.445 59.396,62.483l388.872,0.232c32.843,-0 59.473,-27.942 59.473,-62.445l-0.077,-1002.13c-0,-34.734 -26.553,-62.599 -59.396,-62.599Z" style="fill:#fff;fill-rule:nonzero;"/><path d="M959.831,1365.24l0,24.508c-0.009,1.475 -1.225,2.685 -2.701,2.685c-0.505,-0 -1,-0.142 -1.428,-0.408l-19.297,-12.273c-0.777,-0.496 -1.248,-1.356 -1.248,-2.277c0,-0.922 0.471,-1.782 1.248,-2.277l19.297,-12.273c0.428,-0.267 0.923,-0.408 1.428,-0.408c1.482,-0 2.701,1.219 2.701,2.701c0,0.008 0,0.015 0,0.022Z" style="fill:#e0e0e0;fill-rule:nonzero;"/><path d="M1118.3,1377.25c-0.021,9.259 -7.645,16.866 -16.904,16.866c-9.273,-0 -16.904,-7.631 -16.904,-16.904c-0,-9.274 7.63,-16.905 16.904,-16.905c9.28,0.022 16.904,7.663 16.904,16.943Z" style="fill:#e0e0e0;fill-rule:nonzero;"/><path d="M1270.9,1370.3c0,-4.3 -3.491,-7.792 -7.791,-7.792l-15.601,0c-4.3,0 -7.792,3.492 -7.792,7.792l0,15.678c0,4.3 3.492,7.791 7.792,7.791l15.601,0c4.3,0 7.791,-3.491 7.791,-7.791l0,-15.678Z" style="fill:#e0e0e0;"/><path d="M922.399,730.5c24.877,-102.987 128.686,-166.403 231.673,-141.526c102.987,24.878 166.402,128.687 141.525,231.674c-24.877,102.987 -128.686,166.402 -231.673,141.525c-102.987,-24.877 -166.403,-128.687 -141.525,-231.673Z" style="fill:#f5f5f5;"/><path d="M1117.57,860.088c-0.022,8.687 -7.175,15.823 -15.862,15.823c-8.702,0 -15.862,-7.16 -15.862,-15.862c-0,-8.702 7.16,-15.862 15.862,-15.862c0.025,-0 0.051,0 0.077,0c8.679,0.063 15.785,7.222 15.785,15.901Z" style="fill:#455a64;fill-rule:nonzero;"/><path d="M1070.02,839.71c8.313,-8.949 19.992,-14.04 32.206,-14.04c11.808,-0 23.132,4.758 31.397,13.191c8.104,8.182 20.763,-4.361 12.659,-12.543c-11.641,-11.731 -27.5,-18.336 -44.026,-18.336c-16.88,0 -33.05,6.892 -44.74,19.069c-7.912,8.298 4.631,20.996 12.581,12.659l-0.077,0Z" style="fill:#455a64;fill-rule:nonzero;"/><path d="M1016.14,765.996c24.121,-20.841 52.912,-33.963 85.138,-34.04c32.16,-0.459 63.309,11.393 87.029,33.114c8.337,7.718 21.034,-4.67 12.659,-12.543c-27.04,-25.044 -62.64,-38.854 -99.495,-38.594c-37.089,-0 -70.048,15.437 -97.797,39.25c-8.684,7.526 3.859,20.146 12.582,12.659l-0.116,0.154Z" style="fill:#455a64;fill-rule:nonzero;"/><path d="M1037.4,806.79c16.537,-18.456 40.179,-29.017 64.96,-29.017c23.924,0 46.825,9.844 63.288,27.203c8.027,8.22 20.686,-4.323 12.658,-12.582c-19.816,-20.71 -47.267,-32.438 -75.931,-32.438c-29.489,0 -57.657,12.412 -77.556,34.175c-7.719,8.413 4.747,21.111 12.581,12.659Z" style="fill:#455a64;fill-rule:nonzero;"/><path d="M1155.73,715.419c4.679,-26.449 29.95,-44.125 56.4,-39.447c26.449,4.678 44.125,29.95 39.447,56.399c-4.678,26.45 -29.95,44.126 -56.399,39.448c-26.45,-4.679 -44.126,-29.95 -39.448,-56.4Z" style="fill:#b956c7;"/><path d="M1223.71,710.287l-6.904,-6.904l-30.92,30.919l6.904,6.905l30.92,-30.92Z" style="fill:#fff;"/><path d="M1192.81,703.347l-6.904,6.904l30.919,30.92l6.905,-6.904l-30.92,-30.92Z" style="fill:#fff;"/><path d="M1096.11,440.07c2.416,-1.451 5.011,-2.58 7.719,-3.357l1.583,-7.719l12.851,-0.232l1.853,7.719c2.698,0.684 5.293,1.722 7.719,3.088l6.445,-4.323l9.262,8.954l-4.052,6.638c1.451,2.415 2.58,5.01 3.358,7.719l7.718,1.582l0.232,12.891l-7.719,1.814c-0.67,2.696 -1.696,5.292 -3.049,7.718l4.246,6.484l-8.916,9.263l-6.638,-3.86c-2.418,1.437 -5.012,2.553 -7.718,3.319l-1.583,7.719l-12.852,0.232l-1.852,-7.719c-2.696,-0.691 -5.29,-1.729 -7.719,-3.088l-6.522,4.246l-9.263,-8.915l4.053,-6.639c-1.456,-2.413 -2.585,-5.008 -3.358,-7.718l-7.719,-1.583l-0.231,-12.852l7.718,-1.852c0.678,-2.694 1.703,-5.289 3.049,-7.719l-4.245,-6.522l8.954,-9.224l6.638,3.859l0.038,0.077Zm6.832,17.175c-2.488,2.575 -3.879,6.018 -3.879,9.598c0,7.58 6.237,13.817 13.817,13.817c7.579,-0 13.816,-6.237 13.816,-13.817c0,-3.75 -1.526,-7.343 -4.226,-9.946c-5.453,-5.258 -14.266,-5.101 -19.528,0.348Z" style="fill:#e0e0e0;fill-rule:nonzero;"/><path d="M935.208,468.823l-33.229,-0c-1.058,-0 -1.93,-0.871 -1.93,-1.93c0,-0.013 0,-0.026 0,-0.038c0,-1.038 0.854,-1.892 1.891,-1.892l16.673,0c6.175,0 12.273,0.232 16.557,0c0.013,0 0.026,0 0.038,0c1.038,0 1.892,0.854 1.892,1.891l-0,0.04c-0,1.044 -0.848,1.908 -1.892,1.929Z" style="fill:#263238;fill-rule:nonzero;"/><path d="M913.712,481.79c-0.547,-0.011 -1.064,-0.248 -1.428,-0.656l-11.578,-13.237c-0.649,-0.751 -0.649,-1.875 -0,-2.625l11.578,-12.041c0.366,-0.444 0.912,-0.702 1.488,-0.702c1.059,0 1.93,0.872 1.93,1.93c-0,0.547 -0.233,1.069 -0.64,1.435l-10.227,10.768l10.575,11.925c0.309,0.352 0.48,0.805 0.48,1.274c-0,1.058 -0.871,1.93 -1.93,1.93l-0.248,-0.001Z" style="fill:#263238;fill-rule:nonzero;"/><circle cx="1311.54" cy="451.61" r="5.982" style="fill:#263238;"/><path d="M1317.52,470.521c-0,0.013 -0,0.026 -0,0.038c-0,3.303 -2.718,6.021 -6.021,6.021c-3.303,0 -6.021,-2.718 -6.021,-6.021c0,-3.302 2.718,-6.02 6.021,-6.02c0.013,-0 0.026,-0 0.039,-0c3.281,-0 5.982,2.7 5.982,5.982Z" style="fill:#263238;fill-rule:nonzero;"/><circle cx="1311.54" cy="489.432" r="5.982" style="fill:#263238;"/><path d="M978.974,1039.59c-9.098,0.993 -18.256,1.328 -27.402,1.004c-9.133,0.323 -18.278,-0.012 -27.363,-1.004c9.085,-0.992 18.23,-1.327 27.363,-1.003c9.146,-0.325 18.304,0.01 27.402,1.003Z" style="fill:#263238;fill-rule:nonzero;"/><path d="M1077.27,1103.65c-0,0.54 -33.654,1.003 -75.143,1.003c-41.488,0 -75.142,-0.463 -75.142,-1.003c-0,-0.54 33.615,-1.003 75.142,-1.003c41.527,-0 75.143,0.463 75.143,1.003Z" style="fill:#263238;fill-rule:nonzero;"/><path d="M1077.27,1167.37c-0,0.54 -33.654,1.003 -75.143,1.003c-41.488,-0 -75.142,-0.463 -75.142,-1.003c-0,-0.541 33.615,-1.004 75.142,-1.004c41.527,0 75.143,0.386 75.143,1.004Z" style="fill:#263238;fill-rule:nonzero;"/><path d="M1299.96,1103.63c0,-13.26 -10.765,-24.025 -24.024,-24.025l-54.997,-0c-13.259,-0 -24.024,10.765 -24.024,24.025c-0,13.259 10.765,24.024 24.024,24.024l54.997,0c13.259,0 24.024,-10.765 24.024,-24.024Z" style="fill:#ebebeb;"/><path d="M1240.8,1103.65c-0,11.052 -9.094,20.146 -20.146,20.146c-11.052,0 -20.146,-9.094 -20.146,-20.146c-0,-11.052 9.094,-20.146 20.146,-20.146c11.052,-0 20.146,9.094 20.146,20.146Z" style="fill:#e0e0e0;fill-rule:nonzero;"/><path d="M1275.95,1191.34l-54.996,0c-13.19,0 -24.044,-10.854 -24.044,-24.044c-0,-13.19 10.854,-24.044 24.044,-24.044l54.996,0c13.19,0 24.044,10.854 24.044,24.044c0,13.19 -10.854,24.044 -24.044,24.044Z" style="fill:#ebebeb;fill-rule:nonzero;"/><circle cx="1220.65" cy="1167.3" r="20.146" style="fill:#e0e0e0;"/><path d="M1077.27,1231.36c-0,0.579 -33.654,1.004 -75.143,1.004c-41.488,-0 -75.142,-0.425 -75.142,-1.004c-0,-0.579 33.615,-1.003 75.142,-1.003c41.527,-0 75.143,0.463 75.143,1.003Z" style="fill:#263238;fill-rule:nonzero;"/><path d="M1275.95,1262.51l-54.996,0c-0.013,0.001 -0.026,0.001 -0.039,0.001c-13.169,-0 -24.005,-10.837 -24.005,-24.006c-0,0 -0,0 -0,0c-0,-13.19 10.854,-24.044 24.044,-24.044l54.996,0c13.19,0 24.044,10.854 24.044,24.044c0,0 0,0 0,0c0,13.169 -10.836,24.006 -24.005,24.006c-0.013,-0 -0.026,-0 -0.039,-0.001Z" style="fill:#ebebeb;fill-rule:nonzero;"/><circle cx="1220.65" cy="1238.5" r="20.146" style="fill:#e0e0e0;"/></g><g id="freepik--plant-2--inject-47" opacity="0.4"><path d="M1531.33,1513.71l56.27,400.875l14.665,0.463c-9.339,-136.159 -19.296,-275.02 -70.935,-401.338Z" style="fill:#455a64;fill-rule:nonzero;"/><path d="M1687.67,1494.92c-39.327,42.955 -55.151,102.351 -65.108,159.817c-14.125,81.472 -15.438,177.725 -11.154,260.316l20.532,0.463c-8.136,-142.456 10.774,-285.174 55.73,-420.596Z" style="fill:#455a64;fill-rule:nonzero;"/><path d="M1541.67,1750.87c-4.515,-19.876 -9.687,-40.061 -21.034,-57.003c-15.437,-22.848 -40.253,-37.282 -65.378,-48.552c-25.124,-11.269 -51.484,-20.223 -74.177,-35.815c25.317,41.489 82.745,52.527 111.922,91.352c14.55,19.297 20.609,43.534 26.283,67.038c12.465,51.252 20.107,95.597 32.534,146.656l16.673,0c-5.484,-55.069 -14.443,-109.737 -26.823,-163.676Z" style="fill:#455a64;fill-rule:nonzero;"/><path d="M1646.96,1915.05c0,0 14.087,-159.2 24.546,-188.454c10.459,-29.254 109.259,-109.992 108.333,-106.172c-0.926,3.821 -74.139,92.163 -84.598,110.418c-10.459,18.254 -28.366,184.208 -28.366,184.208l-19.915,0Z" style="fill:#455a64;fill-rule:nonzero;"/></g><g id="freepik--Character--inject-47" opacity="0.4"><path d="M501.606,1703.06l-108.565,89.036l110.109,135.58c12.311,-11.308 -18.641,-102.582 -18.641,-102.582l71.9,-54.032l-54.803,-68.002Z" style="fill:#455a64;fill-rule:nonzero;"/><g opacity="0.6"><path d="M456.335,1778.43c-2.992,-2.02 -7.068,-1.468 -9.417,1.273c-2.145,2.93 -1.615,7.081 1.197,9.379c3.21,2.062 7.491,1.45 9.996,-1.428c1.91,-3.296 0.863,-7.57 -2.355,-9.61" style="fill:#fff;fill-rule:nonzero;"/></g><g opacity="0.6"><path d="M393.466,1791.71l10.922,-9.031l100.807,134.461c0,0 2.239,8.182 -2.586,10.922l-109.143,-136.352Z" style="fill:#fff;fill-rule:nonzero;"/></g><path d="M486.979,1826.75c-0.656,0.541 -3.86,-2.547 -8.452,-4.052c-4.593,-1.505 -8.954,-1.003 -9.186,-1.853c-0.231,-0.849 4.4,-2.933 10.151,-0.964c5.75,1.968 8.22,6.522 7.487,6.869Z" style="fill:#263238;fill-rule:nonzero;"/><path d="M492.652,1845.78c-0.502,0.656 -3.859,-1.273 -8.606,-1.273c-4.747,-0 -8.105,1.775 -8.607,1.119c-0.501,-0.656 2.895,-4.168 8.645,-4.091c5.751,0.077 9.186,3.705 8.568,4.245Z" style="fill:#263238;fill-rule:nonzero;"/><path d="M482.039,1867.66c-0.656,-0.463 1.93,-4.091 6.947,-5.326c5.017,-1.235 8.954,0.695 8.606,1.389c-0.347,0.695 -3.859,0.386 -7.719,1.467c-3.859,1.081 -7.101,3.087 -7.834,2.47Z" style="fill:#263238;fill-rule:nonzero;"/><path d="M501.992,1812.59c-0.811,0.232 -2.354,-3.55 -5.673,-7.101c-3.319,-3.551 -6.832,-5.48 -6.561,-6.291c0.27,-0.81 4.94,0 8.76,4.284c3.821,4.284 4.284,9.031 3.474,9.108Z" style="fill:#263238;fill-rule:nonzero;"/><path d="M515.461,1796.45c-0.27,0.232 -2.779,-2.045 -5.48,-6.831c-1.545,-2.806 -2.75,-5.786 -3.589,-8.877c-0.494,-1.824 -0.855,-3.681 -1.081,-5.557c-0.179,-1.112 -0.179,-2.246 -0,-3.358c0.286,-1.652 1.619,-2.938 3.28,-3.164c1.478,-0.102 2.917,0.516 3.86,1.659c0.706,0.869 1.29,1.83 1.737,2.856c0.818,1.738 1.477,3.546 1.968,5.403c0.834,3.118 1.16,6.35 0.965,9.571c0.152,2.999 -0.645,5.971 -2.277,8.491c-0.425,0 0.386,-3.319 -0,-8.491c-0.121,-2.998 -0.627,-5.968 -1.505,-8.838c-0.53,-1.669 -1.188,-3.295 -1.969,-4.862c-0.772,-1.737 -1.775,-2.972 -2.701,-2.818c-0.927,0.155 -0.463,0 -0.656,0.772c-0.112,0.807 -0.112,1.625 -0,2.432c0.192,1.763 0.475,3.515 0.849,5.248c0.671,2.95 1.614,5.831 2.817,8.607c1.457,2.485 2.722,5.078 3.782,7.757Z" style="fill:#263238;fill-rule:nonzero;"/><path d="M513.84,1796.22c-0.309,-0 1.004,-3.397 5.095,-7.14c2.422,-2.145 5.188,-3.867 8.182,-5.095c1.782,-0.717 3.631,-1.26 5.518,-1.621c2.424,-0.725 5.059,-0.14 6.947,1.544c0.979,1.259 1.145,2.977 0.425,4.4c-0.52,0.983 -1.169,1.891 -1.93,2.701c-1.308,1.515 -2.845,2.817 -4.554,3.86c-2.846,1.697 -6.068,2.665 -9.378,2.817c-5.674,0.193 -8.722,-1.93 -8.529,-2.161c2.776,0.147 5.559,0.147 8.336,-0c2.931,-0.376 5.748,-1.376 8.259,-2.933c1.452,-0.897 2.755,-2.018 3.859,-3.319c1.274,-1.39 2.007,-2.856 1.428,-3.281c-1.24,-0.784 -2.761,-0.995 -4.168,-0.579c-1.717,0.305 -3.407,0.744 -5.056,1.312c-2.756,1.037 -5.353,2.453 -7.718,4.207c-4.439,2.856 -6.33,5.519 -6.716,5.288Z" style="fill:#263238;fill-rule:nonzero;"/><path d="M452.437,1775.77l1.313,140.327l174.676,-0.733c-1.081,-16.673 -91.622,-49.825 -91.622,-49.825l2.856,-89.962l-87.223,0.193Z" style="fill:#455a64;fill-rule:nonzero;"/><g opacity="0.6"><path d="M482.772,1858.2c-3.466,1.071 -5.592,4.621 -4.901,8.182c0.957,3.495 4.523,5.662 8.066,4.902c3.595,-1.214 5.788,-4.908 5.133,-8.645c-1.364,-3.557 -5.346,-5.427 -8.954,-4.207" style="fill:#fff;fill-rule:nonzero;"/></g><g opacity="0.6"><path d="M453.711,1915.63l-0,-14.202l167.999,5.711c0,0 7.719,3.397 6.87,8.877l-174.869,-0.386Z" style="fill:#fff;fill-rule:nonzero;"/></g><path d="M539.66,1864.73c-0,0.849 -4.284,1.273 -8.491,3.859c-4.207,2.586 -6.407,6.368 -7.179,6.021c-0.771,-0.348 0.464,-5.249 5.597,-8.529c5.133,-3.281 10.343,-2.123 10.073,-1.351Z" style="fill:#263238;fill-rule:nonzero;"/><path d="M557.992,1872.21c-0,0.849 -3.474,2.316 -6.368,5.943c-2.895,3.628 -3.86,7.41 -4.554,7.41c-0.695,0 -1.39,-4.862 2.277,-9.301c3.666,-4.438 8.645,-4.862 8.645,-4.052Z" style="fill:#263238;fill-rule:nonzero;"/><path d="M568.489,1894.13c-0.772,0 -1.968,-4.091 0,-8.761c1.968,-4.669 6.175,-6.56 6.523,-5.866c0.347,0.695 -2.085,3.242 -3.86,7.101c-1.775,3.86 -1.814,7.411 -2.663,7.526Z" style="fill:#263238;fill-rule:nonzero;"/><path d="M538.039,1844.15c-0.386,0.772 -4.284,-0.386 -9.109,0c-4.824,0.386 -8.567,1.891 -9.031,1.158c-0.463,-0.733 3.165,-3.859 8.838,-4.13c5.674,-0.27 9.688,2.278 9.302,2.972Z" style="fill:#263238;fill-rule:nonzero;"/><path d="M533.755,1823.47c-2.854,0.785 -5.868,0.785 -8.723,-0c-5.031,-0.891 -9.85,-2.725 -14.202,-5.403c-0.982,-0.549 -1.88,-1.238 -2.663,-2.046c-1.107,-1.267 -1.264,-3.119 -0.386,-4.554c0.881,-1.253 2.328,-1.991 3.859,-1.968c1.11,-0.004 2.215,0.152 3.281,0.463c5.05,1.165 9.716,3.611 13.546,7.101c4.053,3.86 5.481,6.909 5.172,7.063c-0.309,0.154 -2.354,-2.354 -6.522,-5.442c-2.368,-1.79 -4.964,-3.257 -7.719,-4.361c-1.64,-0.652 -3.331,-1.168 -5.056,-1.544c-1.853,-0.463 -3.396,-0.463 -3.859,0.348c-0.464,0.81 -0,0.424 0.231,0.965c0.559,0.601 1.211,1.109 1.93,1.505c1.498,0.953 3.043,1.829 4.631,2.624c2.723,1.332 5.566,2.405 8.491,3.203c2.705,0.507 5.373,1.19 7.989,2.046Z" style="fill:#263238;fill-rule:nonzero;"/><path d="M532.674,1824.66c-0.309,0 -2.007,-2.894 -2.354,-8.452c-0.163,-3.233 0.228,-6.47 1.158,-9.571c0.557,-1.843 1.293,-3.627 2.199,-5.326c0.944,-2.35 3.057,-4.038 5.558,-4.438c1.657,-0.049 3.187,0.915 3.859,2.431c0.443,1.025 0.754,2.101 0.927,3.203c0.767,5.293 -0.624,10.678 -3.86,14.936c-3.396,4.554 -6.947,5.596 -7.024,5.288c-0.077,-0.309 2.663,-2.084 5.249,-6.446c1.517,-2.5 2.454,-5.309 2.74,-8.22c0.25,-1.676 0.25,-3.38 0,-5.056c-0.309,-1.852 -1.003,-3.358 -1.698,-3.165c-0.695,0.193 -2.354,1.39 -3.049,2.895c-0.854,1.518 -1.577,3.106 -2.161,4.747c-0.961,2.815 -1.52,5.751 -1.66,8.722c-0.347,5.133 0.579,8.337 0.116,8.452Z" style="fill:#263238;fill-rule:nonzero;"/><path d="M467.412,962.477c-0,0 -24.507,26.206 -36.51,51.33c-12.003,25.125 -19.722,84.907 -19.722,84.907c0,-0 -33.808,75.297 -28.675,113.813c5.133,38.517 39.559,302.191 39.559,302.191c-0,-0 -1.698,256.109 22.693,301.765l5.442,24.662l98.492,-17.676l-0.618,-14.782l23.156,-502.183l59.281,-341.904l-163.098,-2.123Z" style="fill:#263238;fill-rule:nonzero;"/><path d="M684.734,1037.16c0,-0 58.856,324.188 64.066,380.42c5.21,56.231 -195.247,352.941 -195.247,352.941l-91.622,-95.443l131.528,-244.492l-42.762,-246.422l59.474,-217.708l62.445,2.2l12.118,68.504Z" style="fill:#263238;fill-rule:nonzero;"/><path d="M429.474,1736.71c0.1,2.404 0.332,4.8 0.695,7.178c0.617,4.709 1.775,11.578 3.396,20.532c3.28,17.831 8.606,43.689 15.746,75.992l0,0.694l0.695,0l98.53,-17.29l0.733,0l0,-0.772c2.741,-67.578 6.021,-148.355 9.533,-234.998c3.628,-93.204 6.986,-179.655 9.764,-250.552c7.372,-56.964 13.47,-104.203 17.754,-137.046c2.045,-16.364 3.666,-29.216 4.785,-38.093c0.502,-4.322 0.926,-7.718 1.197,-9.996c0.27,-2.277 0.308,-3.434 0.308,-3.434c0,-0 -0.231,1.119 -0.579,3.396c-0.347,2.277 -0.849,5.673 -1.466,9.957c-1.235,8.838 -3.01,21.69 -5.287,38.015c-4.323,32.689 -10.614,79.89 -18.333,136.893c-2.856,70.897 -6.368,157.347 -10.15,250.551c-3.396,86.644 -6.561,167.421 -9.185,234.999l0.772,-0.888l-98.415,17.715l0.811,0.54c-7.333,-32.265 -12.852,-58.084 -16.364,-75.837c-1.737,-8.915 -3.01,-15.785 -3.859,-20.455c-0.425,-2.316 -0.657,-4.091 -0.811,-5.287c-0.058,-0.609 -0.149,-1.215 -0.27,-1.814Z" style="fill:#455a64;fill-rule:nonzero;"/><path d="M315.12,828.325c0,0 60.979,-131.451 75.374,-138.436c14.396,-6.986 55.768,-9.34 61.364,-1.467l-109.298,157.386l-27.44,-17.483Z" style="fill:#455a64;fill-rule:nonzero;"/><path d="M318.285,810.572c-2.692,-1.491 -5.853,-1.905 -8.838,-1.158c-18.95,4.709 -88.187,23.156 -95.906,42.955c-8.954,22.809 45.811,319.21 52.874,327.238c7.062,8.027 115.974,-5.442 119.332,-18.101c3.358,-12.659 -35.429,-332.139 -35.429,-332.139l-32.033,-18.795Z" style="fill:#455a64;fill-rule:nonzero;"/><path d="M232.336,1012.46c0,-0 -6.175,0.386 -12.311,14.009c-6.137,13.624 4.67,124.234 12.813,135.542c8.143,11.308 31.917,13.701 31.917,13.701l-32.419,-163.252Z" style="fill:#455a64;fill-rule:nonzero;"/><path d="M353.714,1167.57c-0.22,-0.212 -0.402,-0.46 -0.54,-0.733l-1.467,-2.277c-1.273,-2.007 -2.971,-5.056 -4.978,-9.108c-5.522,-11.485 -9.705,-23.567 -12.466,-36.008c-4.009,-18.423 -6.896,-37.073 -8.645,-55.845c-2.239,-21.15 -4.709,-44.383 -7.333,-68.775c-5.249,-48.783 -9.61,-93.011 -10.343,-125.237c-0.386,-16.094 -0,-29.1 0.424,-38.092c0.232,-4.477 0.502,-7.989 0.734,-10.343c-0,-1.081 0.193,-1.93 0.27,-2.663c-0.041,-0.308 -0.041,-0.619 -0,-0.927c0.043,0.308 0.043,0.619 -0,0.927l-0,2.701c-0,2.509 -0,5.982 -0.348,10.343c-0.231,8.954 -0.347,21.96 0.232,38.015c1.081,32.111 5.673,76.301 10.922,125.083c2.547,24.353 4.979,47.586 7.178,68.736c1.647,18.732 4.379,37.353 8.182,55.768c2.619,12.391 6.566,24.463 11.772,36.008c1.891,4.053 3.473,7.14 4.631,9.224l1.273,2.354c0.386,0.657 0.541,0.657 0.502,0.849Z" style="fill:#263238;fill-rule:nonzero;"/><path d="M318.98,991.77c-4.263,1.045 -8.579,1.856 -12.929,2.432c-7.951,1.35 -18.95,3.473 -30.875,6.445c-11.926,2.972 -22.694,6.213 -30.374,8.722c-4.101,1.534 -8.289,2.823 -12.543,3.859c0.953,-0.696 2.008,-1.243 3.126,-1.62c2.084,-0.927 5.133,-2.162 8.954,-3.59c19.941,-7.441 40.654,-12.619 61.75,-15.437c3.86,-0.502 7.294,-0.849 9.572,-0.965c1.108,-0.108 2.225,-0.056 3.319,0.154Z" style="fill:#263238;fill-rule:nonzero;"/><path d="M230.908,1000.22c0.246,0.578 0.402,1.19 0.463,1.814c0.271,1.428 0.579,3.165 0.965,5.249l3.204,19.297c2.74,16.325 6.715,38.864 11.578,63.641c4.863,24.778 10.034,47.123 13.816,63.256c1.853,7.719 3.358,14.279 4.516,19.104l1.158,5.21c0.176,0.602 0.267,1.225 0.27,1.852c-0.312,-0.539 -0.534,-1.126 -0.656,-1.736l-1.544,-5.133c-1.274,-4.439 -3.049,-10.922 -5.133,-18.95c-4.13,-16.055 -9.417,-38.362 -14.396,-63.178c-4.978,-24.816 -8.722,-47.432 -11.115,-63.873c-1.196,-8.182 -2.084,-14.859 -2.585,-19.297c-0.232,-2.123 -0.425,-3.859 -0.579,-5.326c-0.061,-0.643 -0.049,-1.29 0.038,-1.93Z" style="fill:#263238;fill-rule:nonzero;"/><path d="M308.366,866.765c-0.166,-2.756 0.042,-5.521 0.618,-8.221c1.955,-13.111 5.359,-25.964 10.15,-38.324c0.837,-2.626 2.018,-5.131 3.512,-7.448c0.54,0.231 -3.859,11.964 -7.719,27.015c-3.859,15.052 -5.866,27.055 -6.561,26.978Z" style="fill:#263238;fill-rule:nonzero;"/><path d="M690.986,585.338c-0.617,-11.154 -2.007,-65.61 -2.663,-73.714c-0.692,-11.293 -5.565,-21.932 -13.662,-29.834c-8.147,-7.985 -20.335,-10.346 -30.875,-5.982c-6.633,1.677 -11.874,6.8 -13.701,13.392c-22.848,81.048 -19.297,167.768 -29.331,251.748c29.833,4.863 69.97,2.895 100.112,1.313c-0.077,-67.077 -5.75,-84.328 -9.88,-156.923Z" style="fill:#263238;fill-rule:nonzero;"/><path d="M678.443,699.846c-0.176,-0.706 -0.254,-1.434 -0.231,-2.161c-0,-1.621 -0.193,-3.86 -0.309,-6.214c-0,-5.673 -0.425,-13.469 -0.695,-22.925c-0.424,-19.605 -0.965,-46.312 -1.582,-75.605c-0.232,-14.782 -0.463,-28.83 -0.656,-41.643c-0,-6.407 -0,-12.466 -0.193,-18.178c0.068,-5.167 -0.293,-10.33 -1.081,-15.437c-0.924,-7.54 -5.175,-14.284 -11.578,-18.371c-2.385,-1.31 -5.011,-2.124 -7.719,-2.393c-2.708,-0.269 0,0 0.541,0c0.538,-0.059 1.082,-0.059 1.62,0c2.121,0.196 4.181,0.813 6.06,1.814c2.969,1.578 5.533,3.824 7.487,6.561c2.595,3.634 4.349,7.8 5.133,12.196c0.907,5.238 1.359,10.545 1.351,15.862c-0,5.712 0.231,11.81 0.386,18.178c0.231,12.813 0.501,27.015 0.81,41.642c0.386,29.409 0.733,56.039 1.004,75.606l-0,29.177c-0.064,0.639 -0.18,1.271 -0.348,1.891Z" style="fill:#455a64;fill-rule:nonzero;"/><path d="M651.312,669.048c-0.26,-1.607 -0.376,-3.235 -0.348,-4.863c0,-3.164 -0.193,-7.719 -0.193,-13.353c0,-11.27 0.232,-27.016 0.656,-44.036c0.425,-17.02 0.888,-32.342 1.235,-43.997c0,-5.326 0.309,-9.803 0.425,-13.315c-0.036,-1.644 0.107,-3.288 0.425,-4.901c0.26,1.62 0.376,3.26 0.347,4.901l-0,13.354c-0,11.269 -0.232,27.015 -0.656,43.997c-0.425,16.981 -0.926,32.341 -1.235,43.997c-0.193,5.326 -0.309,9.803 -0.425,13.353c0.098,1.625 0.021,3.255 -0.231,4.863Z" style="fill:#455a64;fill-rule:nonzero;"/><path d="M454.792,689.889c-3.86,-0 -76.648,5.171 -93.552,83.131c-16.904,77.96 -21.767,187.18 -21.767,187.18l78.925,-7.718l36.394,-262.593Z" style="fill:#b956c7;fill-rule:nonzero;"/><path d="M490.53,672.637l12.813,-23.658l111.922,-3.049l7.719,20.146l65.957,23.813l-5.519,292.233l48.86,269.81c-0,-0 -0.502,38.941 -130.602,51.291l-10.305,-141.022l-65.03,-1.544l1.775,137.742c-0,-0 -114.778,-1.853 -151.172,-27.826c-0,-0 -11.038,-131.22 20.3,-225.736c27.44,-82.745 38.131,-104.204 38.131,-104.204l2.238,-247.965l52.913,-20.031Z" style="fill:#b956c7;fill-rule:nonzero;"/><g opacity="0.3"><path d="M455.949,693.246c-22.487,96.254 -45,192.545 -67.539,288.876l22.886,24.275c23.895,-11.143 39.304,-35.153 39.482,-61.518c-0,-13.354 -4.246,-26.36 -4.786,-39.713c-1.235,-30.104 15.438,-57.698 23.156,-86.837c10.614,-41.257 2.856,-85.562 -13.199,-125.083Z" style="fill-rule:nonzero;"/></g><path d="M674.661,686.145c27.016,4.979 47.818,33.538 54.031,64.182c3.59,17.946 14.049,104.474 14.049,104.474l5.75,31.724c0,-0 4.824,109.027 -18.293,121.223c-27.016,14.203 -42.454,-1.389 -51.407,-12.813c-8.954,-11.424 -18.487,-85.756 -18.487,-85.756l10.073,-177.918l4.284,-45.116Z" style="fill:#b956c7;fill-rule:nonzero;"/><path d="M687.436,729.911c-0.008,1.049 -0.111,2.095 -0.309,3.126c-0.309,2.187 -0.733,5.158 -1.274,8.915c-1.235,7.719 -2.933,19.027 -5.056,32.689c-2.122,13.662 -4.862,30.296 -7.718,48.513c-1.505,9.108 -3.049,18.679 -4.67,28.598c-1.621,9.918 -3.628,20.146 -4.477,30.875c-0.52,6.061 -0.52,12.155 -0,18.216c8.375,37.475 16.209,70.55 22.114,94.246c2.972,11.579 5.365,21.15 7.102,27.904c0.81,3.126 1.466,5.596 1.968,7.487c0.299,0.861 0.494,1.755 0.579,2.663c-0.397,-0.814 -0.708,-1.668 -0.927,-2.547l-2.315,-7.41c-1.93,-6.484 -4.631,-15.94 -7.719,-27.749c-6.252,-23.62 -14.318,-56.695 -22.732,-94.131c-0.52,-6.164 -0.52,-12.361 0,-18.525c0.849,-10.729 2.856,-20.995 4.516,-30.875c1.659,-9.88 3.28,-19.297 4.785,-28.598c3.088,-18.178 5.867,-34.735 8.182,-48.435c2.316,-13.701 4.323,-24.701 5.712,-32.612c0.695,-3.667 1.235,-6.638 1.66,-8.838c0.062,-1.189 0.256,-2.367 0.579,-3.512Z" style="fill:#263238;fill-rule:nonzero;"/><path d="M400.992,708.105l20.454,274.017c0,-0 38.286,-174.56 39.829,-219.214c1.173,-25.61 -1.428,-51.254 -7.718,-76.107c-6.291,-24.853 -37.128,-5.982 -52.565,21.304Z" style="fill:#455a64;fill-rule:nonzero;"/><path d="M389.182,690.738c2.527,0.782 4.857,2.098 6.831,3.859c2.304,1.843 4.032,4.308 4.979,7.101c1.088,3.302 1.774,6.723 2.045,10.189c0.656,7.256 0.618,13.817 0.618,18.564c0.165,2.577 0.062,5.164 -0.309,7.719c-0.766,-2.501 -1.143,-5.104 -1.119,-7.719c-0.386,-4.709 -0.541,-11.269 -1.197,-18.409c-0.656,-7.14 -2.277,-13.547 -5.75,-16.519c-3.474,-2.971 -6.291,-4.476 -6.098,-4.785Z" style="fill:#263238;fill-rule:nonzero;"/><path d="M531.13,700.656c0,0 -0.887,-0.733 -2.315,-2.392c-1.428,-1.66 -3.435,-3.86 -5.944,-7.14l1.158,-0c-2.779,8.066 -7.024,19.76 -11.848,32.882l-0.695,1.852l-1.042,-1.582c-0.579,-0.888 -1.274,-1.775 -1.814,-2.702c-3.236,-5.804 -5.911,-11.904 -7.989,-18.216c-2.045,-5.75 -3.859,-10.922 -5.171,-15.438c-1.313,-4.515 -2.625,-7.718 -3.513,-10.227c-0.532,-1.245 -0.945,-2.537 -1.235,-3.859c0.838,1.059 1.502,2.245 1.969,3.512c1.119,2.315 2.508,5.789 4.129,10.073c1.621,4.284 3.512,9.532 5.558,15.09c2.148,6.155 4.807,12.119 7.95,17.83c0.541,0.888 1.158,1.698 1.698,2.509l-1.736,0.27c4.901,-13.083 9.339,-24.7 12.504,-32.65l0.425,-1.12l0.733,0.965c2.627,3.279 5.026,6.735 7.178,10.343Z" style="fill:#263238;fill-rule:nonzero;"/><path d="M619.896,681.823c-0.296,1.273 -0.75,2.505 -1.351,3.666c-1.003,2.316 -2.547,5.596 -4.476,9.649c-1.93,4.052 -4.323,8.838 -7.14,14.125c-2.957,5.798 -6.337,11.37 -10.112,16.672l-1.273,1.737l-0.502,-2.122l-0.193,-0.888c-3.165,-13.469 -5.905,-25.704 -7.719,-34.735l1.235,0.309c-2.689,2.569 -5.653,4.834 -8.838,6.754c-2.084,1.505 -3.049,2.586 -3.165,2.47c-0.115,-0.116 0.656,-1.312 2.663,-3.087c2.947,-2.132 5.71,-4.508 8.259,-7.102l0.888,-1.042l0.386,1.351c2.238,8.838 5.21,21.034 8.375,34.503l-0,0.888l-1.775,-0.386c3.699,-5.224 7.064,-10.676 10.073,-16.326l7.487,-13.855l5.056,-9.378c0.571,-1.152 1.284,-2.228 2.122,-3.203Z" style="fill:#263238;fill-rule:nonzero;"/><path d="M533.06,699.576c-0,-0 -10.845,140.868 -13.662,159.007c-2.818,18.139 6.831,302.074 6.831,302.074l63.448,4.091c0,0 0.656,-234.458 0,-236.079c-0.656,-1.621 0.309,-165.529 0.309,-165.529l-14.396,-65.301l-24.545,29.061l-17.985,-27.324Z" style="fill:#fff;fill-rule:nonzero;"/><path d="M603.88,833.497c-0,0.308 -2.239,0.81 -3.358,3.859c-0.658,1.655 -0.559,3.518 0.27,5.094c1.203,1.753 3.376,2.585 5.442,2.085c2.108,-0.24 3.847,-1.792 4.323,-3.86c0.226,-1.768 -0.34,-3.549 -1.544,-4.863c-1.228,-1.236 -2.803,-2.071 -4.516,-2.393c-1.712,-0.322 0.502,-0.385 1.544,-0.385c1.453,0.155 2.813,0.794 3.859,1.813c1.708,1.559 2.582,3.836 2.355,6.137c-0.745,3.319 -3.716,5.698 -7.118,5.698c-2.444,0 -4.732,-1.229 -6.081,-3.267c-1.052,-2.072 -1.052,-4.527 -0,-6.599c0.633,-1.361 1.727,-2.455 3.087,-3.088c1.119,-0.424 1.698,-0.347 1.737,-0.231Z" style="fill:#263238;fill-rule:nonzero;"/><path d="M603.88,956.457c-0,0.309 -2.239,0.849 -3.358,3.859c-0.658,1.655 -0.559,3.518 0.27,5.095c1.05,1.383 2.69,2.197 4.427,2.197c2.466,-0 4.651,-1.642 5.338,-4.011c0.231,-1.769 -0.335,-3.552 -1.544,-4.863c-2.161,-2.432 -4.554,-2.084 -4.516,-2.432c0.039,-0.347 0.502,-0.385 1.544,-0.347c1.451,0.136 2.813,0.762 3.859,1.775c1.693,1.569 2.563,3.839 2.355,6.137c-0.745,3.319 -3.716,5.698 -7.118,5.698c-2.444,0 -4.732,-1.229 -6.081,-3.267c-1.051,-2.059 -1.051,-4.502 -0,-6.561c0.633,-1.36 1.727,-2.454 3.087,-3.087c1.119,-0.386 1.698,-0.27 1.737,-0.193Z" style="fill:#263238;fill-rule:nonzero;"/><path d="M609.399,1105.2c-0,0.308 -2.239,0.849 -3.358,3.859c-0.658,1.655 -0.56,3.518 0.27,5.095c1.05,1.383 2.69,2.196 4.427,2.196c2.466,0 4.651,-1.641 5.337,-4.01c0.232,-1.769 -0.334,-3.552 -1.543,-4.863c-2.162,-2.432 -4.554,-2.084 -4.516,-2.432c0.039,-0.347 0.502,-0.386 1.544,-0.347c1.454,0.123 2.82,0.752 3.859,1.775c1.722,1.551 2.611,3.83 2.393,6.137c-0.727,3.34 -3.709,5.742 -7.127,5.742c-2.463,-0 -4.765,-1.248 -6.111,-3.311c-1.032,-2.063 -1.032,-4.497 0,-6.561c0.633,-1.36 1.727,-2.454 3.088,-3.087c1.235,-0.386 1.737,-0.27 1.737,-0.193Z" style="fill:#263238;fill-rule:nonzero;"/><g opacity="0.3"><path d="M691.758,832.377c-1.389,-11.23 -4.361,-22.23 -5.094,-33.538c-0.927,-13.508 1.428,-27.015 -1.235,-40.485c-9.186,15.438 -11.27,33.847 -11.308,51.716c-0.039,17.869 1.621,35.815 -0.927,53.491c-1.736,12.119 -5.673,26.669 -7.139,38.826c-1.467,12.157 2.006,18.834 5.557,37.089c12.234,-34.542 24.623,-70.705 20.146,-107.099Z" style="fill-rule:nonzero;"/></g><path d="M670.339,803.664c14.763,42.198 8.884,88.97 -15.863,126.202" style="fill:#b956c7;fill-rule:nonzero;"/><path d="M654.476,929.866c-0.347,-0.232 3.86,-6.33 8.954,-17.059c2.937,-6.252 5.439,-12.7 7.487,-19.297c2.426,-8.145 4.206,-16.468 5.326,-24.893c0.987,-8.439 1.323,-16.942 1.004,-25.433c-0.332,-6.931 -1.144,-13.83 -2.432,-20.648c-2.277,-11.578 -4.862,-18.602 -4.476,-18.757c0.839,1.532 1.512,3.15 2.006,4.825c0.579,1.582 1.235,3.512 1.853,5.789c0.617,2.277 1.466,4.901 2.007,7.718c1.502,6.875 2.47,13.856 2.894,20.88c1.024,17.231 -1.148,34.503 -6.406,50.944c-2.174,6.624 -4.845,13.074 -7.989,19.297c-1.274,2.74 -2.702,5.055 -3.86,7.101c-1.003,1.779 -2.098,3.505 -3.28,5.172c-0.872,1.559 -1.907,3.02 -3.088,4.361Z" style="fill:#263238;fill-rule:nonzero;"/><path d="M478.643,989.841c-2.71,-1.678 -5.199,-3.688 -7.41,-5.982c-11.278,-10.457 -21.174,-22.311 -29.448,-35.275c-1.887,-2.595 -3.431,-5.423 -4.592,-8.414c2.137,2.402 4.061,4.984 5.75,7.719c3.435,4.747 8.259,11.231 13.971,18.101c5.712,6.869 11.231,12.736 15.438,16.981c2.285,2.11 4.389,4.408 6.291,6.87Z" style="fill:#263238;fill-rule:nonzero;"/><path d="M453.248,993.893c-1.632,-2.218 -2.932,-4.663 -3.86,-7.256c-5.433,-12.151 -9.322,-24.935 -11.578,-38.053c-0.662,-2.688 -0.935,-5.456 -0.81,-8.221c0.579,0 2.817,12.234 7.333,27.016c4.515,14.781 9.455,26.321 8.915,26.514Z" style="fill:#263238;fill-rule:nonzero;"/><path d="M577.366,920.372c-0,0.27 -2.354,-1.235 -6.175,-2.741c-10.093,-3.939 -21.443,-3.131 -30.875,2.2c-3.551,2.046 -5.442,3.86 -5.712,3.551c1.248,-1.964 2.957,-3.594 4.978,-4.747c4.691,-3.13 10.12,-4.98 15.747,-5.365c5.618,-0.432 11.252,0.634 16.325,3.088c2.203,0.85 4.165,2.229 5.712,4.014Z" style="fill:#263238;fill-rule:nonzero;"/><path d="M363.092,911.225c0,-0 -28.366,30.875 -26.205,52.41c2.161,21.536 12.196,68.929 38.594,67.501c26.398,-1.428 50.597,-44.151 54.032,-78.037c3.434,-33.885 -0,-113.62 -0,-113.62l-37.861,8.529l-28.56,63.217Z" style="fill:#ffbe9d;fill-rule:nonzero;"/><path d="M306.745,713.624c19.606,25.047 68.196,85.447 68.196,85.447l45.734,-11.578c3.336,-0.834 5.829,-3.65 6.252,-7.063c0.272,-2.207 -0.354,-4.433 -1.737,-6.175l-64.104,-81.047c-4.896,-6.223 -13.314,-8.574 -20.725,-5.789l-29.293,10.999c-3.821,1.444 -6.363,5.122 -6.363,9.206c-0,2.17 0.718,4.28 2.04,6Z" style="fill:#263238;fill-rule:nonzero;"/><path d="M422.064,777.227c-1.576,-1.283 -3.048,-2.69 -4.4,-4.207c-2.74,-2.856 -6.638,-6.985 -11.308,-12.196c-9.34,-10.459 -21.844,-25.317 -34.734,-42.453c-3.204,-4.284 -6.291,-8.491 -9.224,-12.62c-2.425,-4.042 -5.689,-7.516 -9.572,-10.189c-3.815,-1.774 -8.226,-1.774 -12.041,0l-10.806,3.859l-15.785,5.211c-1.899,0.734 -3.863,1.29 -5.866,1.659c1.803,-0.936 3.673,-1.736 5.596,-2.393l15.437,-5.827l10.768,-3.86c2.065,-0.771 4.217,-1.289 6.407,-1.543c2.446,-0.202 4.899,0.307 7.062,1.466c4.177,2.749 7.696,6.386 10.305,10.652l9.224,12.582c12.813,17.097 25.086,32.033 34.155,42.684c4.362,5.133 8.028,9.379 10.807,12.621c1.444,1.409 2.774,2.932 3.975,4.554Z" style="fill:#455a64;fill-rule:nonzero;"/><path d="M332.719,705.211c0.53,-0.261 1.113,-0.397 1.704,-0.397c2.117,0 3.859,1.742 3.859,3.859c0,2.118 -1.742,3.86 -3.859,3.86c-1.482,-0 -2.838,-0.854 -3.479,-2.189c-0.91,-1.896 -0.112,-4.205 1.775,-5.133" style="fill:#fff;fill-rule:nonzero;"/><path d="M371.93,759.975l-21.149,3.512l-7.719,6.947c-2.214,1.912 -3.319,4.819 -2.933,7.719c0.601,3.803 2.26,7.361 4.786,10.266c2.724,3.381 5.804,6.461 9.185,9.185c3.382,2.725 -7.41,12.042 4.091,18.139c0,0 -0.772,12.466 11.308,13.74c0,-0 3.512,11.848 12.62,12.504l9.379,9.301l-2.856,5.674l41.951,1.312c0.213,-11.191 -0.342,-22.384 -1.659,-33.5c-0.713,-4.523 -1.81,-8.978 -3.281,-13.314c2.123,-11.81 -6.715,-16.75 -8.066,-15.901c0,-0 20.03,-5.249 17.483,-19.027l-19.297,4.94l-35.236,7.333l22.616,-15.09c1.121,-1.029 2.107,-2.196 2.933,-3.474c1.93,-3.049 4.786,-8.568 2.354,-11.809c-1.042,-1.351 -28.829,10.266 -28.829,10.266l-17.213,15.862l-5.403,-7.719c-0,-0 17.714,-3.628 14.935,-16.866Z" style="fill:#ffbe9d;fill-rule:nonzero;"/><path d="M420.289,795.713c-0,0.618 -7.449,1.66 -16.364,4.284c-8.915,2.625 -15.862,5.673 -16.132,5.133c4.63,-3.347 9.877,-5.747 15.437,-7.063c5.471,-1.919 11.272,-2.72 17.059,-2.354Z" style="fill:#eb996e;fill-rule:nonzero;"/><path d="M410.602,832.03c2.522,-2.294 4.858,-4.784 6.985,-7.449l0.733,-0.964l0.502,1.119c0.693,1.476 1.921,2.635 3.435,3.242c1.617,0.808 3.549,0.69 5.056,-0.309c0.654,-0.507 0.931,-1.368 0.694,-2.161l-0.579,-3.474c-0.289,-2.413 -0.767,-4.8 -1.427,-7.14c-0.649,-2.034 -2.574,-3.407 -4.709,-3.357c-2.181,0.095 -4.338,0.497 -6.407,1.196l-11.308,2.779c-3.441,1.007 -6.968,1.691 -10.536,2.045c3.289,-1.441 6.699,-2.59 10.189,-3.434l11.115,-3.165c2.253,-0.832 4.624,-1.301 7.024,-1.39c1.373,0.03 2.711,0.445 3.86,1.197c1.166,0.871 2.052,2.066 2.547,3.435c0.698,2.465 1.201,4.981 1.505,7.526c-0,1.196 0.347,2.392 0.54,3.55c0.29,1.467 -0.299,2.976 -1.505,3.86c-2.048,1.362 -4.682,1.51 -6.87,0.385c-1.765,-0.891 -3.14,-2.403 -3.859,-4.245l1.196,0c-1.615,2.023 -3.512,3.804 -5.634,5.288c-1.583,1.042 -2.47,1.582 -2.547,1.466Z" style="fill:#eb996e;fill-rule:nonzero;"/><path d="M373.513,773.715c-2.793,4.357 -5.942,8.475 -9.417,12.311c-2.931,4.264 -6.223,8.266 -9.842,11.964c1.961,-4.799 4.714,-9.234 8.144,-13.122c3.017,-4.345 6.78,-8.121 11.115,-11.153Z" style="fill:#eb996e;fill-rule:nonzero;"/><path d="M382.235,788.265c0,0.579 -4.4,1.968 -7.719,6.483c-1.735,2.867 -3.036,5.976 -3.859,9.224c-0.27,0 -0.656,-1.157 -0.579,-3.164c0.483,-5.322 3.853,-9.968 8.761,-12.08c2.084,-0.695 3.319,-0.695 3.396,-0.463Z" style="fill:#eb996e;fill-rule:nonzero;"/><path d="M608.627,477.352c-3.242,-8.491 -1.968,-17.946 -3.242,-27.016c-2.779,-19.798 -18.718,-35.699 -37.166,-43.456c-17.174,-7.179 -38.131,-5.635 -58.817,1.003c-14.368,4.339 -27.207,12.68 -37.012,24.044c-12.668,15.627 -16.989,36.47 -11.578,55.845l101.348,-14.627c9.455,7.719 19.297,15.862 30.682,20.262c3.317,1.478 6.962,2.063 10.575,1.698c3.6,-0.494 6.61,-3.022 7.718,-6.483c1.158,-3.821 -1.08,-7.565 -2.508,-11.27Z" style="fill:#263238;fill-rule:nonzero;"/><path d="M545.642,401.824c22.191,-3.86 41.681,4.824 60.36,17.367c18.652,12.888 32.917,31.181 40.871,52.411c8.53,22.114 10.691,54.031 3.86,76.84c-5.973,21.717 -22.225,39.182 -43.457,46.699c-30.489,10.806 -65.61,9.455 -91.545,-10.073c-25.935,-19.529 -40.523,-51.832 -41.72,-84.174c-1.137,-22.445 4.819,-44.69 17.02,-63.564c12.425,-18.861 32.15,-31.731 54.418,-35.506" style="fill:#263238;fill-rule:nonzero;"/><path d="M510.405,643.152l0.811,18.061l39.829,70.434l57.891,-74.1l1.968,-185.251c-0.161,-8.537 -6.917,-15.613 -15.438,-16.171l-88.418,-18.872c-28.174,-1.891 -45.541,33.345 -46.313,61.75c-0.772,31.377 -0.54,69.701 3.859,92.896c9.224,46.66 45.425,51.291 45.425,51.291" style="fill:#ffbe9d;fill-rule:nonzero;"/><path d="M473.625,537.867c0.063,3.253 2.768,5.888 6.021,5.867c0.078,0.003 0.155,0.004 0.233,0.004c3.134,0 5.728,-2.544 5.788,-5.678c-0.123,-3.221 -2.797,-5.809 -6.021,-5.827c-0.09,-0.005 -0.181,-0.007 -0.271,-0.007c-3.113,0 -5.69,2.529 -5.75,5.641Z" style="fill:#263238;fill-rule:nonzero;"/><path d="M469.998,517.065c0.771,0.772 5.21,-2.778 11.578,-3.01c6.368,-0.232 11.346,2.817 12.002,2.007c0.657,-0.811 -0.463,-1.737 -2.624,-3.165c-2.863,-1.856 -6.241,-2.761 -9.648,-2.586c-3.366,0.108 -6.611,1.284 -9.263,3.358c-1.814,1.467 -2.431,3.049 -2.045,3.396Z" style="fill:#263238;fill-rule:nonzero;"/><path d="M532.404,536.748c0.083,3.259 2.799,5.888 6.059,5.866c0.078,0.004 0.155,0.005 0.233,0.005c3.112,0 5.689,-2.527 5.749,-5.639c-0.063,-3.253 -2.768,-5.888 -6.02,-5.867c-0.091,-0.004 -0.181,-0.006 -0.272,-0.006c-3.113,0 -5.69,2.528 -5.749,5.641Z" style="fill:#263238;fill-rule:nonzero;"/><path d="M531.516,515.56c0.772,0.772 5.21,-2.779 11.578,-3.01c6.368,-0.232 11.579,2.856 12.042,2.007c0.463,-0.849 -0.463,-1.737 -2.625,-3.165c-2.863,-1.856 -6.241,-2.761 -9.648,-2.586c-3.365,0.108 -6.61,1.284 -9.263,3.358c-1.852,1.621 -2.47,2.972 -2.084,3.396Z" style="fill:#263238;fill-rule:nonzero;"/><path d="M511.988,564.806c-3.449,-0.94 -7.001,-1.445 -10.575,-1.505c-1.66,-0 -3.242,-0.386 -3.551,-1.505c-0.214,-1.703 0.11,-3.431 0.927,-4.94l4.399,-12.775c6.137,-18.178 10.498,-33.114 9.765,-33.345c-0.734,-0.232 -6.291,14.28 -12.428,32.496l-4.206,12.852c-0.954,2.037 -1.172,4.342 -0.618,6.522c0.547,1.152 1.581,2.002 2.817,2.316c0.924,0.211 1.871,0.302 2.818,0.27c3.552,0.342 7.134,0.212 10.652,-0.386Z" style="fill:#263238;fill-rule:nonzero;"/><path d="M510.405,643.152c22.166,-1.487 43.592,-8.594 62.252,-20.648c18.661,-12.054 -14.588,33.075 -61.75,30.45l-0.502,-9.802Z" style="fill:#eb996e;fill-rule:nonzero;"/><path d="M516.966,578.738c2.388,-2.624 5.961,-3.849 9.456,-3.242c2.501,0.235 4.737,1.678 5.982,3.86c1.812,2.651 2.034,6.091 0.579,8.954c-2.015,2.485 -5.375,3.472 -8.414,2.47c-2.803,-0.64 -5.437,-1.878 -7.718,-3.628c-0.736,-0.712 -1.247,-1.625 -1.467,-2.625c-0.312,-2.085 0.342,-4.203 1.775,-5.75" style="fill:#eb996e;fill-rule:nonzero;"/><path d="M531.902,500.393c0.695,1.736 7.14,0.656 14.743,1.312c7.603,0.656 13.894,2.47 14.82,0.849c0.425,-0.772 -0.695,-2.393 -3.242,-3.859c-3.364,-2.014 -7.163,-3.191 -11.076,-3.435c-3.949,-0.329 -7.919,0.293 -11.578,1.814c-2.625,1.042 -3.976,2.624 -3.667,3.319Z" style="fill:#263238;fill-rule:nonzero;"/><path d="M470.808,488.66c1.196,1.428 5.596,-0.27 10.961,-0.54c5.364,-0.27 9.957,0.617 10.922,-0.965c0.424,-0.733 -0.348,-2.2 -2.354,-3.512c-5.581,-3.208 -12.579,-2.734 -17.676,1.196c-1.814,1.583 -2.2,3.281 -1.853,3.821Z" style="fill:#263238;fill-rule:nonzero;"/><path d="M624.836,463.728c-9.146,-27.015 -49.13,-63.718 -77.496,-61.209l-44.808,28.019c3.291,15.678 14.945,28.341 30.296,32.92c8.067,2.277 17.715,2.779 22.616,9.572c4.902,6.792 2.355,17.251 7.025,24.43c6.445,9.957 23.58,9.146 28.52,19.953c2.123,4.708 1.158,10.381 3.397,15.09c2.971,6.213 19.027,13.894 25.587,11.578c6.561,-2.316 6.33,-13.431 8.375,-19.297c2.581,-6.673 2.786,-14.035 0.579,-20.841c-3.087,-13.16 0.309,-27.401 -4.091,-40.215Z" style="fill:#263238;fill-rule:nonzero;"/><path d="M600.677,550.102c-0,-3.512 3.627,-11.887 7.062,-12.582c9.147,-1.775 25.781,-1.66 27.016,21.767c1.428,31.994 -30.875,26.784 -31.107,25.897c-0.231,-0.888 -2.547,-23.002 -2.971,-35.082Z" style="fill:#ffbe9d;fill-rule:nonzero;"/><path d="M612.718,572.602c-0,-0 0.579,0.386 1.505,0.772c1.346,0.559 2.861,0.559 4.207,-0c3.319,-1.39 5.905,-6.87 5.827,-12.62c-0.025,-2.751 -0.686,-5.459 -1.929,-7.912c-0.677,-2.006 -2.317,-3.544 -4.361,-4.091c-1.336,-0.312 -2.715,0.394 -3.242,1.659c-0.386,0.927 -0,1.544 -0.309,1.583c-0.309,0.038 -0.733,-0.502 -0.502,-1.814c0.122,-0.812 0.533,-1.552 1.158,-2.084c0.855,-0.697 1.951,-1.029 3.049,-0.926c2.694,0.395 4.987,2.188 6.021,4.708c1.481,2.715 2.289,5.746 2.354,8.838c-0,6.445 -2.972,12.62 -7.719,14.164c-1.715,0.582 -3.605,0.355 -5.133,-0.618c-0.849,-0.887 -1.042,-1.582 -0.926,-1.659Z" style="fill:#eb996e;fill-rule:nonzero;"/><path d="M653.859,506.336c0.968,-3.107 1.386,-6.359 1.235,-9.61c0.086,-15.819 -5.133,-31.22 -14.82,-43.727c-1.843,-2.669 -4.127,-5.005 -6.754,-6.908c-0.618,0.386 10.112,11.038 15.746,28.212c3.172,10.378 4.721,21.183 4.593,32.033Z" style="fill:#b956c7;fill-rule:nonzero;"/><path d="M511.872,420.889c-2.972,13.006 -22.77,29.679 -31.493,39.829c-16.595,19.297 -19.721,22.153 -19.605,80.468c-8.587,-18.101 -13.13,-37.857 -13.315,-57.89c0.388,-17.032 6.994,-33.346 18.563,-45.85c11.817,-12.415 28.83,-18.544 45.85,-16.518" style="fill:#263238;fill-rule:nonzero;"/><path d="M641.162,463.304c-1.749,0.638 -3.56,1.091 -5.404,1.351c-1.775,0.386 -3.859,0.81 -6.483,1.119c-2.625,0.309 -5.442,0.849 -8.684,1.003c-7.541,0.552 -15.113,0.552 -22.655,0c-9.257,-0.669 -18.445,-2.075 -27.479,-4.206c-9.004,-2.259 -17.807,-5.253 -26.321,-8.954c-6.932,-3.047 -13.627,-6.608 -20.03,-10.652c-2.817,-1.621 -5.133,-3.396 -7.217,-4.863c-1.815,-1.194 -3.567,-2.483 -5.249,-3.859c-1.5,-1.175 -2.907,-2.465 -4.206,-3.86c1.647,0.886 3.21,1.919 4.67,3.088c1.427,1.08 3.203,2.354 5.364,3.859c2.161,1.505 4.516,3.049 7.333,4.593c6.434,3.854 13.126,7.259 20.03,10.189c8.415,3.658 17.098,6.665 25.974,8.992c8.887,2.101 17.917,3.546 27.016,4.323c7.474,0.56 14.978,0.624 22.461,0.193c3.204,-0 6.098,-0.502 8.607,-0.695c2.508,-0.193 4.708,-0.54 6.483,-0.811c1.905,-0.426 3.841,-0.697 5.79,-0.81Z" style="fill:#455a64;fill-rule:nonzero;"/><path d="M644.481,486.267c-1.243,0.461 -2.541,0.759 -3.86,0.888c-3.406,0.64 -6.847,1.078 -10.304,1.312c-23.007,1.688 -46.049,-2.859 -66.691,-13.16c-3.117,-1.525 -6.145,-3.226 -9.069,-5.095c-1.127,-0.617 -2.165,-1.383 -3.088,-2.277c0,-0.27 4.825,2.547 12.736,6.175c20.671,9.502 43.305,13.96 66.034,13.006c8.838,-0.347 14.203,-1.196 14.242,-0.849Z" style="fill:#455a64;fill-rule:nonzero;"/><path d="M652.585,487.039c0.552,1.559 0.915,3.179 1.081,4.824c0.502,3.165 1.003,7.719 1.312,13.393c0.347,6.646 0.347,13.306 0,19.953c-0.304,8.166 -1.402,16.283 -3.28,24.237c-3.767,14.612 -12.555,27.444 -24.816,36.239c-3.723,2.543 -7.708,4.678 -11.887,6.368c-1.485,0.719 -3.054,1.25 -4.67,1.583c1.388,-0.88 2.847,-1.641 4.361,-2.277c3.985,-1.93 7.794,-4.203 11.385,-6.793c5.266,-3.894 9.855,-8.627 13.585,-14.01c4.696,-6.497 8.138,-13.814 10.151,-21.574c1.825,-7.849 2.961,-15.842 3.396,-23.889c0.463,-7.449 0.54,-14.164 0.424,-19.799c-0.115,-5.635 -0.386,-10.189 -0.694,-13.315c-0.264,-1.633 -0.38,-3.286 -0.348,-4.94Z" style="fill:#455a64;fill-rule:nonzero;"/><path d="M524.955,590.702c1.733,0.017 3.443,-0.394 4.979,-1.196c1.52,-0.935 2.563,-2.485 2.856,-4.245c0.35,-2.158 -0.272,-4.364 -1.698,-6.021c-1.5,-1.608 -3.557,-2.588 -5.751,-2.74c-1.848,-0.111 -3.691,0.29 -5.326,1.158c-2.856,1.505 -3.859,3.357 -4.322,3.164c-0.463,-0.193 0.579,-2.315 3.589,-4.399c1.811,-1.215 3.956,-1.836 6.136,-1.776c2.741,0.063 5.338,1.25 7.179,3.281c1.845,2.112 2.59,4.975 2.007,7.719c-0.429,2.211 -1.854,4.107 -3.86,5.133c-3.627,1.543 -5.982,0.077 -5.789,-0.078Z" style="fill:#263238;fill-rule:nonzero;"/><path d="M722.363,854.222l17.213,-36.703c2.856,-11.578 14.511,-15.438 28.791,-16.364l15.09,-6.175c0,-0 10.999,-15.862 21.188,-15.438c1.633,0.056 3.062,1.143 3.551,2.702c0.348,1.051 0.191,2.206 -0.425,3.126l-12.388,19.065l-9.88,4.863c-0,0 9.262,2.239 12.929,-1.196c3.666,-3.435 16.055,-13.238 16.055,-13.238c-0,0 9.455,-17.02 21.728,-15.746c1.148,0.103 2.038,1.077 2.038,2.229c-0,0.367 -0.09,0.728 -0.263,1.051l-9.416,18.178c-0,0 17.174,-25.819 33.538,-16.171l-18.14,19.722c0,-0 26.322,-14.936 36.819,-2.432l-66.613,27.518l-38.401,7.526l-13.431,36.432l-11.809,-6.831l-28.174,-12.118Z" style="fill:#ffbe9d;fill-rule:nonzero;"/><path d="M762.269,901.885c0,0 2.046,65.224 -9.996,83.209c-12.041,17.984 -34.425,42.453 -62.136,22.847l-17.328,-65.61c-0,0 28.212,-30.875 33.345,-43.611c12.774,-31.608 33.422,-81.047 33.422,-81.047l36.741,16.364l-14.048,67.848Z" style="fill:#ffbe9d;fill-rule:nonzero;"/><path d="M710.322,892.738c-1.136,2.874 -2.531,5.639 -4.168,8.259c-2.702,4.979 -6.33,11.926 -9.919,19.799c-3.589,7.873 -6.484,15.167 -8.529,20.493c-0.893,2.95 -2.069,5.807 -3.512,8.53c0.361,-3.077 1.1,-6.097 2.2,-8.993c2.203,-7.114 4.872,-14.076 7.989,-20.84c3.103,-6.785 6.621,-13.371 10.536,-19.722c1.49,-2.718 3.304,-5.245 5.403,-7.526Z" style="fill:#eb996e;fill-rule:nonzero;"/><path d="M795.383,804.242c-2.639,2.313 -5.69,4.106 -8.993,5.288c-3.014,1.775 -6.342,2.955 -9.802,3.473c2.627,-2.306 5.665,-4.1 8.953,-5.287c3.03,-1.773 6.37,-2.952 9.842,-3.474Z" style="fill:#eb996e;fill-rule:nonzero;"/><path d="M800.902,821.494c-0,-0.27 1.736,-1.428 4.863,-2.779l5.557,-2.277l3.203,-1.351c1.07,-0.406 2.014,-1.084 2.74,-1.968c3.358,-3.859 6.098,-7.719 8.298,-10.304c2.2,-2.586 3.86,-4.207 4.053,-3.86c-0.22,0.451 -0.465,0.889 -0.734,1.312l-2.161,3.397c-2.419,3.776 -5.088,7.386 -7.989,10.806c-0.467,0.536 -0.984,1.027 -1.544,1.466c-0.58,0.389 -1.201,0.713 -1.852,0.965l-3.358,1.274c-2.123,0.772 -4.091,1.351 -5.712,1.891c-1.723,0.692 -3.525,1.171 -5.364,1.428Z" style="fill:#eb996e;fill-rule:nonzero;"/></g></svg>