<?xml version="1.0" encoding="UTF-8" standalone="no"?><!DOCTYPE svg PUBLIC "-//W3C//DTD SVG 1.1//EN" "http://www.w3.org/Graphics/SVG/1.1/DTD/svg11.dtd"><svg width="100%" height="100%" viewBox="0 0 36184 36184" version="1.1" xmlns="http://www.w3.org/2000/svg" xmlns:xlink="http://www.w3.org/1999/xlink" xml:space="preserve" xmlns:serif="http://www.serif.com/" style="fill-rule:evenodd;clip-rule:evenodd;stroke-linecap:round;stroke-linejoin:round;"><g id="freepik--Artboard--inject-32" opacity="0.4"><rect x="8005.79" y="1780.89" width="20687.7" height="21124.4" style="fill:#8c8c8c;stroke:#263238;stroke-width:77.5px;"/><path d="M8647.67,3308.57l-518.004,-0" style="fill:none;fill-rule:nonzero;stroke:#ababab;stroke-width:77.5px;"/><path d="M8647.67,4264.04l-518.004,-0" style="fill:none;fill-rule:nonzero;stroke:#ababab;stroke-width:77.5px;"/><path d="M8647.67,5218.79l-518.004,-0" style="fill:none;fill-rule:nonzero;stroke:#ababab;stroke-width:77.5px;"/><path d="M8647.67,6174.25l-518.004,0" style="fill:none;fill-rule:nonzero;stroke:#ababab;stroke-width:77.5px;"/><path d="M8647.67,7128.96l-518.004,0" style="fill:none;fill-rule:nonzero;stroke:#ababab;stroke-width:77.5px;"/><path d="M8647.67,8084.46l-518.004,0" style="fill:none;fill-rule:nonzero;stroke:#ababab;stroke-width:77.5px;"/><path d="M8647.67,9039.17l-518.004,-0" style="fill:none;fill-rule:nonzero;stroke:#ababab;stroke-width:77.5px;"/><path d="M8647.67,9993.88l-518.004,0" style="fill:none;fill-rule:nonzero;stroke:#ababab;stroke-width:77.5px;"/><path d="M8647.67,10949.3l-518.004,0" style="fill:none;fill-rule:nonzero;stroke:#ababab;stroke-width:77.5px;"/><path d="M8647.67,11904l-518.004,-0" style="fill:none;fill-rule:nonzero;stroke:#ababab;stroke-width:77.5px;"/><path d="M8647.67,12859.5l-518.004,-0" style="fill:none;fill-rule:nonzero;stroke:#ababab;stroke-width:77.5px;"/><path d="M8647.67,13814.2l-518.004,0" style="fill:none;fill-rule:nonzero;stroke:#ababab;stroke-width:77.5px;"/><path d="M8647.67,14769l-518.004,0" style="fill:none;fill-rule:nonzero;stroke:#ababab;stroke-width:77.5px;"/><path d="M8647.67,15724.5l-518.004,0" style="fill:none;fill-rule:nonzero;stroke:#ababab;stroke-width:77.5px;"/><path d="M8647.67,16679.1l-518.004,0" style="fill:none;fill-rule:nonzero;stroke:#ababab;stroke-width:77.5px;"/><path d="M8647.67,17634.6l-518.004,0" style="fill:none;fill-rule:nonzero;stroke:#ababab;stroke-width:77.5px;"/><path d="M8647.67,18589.2l-518.004,0" style="fill:none;fill-rule:nonzero;stroke:#ababab;stroke-width:77.5px;"/><path d="M8647.67,19544.8l-518.004,-0" style="fill:none;fill-rule:nonzero;stroke:#ababab;stroke-width:77.5px;"/><path d="M8647.67,20499.6l-518.004,0" style="fill:none;fill-rule:nonzero;stroke:#ababab;stroke-width:77.5px;"/><path d="M8647.67,21454.2l-518.004,0" style="fill:none;fill-rule:nonzero;stroke:#ababab;stroke-width:77.5px;"/><path d="M8678.67,3181.59l-0,-366.238" style="fill:none;fill-rule:nonzero;stroke:#ababab;stroke-width:77.5px;"/><path d="M9685.25,3181.59l0,-366.238" style="fill:none;fill-rule:nonzero;stroke:#ababab;stroke-width:77.5px;"/><path d="M10692.6,3181.59l0,-366.238" style="fill:none;fill-rule:nonzero;stroke:#ababab;stroke-width:77.5px;"/><path d="M11699.2,3181.59l0,-366.238" style="fill:none;fill-rule:nonzero;stroke:#ababab;stroke-width:77.5px;"/><path d="M12705.8,3181.59l-0,-366.238" style="fill:none;fill-rule:nonzero;stroke:#ababab;stroke-width:77.5px;"/><path d="M13713.2,3181.59l-0,-366.238" style="fill:none;fill-rule:nonzero;stroke:#ababab;stroke-width:77.5px;"/><path d="M14719.7,3181.59l0,-366.238" style="fill:none;fill-rule:nonzero;stroke:#ababab;stroke-width:77.5px;"/><path d="M15726.3,3181.59l0,-366.238" style="fill:none;fill-rule:nonzero;stroke:#ababab;stroke-width:77.5px;"/><path d="M16733.7,3181.59l-0,-366.238" style="fill:none;fill-rule:nonzero;stroke:#ababab;stroke-width:77.5px;"/><path d="M17740.2,3181.59l-0,-366.238" style="fill:none;fill-rule:nonzero;stroke:#ababab;stroke-width:77.5px;"/><path d="M18746.8,3181.59l0,-366.238" style="fill:none;fill-rule:nonzero;stroke:#ababab;stroke-width:77.5px;"/><path d="M19754.2,3181.59l0,-366.238" style="fill:none;fill-rule:nonzero;stroke:#ababab;stroke-width:77.5px;"/><path d="M20760.9,3181.59l0,-366.238" style="fill:none;fill-rule:nonzero;stroke:#ababab;stroke-width:77.5px;"/><path d="M21767.3,3181.59l0,-366.238" style="fill:none;fill-rule:nonzero;stroke:#ababab;stroke-width:77.5px;"/><path d="M22774.7,3181.59l0,-366.238" style="fill:none;fill-rule:nonzero;stroke:#ababab;stroke-width:77.5px;"/><path d="M23781.4,3181.59l0,-366.238" style="fill:none;fill-rule:nonzero;stroke:#ababab;stroke-width:77.5px;"/><path d="M24788,3181.59l0,-366.238" style="fill:none;fill-rule:nonzero;stroke:#ababab;stroke-width:77.5px;"/><path d="M25795.2,3181.59l0,-366.238" style="fill:none;fill-rule:nonzero;stroke:#ababab;stroke-width:77.5px;"/><path d="M26801.9,3181.59l0,-366.238" style="fill:none;fill-rule:nonzero;stroke:#ababab;stroke-width:77.5px;"/><rect x="28019.1" y="1780.89" width="675.183" height="21124.4" style="fill:#8c8c8c;stroke:#263238;stroke-width:77.5px;"/><rect x="28019.1" y="12038.8" width="675.183" height="1814.18" style="fill:#8c8c8c;stroke:#263238;stroke-width:77.5px;"/><rect x="8005.79" y="22258" width="20687.7" height="647.308" style="fill:#8c8c8c;stroke:#263238;stroke-width:77.5px;"/><rect x="8647.67" y="3308.57" width="19404.7" height="18940.9" style="fill:#fff;stroke:#263238;stroke-width:77.5px;"/><path d="M8629.88,16290.5l19441.1,0" style="fill:none;fill-rule:nonzero;stroke:#263238;stroke-width:77.5px;"/><rect x="8005.79" y="1780.89" width="20687.7" height="927.617" style="fill:#8c8c8c;stroke:#263238;stroke-width:77.5px;"/><rect x="8005.79" y="1780.89" width="5731.38" height="927.617" style="fill:#8c8c8c;stroke:#263238;stroke-width:77.5px;"/><path d="M17935.3,17324.9c-10.838,-51.867 -88.271,-99.104 -214.488,-120.012l-87.491,-2663.58c-6.038,-54.225 -52.405,-95.72 -106.963,-95.72c-57.179,-0.001 -104.883,45.566 -107.521,102.691l86.725,2647.32c-171.112,10.833 -315.133,66.583 -300.433,129.304c28.654,125.433 773.525,207.517 730.171,0Z" style="fill:#fff;fill-rule:nonzero;stroke:#263238;stroke-width:77.5px;"/><path d="M21414.2,12207.6c0,0 380.192,154.875 253.196,475.434c-126.979,320.558 -982.583,1426.26 -1807.21,1680.21c-824.625,253.979 -1489.74,158.738 -2123.89,189.717c-634.15,30.958 -2408.84,63.479 -2884.27,-0c-251.317,-25.979 -497.25,-89.942 -729.387,-189.717c-232.125,-99.754 634.15,284.954 1775.47,-919.862c1141.32,-1204.8 1328.7,-2281.85 3074.73,-2246.24c1746.05,35.625 2441.36,1010.46 2441.36,1010.46Z" style="fill:#fff;fill-rule:nonzero;stroke:#263238;stroke-width:77.5px;"/><path d="M15453.8,12397.3c0,-0 -380.171,-570.671 -950.825,-792.109c-570.667,-221.454 -2916.79,-761.146 -3233.47,-285.712c-316.695,475.412 570.65,1680.21 1426.26,2346.12c855.583,665.891 1743.71,982.583 2600.08,792.871c856.383,-189.7 2821.55,-2219.13 3169.99,-2409.61c348.434,-190.479 2662.8,31.742 2948.51,158.717c-0,0 1204.82,-4026.33 1204.82,-4312.04c-0,-285.716 -380.954,-221.458 -665.909,126.98c-284.933,348.433 -1870.69,1141.32 -3519.18,602.408c-1648.48,-538.913 -2058.85,-1553.25 -2755.71,-982.583c-696.871,570.65 -887.346,2090.6 -542.017,3360.45c345.329,1269.84 317.454,1394.52 317.454,1394.52l0,-0.008Z" style="fill:#b0bec5;fill-rule:nonzero;stroke:#263238;stroke-width:77.5px;"/><path d="M13730.2,13674.9c-58.071,-22.467 -117.684,-46.458 -178.079,-72.008" style="fill:none;fill-rule:nonzero;stroke:#263238;stroke-width:77.5px;"/><path d="M21128.6,11953.6c0,0 -2219.13,-316.696 -2632.6,-189.717c-413.475,126.996 -1173.06,1238.88 -2155.65,1742.95c-820.758,423.55 -1486.65,515.684 -2293.47,276.425" style="fill:none;fill-rule:nonzero;stroke:#263238;stroke-width:77.5px;"/><path d="M16478.2,13233.5c38.725,18.583 77.433,35.604 116.925,51.866" style="fill:none;fill-rule:nonzero;stroke:#263238;stroke-width:77.5px;"/><path d="M15453.8,12397.3c246.804,295.287 539.321,549.112 866.442,751.837" style="fill:none;fill-rule:nonzero;stroke:#263238;stroke-width:77.5px;"/><path d="M13974.9,14302.1c-56.271,-17.004 -116.592,15.071 -133.95,71.229l-1306.25,4263.29c-247.008,4.646 -443.671,77.421 -443.671,168.792c0,91.375 209.838,169.571 468.442,169.571c258.621,-0 469.225,-77.434 469.225,-169.571c-0,-68.142 -112.258,-126.979 -274.1,-154.854l1291.53,-4215.29c16.521,-56.029 -15.462,-115.813 -71.229,-133.167Z" style="fill:#fff;fill-rule:nonzero;stroke:#263238;stroke-width:77.5px;"/><path d="M18017.4,20064.4l-120.029,-5661.67c-0.371,-57.925 -48.15,-105.366 -106.075,-105.366c-1.28,-0 -2.584,0.016 -3.863,0.075c-58.167,1.225 -105.329,49.412 -105.329,107.595c-0,0.78 -0,1.559 0.017,2.342l120.791,5652.38c-215.25,15.479 -377.091,84.404 -377.091,166.471c-0,82.079 209.841,169.571 469.225,169.571c259.404,-0 469.225,-77.417 469.225,-169.571c-0,-76.658 -147.105,-142.458 -346.871,-161.825Z" style="fill:#fff;fill-rule:nonzero;stroke:#263238;stroke-width:77.5px;"/><path d="M22578.9,18568.5l-1131.25,-5472.75c-12.1,-47.554 -55.25,-81.1 -104.308,-81.1c-59.038,0 -107.634,48.596 -107.634,107.634c0,5.633 0.446,11.262 1.338,16.821l1123.5,5436.33c-142.475,19.367 -243.125,68.908 -243.125,127.758c-0,77.438 170.333,137.834 380.958,137.834c210.6,-0 380.954,-61.959 380.954,-137.834c0,-75.875 -128.541,-121.571 -300.433,-134.725l0,0.029Z" style="fill:#fff;fill-rule:nonzero;stroke:#263238;stroke-width:77.5px;"/><path d="M23012.4,10698.5l-1753,-799.854l811.47,1747.6l220.675,-600.088l591.559,588.475c16.258,16.146 38.262,25.217 61.175,25.217c47.591,0 86.783,-39.175 86.783,-86.783c0,-23.1 -9.237,-45.271 -25.625,-61.55l-601.629,-597.763l608.596,-215.25Z" style="fill:#fff;fill-rule:nonzero;stroke:#263238;stroke-width:77.5px;"/><path d="M23151,12208.4l-0,38.708l-38.73,0" style="fill:none;fill-rule:nonzero;stroke:#263238;stroke-width:38.67px;"/><path d="M23042.7,12247.1l-521.871,0" style="fill:none;fill-rule:nonzero;stroke:#263238;stroke-width:38.67px;stroke-dasharray:69.5,69.5;"/><path d="M22485.9,12247.1l-38.709,0l0,-38.708" style="fill:none;fill-rule:nonzero;stroke:#263238;stroke-width:38.67px;"/><path d="M22447.3,12130.2l-0,-434.38" style="fill:none;fill-rule:nonzero;stroke:#263238;stroke-width:38.67px;stroke-dasharray:78.79,78.79;"/><path d="M22447.3,11657l-0,-38.709l38.708,0" style="fill:none;fill-rule:nonzero;stroke:#263238;stroke-width:38.67px;"/><path d="M22555.6,11617.6l521.871,0" style="fill:none;fill-rule:nonzero;stroke:#263238;stroke-width:38.67px;stroke-dasharray:69.5,69.5;"/><path d="M23112.4,11618.3l38.725,0l0,38.709" style="fill:none;fill-rule:nonzero;stroke:#263238;stroke-width:38.67px;"/><path d="M23151,11735.2l-0,433.6" style="fill:none;fill-rule:nonzero;stroke:#263238;stroke-width:38.67px;stroke-dasharray:78.79,78.79;"/><rect x="22743.9" y="11803.4" width="814.554" height="814.554" style="fill:#fff;stroke:#263238;stroke-width:77.5px;"/><path d="M23141.8,11949l0,484.705" style="fill:none;fill-rule:nonzero;stroke:#263238;stroke-width:77.5px;"/><path d="M22881.6,12208.4l519.55,0" style="fill:none;fill-rule:nonzero;stroke:#263238;stroke-width:77.5px;"/><circle cx="11377.1" cy="5714.33" r="1762.3" style="fill:#fff;stroke:#263238;stroke-width:77.5px;"/><circle cx="11377.1" cy="5714.33" r="1399.92" style="fill:#fff;stroke:#263238;stroke-width:77.5px;"/><circle cx="11377.1" cy="5714.33" r="131.625" style="fill:#fff;stroke:#263238;stroke-width:77.5px;"/><path d="M11508.7,5714.33l513.359,199.771" style="fill:none;fill-rule:nonzero;stroke:#263238;stroke-width:77.5px;"/><path d="M11377.1,5582.67l0,-993.417" style="fill:none;fill-rule:nonzero;stroke:#263238;stroke-width:77.5px;"/></g><g id="freepik--tools-2--inject-32" opacity="0.4"><rect x="23923" y="4048.03" width="8392.62" height="5554.83" style="fill:#263238;"/><rect x="26767.1" y="4279.54" width="5549.38" height="1067.75" style="fill:#fff;fill-opacity:0.1;"/><path d="M26767.1,5348.08l0,-1067.75l-2844,0l0,5322.54l8393.38,0l0,-4254.79l-5549.42,0l0.042,0Z" style="fill:#fff;fill-opacity:0.2;fill-rule:nonzero;"/><path d="M30627.6,5650.04l403.405,-0" style="fill:none;fill-rule:nonzero;stroke:#fff;stroke-width:38.67px;"/><path d="M30627.6,5804.12l403.405,0" style="fill:none;fill-rule:nonzero;stroke:#fff;stroke-width:38.67px;"/><path d="M30627.6,5957.46l403.405,0" style="fill:none;fill-rule:nonzero;stroke:#fff;stroke-width:38.67px;"/><path d="M30627.6,6111.54l403.405,-0" style="fill:none;fill-rule:nonzero;stroke:#fff;stroke-width:38.67px;"/><path d="M30627.6,6265.62l403.405,0" style="fill:none;fill-rule:nonzero;stroke:#fff;stroke-width:38.67px;"/><rect x="31266.5" y="5586.58" width="730.929" height="730.929" style="fill:#263238;fill-opacity:0.8;"/><rect x="31364" y="5669.42" width="145.563" height="145.563" style="fill:#fff;"/><rect x="31555.2" y="5669.42" width="145.563" height="145.563" style="fill:#fff;"/><rect x="31746.5" y="5669.42" width="145.563" height="145.563" style="fill:#fff;"/><rect x="31364" y="5861.42" width="145.563" height="145.563" style="fill:#fff;"/><rect x="31555.2" y="5861.42" width="145.563" height="145.563" style="fill:#fff;"/><rect x="31746.5" y="5861.42" width="145.563" height="145.563" style="fill:#fff;"/><rect x="31364" y="6052.67" width="145.563" height="145.562" style="fill:#fff;"/><rect x="31555.2" y="6052.67" width="145.563" height="145.562" style="fill:#fff;"/><rect x="31746.5" y="6052.67" width="145.563" height="145.562" style="fill:#fff;"/><rect x="28644" y="7197.88" width="979.479" height="878.833" style="fill:#263238;"/><rect x="25467" y="7197.88" width="979.479" height="878.833" style="fill:#263238;"/><rect x="25467" y="7197.88" width="979.479" height="878.833" style="fill:#fff;fill-opacity:0.75;"/><rect x="24408.5" y="7197.88" width="978.721" height="878.833" style="fill:#fff;fill-opacity:0.75;"/><rect x="27585.5" y="7197.88" width="979.479" height="878.833" style="fill:#263238;"/><rect x="27585.5" y="7197.88" width="979.479" height="878.833" style="fill:#fff;fill-opacity:0.15;"/><rect x="26526.3" y="7197.88" width="978.721" height="878.833" style="fill:#263238;"/><rect x="26526.3" y="7197.88" width="978.721" height="878.833" style="fill:#fff;fill-opacity:0.25;"/><rect x="29718.7" y="8137.08" width="972.513" height="930.7" style="fill:#b0bec5;"/><g><rect x="29718.7" y="8137.08" width="972.513" height="930.7" style="fill-opacity:0.5;"/></g><rect x="28656.3" y="8137.08" width="972.513" height="930.7" style="fill:#b0bec5;"/><rect x="28656.3" y="8137.08" width="972.513" height="930.7" style="fill-opacity:0.2;"/><rect x="27594.8" y="8137.08" width="972.513" height="930.7" style="fill:#b0bec5;"/><rect x="26533.2" y="8137.08" width="972.513" height="930.7" style="fill:#b0bec5;"/><rect x="26533.2" y="8137.08" width="972.513" height="930.7" style="fill:#b0bec5;fill-opacity:0.3;"/><rect x="25470.8" y="8137.08" width="972.513" height="930.7" style="fill:#b0bec5;"/><rect x="25470.8" y="8137.08" width="972.513" height="930.7" style="fill:#fff;fill-opacity:0.6;"/><rect x="24409.3" y="8137.08" width="972.513" height="930.7" style="fill:#fff;"/><rect x="30775.5" y="8137.08" width="972.513" height="930.7" style="fill:#b0bec5;"/><rect x="30775.5" y="8137.08" width="972.513" height="930.7" style="fill-opacity:0.8;"/><rect x="24717.4" y="5870.71" width="657.379" height="628.725" style="fill:none;stroke:#263238;stroke-width:154.79px;"/><rect x="24410.8" y="5516.08" width="657.379" height="628.725" style="fill:#b0bec5;"/><rect x="24410.8" y="5516.08" width="657.379" height="628.725" style="fill:#b0bec5;fill-opacity:0.3;"/><path d="M24514.7,4837.04l1694.93,-0" style="fill:none;fill-rule:nonzero;stroke:#fff;stroke-width:154.79px;"/><path d="M30794.1,4535.04l0,56.529l116.925,98.342l-116.925,97.562l0,56.513l183.509,-154.075l-183.509,-154.871Z" style="fill:#fff;fill-rule:nonzero;"/><path d="M30994.8,4535.04l-0,56.529l116.925,98.342l-116.925,97.562l-0,56.513l183.508,-154.075l-183.508,-154.871Z" style="fill:#fff;fill-rule:nonzero;"/><path d="M31410.5,4442.12l0,534.267" style="fill:none;fill-rule:nonzero;stroke:#fff;stroke-width:38.67px;"/><path d="M31642.8,4604.75l418.121,0" style="fill:none;fill-rule:nonzero;stroke:#fff;stroke-width:38.67px;"/><path d="M31642.8,4697.67l418.121,-0" style="fill:none;fill-rule:nonzero;stroke:#fff;stroke-width:38.67px;"/><path d="M31642.8,4790.58l418.121,0" style="fill:none;fill-rule:nonzero;stroke:#fff;stroke-width:38.67px;"/><path d="M31642.8,4883.5l418.121,0" style="fill:none;fill-rule:nonzero;stroke:#fff;stroke-width:38.67px;"/></g><g id="freepik--tools-1--inject-32" opacity="0.4"><rect x="2745.98" y="14950.2" width="8392.62" height="5554.83" style="fill:#263238;"/><rect x="5589.21" y="15181.7" width="5549.38" height="1067.75" style="fill:#fff;fill-opacity:0.1;"/><path d="M5589.21,16250.2l0,-1067.75l-2843.22,0l0,5321.75l8392.62,0l0,-4254l-5549.42,0l0.012,0Z" style="fill:#fff;fill-opacity:0.2;fill-rule:nonzero;"/><rect x="3540.41" y="16773" width="657.379" height="628.725" style="fill:none;stroke:#263238;stroke-width:154.79px;"/><rect x="3233.79" y="16418.2" width="657.379" height="628.725" style="fill:#b0bec5;"/><rect x="3233.79" y="16418.2" width="657.379" height="628.725" style="fill:#b0bec5;fill-opacity:0.3;"/><path d="M3336.78,15739.2l1695.71,-0" style="fill:none;fill-rule:nonzero;stroke:#fff;stroke-width:154.79px;"/><path d="M9617.12,15437.2l0,56.529l116.146,98.325l-116.146,97.562l0,56.53l183.508,-154.092l-183.508,-154.854Z" style="fill:#fff;fill-rule:nonzero;"/><path d="M9817.67,15437.2l-0,56.529l116.146,98.325l-116.146,97.562l-0,56.53l183.508,-154.092l-183.508,-154.854Z" style="fill:#fff;fill-rule:nonzero;"/><path d="M10233.5,15344.2l0,534.267" style="fill:none;fill-rule:nonzero;stroke:#fff;stroke-width:38.67px;"/><path d="M10465.8,15506.9l417.342,0" style="fill:none;fill-rule:nonzero;stroke:#fff;stroke-width:38.67px;"/><path d="M10465.8,15599.8l417.342,-0" style="fill:none;fill-rule:nonzero;stroke:#fff;stroke-width:38.67px;"/><path d="M10465.8,15692.7l417.342,0" style="fill:none;fill-rule:nonzero;stroke:#fff;stroke-width:38.67px;"/><path d="M10465.8,15785.6l417.342,0" style="fill:none;fill-rule:nonzero;stroke:#fff;stroke-width:38.67px;"/><path d="M5263.21,17049.2l3449.5,0" style="fill:none;fill-rule:nonzero;stroke:#9e9e9e;stroke-width:232.29px;stroke-linecap:butt;stroke-linejoin:miter;stroke-miterlimit:10;"/><path d="M5358.46,17132.9l-146.341,172.675l-0,129.3l301.212,0l0,-129.3l-154.871,-172.675Z" style="fill:#8f8f8f;fill-rule:nonzero;"/><path d="M5263.21,18016.3l3449.5,0" style="fill:none;fill-rule:nonzero;stroke:#b0bec5;stroke-width:232.29px;stroke-linecap:butt;stroke-linejoin:miter;stroke-miterlimit:10;"/><path d="M8527.67,18099.2l-145.563,173.438l0,129.321l301.196,-0l0,-129.321l-155.633,-173.438Z" style="fill:#8f8f8f;fill-rule:nonzero;"/><path d="M5263.21,18982.7l3449.5,-0" style="fill:none;fill-rule:nonzero;stroke:#fff;stroke-width:232.29px;stroke-linecap:butt;stroke-linejoin:miter;stroke-miterlimit:10;"/><path d="M5286.46,19066.3l-145.562,173.437l-0,129.3l301.196,0l-0,-129.3l-155.634,-173.437Z" style="fill:#8f8f8f;fill-rule:nonzero;"/><rect x="8679.46" y="19655.5" width="1271.4" height="537.371" style="fill:#263238;"/><rect x="8876.08" y="18670.7" width="1038.33" height="537.371" style="fill:#263238;"/><rect x="8876.08" y="17756.9" width="1038.33" height="537.371" style="fill:#263238;"/><rect x="8876.08" y="16844.1" width="1038.33" height="537.371" style="fill:#263238;"/></g><g id="freepik--Character--inject-32" opacity="0.4"><path d="M24617.6,24651.2c0,0 -1788.62,406.508 -2337.59,569.108c-548.983,162.605 -1056.92,284.955 -955.491,528.859c101.429,243.904 -548.984,2276.44 -548.984,2276.44l-915.979,2219.12l1300.82,1016.67l1036.77,-2013.19l934.583,4573.79l6281.88,0c0,0 -182.75,-7622.96 -487.808,-8008.54c-305.079,-385.6 -2723.99,-1220.3 -3314.01,-1280.69c-336.075,-41.18 -677.187,-0.538 -994.2,118.466l0.013,-0.029Z" style="fill:#b0bec5;fill-rule:nonzero;stroke:#263238;stroke-width:77.5px;"/><path d="M27574.6,29033.9c-270.741,-579.404 -500.483,-1177.08 -687.579,-1788.62" style="fill:none;fill-rule:nonzero;stroke:#263238;stroke-width:77.5px;"/><path d="M26991.6,28868.2c206.533,254.57 500.108,423.991 823.862,475.412" style="fill:none;fill-rule:nonzero;stroke:#263238;stroke-width:77.5px;"/><path d="M26750.8,28449.3c30.808,85.875 70.783,168.158 119.245,245.466" style="fill:none;fill-rule:nonzero;stroke:#263238;stroke-width:77.5px;"/><path d="M21850.2,27352.9l348.434,1892.4l-635.713,-1893.16" style="fill:none;fill-rule:nonzero;stroke:#263238;stroke-width:77.5px;"/><path d="M21728.7,26690.8l72.787,397.992" style="fill:none;fill-rule:nonzero;stroke:#263238;stroke-width:77.5px;"/><path d="M23790.7,24530.5c-0,0 -460.696,556.73 -498.642,1094.08c-37.946,537.366 52.646,2245.47 52.646,2245.47c-0,-0 945.421,-517.246 1329.48,-517.246c384.054,-0 1266.75,748.754 1266.75,748.754c0,0 595.425,-1919.49 288.042,-3052.28c-307.404,-1132.79 -1631.45,-1421.61 -2438.28,-518.784Z" style="fill:#fff;fill-rule:nonzero;stroke:#263238;stroke-width:77.5px;"/><path d="M23829.3,24722.6c-0,0 154.854,710.025 268.675,1170.74c113.821,460.695 421.987,1535.43 576.079,1458.77c154.091,-76.654 825.408,-1670.16 844.75,-2072.8c7.75,-174.216 353.862,-983.366 48.021,-1190.1c-403.421,-270.996 -1508.34,116.146 -1737.53,633.392Z" style="fill:#fff;fill-rule:nonzero;stroke:#263238;stroke-width:77.5px;"/><path d="M24098,25893.4c29.416,116.904 70.466,273.321 119.245,439.788c97.563,-84.388 212.146,-185.83 347.655,-309.709c746.429,-682.167 909.033,-1233.45 909.033,-1233.45l-1594.29,162.6c54.971,246.992 144.801,646.529 218.355,940.775Z" style="fill:#263238;fill-rule:nonzero;stroke:#263238;stroke-width:77.5px;stroke-linejoin:miter;stroke-miterlimit:10;"/><path d="M21426,30749.7c0,0 -121.554,-487.808 -813.012,-751.837c-691.442,-264.046 -774.288,-142.475 -874.171,61.158c-99.883,203.654 -406.508,507.95 -345.35,710.804c61.175,202.875 305.079,691.463 1199.4,874.192c894.312,182.725 711.583,-264.029 813.012,-387.146c101.425,-123.112 202.871,-59.633 20.125,-507.171Z" style="fill:#fff;fill-rule:nonzero;stroke:#263238;stroke-width:77.5px;"/><path d="M14778.6,32638.1c0,0 -914.441,305.079 -874.187,508.713c40.267,203.633 894.312,-243.905 894.312,-243.905c0,0 142.475,264.029 407.288,162.604c264.808,-101.429 40.271,-508.712 -102.208,-487.808c-142.475,20.908 -325.205,60.396 -325.205,60.396Z" style="fill:#fff;fill-rule:nonzero;stroke:#263238;stroke-width:77.5px;"/><path d="M19677.7,32475.7c-0,0 1238.88,-670.537 1238.88,-995.741c0,-325.205 -935.362,-751.855 -1179.27,-731.713c-243.904,20.125 -345.333,101.429 -528.058,406.508c-182.75,305.059 -1667.08,1687.18 -1667.08,1687.18c-0,-0 -975.613,-691.442 -1260.55,-691.442c-284.934,0 -935.346,752.617 -975.617,1057.7c-40.267,305.063 1343.42,443.671 1891.62,443.671c675.962,-0 2480.07,-1176.16 2480.07,-1176.16Z" style="fill:#fff;fill-rule:nonzero;stroke:#263238;stroke-width:77.5px;"/><path d="M16692.6,33173.3c0,0 -765.775,-863.354 -1751.46,-468.462c-985.688,394.892 -897.417,1060.8 -897.417,1060.8l2864.91,-0c13.438,-218.8 -64.892,-433.584 -216.029,-592.338Z" style="fill:#fff;fill-rule:nonzero;stroke:#263238;stroke-width:77.5px;"/><path d="M15213.8,32144.9c0,-0 -352.321,55.75 -414.258,143.254c-61.938,87.492 -440.567,596.204 -309.725,704.6c130.862,108.417 519.566,-501.746 603.191,-548.204c83.625,-46.454 222.996,-164.142 120.792,-299.65Z" style="fill:#fff;fill-rule:nonzero;stroke:#263238;stroke-width:77.5px;"/><path d="M15545.1,32223.9c0,-0 -147.883,-219.896 -330.629,-77.421c-182.729,142.458 -464.579,747.191 -440.571,896.637c24.008,149.429 232.288,67.367 331.392,-44.133c99.125,-111.5 439.808,-775.083 439.808,-775.083Z" style="fill:#fff;fill-rule:nonzero;stroke:#263238;stroke-width:77.5px;"/><path d="M16405.4,32272.8c0,-0 -387.158,-325.204 -610.158,-345.329c-222.996,-20.125 -305.063,141.695 -325.204,325.204c-20.126,183.508 -305.063,1015.88 -223.759,1056.92c81.3,41.034 243.9,20.125 345.329,-162.604c115.142,-252.6 216.975,-511.033 305.079,-774.304l162.605,122.354" style="fill:#fff;fill-rule:nonzero;stroke:#263238;stroke-width:77.5px;"/><path d="M16736.8,32758.9c-0,-0 -65.821,174.996 -131.625,328.308c-65.821,153.308 -1161.45,349.975 -1204.04,547.421c-42.592,197.446 634.933,65.041 875.733,65.041c240.8,0.001 678.284,65.821 941.55,-154.854c108.509,-98.1 225.638,-186.204 349.979,-263.266" style="fill:#fff;fill-rule:nonzero;stroke:#263238;stroke-width:77.5px;"/><path d="M27829.3,26683.1c-124.25,215.75 -232.925,440.088 -325.208,671.317c-81.3,243.904 142.458,3252.05 142.458,3252.05c269.754,-84.109 556.55,-97.971 833.159,-40.271c426.633,101.429 1280.67,569.112 1280.67,569.112c-0,0 81.304,-874.191 -61.155,-1524.6c-142.479,-650.412 -406.508,-3272.96 -589.254,-3536.99c-182.729,-264.029 -121.554,-406.509 -507.933,-264.029" style="fill:#b0bec5;fill-rule:nonzero;stroke:#263238;stroke-width:77.5px;"/><path d="M30045.4,30632.1c0,0 -548.983,-464.579 -975.612,-569.112c-426.65,-104.529 -1238.88,-0 -1362,40.254c-123.117,40.267 -203.638,182.746 -223.779,387.158c-20.125,204.417 -162.605,345.334 -61.159,464.579c101.425,119.23 670.538,507.934 1138.22,630.267c467.666,122.354 1179.25,77.438 1280.68,-223.758c101.446,-301.217 305.079,-510.275 203.65,-729.388Z" style="fill:#fff;fill-rule:nonzero;stroke:#263238;stroke-width:77.5px;"/><path d="M19158.1,32272c0,-0 -654.296,280.287 -864.9,350.754c-210.6,70.45 -281.066,263.25 -92.912,326.75c188.154,63.5 1041.44,-256.3 1121.96,-232.292c80.521,24.013 958.571,304.3 1238.88,327.529c185.388,4.479 366.85,-54.558 514.125,-167.246c147.288,-112.691 -1332.56,-839.345 -1917.15,-605.495Z" style="fill:#fff;fill-rule:nonzero;stroke:#263238;stroke-width:77.5px;"/><path d="M29171.2,31930.5c239.204,-78.404 401.992,-303.075 401.992,-554.783c0,-208.054 -111.221,-400.987 -291.275,-505.237c-143.125,-81.488 -296.862,-142.717 -456.829,-181.967c-484.946,-116.667 -993.508,-89.758 -1463.42,77.437c-202.875,81.3 -4766.58,1478.9 -5094.12,1525.36c-327.525,46.458 -2477.75,-678.284 -2805.28,-701.513c-433.617,-30.958 -934.583,1114.23 -1074.74,1419.29c-26.238,47.575 -41.088,100.591 -43.355,154.871c-0.816,56.775 36.796,107.429 91.375,123.116c61.938,10.834 115.363,-41.05 154.85,-89.833c288.821,-360.046 447.542,-830.817 812.234,-1114.99l-505.609,976.396c-31.387,51.159 -51.458,108.45 -58.854,168.029c-6.337,60.675 26.313,119.138 81.3,145.563c77.438,28.654 158.738,-41.813 207.521,-111.5c103.004,-170.258 195.083,-346.892 275.642,-528.842c92.154,-176.537 215.266,-347.671 394.129,-433.616c-198.967,343.804 -359.696,708.35 -479.296,1087.11c-20.925,59.392 5.317,125.808 61.175,154.875c77.421,34.842 138.596,-41.813 176.542,-107.637l541.996,-948.521c-143.5,327.271 -272.542,659.962 -387.142,998.083c-10.258,22.246 -13.492,47.092 -9.292,71.229c7.971,23.788 26.163,42.817 49.559,51.884c63.316,21.725 133.783,5.466 181.187,-41.813c45.288,-47.608 80.8,-103.654 104.529,-164.925c97.563,-214.483 166.471,-442.908 267.896,-652.733c280.308,59.616 514.142,321.321 820.763,368.562c306.62,47.238 864.895,-93.696 864.895,-93.696c0,0 5574.96,-765.775 6309.75,-908.254c293.505,-45.937 584.496,-106.666 871.867,-181.946l0.008,0Z" style="fill:#fff;fill-rule:nonzero;stroke:#263238;stroke-width:77.5px;"/><path d="M26034.6,22226.2c141.379,-83.142 321.954,-62.867 441.35,49.562c122.35,118.467 91.375,535.046 49.563,806.042c-77.438,530.4 -464.579,684.475 -464.579,684.475c-0,-0 -565.246,1269.08 -1040.66,1703.46c-475.412,434.38 -1031.36,580.721 -1725.13,-456.071c-305.079,-456.829 -765.791,-2632.6 -765.791,-2632.6c-0,0 -171.896,-506.391 87.508,-929.158c259.383,-422.766 1098.73,-808.367 1650.8,-837.021c552.066,-28.654 1025.17,309.725 1300.82,605.496c275.641,295.788 416.579,765.792 416.579,765.792l34.841,248.55l14.7,-8.529Z" style="fill:#fff;fill-rule:nonzero;stroke:#263238;stroke-width:77.5px;stroke-linecap:butt;stroke-linejoin:miter;stroke-miterlimit:10;"/><path d="M24195.6,22934.8c11.613,87.508 57.292,154.871 101.425,148.667c44.138,-6.188 69.688,-82.063 58.075,-170.334c-11.616,-88.271 -57.296,-154.87 -100.65,-148.666c-43.37,6.187 -73.57,82.062 -58.85,170.333Z" style="fill:#263238;fill-rule:nonzero;"/><path d="M23170.4,23094.9c11.613,88.271 56.529,154.87 100.667,148.666c44.133,-6.191 70.466,-81.304 58.071,-169.571c-12.396,-88.27 -56.53,-154.854 -100.667,-148.666c-44.133,6.204 -69.688,82.079 -58.071,169.571Z" style="fill:#263238;fill-rule:nonzero;"/><path d="M24595.9,22370.2c-163.067,-134.059 -383.817,-175.871 -584.608,-110.721" style="fill:none;fill-rule:nonzero;stroke:#263238;stroke-width:154.79px;stroke-linejoin:miter;stroke-miterlimit:10;"/><path d="M23350,22532c-190.646,-8.417 -367.596,102.633 -442.892,277.966" style="fill:none;fill-rule:nonzero;stroke:#263238;stroke-width:154.79px;stroke-linejoin:miter;stroke-miterlimit:10;"/><path d="M23647.4,22734.2c0,0 99.104,794.43 130.083,976.38c30.975,181.966 -154.854,337.6 -72.791,456.066c82.083,118.467 259.404,65.821 259.404,65.821" style="fill:none;fill-rule:nonzero;stroke:#263238;stroke-width:77.5px;stroke-linejoin:miter;stroke-miterlimit:10;"/><path d="M24076.3,24603.3c-0,0 454.525,-22.45 662.025,-354.625" style="fill:none;fill-rule:nonzero;stroke:#263238;stroke-width:77.5px;stroke-linejoin:miter;stroke-miterlimit:10;"/><path d="M24524.7,19970c0,0 -910.575,-325.987 -1563.31,-77.437c-652.733,248.55 -610.142,600.85 -1001.93,788.241c-391.808,187.375 -874.971,456.829 -750.296,1039.1c86.708,403.421 651.171,774.304 1320.17,658.942c668.991,-115.384 1467.3,-638.038 1703.46,-765.013c231.434,-107.337 469.967,-198.654 713.909,-273.325c243.941,-74.666 41.812,662.025 299.65,774.288c257.841,112.279 337.583,226.883 387.145,350.758c63.163,131.867 135.88,258.938 217.571,380.192l210.621,-10.071l-38.725,-377.854c148.163,-365.696 191.592,-765.513 125.433,-1154.48c-123.112,-594.663 -804.483,-974.075 -804.483,-974.075l-819.217,-359.267Z" style="fill:#263238;fill-rule:nonzero;"/><path d="M22363.7,22155.8c-0,0 1138.98,-209.063 1838.17,-874.971c699.191,-665.887 -284.155,-1077.04 -284.155,-1077.04" style="fill:none;fill-rule:nonzero;stroke:#fff;stroke-width:33.46px;stroke-linejoin:miter;stroke-miterlimit:10;"/><path d="M24067.8,20079.8c85.95,-32.521 1013.56,232.291 1025.18,692.22c11.613,459.934 -264.05,596.988 -264.05,596.988" style="fill:none;fill-rule:nonzero;stroke:#fff;stroke-width:33.46px;stroke-linejoin:miter;stroke-miterlimit:10;"/></g><g id="freepik--Plant--inject-32" opacity="0.4"><path d="M3621.72,28221.6c120.008,52.663 415.016,45.696 415.016,45.696c0,-0 -63.479,-192.8 -68.908,-204.417c-64.258,-135.508 -269.454,-358.504 -435.162,-336.058c-95.646,15.425 -166.671,98.825 -166.671,195.7c-0,17.858 2.416,35.642 7.175,52.85c27.091,115.383 148.662,201.329 248.55,246.229Z" style="fill:#263238;fill-rule:nonzero;"/><path d="M7480.83,27218.2c-166.483,-17.805 -364.691,211.383 -425.866,347.671c-5.43,12.379 -66.588,206.737 -63.5,206.737c-31.742,35.608 -65.042,77.421 -100.646,117.688c-65.821,77.437 -138.613,171.116 -211.383,276.425c-79.871,111.72 -153.034,228.07 -219.134,348.433c-74.35,134.433 -136.792,275.125 -186.612,420.446c0.112,1.8 0.112,3.625 -0,5.425l-0,-196.684c-19.346,-148.666 -143.238,-425.091 -309.709,-455.287c-11.075,-1.896 -22.3,-2.842 -33.521,-2.842c-105.57,0 -193.712,84.013 -198.766,189.454c-9.292,118.467 77.416,236.155 159.5,309.725c82.079,73.555 356.183,164.925 377.087,171.896c-47.35,149.296 -84.35,301.679 -110.737,456.046c-16.259,89.833 -29.417,180.425 -41.813,271.779l0,-85.946c-19.341,-148.666 -143.237,-424.308 -309.704,-454.508c-11.317,-1.987 -22.783,-2.992 -34.267,-2.992c-105.479,0 -193.433,84.221 -198.025,189.605c-9.291,117.687 77.417,232.291 159.5,309.708c112.446,74.683 235.709,131.604 365.475,168.808c-4.645,34.846 -9.291,69.688 -13.175,105.292c-20.125,168.029 -39.487,336.058 -63.479,500.983c-8.529,58.075 -19.366,114.584 -29.437,171.113l-0,-77.434c-18.584,-148.666 -143.238,-424.308 -309.704,-455.287c-9.017,-1.246 -18.1,-1.858 -27.188,-1.858c-106.537,-0 -194.996,85.854 -198.133,192.333c-10.075,117.708 77.416,236.175 159.496,309.729c108.491,73.329 227.925,129.004 353.862,164.925c-11.617,58.071 -24.008,116.142 -38.729,171.892c-10.833,37.166 -18.583,77.437 -30.958,111.5c-12.396,34.062 -24.009,77.437 -35.625,110.716c-25.55,68.925 -51.105,140.938 -77.434,207.521c-17.804,47.238 -35.608,91.371 -54.191,135.509c9.291,-57.313 24.775,-170.355 24.775,-179.646c-1.563,-131.921 -37.038,-261.259 -102.992,-375.525c1.154,-14.7 1.154,-29.454 -0,-44.138c-12.021,-98.6 -96.667,-173.546 -195.996,-173.546c-15.608,0 -31.162,1.859 -46.346,5.517c-162.6,42.592 -265.591,327.529 -273.337,476.975c-0,9.292 5.425,105.292 10.071,166.467c-7.75,-35.625 -15.48,-69.688 -24.771,-106.071c-17.042,-72.013 -35.625,-142.479 -55.75,-219.133c-11.613,-37.167 -22.467,-73.555 -34.084,-111.5c-11.612,-37.946 -26.312,-77.434 -38.708,-113.042c-32.521,-88.267 -68.904,-174.996 -108.396,-262.488c131.442,-26.962 257.879,-74.258 374.75,-140.154c88.271,-68.141 182.746,-179.641 181.967,-298.108c0.017,-0.875 0.017,-1.767 0.017,-2.638c-0,-109.179 -89.83,-199.008 -198.988,-199.008c-6.987,0 -13.975,0.371 -20.925,1.113c-167.246,18.583 -309.725,284.158 -342.246,431.279c0,9.291 -11.612,116.925 -16.258,175.758c-23.229,-51.862 -47.242,-104.529 -72.792,-154.85c-77.416,-150.208 -154.854,-299.654 -232.287,-449.862c-24.775,-45.696 -48.004,-91.375 -72.013,-137.05c22.467,-5.43 288.042,-67.367 387.163,-144.021c99.104,-76.654 182.729,-179.642 181.946,-298.113c0.058,-1.762 0.075,-3.546 0.075,-5.312c-0,-108.75 -89.475,-198.225 -198.209,-198.225c-5.462,-0 -10.908,0.221 -16.333,0.666c-167.25,17.821 -309.725,283.392 -342.246,430.517c0,10.833 -16.258,166.467 -17.804,205.958c-52.663,-101.429 -103.767,-202.854 -154.871,-304.3c-61.846,-139.17 -114.6,-282.187 -157.958,-428.175c10.075,0 288.041,-65.041 387.162,-144.02c89.034,-68.142 182.729,-179.642 181.95,-298.109c0.017,-0.671 0.017,-1.321 0.017,-1.987c-0,-109.159 -89.829,-198.992 -198.988,-198.992c-4.404,0 -8.791,0.15 -13.175,0.429c-166.487,18.584 -309.725,284.175 -342.245,431.296c-0,11.613 -17.042,178.083 -17.805,209.063c0,-8.534 -6.208,-17.042 -8.529,-25.555c-41.441,-146.137 -69.946,-295.637 -85.166,-446.775c-9.292,-83.625 -13.159,-163.383 -15.48,-241.583c52.646,-6.187 294.225,-38.708 394.113,-99.104c99.883,-60.392 201.308,-158.738 213.704,-276.421c1.042,-8.271 1.563,-16.596 1.563,-24.942c-0,-106.666 -85.446,-195.491 -192.038,-199.62c-168.029,-0 -340.687,248.55 -387.146,387.162c0,7.733 -19.362,89.033 -30.975,148.667l0,-105.313c0,-126.979 8.509,-243.121 16.259,-346.108c5.425,-58.075 10.833,-110.721 17.041,-160.283c48,-33.3 242.342,-170.35 301.975,-268.675c59.617,-98.342 106.075,-232.288 62.717,-343.788c-28.3,-78.883 -103.525,-131.829 -187.317,-131.829c-29.771,-0 -59.166,6.692 -86.021,19.55c-149.429,77.437 -188.916,377.85 -164.145,524.975c-0,13.158 58.854,209.058 61.175,207.517c-6.967,47.22 -13.175,98.325 -19.363,154.854c-10.071,102.987 -20.904,219.133 -23.229,346.891c-5.221,137.109 -2.117,274.417 9.292,411.155c12.133,153.512 38.058,305.637 77.437,454.504c-0.337,1.783 -0.337,3.625 0,5.429c-26.333,-41.813 -104.533,-154.875 -111.5,-163.383c-97.562,-113.042 -353.862,-274.884 -508.712,-209.063c-70.359,32.467 -115.609,103.192 -115.609,180.667c0,35.9 9.721,71.133 28.1,101.946c56.529,103.77 193.579,154.87 304.3,171.133c124.671,17.8 387.159,-58.075 408.829,-64.279c43.409,150.466 96.705,297.904 159.517,441.35c36.383,83.625 77.417,166.487 115.363,250.108c-24.009,-35.621 -45.675,-66.6 -49.559,-70.467c-97.562,-113.82 -353.841,-274.879 -508.716,-209.058c-68.588,33.171 -112.334,102.95 -112.334,179.142c0,35.271 9.367,69.929 27.167,100.383c56.529,103.75 193.583,154.854 304.3,171.117c110.717,16.258 337.6,-44.138 397.217,-60.396c15.479,31.737 30.975,63.496 47.237,94.458c77.417,154.871 154.854,302.754 222.996,452.963c25.554,53.429 48,106.091 70.45,159.516c-20.904,-30.975 -39.488,-57.308 -42.575,-61.175c-98.342,-113.041 -353.858,-274.879 -508.713,-209.058c-70.67,32.333 -116.2,103.229 -116.2,180.942c0,35.791 9.646,70.916 27.93,101.671c57.291,103.766 193.562,154.87 305.062,171.133c131.271,0.612 261.854,-18.975 387.158,-58.075c21.671,54.971 43.359,109.937 61.942,164.146c11.613,37.946 26.329,72.791 35.621,110.716c9.292,37.95 20.908,77.438 30.962,111.5c17.821,72.009 35.621,146.342 50.342,216.03c10.833,49.562 20.904,96.02 30.196,143.258c-24.008,-53.425 -77.438,-154.871 -77.438,-164.163c-77.433,-126.979 -309.725,-325.208 -470.766,-283.395c-85.313,23.916 -144.704,102.262 -144.704,190.87c-0,25.625 4.958,50.992 14.625,74.721c55.654,108.471 156.208,187.225 274.862,215.25c118.467,35.621 379.413,0 411.933,0c15.48,77.434 30.196,154.871 42.592,226.1c18.583,108.396 34.842,208.279 48,299.654l-154.854,0l-0,1817.28l722.421,-0l-0,-1819.61l-95.238,0c28.634,-65.82 58.071,-134.725 88.267,-209.841c30.2,-75.092 61.937,-154.85 93.679,-237.696c31.758,6.971 289.6,58.833 410.392,31.742c120.787,-27.096 241.579,-85.95 290.362,-194.342c13.492,-27.321 20.513,-57.367 20.513,-87.825c-0,-83.163 -52.329,-157.867 -130.471,-186.279c-158.738,-53.425 -401.863,126.979 -490.913,247.771c-5.404,6.966 -53.425,90.591 -82.841,144.016l37.946,-102.204c24.77,-68.908 48,-138.596 73.554,-213.708c10.833,-37.167 22.446,-77.434 33.3,-111.5c10.833,-34.063 20.125,-77.434 30.196,-116.142c21.67,-90.596 38.708,-184.292 54.191,-277.967c61.175,21.667 277.204,97.559 387.159,89.03c109.937,-8.509 251.637,-48.78 316.675,-147.884c23.604,-33.429 36.258,-73.366 36.258,-114.266c-0,-72.255 -39.508,-139.005 -102.842,-173.771c-149.446,-77.438 -416.579,65.041 -523.429,170.35c-6.187,6.971 -77.417,91.354 -109.937,138.591c8.508,-56.529 17.8,-113.037 24.77,-171.112c20.905,-166.488 36.384,-335.275 52.646,-504.067l16.259,-154.871c21.687,8.53 277.204,103.767 402.641,94.475c111.5,-7.75 251.654,-48.779 316.696,-147.904c23.358,-33.412 35.883,-73.216 35.883,-114.008c0,-72.229 -39.32,-139 -102.487,-174.029c-149.425,-77.417 -416.558,65.041 -523.413,170.35c-7.75,8.512 -105.308,130.083 -128.537,161.825c12.392,-113.042 25.55,-226.084 42.592,-336.821c22.875,-149.779 55.208,-297.963 96.779,-443.675c10.075,3.887 276.425,104.533 404.966,95.242c111.496,-7.734 251.634,-48.784 316.675,-147.888c23.23,-33.354 35.696,-73.05 35.696,-113.708c0,-72.454 -39.579,-139.392 -103.062,-174.329c-148.663,-77.438 -416.559,65.041 -522.65,170.35c-8.513,8.512 -113.042,139.375 -130.084,164.929c0,-8.534 3.888,-17.825 6.971,-26.334c45.642,-144.595 104.213,-284.804 174.996,-418.904c38.708,-77.416 77.438,-144.016 120.013,-210.6c48.016,23.229 267.133,130.084 387.158,134.725c120.012,4.646 256.283,-20.904 331.396,-113.037c31.721,-36.275 49.208,-82.846 49.208,-131.013c0,-64.541 -31.387,-125.175 -84.054,-162.454c-140.154,-92.917 -421.221,19.363 -542.013,112.279l-107.616,107.617c19.346,-30.2 37.929,-61.158 57.291,-89.033c69.688,-106.092 140.917,-198.225 204.417,-279.53c36.383,-46.458 69.688,-86.725 102.208,-124.654c58.85,0 296.55,-8.529 400.317,-57.312c113.729,-44.375 202.221,-136.825 241.579,-252.413c3.496,-14.904 5.263,-30.162 5.263,-45.454c-0,-98.342 -72.884,-182.675 -170.188,-196.908Zm-1847.48,4483.96c-39.492,89.813 -77.437,172.675 -112.279,248.55l-251.633,0c-16.263,-96.021 -34.846,-202.092 -58.075,-318.237c-15.496,-77.438 -34.08,-163.384 -53.425,-250.092c79.495,-31.221 157.062,-67.158 232.287,-107.633c101.113,86.933 213.671,159.608 334.496,216.029c-34.842,70.466 -61.954,147.883 -91.371,211.383Z" style="fill:#263238;fill-rule:nonzero;"/><path d="M6602,28286c0,0 53.425,-195.904 54.971,-208.296c20.904,-148.666 -26.317,-447.541 -178.083,-520.329c-25.684,-11.616 -53.559,-17.637 -81.746,-17.637c-85.617,-0 -161.992,55.471 -188.492,136.883c-40.25,111.5 10.854,247.771 72.013,342.246c71.245,109.938 320.558,267.133 321.337,267.133Z" style="fill:#263238;fill-rule:nonzero;"/></g><g id="freepik--Device--inject-32" opacity="0.4"><rect x="15779" y="33514.7" width="5209.46" height="272.558" style="fill:#fff;stroke:#263238;stroke-width:77.5px;"/><rect x="13123.1" y="33514.7" width="6518.83" height="272.558" style="fill:#fff;stroke:#263238;stroke-width:77.5px;"/><rect x="10722.8" y="33605.4" width="3608.23" height="168.029" style="fill:#fff;stroke:#263238;stroke-width:77.5px;"/><rect x="7947.71" y="27647.8" width="7777.04" height="5015.12" style="fill:#fff;stroke:#263238;stroke-width:77.5px;"/><rect x="7947.71" y="27647.8" width="7351.96" height="5015.12" style="fill:#263238;stroke:#263238;stroke-width:77.5px;"/><rect x="10639.2" y="29978.5" width="1701.14" height="3871.48" style="fill:#fff;stroke:#263238;stroke-width:77.5px;"/><rect x="10482" y="29978.5" width="1701.14" height="3871.48" style="fill:#263238;stroke:#263238;stroke-width:77.5px;"/><path d="M12296.2,30023.5l-1853.67,0l-0,2651.18" style="fill:none;fill-rule:nonzero;stroke:#fff;stroke-width:77.5px;"/></g><g id="freepik--Table--inject-32" opacity="0.4"><rect x="6104.88" y="33784.9" width="27329.7" height="614.787" style="fill:#fff;stroke:#263238;stroke-width:77.5px;"/><rect x="3830.78" y="33784.9" width="19795" height="614.787" style="fill:#263238;stroke:#263238;stroke-width:77.5px;"/></g></svg>