<?xml version="1.0" encoding="UTF-8" standalone="no"?><!DOCTYPE svg PUBLIC "-//W3C//DTD SVG 1.1//EN" "http://www.w3.org/Graphics/SVG/1.1/DTD/svg11.dtd"><svg width="100%" height="100%" viewBox="0 0 8684 8684" version="1.1" xmlns="http://www.w3.org/2000/svg" xmlns:xlink="http://www.w3.org/1999/xlink" xml:space="preserve" xmlns:serif="http://www.serif.com/" style="fill-rule:evenodd;clip-rule:evenodd;stroke-linecap:round;stroke-linejoin:round;"><g id="freepik--Plants--inject-54"><path d="M2921.63,4478.08c0,0 -126.166,-99.608 -158.683,-163.72c-27.479,-54.501 -47.4,-131.438 -19.004,-189.596c17.491,-38.884 56.341,-64.004 98.979,-64.004c19.204,-0 38.071,5.1 54.667,14.77c77.62,48.317 86.095,213.413 66.175,292.638c-1.605,6.871 -40.759,111.058 -42.134,109.912Z" style="fill:#b0bec5;fill-rule:nonzero;"/><path d="M4089.66,5309.29c-5.266,4.808 -95.254,70.296 -95.712,68.691c-0.458,-1.6 -50.375,-152.958 -42.133,-224.17c7.1,-60.68 32.975,-136.013 88.845,-168.759c17.355,-10.975 37.475,-16.804 58.013,-16.804c41.171,0 78.941,23.425 97.233,60.313c38.242,83.345 -45.796,225.545 -106.246,280.729Z" style="fill:#b0bec5;fill-rule:nonzero;"/><path d="M1442.64,4629.46c-0,0 462.541,477.196 460.025,1063.62c-2.521,586.421 -469.184,1059.95 -469.184,1059.95c0,-0 -462.541,-477.425 -460.021,-1063.84c2.517,-586.421 469.18,-1059.72 469.18,-1059.72Z" style="fill:#b0bec5;fill-rule:nonzero;"/><path d="M2102.11,6044.33c-6.208,-6.55 -11.879,-13.595 -16.946,-21.062c-33.429,-50.838 -62.283,-125.254 -40.529,-186.163c14.175,-44.962 56.154,-75.745 103.296,-75.745c14.967,-0.001 29.771,3.104 43.479,9.112c62.742,29.767 93.655,130.287 100.296,212.721c24.959,-5.725 47.625,-10.075 67.092,-13.279l24.958,-56.559c9.159,-19.462 15.571,-38.925 22.896,-58.85c10.992,-29.308 21.067,-59.991 30.912,-91.591c-36.408,-16.484 -143.112,-66.175 -183.183,-110.138c-40.071,-43.966 -80.6,-114.492 -68.696,-177.921c8.217,-52.608 53.992,-91.791 107.238,-91.791c9.408,-0 18.771,1.221 27.862,3.637c87.929,26.334 139.45,183.184 141.284,264.929c-0,2.746 -1.375,19.921 -3.209,40.53c8.93,-30.225 17.863,-60.45 25.646,-91.592c22.9,-87.929 43.05,-177.917 63.658,-268.138c4.35,-18.775 8.93,-37.55 13.28,-56.329c-30.913,-13.737 -146.775,-66.633 -188.45,-112.658c-41.675,-46.025 -80.6,-114.488 -68.696,-177.917c8.158,-52.541 53.858,-91.691 107.025,-91.691c9.562,-0 19.079,1.266 28.304,3.762c87.7,26.104 139.221,183.183 141.05,264.7c-0,2.979 -1.6,22.9 -3.663,45.8c11.909,-48.775 24.5,-97.317 38.242,-145.175c23.454,-82.179 52.292,-162.725 86.325,-241.117c-10.762,-4.579 -147.921,-63.887 -194.175,-114.491c-40.987,-45.796 -80.604,-114.488 -68.696,-177.917c8.184,-52.512 53.871,-91.633 107.017,-91.633c9.483,-0 18.925,1.246 28.083,3.704c87.929,26.104 139.45,183.183 141.279,264.7c0,5.954 -6.641,80.604 -10.075,107.167c0.48,-0.875 0.863,-1.796 1.146,-2.75c35.484,-76.08 77.629,-148.875 125.938,-217.534c42.862,-61.496 89.271,-120.441 138.991,-176.541c45.796,-52.438 90.45,-97.775 130.521,-137.388c22.896,-21.296 42.363,-40.3 61.596,-57.933l-2.062,-0c-1.605,-0 42.82,-102.125 45.795,-108.309c41.217,-70.754 162.121,-183.183 251.88,-163.95c48.333,11.805 82.612,55.463 82.612,105.217c0,12.692 -2.229,25.288 -6.592,37.208c-19.92,61.367 -87.929,102.813 -145.858,122.734c-57.933,19.925 -188.454,10.533 -220.508,7.787c-19.463,18.775 -40.3,38.925 -62.742,61.825c-38.925,40.529 -82.892,86.554 -127.083,139.909c-11.679,14.195 -22.9,29.766 -35.95,45.795c25.646,-21.066 60.908,-49.691 64.8,-51.979c68.696,-43.966 228.979,-88.158 297.675,-29.537c23.129,20.541 36.379,50.037 36.379,80.975c-0,30.071 -12.525,58.829 -34.546,79.308c-45.796,45.796 -125.483,50.833 -185.933,41.904c-60.45,-8.929 -175.859,-79.683 -200.359,-95.483c-26.104,33.887 -52.208,68.692 -77.166,107.392c-46.263,68.712 -86.263,141.437 -119.529,217.3c-2.059,4.354 -3.434,9.162 -5.267,13.741c10.762,-12.596 75.108,-77.625 80.146,-81.746c63.883,-51.062 217.071,-112.658 293.554,-62.283c29.046,20.283 46.396,53.558 46.396,88.988c-0,26.204 -9.492,51.541 -26.704,71.3c-40.988,50.145 -119.3,64.112 -180.438,62.05c-70.296,-2.746 -208.829,-72.584 -214.096,-75.334c-31.125,76.55 -57.283,155.021 -78.312,234.934c-15.8,59.308 -29.309,119.758 -42.363,180.437c14.425,-16.029 74.192,-76.479 79,-80.142c63.884,-51.291 217.071,-112.658 293.784,-62.283c28.962,20.296 46.25,53.521 46.25,88.888c-0,26.25 -9.521,51.629 -26.788,71.4c-40.987,50.145 -119.3,64.341 -180.437,62.05c-68.696,-2.517 -201.734,-68.692 -212.955,-74.646c-5.95,27.708 -11.904,55.183 -17.629,83.121c-18.775,90.445 -37.096,181.35 -57.933,270.425c-7.096,30.912 -15.342,60.908 -22.896,91.591c22.896,-22.896 64.113,-65.487 68.692,-68.691c63.887,-51.063 217.304,-112.659 293.783,-62.284c28.904,20.354 46.142,53.575 46.142,88.929c-0,26.217 -9.479,51.571 -26.679,71.359c-40.988,49.916 -119.3,64.112 -180.209,62.05c-60.908,-2.059 -174.483,-55.642 -206.079,-71.213c-13.742,50.15 -28.625,99.609 -45.8,147.692c-7.783,20.608 -14.196,42.133 -22.896,61.371c-4.35,10.3 -8.471,20.604 -12.825,30.683l17.634,-1.604c-0,-0 1.145,28.621 -1.605,75.104c67.321,-47.854 164.409,-89.071 227.609,-60.221c36.946,18.271 60.421,56.075 60.421,97.288c-0,20.608 -5.867,40.796 -16.917,58.191c-4.129,6.834 -8.883,13.271 -14.196,19.234c-11.9,70.991 -41.783,137.766 -86.783,193.946c-3.434,3.891 -49.229,45.795 -73.046,67.091c22.9,-12.366 45.796,-24.729 68.696,-38.241c34.346,-19.005 70.066,-40.3 104.871,-60.68l53.354,-33.887c18.321,-11.221 34.346,-24.271 51.979,-36.179c25.417,-18.321 50.604,-38.7 76.021,-58.621c-21.525,-33.888 -82.892,-134.179 -91.592,-192.571c-8.7,-58.392 -4.121,-139.908 40.988,-186.392c20.554,-22.541 49.691,-35.404 80.2,-35.404c31.045,0 60.641,13.317 81.229,36.55c58.85,70.296 15.341,228.979 -28.392,297.675c-1.375,2.292 -12.137,16.029 -24.958,32.059c24.041,-20.38 48.087,-40.53 71.9,-62.055c67.321,-60.679 133.954,-124.795 200.816,-188.679l42.13,-39.616c-18.088,-28.392 -85.638,-137.388 -94.796,-197.609c-9.159,-60.221 -4.121,-139.908 40.987,-186.391c20.517,-22.567 49.642,-35.455 80.142,-35.455c30.504,0 59.629,12.888 80.146,35.455c58.846,70.3 15.341,228.983 -28.167,298.82c-1.6,2.517 -14.425,18.775 -29.079,36.867c37.096,-34.121 74.187,-68.696 112.2,-99.837c64.775,-55.7 133.242,-106.959 204.937,-153.417c-6.412,-10.075 -88.158,-135.096 -98.462,-203.333c-9.158,-60.221 -4.121,-139.909 40.987,-186.163c20.559,-22.542 49.696,-35.404 80.2,-35.404c31.046,-0 60.642,13.317 81.234,36.55c58.846,70.296 15.341,228.979 -28.396,298.821c-2.975,4.808 -49.917,63.425 -67.321,83.804l2.292,-1.6c71.546,-43.954 146.875,-81.425 225.087,-111.975c69.604,-27.767 140.788,-51.392 213.179,-70.754c67.092,-18.546 129.605,-31.6 184.788,-42.588c30,-5.725 57.704,-10.533 83.35,-14.658l-1.375,-1.142c-1.371,0 91.596,-61.596 98.233,-64.804c73.275,-36.408 236.309,-63.654 300.196,2.063c18.392,19.987 28.608,46.179 28.608,73.341c0,34.238 -16.237,66.525 -43.72,86.946c-50.605,40.3 -130.292,37.321 -189.367,22.896c-59.079,-14.425 -163.038,-95.254 -188.225,-114.492c-26.558,4.813 -55.183,10.304 -86.325,16.946c-55.183,12.367 -117.008,26.563 -183.183,45.796c-17.634,5.267 -36.409,11.679 -54.725,17.633c32.97,-3.662 78.308,-7.787 82.658,-7.787c81.746,1.604 239.058,52.437 265.621,140.137c2.508,9.259 3.779,18.813 3.779,28.404c-0,53.046 -38.883,98.705 -91.25,107.155c-63.658,12.362 -132.808,-27.021 -178.379,-68.696c-45.567,-41.675 -102.584,-163.492 -114.488,-190.054c-40.529,13.737 -81.746,28.85 -123.65,45.795c-76.496,31.63 -150.054,69.942 -219.821,114.492c-3.891,2.517 -7.787,5.725 -11.679,8.471c16.029,-4.579 105.334,-22.896 111.742,-22.896c81.517,-7.558 243.408,25.646 279.358,109.908c4.959,12.646 7.5,26.113 7.5,39.696c0,48.7 -32.708,91.746 -79.629,104.792c-61.596,19.233 -134.871,-12.367 -184.558,-47.858c-57.246,-40.988 -134.413,-175.625 -137.388,-180.663c-68.208,46.617 -133.3,97.633 -194.862,152.729c-45.796,40.529 -90.45,83.575 -134.871,127.084c20.837,-5.496 103.958,-22.9 110.142,-22.9c81.516,-7.555 243.175,25.645 279.354,109.912c5.004,12.671 7.575,26.171 7.575,39.796c-0,48.65 -32.779,91.612 -79.704,104.462c-61.825,19.463 -134.871,-12.137 -184.559,-47.629c-55.871,-39.842 -130.287,-168.758 -137.387,-179.75l-60.679,59.538c-65.488,65.258 -130.98,130.745 -197.384,193.716c-22.896,21.754 -45.796,42.363 -70.066,62.967c31.6,-7.096 89.529,-19.004 94.566,-19.463c81.521,-7.554 243.179,25.646 279.129,109.913c5.075,12.746 7.68,26.337 7.68,40.058c-0,48.604 -32.717,91.538 -79.58,104.43c-61.825,19.233 -134.87,-12.367 -184.558,-47.859c-49.687,-35.492 -114.492,-142.654 -132.808,-173.108c-39.154,34.346 -79,67.321 -119.759,98.004c-17.858,13.05 -35.033,27.246 -52.891,38.696l-52.667,35.033c-36.637,22.9 -70.754,43.967 -105.562,64.346c-17.4,10.304 -34.117,19.692 -51.292,29.537c30.912,-11.908 80.375,-30.225 84.954,-31.6c79.454,-19.691 244.321,-11.22 292.638,66.634c9.666,16.566 14.762,35.408 14.762,54.591c0,42.592 -25.129,81.4 -63.996,98.825c-58.158,28.396 -135.325,8.475 -189.825,-19.004c-59.991,-30.454 -150.437,-142.425 -161.429,-156.166c-41.904,22.9 -83.121,46.941 -122.046,67.55c-103.729,55.641 -194.404,99.837 -264.704,132.808c-228.979,197.612 -549.55,219.362 -549.55,219.362c0,0 -16.946,-385.141 209.746,-638.395c80.296,-84.192 178.192,-149.638 286.683,-191.659Zm407.813,375.53c-7.096,-15.8 -61.825,-137.388 -65.717,-206.084c-12.821,-2.516 -25.417,-5.037 -37.783,-8.012c-23.288,121.658 -71.638,237.154 -141.967,339.121c41.675,-19.692 86.554,-41.675 134.183,-65.946c35.721,-19.009 73.046,-37.325 111.284,-59.079Z" style="fill:#b0bec5;fill-rule:nonzero;"/><path d="M417.725,5970.83c0,0 385.146,11.675 620.996,256.688c235.85,245.008 232.875,630.383 232.875,630.383c-0,0 -385.604,-11.908 -621.225,-256c-235.621,-244.096 -232.646,-631.071 -232.646,-631.071Z" style="fill:#b0bec5;fill-rule:nonzero;"/><g opacity="0.5"><path d="M2921.63,4478.08c0,0 -126.166,-99.608 -158.683,-163.72c-27.479,-54.501 -47.4,-131.438 -19.004,-189.596c17.491,-38.884 56.341,-64.004 98.979,-64.004c19.204,-0 38.071,5.1 54.667,14.77c77.62,48.317 86.095,213.413 66.175,292.638c-1.605,6.871 -40.759,111.058 -42.134,109.912Z" style="fill:#9a9a9a;fill-rule:nonzero;"/><path d="M4089.66,5309.29c-5.266,4.808 -95.254,70.296 -95.712,68.691c-0.458,-1.6 -50.375,-152.958 -42.133,-224.17c7.1,-60.68 32.975,-136.013 88.845,-168.759c17.355,-10.975 37.475,-16.804 58.013,-16.804c41.171,0 78.941,23.425 97.233,60.313c38.242,83.345 -45.796,225.545 -106.246,280.729Z" style="fill:#9a9a9a;fill-rule:nonzero;"/><path d="M1442.64,4629.46c-0,0 462.541,477.196 460.025,1063.62c-2.521,586.421 -469.184,1059.95 -469.184,1059.95c0,-0 -462.541,-477.425 -460.021,-1063.84c2.517,-586.421 469.18,-1059.72 469.18,-1059.72Z" style="fill:#9a9a9a;fill-rule:nonzero;"/><path d="M2102.11,6044.33c-6.208,-6.55 -11.879,-13.595 -16.946,-21.062c-33.429,-50.838 -62.283,-125.254 -40.529,-186.163c14.175,-44.962 56.154,-75.745 103.296,-75.745c14.967,-0.001 29.771,3.104 43.479,9.112c62.742,29.767 93.655,130.287 100.296,212.721c24.959,-5.725 47.625,-10.075 67.092,-13.279l24.958,-56.559c9.159,-19.462 15.571,-38.925 22.896,-58.85c10.992,-29.308 21.067,-59.991 30.912,-91.591c-36.408,-16.484 -143.112,-66.175 -183.183,-110.138c-40.071,-43.966 -80.6,-114.492 -68.696,-177.921c8.217,-52.608 53.992,-91.791 107.238,-91.791c9.408,-0 18.771,1.221 27.862,3.637c87.929,26.334 139.45,183.184 141.284,264.929c-0,2.746 -1.375,19.921 -3.209,40.53c8.93,-30.225 17.863,-60.45 25.646,-91.592c22.9,-87.929 43.05,-177.917 63.658,-268.138c4.35,-18.775 8.93,-37.55 13.28,-56.329c-30.913,-13.737 -146.775,-66.633 -188.45,-112.658c-41.675,-46.025 -80.6,-114.488 -68.696,-177.917c8.158,-52.541 53.858,-91.691 107.025,-91.691c9.562,-0 19.079,1.266 28.304,3.762c87.7,26.104 139.221,183.183 141.05,264.7c-0,2.979 -1.6,22.9 -3.663,45.8c11.909,-48.775 24.5,-97.317 38.242,-145.175c23.454,-82.179 52.292,-162.725 86.325,-241.117c-10.762,-4.579 -147.921,-63.887 -194.175,-114.491c-40.987,-45.796 -80.604,-114.488 -68.696,-177.917c8.184,-52.512 53.871,-91.633 107.017,-91.633c9.483,-0 18.925,1.246 28.083,3.704c87.929,26.104 139.45,183.183 141.279,264.7c0,5.954 -6.641,80.604 -10.075,107.167c0.48,-0.875 0.863,-1.796 1.146,-2.75c35.484,-76.08 77.629,-148.875 125.938,-217.534c42.862,-61.496 89.271,-120.441 138.991,-176.541c45.796,-52.438 90.45,-97.775 130.521,-137.388c22.896,-21.296 42.363,-40.3 61.596,-57.933l-2.062,-0c-1.605,-0 42.82,-102.125 45.795,-108.309c41.217,-70.754 162.121,-183.183 251.88,-163.95c48.333,11.805 82.612,55.463 82.612,105.217c0,12.692 -2.229,25.288 -6.592,37.208c-19.92,61.367 -87.929,102.813 -145.858,122.734c-57.933,19.925 -188.454,10.533 -220.508,7.787c-19.463,18.775 -40.3,38.925 -62.742,61.825c-38.925,40.529 -82.892,86.554 -127.083,139.909c-11.679,14.195 -22.9,29.766 -35.95,45.795c25.646,-21.066 60.908,-49.691 64.8,-51.979c68.696,-43.966 228.979,-88.158 297.675,-29.537c23.129,20.541 36.379,50.037 36.379,80.975c-0,30.071 -12.525,58.829 -34.546,79.308c-45.796,45.796 -125.483,50.833 -185.933,41.904c-60.45,-8.929 -175.859,-79.683 -200.359,-95.483c-26.104,33.887 -52.208,68.692 -77.166,107.392c-46.263,68.712 -86.263,141.437 -119.529,217.3c-2.059,4.354 -3.434,9.162 -5.267,13.741c10.762,-12.596 75.108,-77.625 80.146,-81.746c63.883,-51.062 217.071,-112.658 293.554,-62.283c29.046,20.283 46.396,53.558 46.396,88.988c-0,26.204 -9.492,51.541 -26.704,71.3c-40.988,50.145 -119.3,64.112 -180.438,62.05c-70.296,-2.746 -208.829,-72.584 -214.096,-75.334c-31.125,76.55 -57.283,155.021 -78.312,234.934c-15.8,59.308 -29.309,119.758 -42.363,180.437c14.425,-16.029 74.192,-76.479 79,-80.142c63.884,-51.291 217.071,-112.658 293.784,-62.283c28.962,20.296 46.25,53.521 46.25,88.888c-0,26.25 -9.521,51.629 -26.788,71.4c-40.987,50.145 -119.3,64.341 -180.437,62.05c-68.696,-2.517 -201.734,-68.692 -212.955,-74.646c-5.95,27.708 -11.904,55.183 -17.629,83.121c-18.775,90.445 -37.096,181.35 -57.933,270.425c-7.096,30.912 -15.342,60.908 -22.896,91.591c22.896,-22.896 64.113,-65.487 68.692,-68.691c63.887,-51.063 217.304,-112.659 293.783,-62.284c28.904,20.354 46.142,53.575 46.142,88.929c-0,26.217 -9.479,51.571 -26.679,71.359c-40.988,49.916 -119.3,64.112 -180.209,62.05c-60.908,-2.059 -174.483,-55.642 -206.079,-71.213c-13.742,50.15 -28.625,99.609 -45.8,147.692c-7.783,20.608 -14.196,42.133 -22.896,61.371c-4.35,10.3 -8.471,20.604 -12.825,30.683l17.634,-1.604c-0,-0 1.145,28.621 -1.605,75.104c67.321,-47.854 164.409,-89.071 227.609,-60.221c36.946,18.271 60.421,56.075 60.421,97.288c-0,20.608 -5.867,40.796 -16.917,58.191c-4.129,6.834 -8.883,13.271 -14.196,19.234c-11.9,70.991 -41.783,137.766 -86.783,193.946c-3.434,3.891 -49.229,45.795 -73.046,67.091c22.9,-12.366 45.796,-24.729 68.696,-38.241c34.346,-19.005 70.066,-40.3 104.871,-60.68l53.354,-33.887c18.321,-11.221 34.346,-24.271 51.979,-36.179c25.417,-18.321 50.604,-38.7 76.021,-58.621c-21.525,-33.888 -82.892,-134.179 -91.592,-192.571c-8.7,-58.392 -4.121,-139.908 40.988,-186.392c20.554,-22.541 49.691,-35.404 80.2,-35.404c31.045,0 60.641,13.317 81.229,36.55c58.85,70.296 15.341,228.979 -28.392,297.675c-1.375,2.292 -12.137,16.029 -24.958,32.059c24.041,-20.38 48.087,-40.53 71.9,-62.055c67.321,-60.679 133.954,-124.795 200.816,-188.679l42.13,-39.616c-18.088,-28.392 -85.638,-137.388 -94.796,-197.609c-9.159,-60.221 -4.121,-139.908 40.987,-186.391c20.517,-22.567 49.642,-35.455 80.142,-35.455c30.504,0 59.629,12.888 80.146,35.455c58.846,70.3 15.341,228.983 -28.167,298.82c-1.6,2.517 -14.425,18.775 -29.079,36.867c37.096,-34.121 74.187,-68.696 112.2,-99.837c64.775,-55.7 133.242,-106.959 204.937,-153.417c-6.412,-10.075 -88.158,-135.096 -98.462,-203.333c-9.158,-60.221 -4.121,-139.909 40.987,-186.163c20.559,-22.542 49.696,-35.404 80.2,-35.404c31.046,-0 60.642,13.317 81.234,36.55c58.846,70.296 15.341,228.979 -28.396,298.821c-2.975,4.808 -49.917,63.425 -67.321,83.804l2.292,-1.6c71.546,-43.954 146.875,-81.425 225.087,-111.975c69.604,-27.767 140.788,-51.392 213.179,-70.754c67.092,-18.546 129.605,-31.6 184.788,-42.588c30,-5.725 57.704,-10.533 83.35,-14.658l-1.375,-1.142c-1.371,0 91.596,-61.596 98.233,-64.804c73.275,-36.408 236.309,-63.654 300.196,2.063c18.392,19.987 28.608,46.179 28.608,73.341c0,34.238 -16.237,66.525 -43.72,86.946c-50.605,40.3 -130.292,37.321 -189.367,22.896c-59.079,-14.425 -163.038,-95.254 -188.225,-114.492c-26.558,4.813 -55.183,10.304 -86.325,16.946c-55.183,12.367 -117.008,26.563 -183.183,45.796c-17.634,5.267 -36.409,11.679 -54.725,17.633c32.97,-3.662 78.308,-7.787 82.658,-7.787c81.746,1.604 239.058,52.437 265.621,140.137c2.508,9.259 3.779,18.813 3.779,28.404c-0,53.046 -38.883,98.705 -91.25,107.155c-63.658,12.362 -132.808,-27.021 -178.379,-68.696c-45.567,-41.675 -102.584,-163.492 -114.488,-190.054c-40.529,13.737 -81.746,28.85 -123.65,45.795c-76.496,31.63 -150.054,69.942 -219.821,114.492c-3.891,2.517 -7.787,5.725 -11.679,8.471c16.029,-4.579 105.334,-22.896 111.742,-22.896c81.517,-7.558 243.408,25.646 279.358,109.908c4.959,12.646 7.5,26.113 7.5,39.696c0,48.7 -32.708,91.746 -79.629,104.792c-61.596,19.233 -134.871,-12.367 -184.558,-47.858c-57.246,-40.988 -134.413,-175.625 -137.388,-180.663c-68.208,46.617 -133.3,97.633 -194.862,152.729c-45.796,40.529 -90.45,83.575 -134.871,127.084c20.837,-5.496 103.958,-22.9 110.142,-22.9c81.516,-7.555 243.175,25.645 279.354,109.912c5.004,12.671 7.575,26.171 7.575,39.796c-0,48.65 -32.779,91.612 -79.704,104.462c-61.825,19.463 -134.871,-12.137 -184.559,-47.629c-55.871,-39.842 -130.287,-168.758 -137.387,-179.75l-60.679,59.538c-65.488,65.258 -130.98,130.745 -197.384,193.716c-22.896,21.754 -45.796,42.363 -70.066,62.967c31.6,-7.096 89.529,-19.004 94.566,-19.463c81.521,-7.554 243.179,25.646 279.129,109.913c5.075,12.746 7.68,26.337 7.68,40.058c-0,48.604 -32.717,91.538 -79.58,104.43c-61.825,19.233 -134.87,-12.367 -184.558,-47.859c-49.687,-35.492 -114.492,-142.654 -132.808,-173.108c-39.154,34.346 -79,67.321 -119.759,98.004c-17.858,13.05 -35.033,27.246 -52.891,38.696l-52.667,35.033c-36.637,22.9 -70.754,43.967 -105.562,64.346c-17.4,10.304 -34.117,19.692 -51.292,29.537c30.912,-11.908 80.375,-30.225 84.954,-31.6c79.454,-19.691 244.321,-11.22 292.638,66.634c9.666,16.566 14.762,35.408 14.762,54.591c0,42.592 -25.129,81.4 -63.996,98.825c-58.158,28.396 -135.325,8.475 -189.825,-19.004c-59.991,-30.454 -150.437,-142.425 -161.429,-156.166c-41.904,22.9 -83.121,46.941 -122.046,67.55c-103.729,55.641 -194.404,99.837 -264.704,132.808c-228.979,197.612 -549.55,219.362 -549.55,219.362c0,0 -16.946,-385.141 209.746,-638.395c80.296,-84.192 178.192,-149.638 286.683,-191.659Zm407.813,375.53c-7.096,-15.8 -61.825,-137.388 -65.717,-206.084c-12.821,-2.516 -25.417,-5.037 -37.783,-8.012c-23.288,121.658 -71.638,237.154 -141.967,339.121c41.675,-19.692 86.554,-41.675 134.183,-65.946c35.721,-19.009 73.046,-37.325 111.284,-59.079Z" style="fill:#9a9a9a;fill-rule:nonzero;"/><path d="M417.725,5970.83c0,0 385.146,11.675 620.996,256.688c235.85,245.008 232.875,630.383 232.875,630.383c-0,0 -385.604,-11.908 -621.225,-256c-235.621,-244.096 -232.646,-631.071 -232.646,-631.071Z" style="fill:#9a9a9a;fill-rule:nonzero;"/></g><path d="M1423.64,6218.79l-378.505,-340.034l16.259,-18.091l362.475,325.841l1.833,-445.825l-2.063,1.142l-319.887,-467.804l19.925,-13.742l302.254,441.704l4.579,-1072.78l24.271,0.229l-3.204,728.159l240.888,-208.6l15.8,18.316l-256.917,222.342l-2.063,520.704l364.996,-323.091l16.029,18.316l-381.254,337.288l-2.058,473.992l274.546,-215.242l14.883,19.004l-289.429,227.15l-1.375,305.229l-24.271,0l2.287,-534.212Z" style="fill:#fff;fill-rule:nonzero;"/><path d="M1772.15,6350.25l24.042,-2.75l30.683,269.283l162.35,-181.583l-0.229,-0l41.216,-326.067l24.042,3.204l-36.867,291.492l403.696,-451.321l18.088,16.029l-273.863,306.375l173.342,2.063l-0.229,24.271l-194.634,-2.288l-192.116,214.784l271.341,0.229l0,24.271l-293.095,-0.23l-174.713,195.321l191.429,11.45l-1.375,24.271l-210.662,-12.821l-116.321,130.059l-18.088,-16.259l204.938,-228.979l-32.975,-290.804Z" style="fill:#fff;fill-rule:nonzero;"/><path d="M857.825,6446.17l-321.946,-65.259l4.808,-23.816l288.059,58.391l-419.95,-436.437l17.404,-16.717l284.85,296.075l15.112,-172.883l24.271,2.062l-16.941,193.946l199.9,207.688l20.608,-270.43l24.042,1.834l-22.213,291.95l181.813,188.908l25.646,-190.054l24.041,3.438l-28.162,208.829l120.9,125.708l-17.404,16.946l-213.18,-221.425l-292.637,11.221l-0.917,-24.271l270.884,-10.304l-168.988,-175.629l0,0.229Z" style="fill:#fff;fill-rule:nonzero;"/></g><g id="freepik--Characters--inject-54"><path d="M4058.52,7407.67c-0,150.212 -560.088,271.8 -1250.92,271.8c-690.834,-0 -1251.15,-121.588 -1251.15,-271.8c-0,-150.209 560.087,-271.571 1251.15,-271.571c691.062,-0 1250.92,121.592 1250.92,271.571Z" style="fill:#b0bec5;fill-rule:nonzero;"/><path d="M4058.52,7407.67c-0,150.212 -560.088,271.8 -1250.92,271.8c-690.834,-0 -1251.15,-121.588 -1251.15,-271.8c-0,-150.209 560.087,-271.571 1251.15,-271.571c691.062,-0 1250.92,121.592 1250.92,271.571Z" style="fill:#9a9a9a;fill-opacity:0.5;fill-rule:nonzero;"/><path d="M8271.75,7422.79c0,141.737 -560.083,256.683 -1251.15,256.683c-691.063,0 -1250.92,-114.488 -1250.92,-256.683c0,-142.2 560.088,-256.688 1250.92,-256.688c690.837,0 1251.15,114.946 1251.15,256.688Z" style="fill:#b0bec5;fill-rule:nonzero;"/><path d="M8271.75,7422.79c0,141.737 -560.083,256.683 -1251.15,256.683c-691.063,0 -1250.92,-114.488 -1250.92,-256.683c0,-142.2 560.088,-256.688 1250.92,-256.688c690.837,0 1251.15,114.946 1251.15,256.688Z" style="fill:#9a9a9a;fill-opacity:0.5;fill-rule:nonzero;"/><path d="M2867.82,6989.33c-0,0 -19.921,67.55 51.75,143.113c71.67,75.562 179.062,131.437 159.141,167.158c-19.921,35.721 -139.221,0 -218.904,-35.721c-79.687,-35.725 -114.492,-111.516 -171.05,-147.237c-56.558,-35.721 -27.704,-43.734 -3.892,-107.392c11.667,-33.083 26.305,-65.042 43.738,-95.483l139.217,75.562Z" style="fill:#fff;fill-rule:nonzero;stroke:#263238;stroke-width:22.92px;"/><path d="M2684.63,7009.25c2.979,-8.242 5.725,-14.196 8.471,-21.296c39.846,41.675 110.829,112.659 110.829,112.659c7.696,-20.067 18.43,-38.834 31.83,-55.642c6.329,-10.838 17.691,-17.813 30.225,-18.546c5.404,40.308 24.2,77.658 53.35,106.017c71.67,75.562 179.062,131.437 159.141,167.158c-19.921,35.721 -139.221,0 -218.904,-35.721c-79.683,-35.725 -114.492,-111.516 -171.05,-147.237c-56.558,-35.721 -26.787,-43.734 -3.892,-107.392Z" style="fill:#b0bec5;fill-rule:nonzero;stroke:#263238;stroke-width:22.92px;"/><path d="M2585.94,7188.08c28.262,56.805 62.908,110.196 103.271,159.142c64.116,75.792 178.604,131.438 178.604,170.592c-0,39.154 -111.284,63.658 -226.688,19.691c-115.408,-43.962 -190.971,-111.283 -202.879,-186.845c-7.475,-51.421 -11.454,-103.292 -11.904,-155.25c-0.454,-51.959 135.554,8.7 159.596,-7.33Z" style="fill:#fff;fill-rule:nonzero;stroke:#263238;stroke-width:22.92px;"/><path d="M3302.88,4124.78c0,0 127.313,743.959 183.184,1125.9c55.87,381.942 47.854,389.267 16.029,509.254c-31.829,119.984 -620.767,1213.6 -632.675,1229.4c-11.909,15.8 -114.492,-4.121 -127.313,-39.842l-11.908,-35.72c0,-0 258.521,-942.942 334.083,-1110.1c75.563,-167.155 75.792,-218.675 4.121,-409.646c-71.671,-190.967 -200.587,-532.379 -200.587,-532.379c-0,-0 -68.692,696.1 -179.063,1217.26c-110.366,521.158 -75.562,1090.17 -103.271,1109.87c-27.704,19.691 -139.445,35.95 -155.245,-7.784c-15.8,-43.737 -218.909,-759.987 -159.142,-1233.29c59.762,-473.3 123.421,-620.767 59.762,-907.221c-63.654,-286.454 -139.45,-692.208 -123.42,-915.921c16.029,-223.712 927.37,-250.275 1095.44,0.229Z" style="fill:#263238;fill-rule:nonzero;stroke:#263238;stroke-width:22.92px;"/><path d="M2438.71,7351.33c-3.891,-24.729 -6.412,-49.458 -8.241,-72.125c36.179,25.646 83.804,56.1 83.804,56.1c9.421,-29.858 25.737,-57.079 47.629,-79.458c15.95,-12.742 37.575,-15.979 56.558,-8.471c21.025,35.021 44.679,68.396 70.755,99.833c64.116,75.792 178.604,131.438 178.604,170.592c-0,39.154 -111.284,63.659 -226.688,19.692c-115.408,-43.963 -190.512,-111.283 -202.421,-186.163Z" style="fill:#b0bec5;fill-rule:nonzero;stroke:#263238;stroke-width:22.92px;"/><path d="M4670.83,3079.25l-236.766,0c-22.9,0 -207.23,94.796 -207.23,94.796l-408.27,124.338l47.4,165.783l390.637,-195.55l136.017,-11.679c42.712,-3.738 82.704,-22.675 112.658,-53.35c29.954,-30.679 136.013,-35.496 165.554,-59.079c29.538,-23.584 0,-65.259 0,-65.259Z" style="fill:#fff;fill-rule:nonzero;stroke:#263238;stroke-width:22.92px;"/><path d="M7607.71,1281.07c0,-0 -70.296,-227.379 -373.695,-270.659c-303.401,-43.275 -595.351,65.034 -693.126,303.171c-97.774,238.142 123.65,359.729 58.617,543.83c-65.029,184.1 -438.725,21.524 -644.35,276.15c-205.625,254.629 -178.833,454.758 -59.762,633.591c119.07,178.833 270.883,206.079 124.566,373.696c-146.32,167.613 -303.171,259.892 -232.875,536.042c70.296,276.15 368.429,509.025 984.617,519.787c616.187,10.763 693.125,-530.55 649.846,-969.275c-43.275,-438.729 97.316,-536.046 320.575,-763.421c223.254,-227.379 201.042,-803.721 -134.413,-1182.91Z" style="fill:#263238;fill-rule:nonzero;stroke:#263238;stroke-width:22.92px;"/><path d="M6154.38,3983.5c54.729,45.796 120.446,61.137 175.4,35.492" style="fill:none;fill-rule:nonzero;stroke:#fff;stroke-width:22.92px;"/><path d="M6113.83,2388.65c-53.791,42.412 -89.629,103.612 -100.291,171.279c-43.967,272.258 245.925,386.521 297.675,544.517c51.75,157.996 -219.592,289.887 -263.559,544.746c-18.725,95.008 0.434,193.674 53.355,274.775" style="fill:none;fill-rule:nonzero;stroke:#fff;stroke-width:22.92px;"/><path d="M6760.5,1700.1c0,0 -26.333,324.921 -175.629,456.817c-72.129,63.654 -197.608,96.4 -313.017,144.258" style="fill:none;fill-rule:nonzero;stroke:#fff;stroke-width:22.92px;"/><path d="M7194.17,1631.64c40.854,123.066 115.733,232.083 215.929,314.391c263.558,210.892 395.221,245.925 395.221,245.925" style="fill:none;fill-rule:nonzero;stroke:#fff;stroke-width:22.92px;"/><path d="M7146.54,1383.88c0.796,31.929 3.858,63.763 9.158,95.258" style="fill:none;fill-rule:nonzero;stroke:#fff;stroke-width:22.92px;"/><path d="M7506.75,1243.75c-141.279,-16.842 -284.458,7.579 -412.167,70.296c-219.591,105.333 -377.587,263.558 -483.15,193.258" style="fill:none;fill-rule:nonzero;stroke:#fff;stroke-width:22.92px;"/><path d="M7692.67,2022.28c27,23.458 55.871,44.671 86.325,63.429" style="fill:none;fill-rule:nonzero;stroke:#fff;stroke-width:22.92px;"/><path d="M7436.46,1269.62c0,-0 -51.291,409.417 190.284,686.942" style="fill:none;fill-rule:nonzero;stroke:#fff;stroke-width:22.92px;"/><path d="M6610.75,1322.51c0,-0 43.967,70.07 281.188,-70.296c237.224,-140.363 421.554,-79.225 518.183,-43.963" style="fill:none;fill-rule:nonzero;stroke:#fff;stroke-width:22.92px;"/><path d="M7051.54,5214.71c-0,0 -21.75,454.984 -21.75,671.6c-0,216.617 -38.013,996.296 -10.763,1256.19c27.246,259.891 183.183,384.687 232.871,373.696c49.692,-10.992 27.021,-183.184 -32.513,-324.921c-59.537,-141.742 -59.537,-416.975 -38.012,-480.863c21.525,-63.883 216.617,-449.487 216.617,-666.104c-0,-216.612 -37.784,-373.696 -10.763,-552.529c27.021,-178.833 43.275,-254.396 43.275,-254.396l-378.962,-22.671Z" style="fill:#fff;fill-rule:nonzero;stroke:#263238;stroke-width:22.92px;stroke-linecap:butt;stroke-linejoin:miter;stroke-miterlimit:10;"/><path d="M7251.88,7516.21c43.05,-9.616 30.913,-146.546 -13.737,-274.775c-12.596,71.671 -33.434,106.246 -103.042,83.121c-47.15,-19.654 -84.471,-57.471 -103.5,-104.875c46.254,206.542 176.546,306.375 220.279,296.529Z" style="fill:#b0bec5;fill-rule:nonzero;stroke:#263238;stroke-width:22.92px;"/><path d="M6960.17,5214.71c-0,0 21.525,454.984 21.525,671.6c-0,216.617 38.012,996.296 10.991,1256.19c-27.02,259.891 -183.183,384.687 -232.875,373.696c-49.687,-10.992 -27.02,-183.184 32.517,-324.921c59.533,-141.742 59.533,-416.975 37.779,-480.863c-21.75,-63.883 -216.612,-449.487 -216.612,-666.104c-0,-216.612 38.008,-373.696 10.991,-552.529c-27.021,-178.833 -43.508,-254.396 -43.508,-254.396l379.192,-22.671Z" style="fill:#fff;fill-rule:nonzero;stroke:#263238;stroke-width:22.92px;stroke-linecap:butt;stroke-linejoin:miter;stroke-miterlimit:10;"/><path d="M6817.29,7346.54c-68.696,-7.555 -24.959,-155.246 -24.959,-155.246c-59.537,140.821 -81.287,314.158 -32.516,324.921c48.775,10.762 185.704,-98.005 225.775,-324.463c-43.963,61.825 -121.588,160.054 -168.3,154.788Z" style="fill:#b0bec5;fill-rule:nonzero;stroke:#263238;stroke-width:22.92px;"/><path d="M6918.5,2122.8l-519.783,194.863l243.633,1088.35c0,0 -178.604,232.875 -254.396,476.738c-75.792,243.862 -43.508,655.112 21.525,909.742c65.029,254.625 165.779,530.545 165.779,530.545l885.696,0c0,0 226.463,-768.916 183.188,-1229.17c-24.713,-273.384 -109.809,-537.9 -249.134,-774.413l222.113,-1023.54l-503.758,-189.367l-194.863,16.254Z" style="fill-rule:nonzero;stroke:#263238;stroke-width:22.92px;"/><path d="M6847.5,4361.54c0,-0 168.529,414.912 155.708,751.97" style="fill:none;fill-rule:nonzero;stroke:#263238;stroke-width:22.92px;"/><path d="M7210.67,4439.38c-39.775,101.167 -92.088,196.942 -155.704,285.083" style="fill:none;fill-rule:nonzero;stroke:#263238;stroke-width:22.92px;"/><path d="M6880.71,2036.7c10.654,113.559 30.563,226.059 59.534,336.375c43.279,150.209 129.833,200.354 189.366,21.521c59.534,-178.833 38.013,-472.158 38.013,-472.158c-0,-0 -140.825,200.129 -286.913,114.262Z" style="fill:#fff;fill-rule:nonzero;stroke:#263238;stroke-width:22.92px;"/><path d="M7617.12,2297.05l455.212,958.284c24.73,53.583 13.967,174.941 -31.37,212.724c-23.588,19.8 -53.417,30.663 -84.213,30.663c-48.221,-0 -92.687,-26.625 -115.458,-69.133l-326.984,-645.038l102.813,-487.5Z" style="fill-rule:nonzero;stroke:#263238;stroke-width:22.92px;"/><path d="M6859.12,3338.33c216.617,-216.617 568.342,-216.617 784.958,0c216.613,216.613 216.613,568.342 0,784.954c-216.616,216.617 -568.341,216.617 -784.958,0c-216.617,-216.612 -216.617,-568.341 0,-784.954Z" style="fill:#686d6f;stroke:#263238;stroke-width:22.92px;"/><path d="M7606.33,3649.87l-273.633,-0l0,-273.629l-162.346,-0l0,273.629l-273.404,-0l0,162.35l273.404,-0l0,273.629l162.346,0l0,-273.629l273.633,-0l0,-162.35Z" style="fill-rule:nonzero;"/><path d="M7893.25,3227.4l-487.271,720.142l91.592,97.546c-0,-0 590.083,-563.063 611.837,-639.084c21.755,-76.02 -43.279,-162.345 -81.287,-221.883" style="fill-rule:nonzero;stroke:#263238;stroke-width:22.92px;"/><path d="M7406,3947.55c0,-0 -140.821,54.271 -157.079,65.033c-32.771,36.317 -63.354,74.546 -91.592,114.488c-28.242,39.941 -27.25,65.033 0,65.033c27.246,-0 48.771,-43.508 65.029,-54.271c16.259,-10.762 21.525,43.279 0,65.033c-21.525,21.75 -81.287,114.488 -38.012,135.325c43.279,20.838 81.291,-37.779 97.546,-37.779c16.258,0 102.812,10.759 151.587,-43.508c48.771,-54.267 65.029,-211.121 65.029,-211.121l-92.508,-98.233Z" style="fill:#fff;fill-rule:nonzero;stroke:#263238;stroke-width:22.92px;"/><path d="M6398.71,2317.66l-233.562,926.687c-12.134,48.542 -58.846,159.142 -17.859,187.992l27.246,27.25c61.138,43.046 179.75,32.741 212.496,-34.121l163.95,-425.446l-152.271,-682.362Z" style="fill-rule:nonzero;stroke:#263238;stroke-width:22.92px;"/><path d="M6284.92,3211.15l-666.104,-91.592l-5.267,119.071c-0,0 362.704,192.342 480.858,246.613c118.154,54.266 253.025,27.245 290.804,-59.309c37.784,-86.554 77.625,-267.679 77.625,-267.679" style="fill-rule:nonzero;stroke:#263238;stroke-width:22.92px;"/><path d="M5530.42,3163.75c-22.121,-8.071 -45.225,-13.154 -68.696,-15.113l-42.588,-110.825c0,0 -111.741,-24.271 -177.233,-12.825c-65.488,11.45 15.342,108.079 30.912,131.209c5.725,8.7 37.325,16.941 74.192,22.896l-20.379,68.695c-0,0 65.717,38.467 111.971,38.467c46.254,-0 175.629,-49 175.629,-49c-20.233,-32.092 -49.35,-57.633 -83.808,-73.504Z" style="fill:#fff;fill-rule:nonzero;stroke:#263238;stroke-width:22.92px;"/><circle cx="4860.17" cy="3283.96" r="555.05" style="fill:#686d6f;stroke:#263238;stroke-width:22.92px;"/><path d="M5214.88,3202.9l-273.404,0l-0,-273.633l-162.575,-0l-0,273.633l-273.404,0l-0,162.346l273.404,0l-0,273.404l162.575,0l-0,-273.404l273.404,0l0,-162.346Z" style="fill-rule:nonzero;"/><path d="M5618.79,3119.1c-0,-0 -167.842,-81.288 -200.359,-81.288c-32.516,0 -108.308,135.555 -135.329,151.813c-27.016,16.258 -75.792,43.279 -27.016,54.042c41.624,5.4 83.845,-4.184 119.066,-27.021c15.279,-11.663 29.742,-24.363 43.279,-38.013c13.538,-13.646 38.009,21.754 75.792,38.013c38.742,12 78.804,19.225 119.3,21.525l5.267,-119.071Z" style="fill:#fff;fill-rule:nonzero;stroke:#263238;stroke-width:22.92px;"/><path d="M2276.82,1257.03c-0,0 -103.042,-103.042 -389.267,-103.042c-286.229,0 -469.412,354.921 -469.412,606.8c-0,251.879 148.837,606.8 206.083,847.229c57.246,240.43 11.45,435.063 -206.083,457.959c-217.529,22.9 -328.359,224.404 -110.825,464.833c217.529,240.429 797.766,84.721 980.95,-247.3c183.187,-332.021 251.879,-538.104 171.737,-1122c-80.142,-583.9 -183.183,-904.475 -183.183,-904.475Z" style="fill:#263238;fill-rule:nonzero;stroke:#263238;stroke-width:22.92px;"/><path d="M2103.48,1341.06c0,-0 -343.471,-10.992 -464.371,364.995c-120.9,375.984 121.588,630.384 165.784,1050.56c44.191,420.179 -55.188,630.383 -320.575,608.4c-265.388,-21.984 -132.809,-243.634 -33.2,-243.634c99.604,0 99.375,99.605 99.375,99.605" style="fill:none;fill-rule:nonzero;stroke:#fff;stroke-width:22.92px;"/><path d="M2070.28,1495.62c-121.587,186.846 -209.058,417.429 -114.491,633.588c79,181.812 228.983,310.954 170.362,526.654" style="fill:none;fill-rule:nonzero;stroke:#fff;stroke-width:22.92px;"/><path d="M2879.04,1340.83c-0,0 137.387,87.471 107.62,188.45c-29.766,100.98 -151.354,137.388 -168.3,100.98c-16.945,-36.405 -91.591,-218.675 -63.887,-272.713c27.708,-54.042 124.567,-16.717 124.567,-16.717Z" style="fill:#263238;fill-rule:nonzero;stroke:#263238;stroke-width:22.92px;"/><path d="M2609.76,2159.67c3.434,10.075 0,30.225 68.692,163.033c44.425,87.471 251.879,194.633 251.879,194.633c0,0 -296.071,49.692 -373.467,66.405c-77.395,16.716 -393.616,-112.2 -393.616,-112.2c-0,-0 171.733,-62.738 171.733,-274.775c0,-212.038 29.083,-250.046 29.083,-250.046c63.463,-3.984 124.259,27.075 158.226,80.829c31.437,42.487 60.633,86.587 87.47,132.121Z" style="fill:#fff;fill-rule:nonzero;stroke:#263238;stroke-width:22.92px;"/><path d="M2975.21,2356.13c0,0 148.838,45.796 206.084,137.388c57.246,91.591 240.429,870.125 240.429,870.125c-0,-0 22.9,-0 148.837,-34.346c125.942,-34.346 69.842,-14.654 69.842,-14.654l80.142,22.896l143.8,-57.93l66.633,190.284l-118.842,50.833c0,0 -57.245,125.938 -125.937,160.283c-104.904,48.263 -217.896,76.534 -333.167,83.35c-148.837,11.45 -263.329,-80.141 -263.329,-194.633c0,-114.492 -125.938,-1007.51 -125.938,-1007.51" style="fill-rule:nonzero;stroke:#263238;stroke-width:22.92px;"/><path d="M2756.99,4423.12c-260.35,31.142 -430.942,18.087 -535.359,-1.604c-13.291,-98.629 -17.887,-198.238 -13.737,-297.675c15.8,-222.8 926.912,-250.504 1094.07,-0c-0,-0 9.158,54.496 22.896,139.908c-19.921,21.525 -129.601,107.163 -567.871,159.371Z" style="fill:#fff;fill-rule:nonzero;stroke:#263238;stroke-width:22.92px;"/><path d="M3260.75,3778.33c-18.321,-453.15 76.021,-638.396 -285.542,-1422.2c-141.737,-35.95 -184.329,-12.366 -228.979,-75.562c-67.992,64.583 -153.412,107.892 -245.696,124.562c-158.225,30.225 -245.695,-47.17 -245.695,-47.17c-0,-0 -451.092,47.17 -403.921,275.925c47.171,228.749 296.071,871.729 306.146,1100.71c10.075,228.979 -77.396,471.241 -0,521.616c77.395,50.376 457.962,94.342 747.391,43.967c289.434,-50.379 490.021,-125.483 473.992,-198.758c-16.029,-73.271 -111.513,-171.504 -117.696,-323.092Z" style="fill-rule:nonzero;stroke:#263238;stroke-width:22.92px;"/><path d="M3218.16,3275.49c0,-0.001 -239.741,412.166 -425.904,585.504" style="fill:none;fill-rule:nonzero;stroke:#263238;stroke-width:22.92px;"/><path d="M2858.66,3648.04c-96.495,98.15 -209.012,179.146 -332.708,239.512" style="fill:none;fill-rule:nonzero;stroke:#263238;stroke-width:22.92px;"/><path d="M2288.27,2275.99c-0,-0 53.583,160.287 211.808,129.145c92.283,-16.67 177.704,-59.979 245.696,-124.562c18.55,25.875 62.742,45.796 117.467,63.196c-36.867,228.983 -320.571,300.883 -494.825,251.879c-106.476,-29.079 -160.288,-158.454 -203.109,-223.713c51.521,-9.845 122.963,-95.945 122.963,-95.945Z" style="fill:#fff;fill-rule:nonzero;stroke:#263238;stroke-width:22.92px;"/><path d="M2084.25,4037.31c-0,0 137.387,381.255 186.85,592.371c49.458,211.121 10.992,288.517 14.425,403.925c3.433,115.404 -0,248.213 -21.067,242.029c-21.067,-6.179 -31.142,-49.916 -30.912,-95.025c0.229,-45.108 -2.517,-168.758 -2.517,-168.758c-0,0 -56.1,172.879 -62.742,187.763c-6.641,14.883 -37.096,21.066 -28.625,-27.705c8.475,-48.775 40.988,-204.937 40.988,-204.937c-0,-0 -88.154,156.85 -95.484,166.237c-7.329,9.388 -43.962,10.534 -33.658,-21.525c10.304,-32.054 85.638,-204.479 85.638,-204.479c-0,0 -106.934,122.275 -118.842,118.154c-11.908,-4.12 -11.221,-24.041 0,-45.795c11.221,-21.755 78.083,-104.871 87.929,-117.238c9.846,-12.367 7.329,-9.387 18.775,-55.871c11.45,-46.483 45.796,-89.762 52.667,-104.646c6.871,-14.883 -323.321,-675.262 -323.321,-675.262l229.896,10.762Z" style="fill:#fff;fill-rule:nonzero;stroke:#263238;stroke-width:22.92px;"/><path d="M2024.03,2427.58c0,0 -244.321,44.421 -299.967,166.696c-55.641,122.279 22.9,355.379 22.9,499.867c0,144.487 -77.625,544.287 -44.42,644.349c33.2,100.067 55.641,233.334 66.633,277.755c10.992,44.42 111.054,77.625 111.054,77.625l30.912,134.641l251.88,-47.4l-27.938,-120.904c0,0 55.642,10.992 33.434,-122.275c-22.213,-133.267 -66.634,-211.121 -66.634,-322.175c0,-111.054 -11.221,-488.646 44.421,-721.975" style="fill-rule:nonzero;stroke:#263238;stroke-width:22.92px;"/><path d="M4225,3180.69l95.942,-133.725l150.9,-32.746c-0,-0 62.279,-18.546 53.808,14.887c-8.471,33.429 -19.921,36.863 -59.533,48.771l-68.696,20.15c-11.609,35.942 -35.013,66.933 -66.404,87.929c-10.075,5.409 -21.129,8.754 -32.517,9.846" style="fill:#fff;fill-rule:nonzero;stroke:#263238;stroke-width:22.92px;"/><path d="M2852.02,1384.57c-0,-0 60.683,393.85 27.021,538.562c-33.659,144.717 -148.609,282.334 -269.28,265.846c-120.675,-16.483 -212.037,-181.808 -212.037,-181.808c-0,-0 -37.096,22.896 -53.809,-3.204c-16.716,-26.105 -20.149,-94.342 0.001,-165.096c20.149,-70.754 336.6,-535.129 508.104,-454.3Z" style="fill:#fff;fill-rule:nonzero;stroke:#263238;stroke-width:22.92px;"/><path d="M2613.19,1660.26c11.662,-30.142 40.504,-50.371 72.816,-51.063" style="fill:none;fill-rule:nonzero;stroke:#263238;stroke-width:22.92px;"/><path d="M2791.11,1595.69c21.921,-9.146 47.438,-2.459 62.055,16.258" style="fill:none;fill-rule:nonzero;stroke:#263238;stroke-width:22.92px;"/><path d="M2784.93,1711.1c0,-0 -19.237,64.112 19.234,83.575c38.466,19.467 -0,51.292 -12.825,70.529" style="fill:none;fill-rule:nonzero;stroke:#263238;stroke-width:22.92px;"/><path d="M2753.33,1968.01c-37.437,6.395 -75.754,-5.638 -102.812,-32.288" style="fill:none;fill-rule:nonzero;stroke:#263238;stroke-width:22.92px;"/><path d="M2696.77,1733.08c-0,19.467 -7.329,35.037 -16.258,35.037c-8.93,0 -16.03,-15.57 -16.03,-35.037c0,-19.462 7.1,-35.033 16.03,-35.033c8.929,-0 16.258,15.8 16.258,35.033Z" style="fill:#263238;fill-rule:nonzero;"/><path d="M2842.4,1724.6c0,19.233 -7.325,35.034 -16.254,35.034c-8.933,-0.001 -16.258,-15.801 -16.258,-35.034c-0.001,-19.233 7.325,-35.033 16.258,-35.033c8.929,-0 16.254,16.029 16.254,35.033Z" style="fill:#263238;fill-rule:nonzero;"/><path d="M2414.21,1199.78c0,0 488.417,-40.758 508.567,60.225c20.15,100.979 -373.696,441.7 -491.392,592.371c-117.7,150.671 -161.662,188.45 -222.112,164.867c-60.45,-23.584 -240.2,-346.675 -172.879,-565.584c67.316,-218.904 377.816,-251.879 377.816,-251.879Z" style="fill:#263238;fill-rule:nonzero;stroke:#263238;stroke-width:22.92px;"/><path d="M2733.87,1219.48c-0,-0 -88.388,364.992 -309.584,530.775c-221.195,165.783 -309.583,88.846 -309.583,88.846" style="fill:none;fill-rule:nonzero;stroke:#fff;stroke-width:22.92px;"/><path d="M2414.21,1199.78c0,0 65.259,285.084 -45.796,417.892c-111.058,132.808 -309.583,121.587 -309.583,121.587" style="fill:none;fill-rule:nonzero;stroke:#fff;stroke-width:22.92px;"/><path d="M7093.88,1448.23c-6.642,-2.975 -7.329,-7.558 -3.433,-13.508c-2.292,-10.534 -3.896,-17.863 -4.809,-21.525c-41.15,26.833 -84.329,50.412 -129.145,70.525c-82.246,37.37 -170.025,61.116 -259.892,70.295c-89.871,9.184 43.275,297.675 129.829,449.492c62.971,110.138 124.567,167.842 287.142,65.029c75.921,-49.566 128.9,-127.546 147.008,-216.387c-91.825,-125.479 -146.779,-322.175 -166.7,-403.921Z" style="fill:#fff;fill-rule:nonzero;stroke:#263238;stroke-width:22.92px;"/><path d="M7019.25,1627.29c-11.475,-30.184 -40.304,-50.463 -72.588,-51.063" style="fill:none;fill-rule:nonzero;stroke:#263238;stroke-width:22.92px;"/><path d="M6841.54,1562.72c-21.875,-9.117 -47.329,-2.542 -62.055,16.025" style="fill:none;fill-rule:nonzero;stroke:#263238;stroke-width:22.92px;"/><path d="M6847.5,1678.81c0,0 19.233,64.113 -19.233,83.35c-38.471,19.234 -0,51.521 12.821,70.755" style="fill:none;fill-rule:nonzero;stroke:#263238;stroke-width:22.92px;"/><path d="M6879.54,1934.81c37.395,6.417 75.687,-5.52 102.812,-32.058" style="fill:none;fill-rule:nonzero;stroke:#263238;stroke-width:22.92px;"/><path d="M6935.67,1700.1c-0,19.233 7.325,35.034 16.258,35.034c8.929,-0.001 16.258,-15.801 16.258,-35.034c0,-19.233 -7.329,-35.033 -16.258,-35.033c-8.933,-0 -16.258,15.571 -16.258,35.033Z" style="fill:#263238;fill-rule:nonzero;"/><path d="M6790.25,1692.09c0,19.237 7.1,35.037 16.029,35.037c8.929,0 16.259,-15.8 16.259,-35.037c-0,-19.234 -7.1,-35.034 -16.259,-35.034c-9.158,0 -16.029,15.571 -16.029,35.034Z" style="fill:#263238;fill-rule:nonzero;"/></g></svg>