<?xml version="1.0" encoding="UTF-8" standalone="no"?><!DOCTYPE svg PUBLIC "-//W3C//DTD SVG 1.1//EN" "http://www.w3.org/Graphics/SVG/1.1/DTD/svg11.dtd"><svg width="100%" height="100%" viewBox="0 0 2084 2084" version="1.1" xmlns="http://www.w3.org/2000/svg" xmlns:xlink="http://www.w3.org/1999/xlink" xml:space="preserve" xmlns:serif="http://www.serif.com/" style="fill-rule:evenodd;clip-rule:evenodd;stroke-linejoin:round;stroke-miterlimit:2;"><g id="freepik--background-complete--inject-33" opacity="0.35"><rect x="0" y="1593.33" width="2083.33" height="1.042" style="fill:#ebebeb;"/><rect x="1736.58" y="1660.38" width="138" height="1.042" style="fill:#ebebeb;"/><rect x="1343.88" y="1671.71" width="36.208" height="1.042" style="fill:#ebebeb;"/><rect x="1652.46" y="1621.71" width="79.958" height="1.042" style="fill:#ebebeb;"/><rect x="218.583" y="1628.71" width="179.958" height="1.042" style="fill:#ebebeb;"/><rect x="435.667" y="1628.71" width="26.375" height="1.042" style="fill:#ebebeb;"/><rect x="547.792" y="1646.29" width="390.333" height="1.042" style="fill:#ebebeb;"/><path d="M987.5,1407.5l-804.542,0c-13.036,-0.023 -23.75,-10.756 -23.75,-23.792l0,-1130.96c0.114,-12.957 10.793,-23.561 23.75,-23.583l804.542,-0c13.052,-0 23.792,10.74 23.792,23.791l-0,1130.75c-0,13.052 -10.74,23.792 -23.792,23.792Zm-804.542,-1177.5c-12.464,0.023 -22.708,10.285 -22.708,22.75l0,1130.96c-0,12.465 10.244,22.728 22.708,22.75l804.542,0c12.472,-0.022 22.727,-10.278 22.75,-22.75l0,-1130.96c-0.023,-12.472 -10.278,-22.727 -22.75,-22.75l-804.542,0Z" style="fill:#ebebeb;fill-rule:nonzero;"/><path d="M1888.79,1407.5l-804.584,0c-13.043,-0.023 -23.769,-10.749 -23.791,-23.792l-0,-1130.96c0.136,-12.964 10.826,-23.561 23.791,-23.583l804.584,-0c12.942,0.045 23.595,10.642 23.708,23.583l0,1130.96c0,13.021 -10.688,23.746 -23.708,23.792Zm-804.584,-1177.5c-12.471,0.023 -22.727,10.278 -22.75,22.75l0,1130.96c0.023,12.472 10.279,22.728 22.75,22.75l804.584,0c12.471,-0.022 22.727,-10.278 22.75,-22.75l-0,-1130.96c-0.023,-12.472 -10.279,-22.727 -22.75,-22.75l-804.584,0Z" style="fill:#ebebeb;fill-rule:nonzero;"/><rect x="1092" y="531.083" width="666.708" height="440.792" style="fill:#e0e0e0;"/><rect x="1114.83" y="554.958" width="621" height="393.083" style="fill:#ebebeb;"/><rect x="1155.38" y="581.583" width="117.792" height="163.417" style="fill:#f5f5f5;"/><rect x="1293.79" y="596.958" width="131.542" height="181.083" style="fill:#f5f5f5;"/><rect x="1460.17" y="581.583" width="108.917" height="156.583" style="fill:#f5f5f5;"/><rect x="1596.5" y="593.208" width="95.875" height="176" style="fill:#f5f5f5;"/><rect x="1482.83" y="803.125" width="209.542" height="128.542" style="fill:#f5f5f5;"/><rect x="1163.25" y="819.958" width="78.458" height="78.458" style="fill:#f5f5f5;"/><rect x="1270.67" y="837.333" width="79.417" height="79.417" style="fill:#f5f5f5;"/><rect x="501.792" y="524.625" width="524.583" height="1065.75" style="fill:#e0e0e0;"/><rect x="594.542" y="623.375" width="102.208" height="102.208" style="fill:#f0f0f0;"/><rect x="712.958" y="623.375" width="102.208" height="102.208" style="fill:#f0f0f0;"/><rect x="831.375" y="623.375" width="102.208" height="102.208" style="fill:#f0f0f0;"/><rect x="594.542" y="742.25" width="102.208" height="102.208" style="fill:#f0f0f0;"/><rect x="712.958" y="742.25" width="102.208" height="102.208" style="fill:#f0f0f0;"/><rect x="831.375" y="742.25" width="102.208" height="102.208" style="fill:#f0f0f0;"/><path d="M984.542,1012.83c-0,10.812 -8.897,19.709 -19.709,19.709c-10.811,-0 -19.708,-8.897 -19.708,-19.709c0,-10.811 8.897,-19.708 19.708,-19.708c0.014,-0 0.028,-0 0.042,-0c10.789,-0 19.667,8.878 19.667,19.667c-0,0.014 -0,0.027 -0,0.041Z" style="fill:#f0f0f0;fill-rule:nonzero;"/><rect x="281.625" y="525.292" width="198.125" height="93.375" style="fill:#e0e0e0;"/><rect x="319.625" y="644.875" width="160.125" height="55.042" style="fill:#e0e0e0;"/><rect x="300.125" y="525.292" width="179.625" height="93.375" style="fill:#ebebeb;"/><rect x="334.542" y="644.875" width="145.208" height="55.042" style="fill:#ebebeb;"/><path d="M742.294,358.284c32.167,-13.324 69.099,1.974 82.423,34.14c13.324,32.167 -1.974,69.099 -34.141,82.422c-32.166,13.324 -69.098,-1.974 -82.422,-34.14c-13.324,-32.166 1.974,-69.099 34.14,-82.422Z" style="fill:#f0f0f0;"/><path d="M747.604,371.103c25.092,-10.394 53.901,1.539 64.294,26.631c10.393,25.091 -1.54,53.9 -26.631,64.294c-25.092,10.393 -53.901,-1.54 -64.294,-26.632c-10.393,-25.091 1.54,-53.9 26.631,-64.293Z" style="fill:#fafafa;"/><path d="M750.667,431.833l-2.625,-3.25l16.333,-13.041l0,-32.167l4.167,0l-0,34.167l-17.875,14.291Z" style="fill:#f0f0f0;fill-rule:nonzero;"/><path d="M1417,1458.79c0,-1.417 4.833,-142.584 27.792,-164.917c22.333,-21.708 47.958,-0.792 49.041,0l2.292,-2.75c-0.25,-0.25 -29.167,-23.833 -53.833,-0c-24,23.333 -28.667,161.5 -28.875,167.375l3.583,0.292Z" style="fill:#e0e0e0;fill-rule:nonzero;"/><path d="M1415.04,1486.54c-0,-1.709 15.708,-169.459 -45.584,-239.792l-2.708,2.375c60.25,69.125 44.875,235.375 44.708,237.042l3.584,0.375Z" style="fill:#e0e0e0;fill-rule:nonzero;"/><path d="M1417.29,1468.79l3.583,-0.25c0,-1.917 -11.958,-190.75 32.958,-232.084l-2.416,-2.625c-46.209,42.5 -34.75,227.125 -34.125,234.959Z" style="fill:#e0e0e0;fill-rule:nonzero;"/><path d="M1411.46,1468.67l3.584,-0c-0,-5.209 -1.459,-127.584 -36.209,-147.5c-6.698,-4.329 -15.099,-5.138 -22.5,-2.167c-20.833,8.667 -31.416,46.083 -31.875,47.667l3.459,0.958c-0,-0.375 10.416,-37.5 29.791,-45.292c6.376,-2.516 13.592,-1.785 19.334,1.959c32.958,18.916 34.416,143.125 34.416,144.375Z" style="fill:#e0e0e0;fill-rule:nonzero;"/><path d="M1425,1468.75l3.583,-0.208c0,-0.959 -5.25,-96.667 20.584,-130.375c6.25,-8.334 13.041,-12.084 20.25,-11.584c16.916,1.209 31.083,25.959 31.25,26.209l3.125,-1.75c-0.625,-1.125 -15.292,-26.709 -34.125,-28.042c-8.334,-0.583 -16.292,3.792 -23.334,12.958c-26.666,34.875 -21.583,128.834 -21.333,132.792Z" style="fill:#e0e0e0;fill-rule:nonzero;"/><path d="M1419.33,1481.79c0.709,-9.292 16.875,-227.834 -11.583,-266.375l-2.917,2.166c27.709,37.5 11.084,261.667 10.917,263.917l3.583,0.292Z" style="fill:#e0e0e0;fill-rule:nonzero;"/><path d="M1348.58,1341.12c0,0 17.084,6.333 12,21.167c-5.083,14.833 -59.083,39.333 -59.083,39.333c0,0 -22.625,-20.833 -1.833,-54.458c20.791,-33.625 48.458,-16.667 48.916,-6.042Z" style="fill:#ebebeb;fill-rule:nonzero;"/><path d="M1422.83,1312.83c0,0 -18.166,-0.75 -19.208,14.917c-1.042,15.667 39.417,59.042 39.417,59.042c-0,-0 28.833,-10.417 22.666,-49.542c-6.166,-39.125 -38.333,-34.042 -42.875,-24.417Z" style="fill:#ebebeb;fill-rule:nonzero;"/><path d="M1438.25,1237.79c0,-0 -12.125,-1.292 -11.167,-8.667c0.959,-7.375 47.167,-26.417 74.417,4.167c0,-0 -17.458,29.958 -42.667,30.333c-25.208,0.375 -20.583,-25.833 -20.583,-25.833Z" style="fill:#ebebeb;fill-rule:nonzero;"/><path d="M1415.67,1219.88c-0,0 10.958,5.292 14.041,-1.5c3.084,-6.792 -26.041,-47.333 -65.416,-35.625c-0,0 -1.042,34.625 20.125,48.292c21.166,13.666 31.25,-11.167 31.25,-11.167Z" style="fill:#ebebeb;fill-rule:nonzero;"/><path d="M1473.08,1335.17c0,-0 -8.333,-6.75 0.667,-10.042c9,-3.292 53.333,-2.375 53.792,41.667c-0,-0 -51.625,8.583 -58,-8.334c-6.375,-16.916 3.541,-23.291 3.541,-23.291Z" style="fill:#ebebeb;fill-rule:nonzero;"/><path d="M1367.79,1236.71c-0,0 8.333,-6.75 -0.667,-10.083c-9,-3.333 -53.333,-2.333 -53.792,41.667c0,-0 51.625,8.583 58,-8.125c6.375,-16.709 -3.541,-23.459 -3.541,-23.459Z" style="fill:#ebebeb;fill-rule:nonzero;"/><path d="M1395.08,1272.08c0,0 0.75,-8.333 -5.875,-5c-6.625,3.334 -29.75,28.125 -5.791,51.792c-0,0 32.25,-23.875 26.416,-36.333c-5.833,-12.459 -14.75,-10.459 -14.75,-10.459Z" style="fill:#ebebeb;fill-rule:nonzero;"/><path d="M1480.54,1283.75c-0,0 -5,-6.542 2.333,-7.333c7.333,-0.792 40.167,7.958 32.5,40.708c-0,0 -40,-3 -41.667,-16.667c-1.666,-13.666 6.834,-16.708 6.834,-16.708Z" style="fill:#ebebeb;fill-rule:nonzero;"/><path d="M1345.38,1590.38l137.292,0l14.791,-150.292l-166.875,0l14.792,150.292Z" style="fill:#f0f0f0;fill-rule:nonzero;"/><rect x="1323.25" y="1423.5" width="181.542" height="33.167" style="fill:#e6e6e6;"/></g><g id="freepik--Shadow--inject-33" opacity="0.35"><ellipse id="freepik--path--inject-33" cx="1041.67" cy="1734.33" rx="807.875" ry="47.167" style="fill:#f5f5f5;"/></g><g id="freepik--speech-bubble--inject-33" opacity="0.35"><path d="M1038.83,411.542l-119.666,-0c-20.229,-0 -36.875,16.646 -36.875,36.875l-0,104.166c-0,20.229 16.646,36.875 36.875,36.875l47.5,0l20.833,32.875l4.167,-32.875l47.375,0c20.206,0 36.833,-16.627 36.833,-36.833c0,-0.014 0,-0.028 -0,-0.042l0,-104.167c0,-20.229 -16.646,-36.875 -36.875,-36.875c-0.056,0 -0.111,0 -0.167,0.001Z" style="fill:#e28d0a;fill-rule:nonzero;"/><path d="M1038.83,411.542l-119.666,-0c-20.229,-0 -36.875,16.646 -36.875,36.875l-0,104.166c-0,20.229 16.646,36.875 36.875,36.875l47.5,0l20.833,32.875l4.167,-32.875l47.375,0c20.206,0 36.833,-16.627 36.833,-36.833c0,-0.014 0,-0.028 -0,-0.042l0,-104.167c0,-20.229 -16.646,-36.875 -36.875,-36.875c-0.056,0 -0.111,0 -0.167,0.001Z" style="fill:#fff;fill-opacity:0.7;fill-rule:nonzero;"/><path d="M936.993,458.02c23.188,-23.188 60.84,-23.188 84.028,-0c23.188,23.188 23.188,60.839 -0,84.028c-23.188,23.188 -60.84,23.188 -84.028,-0c-23.188,-23.189 -23.188,-60.84 0,-84.028Z" style="fill:#e28d0a;"/><path d="M972.75,526.583c-1.604,0.016 -3.134,-0.688 -4.167,-1.916l-23.333,-27.459c-0.84,-0.988 -1.302,-2.244 -1.302,-3.541c0,-3 2.469,-5.469 5.469,-5.469c1.603,0 3.128,0.705 4.166,1.927l19.125,22.583l31.625,-37.25c1.035,-1.141 2.505,-1.792 4.044,-1.792c2.995,-0 5.459,2.464 5.459,5.458c-0,1.224 -0.412,2.414 -1.169,3.376l-35.792,42.167c-1.03,1.208 -2.537,1.908 -4.125,1.916Z" style="fill:#fff;fill-rule:nonzero;"/></g><g id="freepik--character-3--inject-33" opacity="0.35"><path d="M1716.38,978.5l-7.958,-0.375c-0,0 -13.584,98.292 -22.584,106c-9,7.708 -141.041,-17.833 -148.75,-23.417c-0.264,-0.23 -0.453,-0.535 -0.541,-0.875c-5.792,-14.458 17.125,-177.541 25.541,-185.125c8.417,-7.583 34.125,0 34.125,0c0,0 55.625,13.042 87.5,21.709c7.256,1.715 14.373,3.971 21.292,6.75c8.333,4.916 11.375,75.333 11.375,75.333Z" style="fill:#263238;fill-rule:nonzero;"/><path d="M1686.79,971.083c-0,0 -13.625,98.292 -22.584,106c-7,6 -88.083,-8.041 -127.666,-17.25c-5.792,-14.458 17.125,-177.541 25.541,-185.125c8.417,-7.583 34.125,0 34.125,0c0,0 55.625,13.042 87.5,21.709c7.959,6.625 3.084,74.666 3.084,74.666Z" style="fill:#fff;fill-opacity:0.2;fill-rule:nonzero;"/><path d="M1455.21,713.417l-6.791,-27.667l30.916,6.417c0,-0 4.584,25 -8.333,26.875l-15.792,-5.625Z" style="fill:#eec1bb;fill-rule:nonzero;"/><path d="M1456.92,658.875l24.708,14.542l-2.292,18.75l-30.916,-6.417l8.5,-26.875Z" style="fill:#eec1bb;fill-rule:nonzero;"/><path d="M1564.04,877.542c-4.832,2.348 -9.799,4.407 -14.875,6.166c-3.667,-1.375 -7.25,-2.791 -10.792,-4.166c-1.792,-0.75 -3.625,-1.459 -5.375,-2.25c-6.5,-2.667 -12.875,-5.542 -19.208,-8.584l-7.542,-3.666c-2.083,-1.084 -4.167,-2.125 -6.292,-3.25c-4.75,-2.584 -9.5,-5.125 -14.208,-7.917c-3.25,-1.875 -6.5,-3.875 -9.708,-5.958c-3.209,-2.084 -6.584,-4.459 -9.917,-6.959l-1.958,-1.458c-4.267,-3.182 -8.254,-6.722 -11.917,-10.583c-2.217,-2.255 -4.239,-4.694 -6.042,-7.292c-1.103,-1.544 -2.106,-3.159 -3,-4.833c-0.25,-0.5 -0.541,-1.042 -0.791,-1.625c-0.625,-1.417 -1.209,-2.875 -1.584,-4.167c-1.809,-5.773 -2.75,-11.783 -2.791,-17.833c-0.1,-8.188 0.486,-16.369 1.75,-24.459c-0,-1.416 0.416,-2.875 0.625,-4.166c1.732,-10.099 4,-20.1 6.791,-29.959c2.084,-7.389 4.459,-14.75 7.125,-22.083l20.5,4.5c-0.333,6.75 -0.75,13.5 -1,20.25c-0.458,10.167 -0.791,20.25 -0.791,30.083l-0,4.167c-0,5.792 0.375,11.458 1,16.667c-0,0.708 0.208,1.458 0.291,2.166c0.354,2.578 1.04,5.099 2.042,7.5c0.208,0.417 -0,0 0.25,0.25c0.25,0.25 -0,0.209 0.583,0.584c0.584,0.375 1.417,1.458 2.5,2.375c5.53,4.487 11.458,8.462 17.709,11.875l0.375,-0c6.708,3.75 13.791,7.458 21.125,10.916l1.541,0.709c10.25,4.916 20.834,9.708 31.625,14.208c4.167,1.75 8.334,3.5 12.209,5.125c-0,0 13.541,3.708 18.333,13.042c3.875,7.833 -7.958,15.5 -18.583,20.625Z" style="fill:#e28d0a;fill-rule:nonzero;"/><path d="M1564.04,877.542c-4.832,2.348 -9.799,4.407 -14.875,6.166c-3.667,-1.375 -7.25,-2.791 -10.792,-4.166c-1.792,-0.75 -3.625,-1.459 -5.375,-2.25c-6.5,-2.667 -12.875,-5.542 -19.208,-8.584c22.833,-10.791 40.708,0.125 50.25,8.834Z" style="fill-opacity:0.2;fill-rule:nonzero;"/><path d="M1415.67,1683.88l-26.292,-9.542l14.458,-63.375l26.334,9.542l-14.5,63.375Z" style="fill:#eec1bb;fill-rule:nonzero;"/><path d="M1623.17,1718.83l-27.917,0l-7.958,-64.666l27.916,-0l7.959,64.666Z" style="fill:#eec1bb;fill-rule:nonzero;"/><path d="M1591.67,1715.58l34.041,0c1.137,0.011 2.125,0.808 2.375,1.917l5.792,25c0.051,0.261 0.076,0.526 0.076,0.792c0,2.286 -1.881,4.167 -4.167,4.167c-0.025,0 -0.05,-0 -0.076,-0.001c-10.958,-0.208 -18.958,-0.833 -32.75,-0.833c-8.333,0 -34.083,0.875 -45.833,0.875c-11.75,0 -13.333,-11.583 -8.333,-12.5c21.458,-4.708 37.5,-11.208 44.416,-17.417c1.198,-1.18 2.781,-1.89 4.459,-2Z" style="fill:#263238;fill-rule:nonzero;"/><path d="M1388.42,1669l29.875,6.375c1.109,0.261 1.913,1.237 1.958,2.375l0.417,25.417c0,0.022 0,0.045 0,0.068c0,2.286 -1.881,4.166 -4.166,4.166c-0.252,0 -0.503,-0.022 -0.751,-0.068c-10.75,-2.5 -26.208,-6.5 -39.75,-9.375c-15.833,-3.416 -25.667,-6.625 -44.25,-10.583c-11.25,-2.417 -12.042,-14.417 -7.125,-14.458c22.375,-0 35.917,4.166 56.75,-3.084c2.217,-0.951 4.663,-1.241 7.042,-0.833Z" style="fill:#263238;fill-rule:nonzero;"/><path d="M1403.83,1610.96l-7.458,32.667l26.333,9.583l7.459,-32.666l-26.334,-9.584Z" style="fill-opacity:0.2;fill-rule:nonzero;"/><path d="M1615.25,1654.17l-27.958,-0l4.125,33.333l27.916,0l-4.083,-33.333Z" style="fill-opacity:0.2;fill-rule:nonzero;"/><path d="M1388.67,1634l44.666,16c0,0 34.792,-153.208 53.292,-238.167c8.133,-33.569 18.163,-66.65 30.042,-99.083c16.916,-47.667 37.083,-99 53.375,-139.125c17.208,-42.25 30,-72.083 30,-72.083l-96.334,-19.5c0,-0 -73.458,211.458 -90,295.041c-17,86.917 -25.041,256.917 -25.041,256.917Z" style="fill:#263238;fill-rule:nonzero;"/><g opacity="0.3"><path d="M1388.67,1634l44.666,16c0,0 34.792,-153.208 53.292,-238.167c8.133,-33.569 18.163,-66.65 30.042,-99.083c16.916,-47.667 37.083,-99 53.375,-139.125c17.208,-42.25 30,-72.083 30,-72.083l-96.334,-19.5c0,-0 -73.458,211.458 -90,295.041c-17,86.917 -25.041,256.917 -25.041,256.917Z" style="fill:#fff;fill-rule:nonzero;"/></g><path d="M1516.67,1312.75c16.916,-47.667 37.083,-99 53.375,-139.125l-7.459,-23.042c-27.375,25.5 -44.583,113.375 -45.916,162.167Z" style="fill-opacity:0.2;fill-rule:nonzero;"/><path d="M1555.83,1092.58c0,0 -17.166,241.084 -18.208,323.042c-1.167,89.708 40.792,265.417 40.792,265.417l51.166,-0c0,-0 -20.458,-158.542 -13.625,-247.417c7.584,-99.417 34.417,-321.917 34.417,-321.917l-94.542,-19.125Z" style="fill:#263238;fill-rule:nonzero;"/><g opacity="0.3"><path d="M1555.83,1092.58c0,0 -17.166,241.084 -18.208,323.042c-1.167,89.708 40.792,265.417 40.792,265.417l51.166,-0c0,-0 -20.458,-158.542 -13.625,-247.417c7.584,-99.417 34.417,-321.917 34.417,-321.917l-94.542,-19.125Z" style="fill:#fff;fill-rule:nonzero;"/></g><path d="M1572.33,1682.17l60.209,-0l-0.167,-18l-62.875,-3.625l2.833,21.625Z" style="fill:#263238;fill-rule:nonzero;"/><path d="M1382.71,1633.42l53.334,18.5l5.833,-17.209l-58.333,-21.25l-0.834,19.959Z" style="fill:#263238;fill-rule:nonzero;"/><path d="M1582.38,1720.46c-1.901,0.157 -3.799,-0.343 -5.375,-1.416c-1.003,-0.873 -1.53,-2.175 -1.417,-3.5c-0.019,-0.789 0.42,-1.521 1.125,-1.875c3.042,-1.584 12.125,4.166 13.167,4.583c0.212,0.151 0.325,0.408 0.292,0.667c-0.031,0.269 -0.234,0.489 -0.5,0.541c-2.387,0.602 -4.832,0.937 -7.292,1Zm-4.167,-5.75c-0.273,-0.07 -0.56,-0.07 -0.833,0c-0.208,0 -0.417,0.25 -0.417,0.75c-0.115,0.907 0.229,1.815 0.917,2.417c3.119,1.428 6.67,1.607 9.917,0.5c-2.939,-1.838 -6.209,-3.084 -9.625,-3.667l0.041,0Z" style="fill:#e28d0a;fill-rule:nonzero;"/><path d="M1589.54,1719.5l-0.334,0c-2.916,-1.583 -8.541,-7.708 -8,-10.792c0.196,-0.997 1.068,-1.73 2.084,-1.75c1.018,-0.126 2.045,0.176 2.833,0.834c3.25,2.666 4.167,10.708 4.167,11.083c0.03,0.235 -0.085,0.467 -0.292,0.583c-0.134,0.095 -0.309,0.111 -0.458,0.042Zm-5.75,-11.167l-0.459,0c-0.833,0 -0.916,0.5 -0.958,0.667c-0.333,1.875 3.292,6.5 6.167,8.667c-0.226,-3.188 -1.402,-6.237 -3.375,-8.75c-0.382,-0.34 -0.866,-0.545 -1.375,-0.584Z" style="fill:#e28d0a;fill-rule:nonzero;"/><path d="M1384.92,1672.17c-4.584,-0 -12.5,-0.667 -15.084,-3.959c-0.753,-0.968 -0.973,-2.253 -0.583,-3.416c0.171,-0.707 0.715,-1.267 1.417,-1.459c3.708,-1.166 13.583,6.75 14.666,7.667c0.235,0.17 0.322,0.483 0.209,0.75c-0.079,0.271 -0.345,0.448 -0.625,0.417Zm-13.667,-7.625l-0.417,-0c-0.282,0.065 -0.498,0.297 -0.541,0.583c-0.279,0.757 -0.153,1.606 0.333,2.25c1.375,1.875 5.833,3.083 12.083,3.375c-3.541,-2.958 -9.25,-6.5 -11.458,-6.208Z" style="fill:#e28d0a;fill-rule:nonzero;"/><path d="M1384.92,1672.17c-0.142,0.081 -0.317,0.081 -0.459,-0c-3,-2.167 -8.333,-9.5 -7.208,-12.5c0.292,-0.709 1,-1.5 2.792,-1.292c1.331,0.143 2.55,0.82 3.375,1.875c1.867,3.495 2.596,7.488 2.083,11.417c-0.001,0.24 -0.151,0.456 -0.375,0.541l-0.208,-0.041Zm-5.709,-12.5c-0.301,0.013 -0.573,0.189 -0.708,0.458c-0.667,1.792 2.833,7.417 5.792,10.125c0.324,-3.18 -0.346,-6.383 -1.917,-9.167c-0.58,-0.794 -1.478,-1.297 -2.458,-1.375l-0.709,-0.041Z" style="fill:#e28d0a;fill-rule:nonzero;"/><path d="M1704.75,875.208c-4.278,10.361 -8.208,20.792 -11.792,31.292c-0.958,2.792 -1.875,5.542 -2.791,8.333c-2.834,8.709 -5.459,17.417 -7.875,26.042c-0.834,3.042 -1.667,6.083 -2.459,9.083c-1.291,4.75 -2.5,9.459 -3.666,14.125c-0.625,2.625 -1.25,5.209 -1.834,7.75c-1.458,6.167 -2.791,12.209 -4.166,18.167c-1.375,5.958 -2.334,11.333 -3.375,16.667c-1.042,5.333 -2.25,11.625 -3.209,17.208c-0.958,5.583 -1.875,10.958 -2.708,16.208c-0.833,5.25 -1.792,11.417 -2.542,16.667c-0.958,6.708 -1.833,13 -2.583,18.75c-2.417,17.292 -4.167,30 -5.458,36.042l-146.459,-29.667c0,-11.5 0,-22.542 0.5,-33.333c0.292,-7.125 0.625,-14.084 1.125,-20.834c0.25,-4.458 0.584,-8.833 0.959,-13.125c0.583,-6.541 1.208,-12.875 1.916,-19.041c0.792,-6.917 1.667,-13.584 2.667,-20c1.75,-11.875 3.792,-22.875 5.958,-33.084c2.667,-12.5 5.5,-23.541 8.334,-33.541c3.625,-12.5 7.333,-23.25 10.75,-32.042c4.044,-10.995 9.035,-21.618 14.916,-31.75c11.952,-0.656 23.934,-0.572 35.875,0.25c2.5,0 5.084,0.458 7.667,0.708c21.056,2.964 41.924,7.137 62.5,12.5c3.875,1 7.833,2.125 11.667,3.25c19.291,6.25 36.083,13.375 36.083,13.375Z" style="fill:#e28d0a;fill-rule:nonzero;"/><path d="M1664.25,787.5c-7.792,19.25 -18.792,55.167 -7.333,71.375c-15.029,10.527 -33.934,13.97 -51.709,9.417c-17.166,-3.875 -15.708,-16.125 -10.583,-22c23.375,-0.834 26,-17.542 25,-33.875l44.625,-24.917Z" style="fill:#eec1bb;fill-rule:nonzero;"/><path d="M1646.08,797.833l-26.333,14.667c0.245,3.819 0.175,7.651 -0.208,11.458c8.75,0.5 22.291,-6.5 25,-15.25c1.178,-3.499 1.701,-7.186 1.541,-10.875Z" style="fill-opacity:0.2;fill-rule:nonzero;"/><path d="M1613.42,717.958c-7.625,8.334 -15.25,29.167 1.375,28.959c16.625,-0.209 11.708,-43.25 -1.375,-28.959Z" style="fill:#263238;fill-rule:nonzero;"/><path d="M1677.46,763.833c-10.166,25.75 -14.833,41.334 -32.458,50.375c-26.542,13.584 -55,-9.375 -52.708,-37.5c2.041,-25.541 18.375,-63.333 47.458,-65.125c0.753,-0.044 1.507,-0.067 2.262,-0.067c20.937,0 38.166,17.229 38.166,38.167c0,4.847 -0.923,9.649 -2.72,14.15Z" style="fill:#eec1bb;fill-rule:nonzero;"/><path d="M1681.46,714.292l-18.958,-0l9.083,17.125c3.084,0.458 -3.041,10.916 -0.375,10.958c0,0 -12.5,22.75 -4.708,38.125c28,-2.25 47.792,-24.25 35.083,-40.125c8.125,-13.917 -6.083,-24.25 -20.125,-26.083Z" style="fill:#263238;fill-rule:nonzero;"/><path d="M1680.46,789.042c-4.054,5.639 -10.217,9.412 -17.083,10.458c-9.083,1.333 -12.5,-7.125 -9.125,-15.167c3.125,-7.25 11.583,-16.666 20.292,-14.291c5.086,1.467 8.613,6.156 8.613,11.449c0,2.753 -0.953,5.421 -2.697,7.551Z" style="fill:#eec1bb;fill-rule:nonzero;"/><path d="M1618.46,753.292c-4.689,5.449 -10.117,10.218 -16.125,14.166c2.321,2.991 5.808,4.856 9.584,5.125l6.541,-19.291Z" style="fill:#d4827d;fill-rule:nonzero;"/><path d="M1645.29,752.5c-0.487,-0.095 -0.886,-0.446 -1.042,-0.917c-1.004,-3.217 -3.482,-5.772 -6.667,-6.875c-0.587,-0.151 -1,-0.685 -1,-1.291c-0,-0.732 0.602,-1.334 1.334,-1.334c0.112,-0 0.224,0.014 0.333,0.042c3.988,1.386 7.085,4.592 8.333,8.625c0.251,0.686 -0.106,1.456 -0.791,1.708c-0.164,0.037 -0.333,0.051 -0.5,0.042Z" style="fill:#263238;fill-rule:nonzero;"/><path d="M1603.46,737.833c-0.26,-0.039 -0.497,-0.173 -0.666,-0.375c-0.511,-0.516 -0.511,-1.359 -0,-1.875c2.857,-3.143 7.077,-4.701 11.291,-4.166c0.726,0.146 1.21,0.853 1.084,1.583c-0.146,0.703 -0.835,1.169 -1.542,1.042c-3.345,-0.467 -6.711,0.77 -8.958,3.291c-0.276,0.381 -0.745,0.574 -1.209,0.5Z" style="fill:#263238;fill-rule:nonzero;"/><path d="M1608.88,777.667c1.95,4.404 3.579,8.944 4.875,13.583l2.5,-0.292c11.417,-1.416 16.25,-5.833 18.167,-10.291c0.89,-2.205 1.234,-4.593 1,-6.959c-0.089,-1.338 -0.37,-2.657 -0.834,-3.916c-5.583,4.166 -16.125,6.458 -21.833,7.375c-2.375,0.375 -3.875,0.5 -3.875,0.5Z" style="fill:#263238;fill-rule:nonzero;"/><path d="M1612.75,777.167l1.542,3.958c10.75,-1.333 18.125,-3.75 21.125,-7.417c-0.089,-1.338 -0.37,-2.657 -0.834,-3.916c-5.416,4.333 -16.125,6.458 -21.833,7.375Z" style="fill:#fff;fill-rule:nonzero;"/><path d="M1616.25,790.958c11.417,-1.416 16.25,-5.833 18.167,-10.291c-4.382,0.632 -8.615,2.043 -12.5,4.166c-2.473,1.412 -4.451,3.551 -5.667,6.125Z" style="fill:#de5753;fill-rule:nonzero;"/><path d="M1696.46,719.917c0,-0 -16.333,-25.25 -54.75,-26.834c-38.416,-1.583 -39.583,24 -26.583,32.792l1.125,-3.75c3.112,3.763 7.028,6.781 11.458,8.833l0,-5.083c5.426,5.009 11.669,9.054 18.459,11.958l-0,-6.416c-0,-0 10,8.333 30.791,10.666c20.792,2.334 29,-6.125 19.5,-22.166Z" style="fill:#263238;fill-rule:nonzero;"/><path d="M1635.46,759.25c-0.428,0.007 -0.815,-0.263 -0.958,-0.667c-0.293,-1.197 -1.102,-2.205 -2.208,-2.75c-0.694,-0.287 -1.474,-0.287 -2.167,0c-0.495,0.261 -1.115,0.097 -1.417,-0.375c-0.191,-0.482 0.006,-1.037 0.459,-1.291c1.173,-0.689 2.591,-0.826 3.875,-0.375c1.752,0.765 3.048,2.308 3.5,4.166c0.171,0.537 -0.103,1.122 -0.625,1.334l-0.459,-0.042Z" style="fill:#263238;fill-rule:nonzero;"/><path d="M1611.79,753.042c-0.425,-0.006 -0.806,-0.271 -0.959,-0.667c-0.292,-1.198 -1.102,-2.206 -2.208,-2.75c-0.709,-0.206 -1.47,-0.131 -2.125,0.208c-0.505,0.287 -1.155,0.12 -1.458,-0.375c-0.241,-0.498 -0.081,-1.103 0.375,-1.416c1.179,-0.668 2.589,-0.804 3.875,-0.375c1.752,0.765 3.048,2.308 3.5,4.166c0.171,0.537 -0.103,1.122 -0.625,1.334l-0.375,-0.125Z" style="fill:#263238;fill-rule:nonzero;"/><path d="M1680.21,864.208c0,0 -27.5,84.542 -6.916,162.5l-5.292,4.917c-0,0 -34.125,-82.917 -5.417,-171.042l17.625,3.625Z" style="fill:#263238;fill-rule:nonzero;"/><path d="M1583.33,845.042c0,-0 -63.75,81.458 -75.666,157.208l1.166,-17.583c0,-0 -0.416,-67.584 55.417,-140.5l19.083,0.875Z" style="fill:#263238;fill-rule:nonzero;"/><path d="M1671.38,1018.79l10.792,18.625l-7.167,24.291c-5.134,-12.602 -8.648,-25.804 -10.458,-39.291l6.833,-3.625Z" style="fill:#263238;fill-rule:nonzero;"/><path d="M1714.08,1091.96l-69.291,-29.166l-4.459,58.333c0,-0 78.084,1.458 79.167,1.917c1.083,0.458 -5.417,-31.084 -5.417,-31.084Z" style="fill:#263238;fill-rule:nonzero;"/><path d="M1714.08,1091.96l-69.291,-29.166l-4.459,58.333c0,-0 78.084,1.458 79.167,1.917c1.083,0.458 -5.417,-31.084 -5.417,-31.084Z" style="fill:#fff;fill-opacity:0.4;fill-rule:nonzero;"/><path d="M1644.71,1117.71l4.584,-50.041l11.75,-18.792l46.333,40.25l-8.042,27.625l-54.625,0.958Z" style="fill:#263238;fill-rule:nonzero;"/><path d="M1644.71,1117.71l4.584,-50.041l11.75,-18.792l46.333,40.25l-8.042,27.625l-54.625,0.958Z" style="fill:#fff;fill-opacity:0.7;fill-rule:nonzero;"/><path d="M1656.83,1043.42l-0.833,64.333l-15.667,13.625l92.042,38.417l15.917,-16.459l0.666,-58.041l-92.125,-41.875Z" style="fill:#263238;fill-rule:nonzero;"/><path d="M1656.83,1043.42l-0.833,64.333l-15.667,13.625l92.042,38.417l15.917,-16.459l0.666,-58.041l-92.125,-41.875Z" style="fill:#fff;fill-opacity:0.5;fill-rule:nonzero;"/><path d="M1714.71,1107.21l-2.5,28.334l-27.166,-16.084c-0,0 3.791,-25 16.666,-22.666l13,10.416Z" style="fill:#eec1bb;fill-rule:nonzero;"/><path d="M1695.46,1158.25l-18.666,-21.792l8.25,-17l27.166,16.084l-16.75,22.708Z" style="fill:#eec1bb;fill-rule:nonzero;"/><path d="M1690.17,914.833c-2.834,8.709 -5.459,17.417 -7.875,26.042c-0.834,3.042 -1.667,6.083 -2.459,9.083c-5.833,-12.083 -3.041,-32.458 -3.041,-32.458l13.375,-2.667Z" style="fill-opacity:0.2;fill-rule:nonzero;"/><path d="M1722.08,887.875c8.34,8.38 15.95,17.454 22.75,27.125c10.228,14.291 19.338,29.35 27.25,45.042c5.451,10.529 9.968,21.515 13.5,32.833c1.357,4.284 2.169,8.722 2.417,13.208c0.292,9.417 -8.333,25.459 -19.792,42.209c-6.458,9.541 -13.791,19.333 -20.833,28.291c-15.458,19.625 -29.167,35.209 -29.167,35.209l-20.833,-14.584c0,0 10.292,-18.75 20.833,-39c5.625,-10.708 11.292,-21.875 15.459,-30.875c2.939,-5.461 5.179,-11.27 6.666,-17.291c0.058,-1.843 -0.081,-3.687 -0.416,-5.5c-1.584,-8.792 -27.375,-63.542 -62.792,-87.042l12.5,-45.833c8.708,-2.459 20.375,4.333 32.458,16.208Z" style="fill:#e28d0a;fill-rule:nonzero;"/></g><g id="freepik--character-2--inject-33" opacity="0.35"><path d="M1299.04,993.625c16.958,11.083 -16.25,58.333 -54.709,51.708c-38.458,-6.625 -33.875,-37.291 -26.916,-48.625c6.958,-11.333 42.375,-28.75 81.625,-3.083Z" style="fill:#e28d0a;fill-rule:nonzero;"/><path d="M1299.04,993.625c16.958,11.083 -16.25,58.333 -54.709,51.708c-38.458,-6.625 -33.875,-37.291 -26.916,-48.625c6.958,-11.333 42.375,-28.75 81.625,-3.083Z" style="fill-opacity:0.3;fill-rule:nonzero;"/><path d="M1248.21,982.542c0,-0 45.584,33.583 50.542,62.791c4.958,29.209 -51.917,52.125 -93.125,47.25c-41.208,-4.875 -77.5,-77.625 -77.5,-77.625c-0,0 80.208,1.709 120.083,-32.416Z" style="fill:#e28d0a;fill-rule:nonzero;"/><path d="M1248.21,982.542c0,-0 45.584,33.583 50.542,62.791c4.958,29.209 -51.917,52.125 -93.125,47.25c-41.208,-4.875 -77.5,-77.625 -77.5,-77.625c-0,0 80.208,1.709 120.083,-32.416Z" style="fill-opacity:0.2;fill-rule:nonzero;"/><path d="M1241.67,1001.96c-0,0 -2.667,-40.583 57.458,-8.333c0,0 -27.583,-18.75 -53.5,-15.25c-25.917,3.5 -52.917,31.125 -81.417,28.417c-28.5,-2.709 -13.583,31.083 -13.583,31.083c0,0 63.5,-4.875 91.042,-35.917Z" style="fill:#e28d0a;fill-rule:nonzero;"/><path d="M1119.71,809.25c13.459,-29.939 24.82,-60.777 34,-92.292c2.709,-11.25 1.167,-23.125 0,-35.166c-1.791,-15.125 -4.541,-31 -7.375,-46.459l19.417,-7.041c12.352,22.78 20.802,47.47 25,73.041c1.404,9.894 0.995,19.962 -1.208,29.709c-6.55,33.287 -17.317,65.603 -32.042,96.166l-37.5,-17.958l-0.292,0Z" style="fill:#ffb573;fill-rule:nonzero;"/><path d="M1104.17,811.75c18.541,-12.958 34.25,-47.417 34.25,-47.417l38.125,23.375c-0,0 -17.625,39.709 -21.459,65.459c-2.166,15.625 -50.916,-41.417 -50.916,-41.417Z" style="fill:#263238;fill-rule:nonzero;"/><path d="M1136.25,845.25c9.708,8.75 18.083,14.167 19.042,7.875c0.743,-4.848 1.773,-9.648 3.083,-14.375c-5.602,-6.129 -12.265,-11.196 -19.667,-14.958c-1.934,6.98 -2.763,14.221 -2.458,21.458Z" style="fill-opacity:0.2;fill-rule:nonzero;"/><path d="M1085.83,1599.62l27.417,1.542l14.708,-62.834l-27.375,-1.541l-14.75,62.833Z" style="fill:#ffb573;fill-rule:nonzero;"/><path d="M1113.58,1594.92l-22.666,-20.834c-0.824,-0.706 -2.052,-0.706 -2.875,0l-19.125,15.584c-0.934,0.829 -1.47,2.021 -1.47,3.27c0,1.25 0.536,2.442 1.47,3.271c8,7.167 12.25,10.209 22.208,19.417c6.167,5.625 23.167,22.5 31.667,30.333c8.5,7.834 16.666,0 13.791,-4.166c-12.5,-18 -19.5,-32.959 -20.833,-42.334c-0.153,-1.724 -0.923,-3.337 -2.167,-4.541Z" style="fill:#263238;fill-rule:nonzero;"/><g opacity="0.2"><path d="M1127.96,1538.33l-7.583,32.417l-27.417,-1.542l7.584,-32.375l27.416,1.5Z" style="fill-rule:nonzero;"/></g><path d="M1129.17,814.375c-0,0 38.458,47.958 40.375,166.417c-42.917,10.75 -87.5,13.5 -108.334,18.75c-9.208,-44.459 -15.666,-71.709 -59.333,-156.75c14.204,-6.891 28.897,-12.726 43.958,-17.459c16.043,-5.33 32.446,-9.507 49.084,-12.5c11.379,-2.174 23.112,-1.646 34.25,1.542Z" style="fill:#ffb573;fill-rule:nonzero;"/><path d="M1036.96,768.875c7.042,15 17.417,43.167 9,56.458c0,0 8.334,14.959 37.5,7.584c32.292,-8.084 11.417,-19.875 11.417,-19.875c-18.667,0.208 -21.5,-12.959 -21.5,-26l-36.417,-18.167Z" style="fill:#ffb573;fill-rule:nonzero;"/><path d="M1045.83,825.375c16.038,-5.348 32.442,-9.526 49.084,-12.5l3.291,-0.458c5.792,6.416 9.625,17.583 4.459,36.708c-0,0 -47.417,-6.542 -63.209,-21.875c2.209,-0.542 4.375,-1.25 6.375,-1.875Z" style="fill:#ffb573;fill-rule:nonzero;"/><path d="M1051.88,776.292l21.667,10.708c-0.076,3.056 0.147,6.112 0.666,9.125c-7,0.708 -18.083,-4.167 -20.583,-11.25c-1.089,-2.734 -1.682,-5.641 -1.75,-8.583Z" style="fill-opacity:0.2;fill-rule:nonzero;"/><path d="M1169.75,983.667c0,-0 18.708,211.666 15.75,295.333c-3.083,87 -59.958,284.792 -59.958,284.792l-37.125,-0.542c-0,0 30.791,-193.042 28.708,-278.542c-2.292,-93.25 -29.167,-302.166 -29.167,-302.166l81.792,1.125Z" style="fill:#e28d0a;fill-rule:nonzero;"/><path d="M1169.75,983.667c0,-0 18.708,211.666 15.75,295.333c-3.083,87 -59.958,284.792 -59.958,284.792l-37.125,-0.542c-0,0 30.791,-193.042 28.708,-278.542c-2.292,-93.25 -29.167,-302.166 -29.167,-302.166l81.792,1.125Z" style="fill:#fff;fill-opacity:0.2;fill-rule:nonzero;"/><path d="M1085.17,1564.54l43.541,0.625l3.417,-13.875l-48.75,-2.334l1.792,15.584Z" style="fill:#e28d0a;fill-rule:nonzero;"/><path d="M1120.83,1035.58c26.584,55.459 3.334,155.584 -6.875,192.834c-4.166,-56.209 -11.583,-125 -17.416,-175.417c4.666,-28.417 12.125,-43 24.291,-17.417Z" style="fill-opacity:0.2;fill-rule:nonzero;"/><path d="M850.417,1351.62l8.916,25.958l63.375,-11.083l-8.875,-25.958l-63.416,11.083Z" style="fill:#ffb573;fill-rule:nonzero;"/><path d="M866.667,1378.5l-1.75,-30.792c-0.068,-1.135 -0.889,-2.093 -2,-2.333l-24.75,-5.292c-0.283,-0.066 -0.573,-0.099 -0.863,-0.099c-2.081,-0 -3.792,1.711 -3.792,3.791c-0,0.159 0.01,0.318 0.03,0.475c0.75,10.75 1.708,15.958 2.458,29.5c0.458,8.333 0.917,32.208 1.583,43.708c0.667,11.5 12.125,12.917 12.917,8.334c3.417,-21.125 9,-35.792 14.708,-42.584c1.102,-1.307 1.628,-3.007 1.459,-4.708Z" style="fill:#263238;fill-rule:nonzero;"/><g opacity="0.2"><path d="M922.708,1366.5l-32.666,5.708l-8.917,-25.958l32.667,-5.708l8.916,25.958Z" style="fill-rule:nonzero;"/></g><path d="M1138.92,983.333c-0,0 -33.334,217.75 -55.25,299.542c-22.625,85.042 -182.792,90.125 -182.792,90.125l-15.833,-33.583c-0,-0 93.791,-23.542 134.916,-79.167c18.709,-91.667 37.5,-278.042 37.5,-278.042l81.459,1.125Z" style="fill:#e28d0a;fill-rule:nonzero;"/><path d="M1138.92,983.333c-0,0 -33.334,217.75 -55.25,299.542c-22.625,85.042 -182.792,90.125 -182.792,90.125l-15.833,-33.583c-0,-0 93.791,-23.542 134.916,-79.167c18.709,-91.667 37.5,-278.042 37.5,-278.042l81.459,1.125Z" style="fill:#fff;fill-opacity:0.2;fill-rule:nonzero;"/><path d="M883.208,1336.17l13.709,41.333l14.791,0.375l-13.708,-46.625l-14.792,4.917Z" style="fill:#e28d0a;fill-rule:nonzero;"/><path d="M862.5,1388.42c-0.069,2.424 0.647,4.807 2.042,6.791c0.818,0.932 2.01,1.452 3.25,1.417c0.709,0.009 1.369,-0.377 1.708,-1c1.667,-3.208 -4.583,-14.542 -5.292,-15.833c-0.143,-0.251 -0.42,-0.398 -0.708,-0.375c-0.253,0.016 -0.462,0.208 -0.5,0.458c-0.437,2.825 -0.605,5.685 -0.5,8.542Zm5.958,5.333c0.122,0.379 0.122,0.787 0,1.167c-0.11,0.261 -0.386,0.416 -0.666,0.375c-0.808,0.07 -1.601,-0.257 -2.125,-0.875c-1.625,-1.792 -2.125,-6.292 -1.459,-12.5c2.078,3.678 3.528,7.678 4.292,11.833l-0.042,0Z" style="fill:#e28d0a;fill-rule:nonzero;"/><path d="M863.042,1380c-0.021,0.096 -0.021,0.195 -0,0.292c1.666,3.375 8,10.25 11.083,10c0.75,-0 1.625,-0.542 1.708,-2.334c0.061,-1.35 -0.419,-2.671 -1.333,-3.666c-3.061,-2.642 -6.826,-4.336 -10.833,-4.875c-0.218,-0.048 -0.445,0.033 -0.584,0.208c-0.073,0.111 -0.088,0.251 -0.041,0.375Zm11.541,7.5l0,0.375c0,1.167 -0.541,1.208 -0.666,1.208c-1.875,0 -6.792,-4.541 -9.042,-8c3.241,0.53 6.263,1.976 8.708,4.167c0.569,0.621 0.92,1.411 1,2.25Z" style="fill:#e28d0a;fill-rule:nonzero;"/><path d="M1117.92,1605.46c1.593,1.729 3.721,2.874 6.041,3.25c1.194,0.019 2.32,-0.56 3,-1.541c0.488,-0.544 0.633,-1.317 0.375,-2c-1.208,-3.625 -13.041,-6.959 -14.416,-7.292c-0.265,-0.083 -0.555,0.019 -0.709,0.25c-0.143,0.229 -0.143,0.521 0,0.75c1.7,2.363 3.61,4.566 5.709,6.583Zm7.458,-0.875c0.329,0.257 0.576,0.605 0.708,1c0.161,0.239 0.161,0.553 0,0.792c-0.445,0.643 -1.176,1.032 -1.958,1.042c-2.25,-0 -5.75,-2.917 -9.542,-7.75c3.849,1.018 7.498,2.68 10.792,4.916Z" style="fill:#e28d0a;fill-rule:nonzero;"/><path d="M1112.5,1598.96c0.064,0.038 0.144,0.038 0.208,0c3.417,1.167 12.209,1.167 13.917,-1.458c0.417,-0.625 0.667,-1.625 -0.542,-3c-0.867,-0.987 -2.103,-1.575 -3.416,-1.625c-3.831,0.554 -7.39,2.305 -10.167,5c-0.097,0.197 -0.097,0.428 -0,0.625c-0.063,0.146 -0.063,0.312 -0,0.458Zm12.5,-3.75c0.107,0.087 0.205,0.185 0.292,0.292c0.791,0.875 0.5,1.292 0.416,1.417c-1.041,1.583 -7.416,2.041 -11.25,1.25c2.306,-2.121 5.223,-3.463 8.334,-3.834c0.701,0.088 1.357,0.395 1.875,0.875l0.333,0Z" style="fill:#e28d0a;fill-rule:nonzero;"/><path d="M1056.17,985.833l-1,9.667c-0.25,0.792 0.833,1.458 2.125,1.375l114.375,-8.333c1,-0 1.75,-0.625 1.708,-1.209l-0.833,-9.541c-0,-0.667 -1.042,-1.167 -2.125,-1.084l-112.5,8.334c-0.687,-0.098 -1.37,0.212 -1.75,0.791Z" style="fill:#e28d0a;fill-rule:nonzero;"/><path d="M1056.17,985.833l-1,9.667c-0.25,0.792 0.833,1.458 2.125,1.375l114.375,-8.333c1,-0 1.75,-0.625 1.708,-1.209l-0.833,-9.541c-0,-0.667 -1.042,-1.167 -2.125,-1.084l-112.5,8.334c-0.687,-0.098 -1.37,0.212 -1.75,0.791Z" style="fill:#fff;fill-opacity:0.7;fill-rule:nonzero;"/><path d="M1065.92,997.042l-3,0.208c-0.625,0 -1.125,-0.208 -1.167,-0.583l-0.958,-12.5c-0,-0.375 0.416,-0.709 1.041,-0.75l3,-0c0.584,-0 1.125,-0 1.125,0.583l1,12.5c0.042,0.167 -0.291,0.5 -1.041,0.542Z" style="fill:#e28d0a;fill-rule:nonzero;"/><g opacity="0.2"><path d="M1065.92,997.042l-3,0.208c-0.625,0 -1.125,-0.208 -1.167,-0.583l-0.958,-12.5c-0,-0.375 0.416,-0.709 1.041,-0.75l3,-0c0.584,-0 1.125,-0 1.125,0.583l1,12.5c0.042,0.167 -0.291,0.5 -1.041,0.542Z" style="fill:#e28d0a;fill-rule:nonzero;"/></g><path d="M1155.71,990.417l-3.041,0.25c-0.584,-0 -1.084,-0.25 -1.125,-0.584l-1,-12.5c-0,-0.375 0.458,-0.708 1.041,-0.75l3.042,-0.208c0.583,-0 1.125,0.208 1.125,0.542l1,12.5c0,0.375 -0.458,0.708 -1.042,0.75Z" style="fill:#e28d0a;fill-rule:nonzero;"/><path d="M1155.71,990.417l-3.041,0.25c-0.584,-0 -1.084,-0.25 -1.125,-0.584l-1,-12.5c-0,-0.375 0.458,-0.708 1.041,-0.75l3.042,-0.208c0.583,-0 1.125,0.208 1.125,0.542l1,12.5c0,0.375 -0.458,0.708 -1.042,0.75Z" style="fill:#e28d0a;fill-opacity:0.2;fill-rule:nonzero;"/><path d="M1110.79,993.75l-3,0.208c-0.584,0 -1.125,-0.208 -1.125,-0.583l-1,-12.5c-0,-0.375 0.458,-0.708 1.041,-0.75l3,-0.208c0.625,-0 1.125,0.208 1.167,0.583l0.958,12.5c0.042,0.375 -0.416,0.708 -1.041,0.75Z" style="fill:#e28d0a;fill-rule:nonzero;"/><path d="M1110.79,993.75l-3,0.208c-0.584,0 -1.125,-0.208 -1.125,-0.583l-1,-12.5c-0,-0.375 0.458,-0.708 1.041,-0.75l3,-0.208c0.625,-0 1.125,0.208 1.167,0.583l0.958,12.5c0.042,0.375 -0.416,0.708 -1.041,0.75Z" style="fill:#e28d0a;fill-opacity:0.2;fill-rule:nonzero;"/><g opacity="0.2"><path d="M1065.92,997.042l-3,0.208c-0.625,0 -1.125,-0.208 -1.167,-0.583l-0.958,-12.5c-0,-0.375 0.416,-0.709 1.041,-0.75l3,-0c0.584,-0 1.125,-0 1.125,0.583l1,12.5c0.042,0.167 -0.291,0.5 -1.041,0.542Z" style="fill:#fff;fill-rule:nonzero;"/><g opacity="0.2"><path d="M1065.92,997.042l-3,0.208c-0.625,0 -1.125,-0.208 -1.167,-0.583l-0.958,-12.5c-0,-0.375 0.416,-0.709 1.041,-0.75l3,-0c0.584,-0 1.125,-0 1.125,0.583l1,12.5c0.042,0.167 -0.291,0.5 -1.041,0.542Z" style="fill:#fff;fill-rule:nonzero;"/></g><path d="M1155.71,990.417l-3.041,0.25c-0.584,-0 -1.084,-0.25 -1.125,-0.584l-1,-12.5c-0,-0.375 0.458,-0.708 1.041,-0.75l3.042,-0.208c0.583,-0 1.125,0.208 1.125,0.542l1,12.5c0,0.375 -0.458,0.708 -1.042,0.75Z" style="fill:#fff;fill-rule:nonzero;"/><path d="M1155.71,990.417l-3.041,0.25c-0.584,-0 -1.084,-0.25 -1.125,-0.584l-1,-12.5c-0,-0.375 0.458,-0.708 1.041,-0.75l3.042,-0.208c0.583,-0 1.125,0.208 1.125,0.542l1,12.5c0,0.375 -0.458,0.708 -1.042,0.75Z" style="fill:#fff;fill-opacity:0.2;fill-rule:nonzero;"/><path d="M1110.79,993.75l-3,0.208c-0.584,0 -1.125,-0.208 -1.125,-0.583l-1,-12.5c-0,-0.375 0.458,-0.708 1.041,-0.75l3,-0.208c0.625,-0 1.125,0.208 1.167,0.583l0.958,12.5c0.042,0.375 -0.416,0.708 -1.041,0.75Z" style="fill:#fff;fill-rule:nonzero;"/><path d="M1110.79,993.75l-3,0.208c-0.584,0 -1.125,-0.208 -1.125,-0.583l-1,-12.5c-0,-0.375 0.458,-0.708 1.041,-0.75l3,-0.208c0.625,-0 1.125,0.208 1.167,0.583l0.958,12.5c0.042,0.375 -0.416,0.708 -1.041,0.75Z" style="fill:#fff;fill-opacity:0.2;fill-rule:nonzero;"/></g><path d="M1023.96,691.208c-17.291,10.042 -45.25,38.625 -15.166,71.25c30.083,32.625 91.125,-1.75 80.625,-41.958c-10.5,-40.208 -40.75,-43.625 -65.459,-29.292Z" style="fill:#263238;fill-rule:nonzero;"/><path d="M1013.04,745.833c12.5,24.209 17.25,34.75 35.416,42c27.375,10.875 54.375,-9.75 49.375,-37.208c-4.458,-24.708 -24.125,-60.125 -52.833,-59.333c-20.047,0.481 -36.275,17.103 -36.275,37.156c-0,6.06 1.482,12.029 4.317,17.385Z" style="fill:#ffb573;fill-rule:nonzero;"/><path d="M1017.88,719.875c11.125,4.792 13.542,31.75 4.167,42.583c-19.375,0.042 -37.334,-56.916 -4.167,-42.583Z" style="fill:#263238;fill-rule:nonzero;"/><path d="M1073.08,731.583c3.842,3.823 8.188,7.104 12.917,9.75c-1.419,2.426 -3.851,4.093 -6.625,4.542l-6.292,-14.292Z" style="fill:#ed893e;fill-rule:nonzero;"/><path d="M1016.33,771.542c3.692,3.767 8.727,5.925 14,6c6.959,-0 8.625,-6.667 5.125,-12.5c-3.5,-5.834 -10.5,-11.167 -16.666,-8.334c-3.262,1.421 -5.382,4.656 -5.382,8.214c0,2.518 1.062,4.923 2.923,6.62Z" style="fill:#ffb573;fill-rule:nonzero;"/><path d="M1044.42,734.292c0.542,-0.158 0.928,-0.645 0.958,-1.209c0.76,-4.224 3.275,-7.936 6.917,-10.208c0.365,-0.239 0.586,-0.647 0.586,-1.083c-0,-0.71 -0.585,-1.295 -1.295,-1.295c-0.251,0 -0.497,0.074 -0.708,0.211c-4.428,2.672 -7.474,7.15 -8.333,12.25c-0.024,0.717 0.534,1.331 1.25,1.375l0.625,-0.041Z" style="fill:#263238;fill-rule:nonzero;"/><path d="M1080.79,711.25c0.435,-0.14 0.777,-0.481 0.916,-0.917c0.187,-0.696 -0.224,-1.424 -0.916,-1.625c-4.001,-1.216 -8.352,-0.423 -11.667,2.125c-0.283,0.247 -0.445,0.604 -0.445,0.98c-0,0.712 0.586,1.299 1.299,1.299c0.314,-0 0.618,-0.114 0.854,-0.32c2.645,-1.99 6.095,-2.58 9.25,-1.584c0.229,0.076 0.473,0.09 0.709,0.042Z" style="fill:#263238;fill-rule:nonzero;"/><path d="M1082.83,752.417c-0.88,3.884 -1.493,7.823 -1.833,11.791l-2.083,0c-9.5,0.667 -14.125,-2.166 -16.375,-5.5c-1.059,-1.655 -1.702,-3.542 -1.875,-5.5c-0.168,-1.104 -0.168,-2.228 -0,-3.333c6.037,2.189 12.471,3.07 18.875,2.583c2.041,0.084 3.291,-0.041 3.291,-0.041Z" style="fill:#263238;fill-rule:nonzero;"/><path d="M1079.58,752.625l-0.625,3.458c-8.916,0.584 -15.333,-0.208 -18.291,-2.708c-0.168,-1.105 -0.168,-2.229 -0,-3.333c6.05,2.195 12.499,3.076 18.916,2.583Z" style="fill:#fff;fill-rule:nonzero;"/><path d="M1078.92,764.375c-9.5,0.667 -14.125,-2.167 -16.375,-5.5c3.619,-0.177 7.242,0.274 10.708,1.333c2.277,0.763 4.26,2.221 5.667,4.167Z" style="fill:#de5753;fill-rule:nonzero;"/><path d="M1060.12,731.583l2.75,-2.291c0,-0 -0.667,3.875 -3.208,3.75c-2.825,-0.669 -5.718,1.007 -6.542,3.791c-0.125,-6.75 5.208,-5.791 7,-5.25Z" style="fill:#263238;fill-rule:nonzero;"/><path d="M1081.71,722.25l2.75,-2.292c0,0 -0.666,3.875 -3.208,3.75c-2.822,-0.647 -5.701,1.021 -6.542,3.792c-0.125,-6.667 5.167,-5.792 7,-5.25Z" style="fill:#263238;fill-rule:nonzero;"/><path d="M1026.42,739.5c-0,0 8.75,-17.25 1,-32.375c4.443,4.751 7.172,10.854 7.75,17.333c3.466,-4.439 7.501,-8.403 12,-11.791c-0.977,-5.709 -3.027,-11.18 -6.042,-16.125c4.94,3.578 8.161,9.067 8.875,15.125c0.361,-5.388 -0.948,-10.759 -3.75,-15.375c4.577,3.036 7.976,7.553 9.625,12.791l9.292,-3.458c-0,0 -2.084,-8.583 -6.417,-10.917c4.152,2.304 7.908,5.258 11.125,8.75c3.217,3.492 8.708,-0.625 10.708,1.959c-3.674,-8.154 -10.955,-14.14 -19.666,-16.167c7.579,0.624 14.87,3.193 21.166,7.458c6.296,4.265 -11.708,-19.375 -43.625,-11.125c-31.916,8.25 -38.458,31.084 -38.833,40.667c-0.375,9.583 26.792,13.25 26.792,13.25Z" style="fill:#263238;fill-rule:nonzero;"/><path d="M1008.79,708.333c-14.625,-10.32 -33.67,-12.162 -50,-4.833c-29.667,12.083 -14.292,75.583 19.791,101.542c34.084,25.958 52.584,10 52.584,10c-0,-0 -18.417,7.583 -35.5,-12.959c10.33,7.2 23.31,9.531 35.5,6.375l-9.792,-2.458l9.792,-3.625c-8.672,1.43 -17.562,-0.755 -24.584,-6.042c-7.021,-5.287 11.459,3.292 18.917,0c-0,0 -38.125,-1.666 -48.583,-36.791c-10.459,-35.125 27.208,-29.917 27.208,-29.917l4.667,-21.292Z" style="fill:#263238;fill-rule:nonzero;"/><path d="M1144.38,631.042l-12.167,-19.209l27.792,2.584c0,-0 7.083,16.125 0,25l-2.667,-0.334c-5.302,-0.605 -10.062,-3.559 -12.958,-8.041Z" style="fill:#ffb573;fill-rule:nonzero;"/><path d="M1130.88,591.5l23.375,-1.417l5.75,24.334l-27.792,-2.584l-1.333,-20.333Z" style="fill:#ffb573;fill-rule:nonzero;"/><path d="M1178.12,959.083l-123.708,34.542c-7.044,-26.084 -15.785,-51.681 -26.167,-76.625c-5.792,-14.292 -11.375,-26.958 -15.958,-37.5c-0,-0.417 -0.334,-0.833 -0.542,-1.25c-8.333,-19.708 -13.333,-32.292 -9.833,-35.333c8.333,-7.209 37.75,-18 37.75,-18c-0,-0 36.25,21.166 57.5,12.208c14.208,-6 4.166,-25 4.166,-25c16.084,-12.958 23.084,-12.125 30.959,-3c4.417,5.627 8.061,11.821 10.833,18.417c16.917,37.5 30.417,106.458 34.083,126.25c0.25,1.291 0.459,2.416 0.584,3.25l-0,1.125c-0,0.291 0.333,0.916 0.333,0.916Z" style="fill:#263238;fill-rule:nonzero;"/><path d="M1178.12,959.083l-123.708,34.542c-7.044,-26.084 -15.785,-51.681 -26.167,-76.625c-5.792,-14.292 -11.375,-26.958 -15.958,-37.5c-0.036,-0.478 -0.164,-0.945 -0.375,-1.375l17.25,1.042l4.416,0.25c0,-0 1.959,-36.834 9.042,-46.5c0,-0 34.917,17 55.167,8.333c20.25,-8.667 10.833,-26.125 10.833,-26.125c12.26,1.385 24.016,5.67 34.292,12.5l0.208,0c18.833,40.708 32.125,115.625 34.458,129.167l0,1.125c0,0.291 0.542,1.166 0.542,1.166Z" style="fill:#fff;fill-opacity:0.7;fill-rule:nonzero;"/><path d="M1028.25,917c-5.792,-14.292 -11.375,-26.958 -15.958,-37.5c-0,-0.417 -0.334,-0.833 -0.542,-1.25c4.938,-2.833 10.613,-4.125 16.292,-3.708c5.678,0.416 0.5,1.75 1.083,4.791c2.568,12.459 2.269,25.341 -0.875,37.667Z" style="fill-opacity:0.2;fill-rule:nonzero;"/><path d="M1033.33,873c-19.083,30.208 -43.25,57.833 -76.083,73.625c-3.233,1.562 -6.778,2.374 -10.369,2.374c-9.569,-0 -18.25,-5.763 -21.964,-14.582c-6.5,-13.542 -7.834,-26.209 -9.75,-39.792c-1.823,-16.168 -2.505,-32.444 -2.042,-48.708l20.5,-2.292c4.167,15 8.333,30.208 12.5,44.75c2.958,9.417 5.833,20.417 10.625,27.917c0.25,0.291 0.333,0.291 0.208,-0c-4.339,-4.674 -11.282,-5.95 -17,-3.125c23.084,-14.084 42.25,-39.25 57.834,-61.959l35.583,21.709l-0.042,0.083Z" style="fill:#ffb573;fill-rule:nonzero;"/><path d="M1004.38,841.667c-11,3.916 -30.25,33.958 -30.25,33.958l34.917,40.208c-0,0 25.916,-23.916 24.708,-39.083c-1.208,-15.167 -16.875,-39.667 -29.375,-35.083Z" style="fill:#263238;fill-rule:nonzero;"/><path d="M1027.79,828.167c-0,-0 163.791,54.75 225.333,162.5l-5.5,16.125c0,-0 -32.75,-100 -226.25,-174.584l6.417,-4.041Z" style="fill:#e28d0a;fill-rule:nonzero;"/><path d="M1027.79,828.167c-0,-0 163.791,54.75 225.333,162.5l-5.5,16.125c0,-0 -32.75,-100 -226.25,-174.584l6.417,-4.041Z" style="fill-opacity:0.3;fill-rule:nonzero;"/><path d="M906.917,791.542l75.75,29.541l-3.625,69.792l-87.084,-34.083l6.542,-63.5l8.417,-1.75Z" style="fill:#e28d0a;fill-rule:nonzero;"/><path d="M906.917,791.542l75.75,29.541l-3.625,69.792l-87.084,-34.083l6.542,-63.5l8.417,-1.75Z" style="fill-opacity:0.2;fill-rule:nonzero;"/><path d="M979.208,823.958l-5.208,60.459l-18,5.25l-2,-67.042l25.208,1.333Z" style="fill:#e28d0a;fill-rule:nonzero;"/><path d="M979.208,823.958l-5.208,60.459l-18,5.25l-2,-67.042l25.208,1.333Z" style="fill:#fff;fill-opacity:0.7;fill-rule:nonzero;"/><path d="M982.667,821.083l-11.959,5.792l-5.875,65.25l-79,-31.792l12.667,-67.041l8.417,-1.75l75.75,29.541Z" style="fill:#e28d0a;fill-rule:nonzero;"/><path d="M951.458,905.042c-1.916,-5.25 -3.75,-10.917 -5.416,-16.667c-4.167,-14.542 -8.334,-29.75 -12.5,-44.75l-20.5,2.292c-0.464,16.264 0.219,32.54 2.041,48.708c0.956,8.419 2.445,16.769 4.459,25c1.205,5.059 2.98,9.966 5.291,14.625c0.862,1.702 1.881,3.32 3.042,4.833c1.867,2.539 4.183,4.713 6.833,6.417l1.417,0.833l1.792,0.875l1.875,0.709c0.738,0.247 1.489,0.455 2.25,0.625c3.143,0.687 6.398,0.687 9.541,-0c1.426,-0.321 2.82,-0.767 4.167,-1.334l1.5,-0.708l1.625,-0.75c1.542,-0.75 3,-1.542 4.458,-2.292c-0.041,0.125 -7.833,-41.666 -11.875,-38.416Z" style="fill:#ffb573;fill-rule:nonzero;"/><path d="M912.958,849.292l-2.75,-32.917l26.084,16.083c-0,0 -0.917,19.334 -12.25,24.709l-11.084,-7.875Z" style="fill:#ffb573;fill-rule:nonzero;"/><path d="M922.667,794.333l21.125,14.667l-7.5,23.458l-26.084,-16.041l12.459,-22.084Z" style="fill:#ffb573;fill-rule:nonzero;"/></g><g id="freepik--character-1--inject-33" opacity="0.35"><path d="M695.042,1066.67c-0,-0 -67.042,27.333 -100.584,22.375c-33.541,-4.959 -42.833,79.166 0,97.833c42.834,18.667 92.584,14 110.459,2.333c17.875,-11.666 -9.875,-122.541 -9.875,-122.541Z" style="fill:#e28d0a;fill-rule:nonzero;"/><path d="M695.042,1066.67c-0,-0 -67.042,27.333 -100.584,22.375c-33.541,-4.959 -42.833,79.166 0,97.833c42.834,18.667 92.584,14 110.459,2.333c17.875,-11.666 -9.875,-122.541 -9.875,-122.541Z" style="fill-opacity:0.2;fill-rule:nonzero;"/><path d="M695.042,1066.67c-0,-0 55.458,48.75 58.791,63.583c3.334,14.833 -36.833,62.083 -56.041,58.792c-19.209,-3.292 -12.5,-117.375 -12.5,-117.375l9.75,-5Z" style="fill:#e28d0a;fill-rule:nonzero;"/><path d="M695.042,1066.67c-0,-0 55.458,48.75 58.791,63.583c3.334,14.833 -36.833,62.083 -56.041,58.792c-19.209,-3.292 -12.5,-117.375 -12.5,-117.375l9.75,-5Z" style="fill:#fff;fill-opacity:0.2;fill-rule:nonzero;"/><path d="M560,892.333c30.042,-22.541 62.5,-44.083 92.125,-66.666c8.333,-10.75 11.25,-24.375 14.833,-37.875c4.167,-17.209 7.375,-35.5 10.042,-53.417l19.5,0.333c1.791,19.306 1.791,38.736 0,58.042c-2.583,20.625 -6.042,45.083 -22,60.708c-29.102,25.31 -59.609,48.959 -91.375,70.834l-22.917,-32.084l-0.208,0.125Z" style="fill:#dc897c;fill-rule:nonzero;"/><path d="M579.167,947.125c25.75,1.042 80.166,-63.292 80.166,-63.292l-36.166,-35.458c-20.401,10.719 -39.335,24.023 -56.334,39.583c-25.166,24.542 -16.291,57.875 12.334,59.167Z" style="fill:#263238;fill-rule:nonzero;"/><path d="M579.167,947.125c25.75,1.042 80.166,-63.292 80.166,-63.292l-36.166,-35.458c-20.401,10.719 -39.335,24.023 -56.334,39.583c-25.166,24.542 -16.291,57.875 12.334,59.167Z" style="fill:#fff;fill-opacity:0.2;fill-rule:nonzero;"/><path d="M582.375,947c-7.917,-8.667 -7.375,-21.208 8.333,-38.458c15.612,-15.998 33.654,-29.428 53.459,-39.792l15.416,15.083c0,0 -50.458,59.917 -77.208,63.167Z" style="fill-opacity:0.1;fill-rule:nonzero;"/><path d="M676.333,754.167l-6.666,-37.917l33.625,-0.458c-0,-0 8.333,25.833 -8.959,40l-18,-1.625Z" style="fill:#e4897b;fill-rule:nonzero;"/><path d="M678.125,690.333l25.167,5.625l-0,19.959l-33.625,0.458l8.458,-26.042Z" style="fill:#e4897b;fill-rule:nonzero;"/><path d="M512.958,1693.12l-35.041,0.583c-1.172,0.016 -2.183,0.853 -2.417,2l-5.292,25.75c-0.064,0.293 -0.096,0.592 -0.096,0.892c-0,2.025 1.475,3.771 3.471,4.108c0.318,0.041 0.641,0.041 0.959,0c11.333,-0.375 19.541,-1.166 33.791,-1.416c8.75,-0 35.209,0.375 47.334,-0c12.125,-0.375 13.458,-12.167 8.333,-13.167c-22.292,-4.5 -39.125,-10.958 -46.333,-17.208c-1.329,-1.071 -3.004,-1.619 -4.709,-1.542Z" style="fill:#263238;fill-rule:nonzero;"/><path d="M808.333,1693.12l-35,0.583c-1.186,-0.004 -2.221,0.838 -2.458,2l-5.25,25.75c-0.065,0.295 -0.098,0.597 -0.098,0.899c-0,2.009 1.453,3.747 3.431,4.101c0.318,0.041 0.641,0.041 0.959,0c11.333,-0.375 19.583,-1.166 33.791,-1.416c8.75,-0 35.209,0.375 47.334,-0c12.125,-0.375 13.5,-12.167 8.333,-13.167c-22.292,-4.5 -39.125,-10.958 -46.333,-17.208c-1.329,-1.071 -3.004,-1.619 -4.709,-1.542Z" style="fill:#263238;fill-rule:nonzero;"/><path d="M470.125,1694.92l47.708,-0c0,-0 60.75,-200.25 65.959,-251.334c5.208,-51.083 7.125,-179.166 7.125,-179.166l-0,0.25c2.083,2.75 20.083,28.083 40.833,57.541c27.125,38.542 58.958,84.125 65.667,95.292c19.666,32.917 67.833,277.25 67.833,277.25l47.667,0c-0,0 -12,-218.708 -36.5,-290.792c-24.5,-72.083 -130.417,-229.5 -135,-237.958c-5.875,-10.792 -20.292,-45.042 -20.292,-45.042l-142.958,19.875c-0,0 -2.334,24.209 -2.167,45.375c0.667,79.417 15.667,186.75 18.083,215.625c4.709,55.042 -23.958,293.084 -23.958,293.084Z" style="fill:#e28d0a;fill-rule:nonzero;"/><path d="M587.5,890.375c0,0 42.792,76.292 33.708,230.75l-142.916,19.875c-4.167,-21.792 -5.125,-130.75 -40.667,-231.208c15.382,-5.171 31.081,-9.346 47,-12.5c20.071,-3.956 40.355,-6.739 60.75,-8.334c14.057,-0.619 28.141,-0.146 42.125,1.417Z" style="fill:#263238;fill-rule:nonzero;"/><path d="M621.333,1121.12l-142.958,19.875c-2.542,-13.625 -3.917,-61.458 -13.292,-120c-2.5,-15.625 -5.583,-32.042 -9.458,-48.708c-4.801,-21.152 -10.783,-42.018 -17.917,-62.5c15.376,-5.193 31.077,-9.368 47,-12.5c20.085,-3.958 40.383,-6.741 60.792,-8.334c14.065,-0.495 28.147,0.076 42.125,1.709c13.978,1.632 42.75,76 33.708,230.458Z" style="fill:#fff;fill-opacity:0.2;fill-rule:nonzero;"/><path d="M476.25,827.75c8.042,18.458 19.625,52.917 8.958,68.75c20.209,3.792 34.709,6.125 53.459,16.667c2.958,-13.084 6.458,-29.959 6.458,-29.959c-22.625,-0.375 -25.625,-16.666 -25,-32.25l-43.875,-23.208Z" style="fill:#e4897b;fill-rule:nonzero;"/><path d="M494.083,837.25l25.834,13.75c-0.13,3.688 0.037,7.38 0.5,11.042c-8.334,0.625 -21.709,-5.875 -24.5,-14.292c-1.262,-3.355 -1.883,-6.916 -1.834,-10.5Z" style="fill-opacity:0.2;fill-rule:nonzero;"/><path d="M470.125,1694.92l47.708,-0c0,-0 60.75,-200.25 65.959,-251.334c5.208,-51.083 7.125,-179.166 7.125,-179.166l-0,0.25c2.083,2.75 20.083,28.083 40.833,57.541c27.125,38.542 58.958,84.125 65.667,95.292c19.666,32.917 67.833,277.25 67.833,277.25l47.667,0c-0,0 -12,-218.708 -36.5,-290.792c-24.5,-72.083 -130.417,-229.5 -135,-237.958c-5.875,-10.792 -20.292,-45.042 -20.292,-45.042l-142.958,19.875c-0,0 -2.334,24.209 -2.167,45.375c0.667,79.417 15.667,186.75 18.083,215.625c4.709,55.042 -23.958,293.084 -23.958,293.084Z" style="fill:#fff;fill-opacity:0.5;fill-rule:nonzero;"/><path d="M466.833,901.125l11.875,-14.833l38.459,7.416l19.541,22.375l2.459,-25.833l7.208,-8.625l15.792,6.792l-0,16.166l-11.25,-3.666l-9.709,22.583l-30.708,-12.625l-6.833,8.708l-36.834,-18.458Z" style="fill:#263238;fill-rule:nonzero;"/><path d="M466.833,901.125l11.875,-14.833l38.459,7.416l19.541,22.375l2.459,-25.833l7.208,-8.625l15.792,6.792l-0,16.166l-11.25,-3.666l-9.709,22.583l-30.708,-12.625l-6.833,8.708l-36.834,-18.458Z" style="fill:#fff;fill-opacity:0.3;fill-rule:nonzero;"/><path d="M541.208,923.5l3.709,-27l17.25,8.083l-11.25,-3.666l-9.709,22.583Z" style="fill-opacity:0.1;fill-rule:nonzero;"/><path d="M541.208,923.5l-28.458,-20.958l-9.083,17.041l6.833,-8.708l30.708,12.625Z" style="fill-opacity:0.1;fill-rule:nonzero;"/><path d="M465.083,1020.83c-2.5,-15.625 -5.583,-32.041 -9.458,-48.708c4.611,-5.719 11.169,-9.547 18.417,-10.75c7.247,-1.203 3.916,38 -8.959,59.458Z" style="fill-opacity:0.1;fill-rule:nonzero;"/><path d="M590.917,1264.5l-0,0.25c2.083,2.75 20.083,28.083 40.833,57.542c4.189,-32.537 -11.668,-64.565 -40.083,-80.959l-0.75,23.167Z" style="fill-opacity:0.2;fill-rule:nonzero;"/><path d="M518.583,750.208c14.334,3.667 28.292,39.667 12.834,50.709c-15.459,11.041 -39.75,-57.584 -12.834,-50.709Z" style="fill:#263238;fill-rule:nonzero;"/><path d="M465.25,801.292c10.333,25 15.083,40.333 32.625,49.541c5.138,2.759 10.881,4.203 16.712,4.203c19.384,-0 35.334,-15.95 35.334,-35.334c-0,-1.292 -0.071,-2.584 -0.213,-3.869c-2.291,-24.708 -18.75,-61.666 -47.583,-64.166c-1.358,-0.157 -2.724,-0.235 -4.091,-0.235c-19.589,-0 -35.708,16.119 -35.708,35.708c0,4.867 0.995,9.683 2.924,14.152Z" style="fill:#e4897b;fill-rule:nonzero;"/><path d="M484.333,764.875l-5.75,-22.542c-5.256,3.772 -11.572,5.785 -18.041,5.75c-28.167,-1.291 -45.584,19.875 -30.209,32.625c-11.708,7.917 -1.416,24.042 9.209,33.584c14.708,13.25 28.666,18.166 36.083,9.541c7.042,-5.25 3.292,-32.416 -1.167,-41.958c-6.666,-14.292 9.875,-17 9.875,-17Z" style="fill:#263238;fill-rule:nonzero;"/><path d="M464.083,829.625c5.124,4.365 11.604,6.824 18.334,6.958c8.333,0 9,-8.041 3.5,-14.666c-4.959,-5.959 -15.334,-13.125 -22.334,-9.875c-7,3.25 -6,12.125 0.5,17.583Z" style="fill:#e4897b;fill-rule:nonzero;"/><path d="M506.958,796.583c0.709,2.084 2.417,3.459 3.792,3.042c1.375,-0.417 1.917,-2.458 1.208,-4.542c-0.708,-2.083 -2.416,-3.416 -3.791,-3c-1.375,0.417 -1.917,2.417 -1.209,4.5Z" style="fill:#263238;fill-rule:nonzero;"/><path d="M530.792,789.417c0.708,2.083 2.416,3.416 3.791,3c1.375,-0.417 1.917,-2.459 1.209,-4.542c-0.709,-2.083 -2.417,-3.417 -3.792,-3c-1.375,0.417 -1.917,2.625 -1.208,4.542Z" style="fill:#263238;fill-rule:nonzero;"/><path d="M523.583,792.708c4.691,5.628 10.114,10.603 16.125,14.792c-2.25,2.956 -5.705,4.76 -9.416,4.917l-6.709,-19.709Z" style="fill:#de5753;fill-rule:nonzero;"/><path d="M497,791.208c-0.204,0.062 -0.421,0.062 -0.625,0c-0.52,-0.179 -0.871,-0.671 -0.871,-1.221c0,-0.152 0.027,-0.303 0.079,-0.445c1.27,-3.912 4.391,-6.955 8.334,-8.125c0.091,-0.02 0.183,-0.03 0.276,-0.03c0.611,-0 1.142,0.432 1.265,1.03c0.133,0.681 -0.288,1.359 -0.958,1.541c-3.108,0.944 -5.558,3.363 -6.542,6.459c-0.163,0.41 -0.525,0.709 -0.958,0.791Z" style="fill:#263238;fill-rule:nonzero;"/><path d="M538.292,778.208c-0.425,0.053 -0.852,-0.085 -1.167,-0.375c-2.281,-2.461 -5.573,-3.738 -8.917,-3.458c-0.697,0.126 -1.374,-0.345 -1.5,-1.042c-0.1,-0.705 0.382,-1.373 1.084,-1.5c4.169,-0.457 8.316,1.09 11.166,4.167c0.245,0.242 0.382,0.573 0.382,0.917c-0,0.344 -0.137,0.674 -0.382,0.916c-0.175,0.194 -0.409,0.326 -0.666,0.375Z" style="fill:#263238;fill-rule:nonzero;"/><path d="M459.458,751.292c0,-0 14.459,-39.125 50.875,-36.084c-3.367,1.178 -6.478,2.988 -9.166,5.334c-2.688,2.345 30.625,-6.584 43,13.958l-6.375,-2.708c-0,-0 10.125,17 2.375,30.041l-2.459,-5.75c0,0 -10.708,17.292 -30.208,15.209l6.125,-4.167c0,0 -32.708,3.083 -41.667,-4.167c-4.592,-3.406 -8.785,-7.32 -12.5,-11.666Z" style="fill:#263238;fill-rule:nonzero;"/><path d="M536.542,819.042c-11.107,-0.836 -22.267,-0.627 -33.334,0.625c3.459,7.166 9.292,12.75 21.834,11.625c0.038,0 0.076,0 0.113,0c6.263,0 11.417,-5.153 11.417,-11.416c0,-0.279 -0.01,-0.557 -0.03,-0.834Z" style="fill:#263238;fill-rule:nonzero;"/><path d="M518.708,825.958c4.8,-0.666 9.689,0.21 13.959,2.5c-2.204,1.709 -4.882,2.699 -7.667,2.834c-4.786,0.686 -9.669,-0.191 -13.917,-2.5c2.189,-1.708 4.853,-2.698 7.625,-2.834Z" style="fill:#a02724;fill-rule:nonzero;"/><path d="M535.417,818.917c-0.269,1.956 -1.655,3.586 -3.542,4.166c-7.266,0.588 -14.567,0.588 -21.833,0c-2.359,-0.017 -4.556,-1.225 -5.834,-3.208c10.365,-1.096 20.797,-1.416 31.209,-0.958Z" style="fill:#fff;fill-rule:nonzero;"/><path d="M508.875,1025l-34.292,-39.667l-24.166,80.667c-0,0 13.25,29.583 13.75,28.125c0.5,-1.458 44.708,-69.125 44.708,-69.125Z" style="fill:#e28d0a;fill-rule:nonzero;"/><path d="M504.375,1025.79l-29.792,-33.292l-16.958,-3.958l-4.875,69.458l19.625,13.667l32,-45.875Z" style="fill:#e28d0a;fill-rule:nonzero;"/><path d="M504.375,1025.79l-29.792,-33.292l-16.958,-3.958l-4.875,69.458l19.625,13.667l32,-45.875Z" style="fill:#fff;fill-opacity:0.7;fill-rule:nonzero;"/><path d="M457.083,980.917l30.625,39.208l21.167,4.667l-32.25,107.083l-30.583,3.25l-19.334,-44.5l30.375,-109.708Z" style="fill:#e28d0a;fill-rule:nonzero;"/><path d="M457.083,980.917l30.625,39.208l21.167,4.667l-32.25,107.083l-30.583,3.25l-19.334,-44.5l30.375,-109.708Z" style="fill:#fff;fill-opacity:0.2;fill-rule:nonzero;"/><path d="M486.542,1026.54l-37.5,-36.834l-17.75,82.334c-0,-0 15.583,28.416 15.958,26.916c0.375,-1.5 39.292,-72.416 39.292,-72.416Z" style="fill:#e28d0a;fill-rule:nonzero;"/><path d="M486.542,1026.54l-37.5,-36.834l-17.75,82.334c-0,-0 15.583,28.416 15.958,26.916c0.375,-1.5 39.292,-72.416 39.292,-72.416Z" style="fill-opacity:0.4;fill-rule:nonzero;"/><path d="M482.167,1027.92l-32.334,-30.875l-17.208,-2.584l0.583,69.625l20.667,12.084l28.292,-48.25Z" style="fill:#e28d0a;fill-rule:nonzero;"/><path d="M482.167,1027.92l-32.334,-30.875l-17.208,-2.584l0.583,69.625l20.667,12.084l28.292,-48.25Z" style="fill:#fff;fill-opacity:0.7;fill-rule:nonzero;"/><path d="M431.5,986.875l33.625,36.708l21.417,2.959l-23.667,109.333l-30.25,5.583l-22.792,-42.791l21.667,-111.792Z" style="fill:#e28d0a;fill-rule:nonzero;"/><path d="M431.5,986.875l33.625,36.708l21.417,2.959l-23.667,109.333l-30.25,5.583l-22.792,-42.791l21.667,-111.792Z" style="fill-opacity:0.2;fill-rule:nonzero;"/><path d="M457.958,945.833c-23.583,24.709 -49.75,49.25 -69,77.417c-0.791,1.292 -1.625,2.833 -1.958,3.458c0.141,-0.785 0.141,-1.589 0,-2.375c0,-0.791 -0.583,-0.916 -0.458,-0.541c1.541,3.833 8.333,8.625 12.5,11.5c13.809,8.481 28.255,15.878 43.208,22.125l-4.75,18.708c-18.253,-2.118 -36.104,-6.861 -53,-14.083c-23,-9.667 -42.083,-30.25 -27.042,-56.292c10.324,-18.056 22.621,-34.91 36.667,-50.25c11.708,-13.292 23.625,-25.833 36.5,-38.125l27.458,28.25l-0.125,0.208Z" style="fill:#dc897c;fill-rule:nonzero;"/><path d="M457.583,907c-40.791,-8.333 -90.25,68.833 -90.25,68.833l41,32.5c21.034,-13.294 40.985,-28.23 59.667,-44.666c25.792,-23.834 16.708,-51.167 -10.417,-56.667Z" style="fill:#263238;fill-rule:nonzero;"/><path d="M457.583,907c-40.791,-8.333 -90.25,68.833 -90.25,68.833l41,32.5c21.034,-13.294 40.985,-28.23 59.667,-44.666c25.792,-23.834 16.708,-51.167 -10.417,-56.667Z" style="fill:#fff;fill-opacity:0.2;fill-rule:nonzero;"/><path d="M431.792,1053.42l38.291,-4.167l-1.875,33.625c0,0 -26.333,6.583 -39.291,-11.75l2.875,-17.708Z" style="fill:#e4897b;fill-rule:nonzero;"/><path d="M495.5,1059.67l-7.417,24.708l-19.875,-1.375l1.875,-33.625l25.417,10.292Z" style="fill:#e4897b;fill-rule:nonzero;"/><path d="M557.125,885.75c0,0 84.5,79.667 129.167,188.458l8.583,-7.541c0,-0 -53.208,-113.334 -123.125,-182.667l-14.625,1.75Z" style="fill:#e28d0a;fill-rule:nonzero;"/></g></svg>