<?xml version="1.0" encoding="UTF-8" standalone="no"?><!DOCTYPE svg PUBLIC "-//W3C//DTD SVG 1.1//EN" "http://www.w3.org/Graphics/SVG/1.1/DTD/svg11.dtd"><svg width="100%" height="100%" viewBox="0 0 8684 8684" version="1.1" xmlns="http://www.w3.org/2000/svg" xmlns:xlink="http://www.w3.org/1999/xlink" xml:space="preserve" xmlns:serif="http://www.serif.com/" style="fill-rule:evenodd;clip-rule:evenodd;stroke-linecap:round;stroke-linejoin:round;"><g id="freepik--Plants--inject-1" opacity="0.53"><path d="M2029.01,1137.81c0,-0 111.334,-87.782 139.641,-144.163c23.791,-47.576 41.873,-115.849 16.894,-166.52c-15.198,-34.411 -49.432,-56.717 -87.045,-56.717c-16.992,-0 -33.68,4.556 -48.319,13.183c-68.513,42.58 -75.884,187.93 -58.282,257.87c1.428,5.476 35.924,97.3 37.111,96.347Z" style="fill:#b0bec5;fill-rule:nonzero;"/><path d="M1000.12,1870.05c4.516,4.282 83.974,61.616 84.448,60.428c0.48,-1.193 44.248,-134.651 36.877,-197.454c-6.189,-53.526 -29.027,-118.944 -78.03,-148.679c-15.296,-9.774 -33.075,-14.97 -51.231,-14.97c-36.346,0 -69.649,20.828 -85.555,53.509c-33.783,73.269 40.439,198.402 93.491,247.166Z" style="fill:#b0bec5;fill-rule:nonzero;"/><path d="M3331.7,1271.04c-0,-0 -407.275,420.589 -404.42,937.056c2.855,516.461 413.218,933.487 413.218,933.487c-0,0 407.509,-420.355 404.42,-937.056c-3.095,-516.701 -413.218,-933.487 -413.218,-933.487Z" style="fill:#b0bec5;fill-rule:nonzero;"/><path d="M2751.01,2517.35c5.361,-5.738 10.288,-11.858 14.753,-18.316c29.495,-44.961 54.953,-110.379 35.918,-164.145c-12.332,-39.686 -49.306,-66.914 -90.865,-66.914c-13.28,-0 -26.406,2.775 -38.544,8.153c-55.433,26.172 -82.553,114.902 -88.262,187.463c-22.124,-4.996 -42.107,-8.804 -59.235,-11.899c-7.137,-16.414 -14.508,-32.829 -22.124,-49.478c-7.611,-16.654 -13.56,-34.496 -20.697,-52.098c-9.751,-25.692 -18.315,-52.812 -27.119,-79.932c32.115,-14.273 125.846,-58.287 160.817,-96.825c34.97,-38.539 71.367,-100.863 60.422,-156.769c-7.034,-46.298 -47.245,-80.862 -94.074,-80.862c-8.398,-0 -16.762,1.113 -24.87,3.311c-77.551,23.785 -122.992,161.291 -124.419,233.372c-0,2.141 -0,17.362 2.62,35.684c-7.616,-26.646 -15.7,-53.292 -22.603,-80.646c-19.983,-77.316 -37.825,-156.774 -55.901,-236.226c-3.808,-16.415 -7.85,-33.069 -11.658,-49.484c27.119,-12.132 129.175,-58.761 166.526,-99.2c37.345,-40.44 71.367,-100.868 60.422,-156.769c-7.034,-46.298 -47.251,-80.863 -94.073,-80.863c-8.405,0 -16.763,1.114 -24.871,3.306c-77.316,23.791 -122.752,161.291 -124.419,233.372c0,2.381 1.427,20.697 3.329,41.159c-10.466,-43.06 -21.411,-85.881 -33.777,-127.988c-20.531,-72.458 -45.967,-143.431 -76.129,-212.435c9.757,-4.048 130.602,-56.38 171.282,-101.342c35.923,-39.966 71.367,-100.868 60.188,-156.774c-7.034,-46.292 -47.251,-80.857 -94.074,-80.857c-8.404,-0 -16.762,1.113 -24.87,3.306c-77.317,23.791 -122.752,161.29 -124.419,233.372c-0,4.995 5.949,71.367 8.804,95.158c-0.097,-0.793 -0.097,-1.593 -0,-2.381c-31.219,-66.988 -68.319,-131.07 -110.86,-191.504c-37.836,-54.154 -78.744,-106.098 -122.512,-155.582c-40.206,-47.576 -79.698,-86.115 -114.902,-121.085c-19.269,-18.795 -37.351,-35.683 -54.239,-51.145l1.661,0c1.428,0 -37.585,-89.923 -40.679,-95.158c-36.158,-62.33 -142.735,-161.531 -221.474,-144.402c-43.454,9.586 -74.662,48.427 -74.662,92.926c0,10.557 1.753,21.039 5.196,31.019c17.602,54.239 77.551,90.637 128.222,108.239c50.671,17.602 166.526,9.278 194.359,6.663c17.129,16.648 35.444,34.49 55.193,54.473c34.491,35.684 73.029,76.364 112.047,123.232c10.466,12.606 21.171,26.406 31.636,39.726c-22.358,-18.795 -53.76,-43.774 -57.094,-45.915c-60.662,-38.538 -201.017,-77.551 -262.867,-26.166c-20.976,18.064 -33.063,44.419 -33.063,72.104c0,26.908 11.419,52.595 31.396,70.631c40.44,39.966 110.62,44.722 163.906,36.871c53.291,-7.85 154.633,-71.367 176.278,-83.974c23.791,29.501 45.915,60.663 68.039,95.159c40.656,60.211 75.923,123.9 105.384,190.311c1.667,3.809 2.854,8.091 4.522,11.893c-9.518,-11.179 -66.133,-68.273 -71.368,-71.367c-56.141,-45.196 -190.312,-99.201 -258.59,-54.953c-25.59,17.767 -40.885,47.011 -40.885,78.167c-0,23.152 8.45,45.533 23.756,62.906c35.924,44.248 104.911,56.615 158.676,54.713c62.09,-2.141 184.128,-63.756 188.65,-66.132c27.428,67.429 50.477,136.564 68.987,206.966c13.8,52.099 25.932,105.385 37.351,158.91c-12.612,-14.273 -65.424,-67.325 -69.706,-71.367c-56.141,-44.962 -190.312,-99.201 -258.585,-54.714c-25.589,17.768 -40.89,47.012 -40.89,78.162c-0,23.157 8.455,45.533 23.762,62.906c35.918,44.008 104.91,56.621 158.67,54.714c60.662,-2.376 177.945,-60.897 187.697,-65.893l15.701,73.269c16.414,79.692 32.595,159.624 50.91,237.894c6.423,27.119 13.56,53.76 20.697,80.405c-19.743,-20.696 -56.38,-57.568 -59.949,-60.422c-56.14,-44.962 -190.311,-99.201 -258.59,-54.719c-25.59,17.767 -40.885,47.011 -40.885,78.167c-0,23.152 8.45,45.533 23.757,62.906c35.923,44.009 104.91,56.615 158.675,54.474c53.766,-2.141 153.68,-49.004 181.748,-62.564c12.132,44.248 25.218,87.782 40.205,130.129c6.897,18.076 12.607,37.111 20.223,53.999l11.419,27.12l-14.039,-2.141c-0,0 -1.188,25.219 1.193,66.132c-59.235,-42.107 -144.642,-78.504 -200.309,-53.046c-32.578,15.946 -53.326,49.192 -53.326,85.47c0,18.184 5.219,35.998 15.027,51.316c3.495,6.138 7.64,11.881 12.373,17.128c10.494,62.547 36.871,121.365 76.597,170.808c3.095,3.329 43.3,40.68 64.231,59.235c-20.217,-11.184 -40.44,-21.889 -61.376,-33.782c-30.209,-16.654 -61.61,-35.444 -92.298,-53.526l-47.583,-29.974c-16.174,-9.752 -30.448,-21.171 -45.909,-31.876c-22.364,-15.94 -44.727,-33.782 -66.851,-51.384c18.795,-29.975 72.795,-118.95 80.645,-169.855c7.85,-50.911 3.568,-123.232 -36.158,-163.911c-18.053,-20.469 -44.071,-32.213 -71.367,-32.213c-27.297,0 -53.315,11.744 -71.368,32.213c-51.858,61.855 -13.56,202.21 24.979,263.112c-0,2.141 10.705,14.034 21.884,28.307c-21.17,-17.842 -42.341,-35.684 -63.277,-54.713c-59.235,-53.526 -118.944,-109.906 -176.992,-166.526l-37.111,-34.97c16.175,-24.979 75.41,-120.138 83.74,-174.137c8.324,-54 3.568,-123.226 -36.163,-164.146c-18.054,-20.474 -44.071,-32.218 -71.368,-32.218c-27.297,0 -53.309,11.744 -71.368,32.218c-51.858,61.85 -13.559,202.21 23.792,263.347c1.427,2.141 12.846,16.414 25.692,32.355c-32.589,-29.975 -65.418,-59.715 -98.961,-88.022c-57.083,-49.05 -117.408,-94.194 -180.56,-135.125c5.943,-8.798 77.791,-118.944 86.828,-178.892c8.091,-53.286 3.569,-123.226 -36.157,-164.146c-18.059,-20.474 -44.071,-32.218 -71.368,-32.218c-27.296,0 -53.314,11.744 -71.367,32.218c-51.864,61.85 -13.56,202.21 23.785,263.347c2.621,4.282 44.014,55.906 59.235,73.748l-2.141,-1.427c-62.952,-38.801 -129.272,-71.842 -198.162,-98.727c-61.41,-24.265 -124.156,-44.996 -187.936,-62.09c-58.995,-16.415 -113.949,-27.833 -162.718,-37.585c-26.406,-4.996 -50.671,-9.278 -73.269,-12.846c-22.598,-3.569 -81.119,-54.479 -86.595,-57.094c-64.464,-32.116 -208.153,-56.147 -264.294,1.661c-16.802,17.682 -26.183,41.165 -26.183,65.556c0,30.551 14.719,59.309 39.504,77.179c44.487,35.45 114.661,32.829 166.526,19.269c51.858,-13.559 142.735,-83.734 166.52,-101.341c23.791,4.282 47.582,9.043 76.129,14.753c47.577,10.939 103.004,23.785 161.291,41.153c15.701,4.522 32.115,10.231 47.576,15.461c-29.02,-3.089 -68.986,-6.657 -72.794,-6.657c-71.368,1.187 -210.535,46.149 -233.846,123.226c-2.21,8.13 -3.329,16.517 -3.329,24.939c0,46.657 34.314,86.771 80.406,94.005c55.901,10.945 116.803,-23.785 157.008,-59.469c40.2,-35.684 90.397,-144.163 100.629,-166.526c35.683,12.132 71.367,25.218 108.952,41.153c67.462,28.09 132.27,62.164 193.646,101.822c3.329,2.141 6.897,4.995 10.225,7.37c-14.033,-4.042 -92.777,-20.456 -98.487,-20.93c-71.367,-6.663 -214.102,23.785 -245.978,96.82c-4.51,11.259 -6.834,23.277 -6.834,35.404c-0,42.866 28.969,80.691 70.351,91.87c54.479,16.888 118.944,-10.705 162.718,-42.107c50.431,-36.163 118.944,-154.868 120.611,-159.389c60.035,41.21 117.403,86.183 171.756,134.644c40.206,35.684 79.698,73.749 118.95,112.047c-18.556,-4.756 -91.83,-20.217 -97.3,-20.696c-71.367,-6.657 -214.102,23.791 -245.978,97.06c-4.459,11.202 -6.748,23.14 -6.748,35.192c-0,42.832 28.923,80.64 70.265,91.842c54.474,16.894 118.944,-10.705 162.718,-42.107c49.244,-35.204 114.662,-148.679 120.132,-158.196c17.842,17.368 35.684,34.73 53.291,52.338c57.808,57.568 115.376,115.376 174.137,170.568c20.217,19.27 40.914,37.346 61.61,55.667c-27.833,-6.423 -78.738,-16.894 -83.26,-17.368c-71.367,-6.663 -214.103,23.791 -245.978,97.06c-4.459,11.196 -6.749,23.14 -6.749,35.193c0,42.832 28.924,80.634 70.266,91.841c54.239,17.128 118.944,-10.705 162.478,-41.867c43.534,-31.167 101.102,-125.847 116.803,-152.492c34.736,29.974 69.706,59.235 105.624,86.354c15.701,11.185 30.928,23.792 47.582,33.783l46.389,30.928c32.35,20.217 62.324,38.772 93.012,56.614c15.227,9.278 29.974,17.608 45.201,26.172c-27.359,-10.705 -71.367,-26.646 -74.935,-27.833c-69.941,-17.368 -215.291,-9.992 -257.877,58.521c-8.627,14.639 -13.177,31.322 -13.177,48.313c-0,37.614 22.306,71.847 56.711,87.046c51.151,24.978 118.95,7.376 166.526,-16.889c53.052,-26.885 132.744,-125.372 142.735,-137.505c37.111,21.176 73.269,41.159 107.526,59.475c91.35,49.004 171.282,88.022 233.137,117.043c201.257,174.136 484.346,193.166 484.346,193.166c0,-0 14.987,-339.23 -184.602,-562.376c-68.205,-73.566 -151.345,-131.728 -243.843,-170.569Zm-359.213,330.912c6.184,-14.04 54.474,-121.805 57.808,-182.467l33.303,-6.897c20.445,107.108 62.98,208.793 124.893,298.556c-36.637,-17.288 -76.283,-36.637 -118.944,-58.048c-30.688,-15.94 -63.517,-33.068 -97.06,-51.144Z" style="fill:#b0bec5;fill-rule:nonzero;"/><path d="M4234.98,2452.64c0,-0 -339.47,10.231 -547.149,226.235c-207.68,216.004 -205.065,555.239 -205.065,555.239c0,0 339.236,-10.465 547.149,-226.235c207.92,-215.77 205.065,-555.239 205.065,-555.239Z" style="fill:#b0bec5;fill-rule:nonzero;"/><g opacity="0.5"><path d="M2029.01,1137.81c0,-0 111.334,-87.782 139.641,-144.163c23.791,-47.576 41.873,-115.849 16.894,-166.52c-15.198,-34.411 -49.432,-56.717 -87.045,-56.717c-16.992,-0 -33.68,4.556 -48.319,13.183c-68.513,42.58 -75.884,187.93 -58.282,257.87c1.428,5.476 35.924,97.3 37.111,96.347Z" style="fill:#fff;fill-rule:nonzero;"/><path d="M1000.12,1870.05c4.516,4.282 83.974,61.616 84.448,60.428c0.48,-1.193 44.248,-134.651 36.877,-197.454c-6.189,-53.526 -29.027,-118.944 -78.03,-148.679c-15.296,-9.774 -33.075,-14.97 -51.231,-14.97c-36.346,0 -69.649,20.828 -85.555,53.509c-33.783,73.269 40.439,198.402 93.491,247.166Z" style="fill:#fff;fill-rule:nonzero;"/><path d="M3331.7,1271.04c-0,-0 -407.275,420.589 -404.42,937.056c2.855,516.461 413.218,933.487 413.218,933.487c-0,0 407.509,-420.355 404.42,-937.056c-3.095,-516.701 -413.218,-933.487 -413.218,-933.487Z" style="fill:#fff;fill-rule:nonzero;"/><path d="M2751.01,2517.35c5.361,-5.738 10.288,-11.858 14.753,-18.316c29.495,-44.961 54.953,-110.379 35.918,-164.145c-12.332,-39.686 -49.306,-66.914 -90.865,-66.914c-13.28,-0 -26.406,2.775 -38.544,8.153c-55.433,26.172 -82.553,114.902 -88.262,187.463c-22.124,-4.996 -42.107,-8.804 -59.235,-11.899c-7.137,-16.414 -14.508,-32.829 -22.124,-49.478c-7.611,-16.654 -13.56,-34.496 -20.697,-52.098c-9.751,-25.692 -18.315,-52.812 -27.119,-79.932c32.115,-14.273 125.846,-58.287 160.817,-96.825c34.97,-38.539 71.367,-100.863 60.422,-156.769c-7.034,-46.298 -47.245,-80.862 -94.074,-80.862c-8.398,-0 -16.762,1.113 -24.87,3.311c-77.551,23.785 -122.992,161.291 -124.419,233.372c-0,2.141 -0,17.362 2.62,35.684c-7.616,-26.646 -15.7,-53.292 -22.603,-80.646c-19.983,-77.316 -37.825,-156.774 -55.901,-236.226c-3.808,-16.415 -7.85,-33.069 -11.658,-49.484c27.119,-12.132 129.175,-58.761 166.526,-99.2c37.345,-40.44 71.367,-100.868 60.422,-156.769c-7.034,-46.298 -47.251,-80.863 -94.073,-80.863c-8.405,0 -16.763,1.114 -24.871,3.306c-77.316,23.791 -122.752,161.291 -124.419,233.372c0,2.381 1.427,20.697 3.329,41.159c-10.466,-43.06 -21.411,-85.881 -33.777,-127.988c-20.531,-72.458 -45.967,-143.431 -76.129,-212.435c9.757,-4.048 130.602,-56.38 171.282,-101.342c35.923,-39.966 71.367,-100.868 60.188,-156.774c-7.034,-46.292 -47.251,-80.857 -94.074,-80.857c-8.404,-0 -16.762,1.113 -24.87,3.306c-77.317,23.791 -122.752,161.29 -124.419,233.372c-0,4.995 5.949,71.367 8.804,95.158c-0.097,-0.793 -0.097,-1.593 -0,-2.381c-31.219,-66.988 -68.319,-131.07 -110.86,-191.504c-37.836,-54.154 -78.744,-106.098 -122.512,-155.582c-40.206,-47.576 -79.698,-86.115 -114.902,-121.085c-19.269,-18.795 -37.351,-35.683 -54.239,-51.145l1.661,0c1.428,0 -37.585,-89.923 -40.679,-95.158c-36.158,-62.33 -142.735,-161.531 -221.474,-144.402c-43.454,9.586 -74.662,48.427 -74.662,92.926c0,10.557 1.753,21.039 5.196,31.019c17.602,54.239 77.551,90.637 128.222,108.239c50.671,17.602 166.526,9.278 194.359,6.663c17.129,16.648 35.444,34.49 55.193,54.473c34.491,35.684 73.029,76.364 112.047,123.232c10.466,12.606 21.171,26.406 31.636,39.726c-22.358,-18.795 -53.76,-43.774 -57.094,-45.915c-60.662,-38.538 -201.017,-77.551 -262.867,-26.166c-20.976,18.064 -33.063,44.419 -33.063,72.104c0,26.908 11.419,52.595 31.396,70.631c40.44,39.966 110.62,44.722 163.906,36.871c53.291,-7.85 154.633,-71.367 176.278,-83.974c23.791,29.501 45.915,60.663 68.039,95.159c40.656,60.211 75.923,123.9 105.384,190.311c1.667,3.809 2.854,8.091 4.522,11.893c-9.518,-11.179 -66.133,-68.273 -71.368,-71.367c-56.141,-45.196 -190.312,-99.201 -258.59,-54.953c-25.59,17.767 -40.885,47.011 -40.885,78.167c-0,23.152 8.45,45.533 23.756,62.906c35.924,44.248 104.911,56.615 158.676,54.713c62.09,-2.141 184.128,-63.756 188.65,-66.132c27.428,67.429 50.477,136.564 68.987,206.966c13.8,52.099 25.932,105.385 37.351,158.91c-12.612,-14.273 -65.424,-67.325 -69.706,-71.367c-56.141,-44.962 -190.312,-99.201 -258.585,-54.714c-25.589,17.768 -40.89,47.012 -40.89,78.162c-0,23.157 8.455,45.533 23.762,62.906c35.918,44.008 104.91,56.621 158.67,54.714c60.662,-2.376 177.945,-60.897 187.697,-65.893l15.701,73.269c16.414,79.692 32.595,159.624 50.91,237.894c6.423,27.119 13.56,53.76 20.697,80.405c-19.743,-20.696 -56.38,-57.568 -59.949,-60.422c-56.14,-44.962 -190.311,-99.201 -258.59,-54.719c-25.59,17.767 -40.885,47.011 -40.885,78.167c-0,23.152 8.45,45.533 23.757,62.906c35.923,44.009 104.91,56.615 158.675,54.474c53.766,-2.141 153.68,-49.004 181.748,-62.564c12.132,44.248 25.218,87.782 40.205,130.129c6.897,18.076 12.607,37.111 20.223,53.999l11.419,27.12l-14.039,-2.141c-0,0 -1.188,25.219 1.193,66.132c-59.235,-42.107 -144.642,-78.504 -200.309,-53.046c-32.578,15.946 -53.326,49.192 -53.326,85.47c0,18.184 5.219,35.998 15.027,51.316c3.495,6.138 7.64,11.881 12.373,17.128c10.494,62.547 36.871,121.365 76.597,170.808c3.095,3.329 43.3,40.68 64.231,59.235c-20.217,-11.184 -40.44,-21.889 -61.376,-33.782c-30.209,-16.654 -61.61,-35.444 -92.298,-53.526l-47.583,-29.974c-16.174,-9.752 -30.448,-21.171 -45.909,-31.876c-22.364,-15.94 -44.727,-33.782 -66.851,-51.384c18.795,-29.975 72.795,-118.95 80.645,-169.855c7.85,-50.911 3.568,-123.232 -36.158,-163.911c-18.053,-20.469 -44.071,-32.213 -71.367,-32.213c-27.297,0 -53.315,11.744 -71.368,32.213c-51.858,61.855 -13.56,202.21 24.979,263.112c-0,2.141 10.705,14.034 21.884,28.307c-21.17,-17.842 -42.341,-35.684 -63.277,-54.713c-59.235,-53.526 -118.944,-109.906 -176.992,-166.526l-37.111,-34.97c16.175,-24.979 75.41,-120.138 83.74,-174.137c8.324,-54 3.568,-123.226 -36.163,-164.146c-18.054,-20.474 -44.071,-32.218 -71.368,-32.218c-27.297,0 -53.309,11.744 -71.368,32.218c-51.858,61.85 -13.559,202.21 23.792,263.347c1.427,2.141 12.846,16.414 25.692,32.355c-32.589,-29.975 -65.418,-59.715 -98.961,-88.022c-57.083,-49.05 -117.408,-94.194 -180.56,-135.125c5.943,-8.798 77.791,-118.944 86.828,-178.892c8.091,-53.286 3.569,-123.226 -36.157,-164.146c-18.059,-20.474 -44.071,-32.218 -71.368,-32.218c-27.296,0 -53.314,11.744 -71.367,32.218c-51.864,61.85 -13.56,202.21 23.785,263.347c2.621,4.282 44.014,55.906 59.235,73.748l-2.141,-1.427c-62.952,-38.801 -129.272,-71.842 -198.162,-98.727c-61.41,-24.265 -124.156,-44.996 -187.936,-62.09c-58.995,-16.415 -113.949,-27.833 -162.718,-37.585c-26.406,-4.996 -50.671,-9.278 -73.269,-12.846c-22.598,-3.569 -81.119,-54.479 -86.595,-57.094c-64.464,-32.116 -208.153,-56.147 -264.294,1.661c-16.802,17.682 -26.183,41.165 -26.183,65.556c0,30.551 14.719,59.309 39.504,77.179c44.487,35.45 114.661,32.829 166.526,19.269c51.858,-13.559 142.735,-83.734 166.52,-101.341c23.791,4.282 47.582,9.043 76.129,14.753c47.577,10.939 103.004,23.785 161.291,41.153c15.701,4.522 32.115,10.231 47.576,15.461c-29.02,-3.089 -68.986,-6.657 -72.794,-6.657c-71.368,1.187 -210.535,46.149 -233.846,123.226c-2.21,8.13 -3.329,16.517 -3.329,24.939c0,46.657 34.314,86.771 80.406,94.005c55.901,10.945 116.803,-23.785 157.008,-59.469c40.2,-35.684 90.397,-144.163 100.629,-166.526c35.683,12.132 71.367,25.218 108.952,41.153c67.462,28.09 132.27,62.164 193.646,101.822c3.329,2.141 6.897,4.995 10.225,7.37c-14.033,-4.042 -92.777,-20.456 -98.487,-20.93c-71.367,-6.663 -214.102,23.785 -245.978,96.82c-4.51,11.259 -6.834,23.277 -6.834,35.404c-0,42.866 28.969,80.691 70.351,91.87c54.479,16.888 118.944,-10.705 162.718,-42.107c50.431,-36.163 118.944,-154.868 120.611,-159.389c60.035,41.21 117.403,86.183 171.756,134.644c40.206,35.684 79.698,73.749 118.95,112.047c-18.556,-4.756 -91.83,-20.217 -97.3,-20.696c-71.367,-6.657 -214.102,23.791 -245.978,97.06c-4.459,11.202 -6.748,23.14 -6.748,35.192c-0,42.832 28.923,80.64 70.265,91.842c54.474,16.894 118.944,-10.705 162.718,-42.107c49.244,-35.204 114.662,-148.679 120.132,-158.196c17.842,17.368 35.684,34.73 53.291,52.338c57.808,57.568 115.376,115.376 174.137,170.568c20.217,19.27 40.914,37.346 61.61,55.667c-27.833,-6.423 -78.738,-16.894 -83.26,-17.368c-71.367,-6.663 -214.103,23.791 -245.978,97.06c-4.459,11.196 -6.749,23.14 -6.749,35.193c0,42.832 28.924,80.634 70.266,91.841c54.239,17.128 118.944,-10.705 162.478,-41.867c43.534,-31.167 101.102,-125.847 116.803,-152.492c34.736,29.974 69.706,59.235 105.624,86.354c15.701,11.185 30.928,23.792 47.582,33.783l46.389,30.928c32.35,20.217 62.324,38.772 93.012,56.614c15.227,9.278 29.974,17.608 45.201,26.172c-27.359,-10.705 -71.367,-26.646 -74.935,-27.833c-69.941,-17.368 -215.291,-9.992 -257.877,58.521c-8.627,14.639 -13.177,31.322 -13.177,48.313c-0,37.614 22.306,71.847 56.711,87.046c51.151,24.978 118.95,7.376 166.526,-16.889c53.052,-26.885 132.744,-125.372 142.735,-137.505c37.111,21.176 73.269,41.159 107.526,59.475c91.35,49.004 171.282,88.022 233.137,117.043c201.257,174.136 484.346,193.166 484.346,193.166c0,-0 14.987,-339.23 -184.602,-562.376c-68.205,-73.566 -151.345,-131.728 -243.843,-170.569Zm-359.213,330.912c6.184,-14.04 54.474,-121.805 57.808,-182.467l33.303,-6.897c20.445,107.108 62.98,208.793 124.893,298.556c-36.637,-17.288 -76.283,-36.637 -118.944,-58.048c-30.688,-15.94 -63.517,-33.068 -97.06,-51.144Z" style="fill:#fff;fill-rule:nonzero;"/><path d="M4234.98,2452.64c0,-0 -339.47,10.231 -547.149,226.235c-207.68,216.004 -205.065,555.239 -205.065,555.239c0,0 339.236,-10.465 547.149,-226.235c207.92,-215.77 205.065,-555.239 205.065,-555.239Z" style="fill:#fff;fill-rule:nonzero;"/></g><path d="M3348.59,2671.27l333.287,-299.744l-14.274,-15.94l-319.253,286.897l-1.661,-392.521l1.661,1.187l282.142,-412.264l-17.842,-12.133l-265.961,389.193l-4.282,-944.906l-21.176,-0l2.62,641.354l-212.201,-183.654l-14.034,16.18l226.469,196.021l1.907,458.42l-321.633,-284.523l-14.274,15.941l335.907,297.363l1.902,417.5l-241.697,-189.598l-13.085,16.654l255.021,200.303l0.948,268.582l21.41,0l-1.901,-470.552l0,0.24Z" style="fill:#fff;fill-rule:nonzero;"/><path d="M3041.47,2786.88l-21.17,-2.38l-26.88,237.18l-143.215,-159.864l0.48,0l-36.398,-287.377l-21.176,2.855l32.355,256.923l-355.65,-397.751l-15.935,14.273l241.456,269.77l-152.96,1.901l0.474,21.41l171.282,-2.141l169.381,189.124l-239.082,0.24l0,21.41l258.111,-0.24l153.914,171.996l-168.661,10.231l1.427,21.171l185.316,-11.179l102.529,114.662l15.941,-14.274l-180.56,-201.73l29.021,-256.21Z" style="fill:#fff;fill-rule:nonzero;"/><path d="M3846.98,2871.57l283.564,-57.808l-4.282,-20.936l-253.589,51.624l369.918,-384.431l-15.461,-14.753l-250.974,260.731l-13.326,-152.252l-21.171,1.907l14.748,170.802l-176.038,182.941l-18.082,-238.368l-21.41,1.667l19.749,257.397l-160.103,166.047l-22.598,-167.234l-21.41,2.855l24.978,184.128l-106.577,110.854l15.461,14.753l187.696,-195.073l257.877,9.751l0.714,-21.17l-238.608,-9.278l148.685,-154.628l0.239,0.474Z" style="fill:#fff;fill-rule:nonzero;"/></g><g id="freepik--Characters--inject-1" opacity="0.4"><ellipse cx="3991.85" cy="1840.55" rx="201.496" ry="203.637" style="fill:#263238;stroke:#263238;stroke-width:23.81px;"/><path d="M4551.13,2397.69c0,-0 95.159,-4.043 118.944,164.619c23.791,168.667 123.232,608.531 131.556,670.141c8.325,61.616 -28.786,135.838 -118.944,164.625c-90.163,28.781 -139.88,-57.574 -148.21,-98.727c-8.324,-41.153 -87.782,-542.154 -87.782,-542.154l104.436,-358.504Z" style="fill:#263238;fill-rule:nonzero;stroke:#263238;stroke-width:23.81px;"/><path d="M3625.02,2807.81c0,0 -416.786,176.278 -416.786,240.275c-0,63.991 256.683,689.884 256.683,689.884l1105.96,-288.565l-123.939,-692.739c-0,0 -164.62,-205.298 -821.915,51.145Z" style="fill:#b0bec5;fill-rule:nonzero;stroke:#263238;stroke-width:23.81px;"/><path d="M4005.17,2429.57c-0,0 -118.944,73.988 -214.103,127.274c-95.159,53.286 -237.894,127.508 -237.894,275.719c0,148.204 107.052,736.033 107.052,797.649c-1.959,27.502 -0.606,55.136 4.048,82.313c-0,-12.373 723.666,-250.98 723.666,-250.98c22.267,-94.616 49.746,-187.937 82.307,-279.521c37.111,-90.397 0,-168.667 41.159,-316.632c41.154,-147.971 118.944,-246.698 86.355,-356.838c-32.595,-110.146 -41.159,-106.817 -160.343,-111.099c-119.184,-4.282 -317.106,-4.996 -432.247,32.115Z" style="fill:#263238;fill-rule:nonzero;stroke:#263238;stroke-width:23.81px;"/><path d="M3950.93,2364.86c0,-0 -53.525,28.786 -74.222,160.337c-13.417,105.018 -20.246,210.768 -20.457,316.637c-0.211,105.864 221.953,-123.231 255.016,-127.513c33.069,-4.282 271.437,95.158 271.437,95.158c-19.349,-108.884 -46.863,-216.158 -82.313,-320.914c-49.243,-132.03 -300.217,-181.273 -349.461,-123.705Z" style="fill:#fff;fill-rule:nonzero;stroke:#263238;stroke-width:23.81px;"/><path d="M3909.78,2332.03l4.042,14.034c15.941,55.667 75.65,261.685 111.094,364.214c41.159,118.944 102.769,168.668 102.769,168.668l61.616,-245.984c-0,-0 -242.65,-235.273 -279.521,-300.932Z" style="fill:#fff;fill-rule:nonzero;stroke:#263238;stroke-width:23.81px;"/><path d="M4127.21,1805.58c0,-0 -201.496,-32.829 -271.436,230.277c-69.941,263.107 156.295,489.342 221.953,575.696c65.658,86.355 160.816,113.954 214.102,28.787c82.313,-131.556 107.052,-197.448 118.95,-370.158c11.893,-172.709 -8.33,-287.851 -86.355,-378.247c-50.968,-54.765 -122.404,-86.047 -197.214,-86.355Z" style="fill:#fff;fill-rule:nonzero;stroke:#263238;stroke-width:23.81px;"/><path d="M4325.14,1891.93c-51.025,-54.822 -122.558,-86.11 -197.454,-86.355c-74.89,-0.251 -201.491,-32.829 -271.431,230.277c-19.155,74.616 -17.259,153.104 5.47,226.709c7.376,-18.79 18.555,-33.543 35.684,-33.543c49.243,0 53.525,69.941 69.94,65.898c16.414,-4.042 82.072,-61.616 69.94,-115.141c-12.132,-53.526 4.042,-78.025 90.397,-78.025c86.355,0 106.817,36.871 135.598,28.781c28.787,-8.084 49.484,-65.892 78.271,-65.892c25.96,0.908 50.499,12.235 68.033,31.402c-6.338,-75.13 -35.855,-146.469 -84.448,-204.111Z" style="fill:#263238;fill-rule:nonzero;stroke:#263238;stroke-width:23.81px;"/><path d="M3967.35,2319.66c-0,0 -33.069,-82.307 -69.94,-90.637c-36.872,-8.324 -57.568,16.655 -37.112,86.355c20.457,69.706 49.484,98.727 65.898,98.727c16.415,0 23.786,-23.791 23.786,-23.791" style="fill:#fff;fill-rule:nonzero;stroke:#263238;stroke-width:23.81px;"/><path d="M3667.13,3162.51c0,-0 20.457,131.796 111.094,190.317c90.637,58.521 214.102,28.781 214.102,28.781" style="fill:none;fill-rule:nonzero;stroke:#263238;stroke-width:23.81px;"/><path d="M4127.21,2878.95c0,-0 57.568,217.905 45.201,312.35" style="fill:none;fill-rule:nonzero;stroke:#263238;stroke-width:23.81px;"/><path d="M2898.74,2823.28c-0,-0 49.957,20.697 87.548,149.872c37.585,129.175 137.26,366.349 162.238,457.94c24.979,91.59 16.655,208.153 -91.584,237.893c-108.245,29.735 -224.808,-266.44 -241.462,-291.419c-16.655,-24.979 -58.282,-258.111 -37.351,-383.004c20.936,-124.893 74.936,-187.697 120.611,-171.282Z" style="fill:#fff;fill-rule:nonzero;stroke:#263238;stroke-width:23.81px;"/><path d="M2305.91,3255.77c0,0 -650.398,634.458 -650.398,729.611c0,95.158 382.77,882.102 489.821,864.261c107.052,-17.842 588.783,-531.209 588.783,-531.209l-428.206,-1062.66Z" style="fill:#b0bec5;fill-rule:nonzero;stroke:#263238;stroke-width:23.81px;"/><path d="M2324.23,2923.43c-123.58,109.335 -240.366,226.12 -349.701,349.701c-145.824,170.568 -133.217,457.945 -87.542,653.492c45.675,195.547 129.175,749.359 233.132,770.29c103.963,20.936 187.463,-199.829 370.637,-356.838c183.175,-157.008 329.005,-291.413 341.377,-395.61c12.367,-104.197 -4.048,-437.009 4.282,-461.988c19.8,-122.609 30.934,-246.463 33.303,-370.637c0,-120.611 -91.59,-253.829 -183.175,-283.089c-91.59,-29.261 -324.962,65.897 -362.313,94.679Z" style="fill:#fff;fill-rule:nonzero;stroke:#263238;stroke-width:23.81px;"/><path d="M3167.56,6839.58c0,-0 -134.65,276.906 -327.342,453.184c-192.693,176.278 -495.051,394.422 -495.051,394.422c-0,0 318.773,100.868 386.098,109.193c67.325,8.33 50.197,41.873 -25.218,75.649c-75.41,33.783 -167.948,58.762 -377.769,58.762c-209.82,-0 -343.991,-0 -352.555,-50.432c-8.565,-50.436 126.08,-176.277 226.708,-276.906c100.629,-100.628 486.727,-730.329 520.27,-763.872c33.543,-33.543 268.582,-142.735 444.859,-0Z" style="fill:#fff;fill-rule:nonzero;stroke:#263238;stroke-width:23.81px;"/><path d="M2731.26,7796.42c-55.427,-6.897 -281.188,-76.364 -359.219,-100.628l-60.422,134.171c-92.401,14.93 -186.635,-14.537 -254.069,-79.453c-50.197,54.474 -86.354,103.004 -82.072,129.889c8.564,50.432 142.735,50.432 352.555,50.432c209.821,-0 302.125,-25.219 377.774,-58.762c75.65,-33.542 92.538,-67.319 25.453,-75.649Z" style="fill:#263238;fill-rule:nonzero;stroke:#263238;stroke-width:23.81px;"/><path d="M5575.52,6839.58c0,-0 134.406,276.906 327.338,453.184c192.932,176.278 495.29,394.422 495.29,394.422c0,0 -319.012,100.868 -386.098,109.193c-67.085,8.33 -50.431,41.873 25.218,75.649c75.65,33.783 166.521,58.762 377.535,58.762c211.008,-0 344.225,-0 352.555,-50.432c8.325,-50.436 -125.846,-176.277 -226.714,-276.906c-100.863,-100.628 -486.727,-730.329 -520.27,-763.872c-33.542,-33.543 -268.576,-142.735 -444.854,-0Z" style="fill:#fff;fill-rule:nonzero;stroke:#263238;stroke-width:23.81px;"/><path d="M6012,7796.42c55.193,-6.897 281.188,-76.364 359.219,-100.628l60.422,134.171c92.322,14.815 186.435,-14.645 253.829,-79.453c49.957,54.474 86.355,103.004 81.839,129.889c-8.33,50.432 -142.735,50.432 -352.556,50.432c-209.82,-0 -302.124,-25.219 -377.534,-58.762c-75.416,-33.542 -92.304,-67.319 -25.219,-75.649Z" style="fill:#263238;fill-rule:nonzero;stroke:#263238;stroke-width:23.81px;"/><path d="M1228.74,6957.13c0,0 117.523,218.151 109.193,293.801c-6.897,61.61 -153.675,532.162 -207.2,702.49c-1.296,4.14 -1.953,8.45 -1.953,12.784c0,23.494 19.327,42.82 42.821,42.82c1.284,0 2.569,-0.057 3.854,-0.171c17.059,-1.553 31.613,-13.2 36.871,-29.501l234.799,-720.098c0,-0 41.873,-50.431 176.278,-75.41c102.769,-19.509 614.714,-43.534 848.326,-53.765c89.049,-5.087 167.188,62.232 175.324,151.059l0,3.334c7.377,96.82 166.526,597.581 202.684,708.44c4.048,12.504 16.774,20.246 29.735,18.082c12.783,-2.141 22.244,-13.32 22.244,-26.28c-0,-1.885 -0.2,-3.757 -0.594,-5.601c-28.547,-129.889 -151.06,-689.885 -195.308,-971.547c0,0 -889.719,41.867 -1091.21,-8.564c-121.108,-30.254 -237.043,-78.361 -343.992,-142.735c-106.948,-64.379 -50.197,0.234 -41.873,100.862Z" style="fill:#263238;fill-rule:nonzero;stroke:#263238;stroke-width:23.81px;"/><path d="M1153.57,5480.06c0,-0 -302.364,948.235 -252.167,1116.19c50.197,167.954 293.795,402.753 386.099,402.753c92.304,-0 167.953,-923.022 167.953,-1007c0,-83.98 -159.149,-385.385 -209.82,-511.945c-50.671,-126.561 -92.065,-0 -92.065,-0Z" style="fill:#b0bec5;fill-rule:nonzero;stroke:#263238;stroke-width:23.81px;"/><path d="M2805.48,6898.39c-3.094,95.153 -17.842,167.948 -57.568,167.948c-75.415,-0 -898.043,83.739 -1090.97,75.415c-192.927,-8.33 -335.662,-107.765 -335.662,-250.5c0,-142.735 8.324,-772.197 151.06,-856.411c142.735,-84.213 898.043,-92.303 1074.32,-92.303c216.957,-0 226.235,419.167 235.513,561.188c2.615,40.914 28.067,244.791 23.311,394.663Z" style="fill:#b0bec5;fill-rule:nonzero;stroke:#263238;stroke-width:23.81px;"/><path d="M2588.53,6906.72c-0,0 537.158,16.889 579.03,-67.085c41.868,-83.974 0,-260.252 -108.958,-293.795c-108.952,-33.542 -562.376,-8.33 -562.376,-8.33l92.304,369.21Z" style="fill:#fff;fill-rule:nonzero;stroke:#263238;stroke-width:23.81px;"/><path d="M1287.5,6117.85c-31.945,112.161 -46.075,228.639 -41.867,345.185c8.324,184.842 58.755,369.444 309.255,520.503c250.5,151.066 1074.32,-25.212 1074.32,-25.212l-58.761,-1099.54c0,-0 -545.482,-67.085 -847.606,-8.324c-302.125,58.761 -426.538,233.845 -435.342,267.388Z" style="fill:#263238;fill-rule:nonzero;stroke:#263238;stroke-width:23.81px;"/><path d="M5221.53,2249.25c-60.411,63.62 -107.776,138.459 -139.406,220.286c-44.962,126.086 -193.406,503.855 -188.884,575.702c4.516,71.841 67.319,162.004 130.363,112.521c63.043,-49.483 215.769,-314.731 224.807,-328.291c9.038,-13.56 18.082,-202.444 18.082,-319.487c-0,-117.042 7.85,-265.253 -44.962,-260.731Z" style="fill:#fff;fill-rule:nonzero;stroke:#263238;stroke-width:23.81px;"/><path d="M5366.61,2653.19c49.244,-9.517 1173.76,237.894 1173.76,364.689c0,126.794 -253.834,824.769 -253.834,824.769l-1078.36,-285.471c0,0 21.651,-876.627 158.436,-903.987Z" style="fill:#b0bec5;fill-rule:nonzero;stroke:#263238;stroke-width:23.81px;"/><path d="M5746.51,2105.32c0,0 -242.889,-27.119 -413.932,58.522c-171.042,85.641 -170.808,229.324 -161.764,368.73c9.038,139.407 55.427,891.381 68.987,945.38c13.559,54.006 322.341,39.732 502.187,75.65c179.846,35.924 305.933,-112.521 333.053,-171.042c27.119,-58.522 341.85,-629.702 341.85,-751.027c0,-121.324 -130.368,-350.888 -314.971,-458.893c-106.623,-64.094 -232.732,-87.982 -355.41,-67.32Z" style="fill:#fff;fill-rule:nonzero;stroke:#263238;stroke-width:23.81px;"/><path d="M5575.52,2568.5l49.478,107.999l-193.406,674.663l44.962,130.363l130.602,-98.961l71.847,-692.505l98.961,-107.999l-49.483,-121.565l-152.961,108.005Z" style="fill:#263238;fill-rule:nonzero;stroke:#263238;stroke-width:23.81px;"/><path d="M5589.05,2289.69c-26.606,50.648 -49.192,103.306 -67.565,157.488c-12.116,59.172 -18.099,119.441 -17.842,179.846c0.257,60.4 143.928,-67.565 184.368,-67.565c40.44,0 121.325,184.608 121.325,184.608c-0,-0 121.564,-180.086 139.64,-309.261c18.082,-129.176 -121.559,-224.808 -220.525,-224.808c-57.369,-0.542 -110.763,29.98 -139.401,79.692Z" style="fill:#fff;fill-rule:nonzero;stroke:#263238;stroke-width:23.81px;"/><path d="M6101.69,2159.32c0,-0 45.201,-67.559 54.005,-4.522c8.799,63.043 -44.961,112.287 -76.363,130.369c-16.22,11.179 -37.785,11.179 -54.005,-0" style="fill:#fff;fill-rule:nonzero;stroke:#263238;stroke-width:23.81px;"/><path d="M5643.06,1898.36c-0,-0 -44.962,-35.924 -71.368,35.917c-26.406,71.848 18.082,162.005 18.082,162.005l44.961,-95.153" style="fill:#fff;fill-rule:nonzero;stroke:#263238;stroke-width:23.81px;"/><path d="M5643.06,2501.17c-1.234,4.179 -1.862,8.512 -1.862,12.869c0,24.927 20.514,45.435 45.442,45.435c0.456,-0 0.919,-0.006 1.381,-0.023c58.522,4.522 179.846,-121.325 188.884,-148.444c9.044,-27.12 -233.845,90.163 -233.845,90.163Z" style="fill:#fff;fill-rule:nonzero;stroke:#263238;stroke-width:23.81px;"/><path d="M5854.53,1624.07c-0,0 -157.488,71.368 -193.406,184.368c-35.924,112.995 -95.159,341.851 -95.159,428.206c0,86.354 26.88,261.679 85.402,287.845c58.521,26.172 251.927,-98.961 305.692,-134.885c53.766,-35.918 117.043,-175.324 184.603,-256.443c67.565,-81.125 121.324,-229.33 95.158,-350.655c-26.166,-121.324 -225.047,-266.44 -382.29,-158.436Z" style="fill:#fff;fill-rule:nonzero;stroke:#263238;stroke-width:23.81px;"/><path d="M6236.84,1781.55c-27.12,-121.559 -225.048,-265.487 -382.291,-157.483c0,0 -157.488,71.368 -193.406,184.368c-17.128,53.526 -39.252,133.218 -57.807,211.482c30.688,-47.576 81.593,-129.649 84.687,-148.444c4.522,-27.12 4.522,-31.636 35.924,-31.636c31.402,0 89.923,89.923 171.042,107.999c81.119,18.082 188.884,4.522 188.884,49.484c0,44.961 -63.037,117.042 -22.598,139.406c31.642,17.602 3.329,78.265 6.184,104.671c22.415,-38.093 47.451,-74.582 74.936,-109.193c67.325,-80.885 121.325,-229.329 94.445,-350.654Z" style="fill:#263238;fill-rule:nonzero;stroke:#263238;stroke-width:23.81px;"/><path d="M5647.57,2060.36c0,-0 157.483,76.363 233.846,103.483c76.363,27.12 152.966,58.281 125.847,107.765c-27.12,49.478 -116.809,71.367 -170.809,49.478c-53.999,-21.885 -40.439,-134.885 -71.367,-139.401c-30.928,-4.522 -53.766,53.999 -112.287,53.999c-58.521,0 -121.559,-89.923 -112.521,-152.966c9.038,-63.038 107.291,-22.358 107.291,-22.358Z" style="fill:#fff;fill-rule:nonzero;stroke:#263238;stroke-width:23.81px;"/><path d="M6020.85,2226.65l103.483,-103.483" style="fill:none;fill-rule:nonzero;stroke:#263238;stroke-width:23.81px;"/><path d="M5566.67,2055.84l53.765,-121.565" style="fill:none;fill-rule:nonzero;stroke:#263238;stroke-width:23.81px;"/><path d="M6822.74,3009.78c-0,0 -298.317,265.488 -375.633,342.33c-77.311,76.838 -80.88,224.568 -7.371,257.637c73.508,33.063 305.687,-103.009 342.324,-132.509c36.637,-29.495 136.312,-449.136 40.68,-467.458Z" style="fill:#263238;fill-rule:nonzero;stroke:#263238;stroke-width:23.81px;"/><path d="M7568.55,3673.5c-0,0 400.846,400.612 320.68,528.834c-80.171,128.227 -849.514,529.073 -849.514,529.073l-144.402,-625.179l673.236,-432.728Z" style="fill:#b0bec5;fill-rule:nonzero;stroke:#263238;stroke-width:23.81px;"/><path d="M7054.48,2984.09c0,-0 -169.141,-14.747 -231.704,25.692c-62.564,40.446 -106.812,416.073 -118.944,640.647c-12.133,224.568 -40.446,404.414 -25.693,448.902c14.748,44.482 397.517,526.452 451.991,592.824c54.479,66.372 500.766,-611.146 563.33,-747.458c62.563,-136.312 22.124,-261.679 -58.996,-448.902c-81.125,-187.217 -253.834,-360.88 -356.837,-456.512c-59.903,-55.439 -144.306,-76.312 -223.147,-55.193Z" style="fill:#263238;fill-rule:nonzero;stroke:#263238;stroke-width:23.81px;"/><path d="M7050.88,3429.43l-2.615,14.274c-4.755,26.406 -14.987,86.834 -23.791,155.107c-11.179,92.064 -7.37,214.103 22.124,214.103c29.501,-0 415.839,-279.761 423.21,-533.589c7.376,-253.835 -389.427,43.534 -418.928,150.105Z" style="fill:#fff;fill-rule:nonzero;stroke:#263238;stroke-width:23.81px;"/><path d="M7032.61,2928.91c0,-0 -36.871,136.072 -36.871,158.196c2.78,26.132 7.713,51.996 14.747,77.317c7.034,25.321 -62.563,99.435 -55.192,110.38c8.741,10.79 18.544,20.673 29.26,29.5c10.723,8.821 -7.137,139.881 22.124,169.375c29.261,29.501 151.065,10.945 151.065,10.945c0,0 -59.001,73.749 7.371,77.317c66.372,3.568 242.89,-142.735 294.514,-228.142c51.619,-85.401 47.576,-239.315 -0,-316.632c-47.582,-77.317 -331.385,-184.128 -427.018,-88.256Z" style="fill:#fff;fill-rule:nonzero;stroke:#263238;stroke-width:23.81px;"/><path d="M7352.8,2663.65c-0,-0 -283.564,36.877 -334.948,147.257c-51.385,110.38 66.132,246.692 150.819,265.247c45.818,10.791 92.83,15.667 139.881,14.513c47.057,-1.153 -88.256,77.317 -33.063,95.159c55.187,17.842 80.879,7.371 80.879,25.692c0,18.316 -55.187,77.311 -7.371,81.12c47.816,3.808 62.564,-81.12 92.064,-62.564c29.495,18.555 -10.945,91.824 3.803,95.153c14.753,3.334 154.633,-142.735 214.102,-298.316c59.475,-155.582 -22.124,-250.261 -80.879,-301.645c-58.761,-51.385 -155.347,-79.932 -225.287,-61.616Z" style="fill:#263238;fill-rule:nonzero;stroke:#263238;stroke-width:23.81px;"/><path d="M7352.8,3307.87c-0,-0 51.624,-118.95 84.693,-91.831c33.063,27.12 22.124,110.386 -14.753,139.881c-36.872,29.5 -106.812,-3.803 -106.812,-3.803" style="fill:#fff;fill-rule:nonzero;stroke:#263238;stroke-width:23.81px;"/><path d="M7025.19,3631.88l117.757,-58.761l-18.316,176.518" style="fill:#fff;fill-rule:nonzero;stroke:#263238;stroke-width:23.81px;"/><path d="M7962.05,6758.5c0,0 -211.727,416.787 -203.397,492.436c6.897,61.611 153.674,532.162 207.439,702.491c1.239,4.065 1.867,8.29 1.867,12.538c0,23.62 -19.44,43.06 -43.06,43.06c-1.256,0 -2.518,-0.057 -3.768,-0.165c-17.06,-1.553 -31.613,-13.2 -36.872,-29.501l-234.565,-720.098c0,-0 -42.107,-50.431 -176.278,-75.41c-103.003,-19.509 -614.708,-43.534 -848.56,-53.766c-88.964,-4.955 -166.948,62.33 -175.084,151.06c-0.12,1.107 -0.12,2.226 -0,3.334c-7.616,96.82 -166.526,597.581 -202.924,708.44c-4.048,12.504 -16.774,20.246 -29.734,18.082c-12.784,-2.141 -22.244,-13.32 -22.244,-26.281c-0,-1.884 0.2,-3.756 0.594,-5.601c28.547,-129.889 151.059,-689.884 195.547,-971.546c-0,0 889.479,41.867 1090.97,-8.564c201.496,-50.437 438.436,-341.377 438.436,-341.377c0,0 49.957,0 41.633,100.868Z" style="fill:#263238;fill-rule:nonzero;stroke:#263238;stroke-width:23.81px;"/><path d="M8104.04,5376.6c-0,0 231.705,967.984 169.141,1131.65c-62.569,163.671 -322.347,380.629 -414.411,373.492c-92.064,-7.137 -99.915,-933.014 -93.726,-1016.75c6.183,-83.74 187.457,-373.252 246.932,-496.244c59.469,-122.992 92.064,7.85 92.064,7.85Z" style="fill:#b0bec5;fill-rule:nonzero;stroke:#263238;stroke-width:23.81px;"/><path d="M6292.05,6898.39c2.854,95.153 17.841,167.948 57.328,167.948c75.649,-0 898.043,83.739 1091.21,75.415c193.172,-8.33 334.954,-107.765 334.954,-250.5c-0,-142.735 -8.564,-773.39 -151.299,-856.411c-142.735,-83.026 -898.044,-92.303 -1074.32,-92.303c-216.957,-0 -226.469,419.167 -235.512,561.188c-2.615,40.914 -27.834,244.791 -22.358,394.663Z" style="fill:#b0bec5;fill-rule:nonzero;stroke:#263238;stroke-width:23.81px;"/><path d="M7715.57,6117.62c0,-0 -69.466,169.615 -69.466,304.26c-0,134.65 -65.179,399.658 -199.829,477.688c-134.645,78.031 -285.47,121.799 -508.371,91.351c-222.907,-30.449 -707.966,-108.719 -707.966,-108.719c-0,0 499.572,-356.837 625.413,-534.303c125.847,-177.465 169.381,-325.676 269.296,-425.59c99.914,-99.915 582.119,-199.829 590.923,195.313Z" style="fill:#263238;fill-rule:nonzero;stroke:#263238;stroke-width:23.81px;"/><ellipse cx="4726.47" cy="5402.75" rx="2670.33" ry="2063.71" style="fill:#263238;stroke:#263238;stroke-width:23.81px;"/><ellipse cx="4726.47" cy="5340.86" rx="2670.33" ry="2063.71" style="fill:#b0bec5;stroke:#263238;stroke-width:23.81px;"/><path d="M6049.62,4073.64l338.762,371.825l-600.201,430.581l-345.898,-419.642l607.337,-382.764Z" style="fill:#fff;fill-rule:nonzero;stroke:#263238;stroke-width:23.81px;"/><path d="M4217.37,4105.76l-554.292,284.99l491.009,601.629l569.993,-379.91l-506.71,-506.709Z" style="fill:#fff;fill-rule:nonzero;stroke:#263238;stroke-width:23.81px;"/><path d="M5057.84,4708.32l-554.052,284.996l490.775,601.628l569.986,-379.915l-506.709,-506.709Z" style="fill:#fff;fill-rule:nonzero;stroke:#263238;stroke-width:23.81px;"/><path d="M4996.01,4752.11l-596.872,178.419l372.064,681.56l629.936,-269.056l-405.128,-590.923Z" style="fill:#fff;fill-rule:nonzero;stroke:#263238;stroke-width:23.81px;"/><path d="M4283.75,3767.71c-0,-0 107.765,-40.2 107.765,-13.32c-0,26.879 -0,53.765 -47.582,67.325c-47.577,13.56 -208.628,-20.223 -168.188,-40.446c34.496,-12.68 71.442,-17.316 108.005,-13.559Z" style="fill:#fff;fill-rule:nonzero;stroke:#263238;stroke-width:23.81px;"/><path d="M3687.59,2611.55c0,0 -139.641,49.244 -209.581,135.839c-69.94,86.594 -102.769,312.35 -118.949,411.077c-16.175,98.727 -90.397,472.927 -49.244,518.128c41.159,45.201 481.017,197.448 567.372,222.193c86.355,24.739 190.317,61.61 246.932,57.568c41.364,-5.938 80.788,-21.411 115.141,-45.202c34.354,-23.785 98.727,45.202 123.226,45.202c24.505,-0 57.574,-45.202 28.787,-90.637c-28.787,-45.436 -108.953,-111.333 -154.154,-111.333c-45.201,-0 -211.722,24.978 -211.722,24.978c0,0 -283.808,-143.922 -366.115,-201.496c-51.596,-36.649 -99.766,-77.893 -143.929,-123.226l168.668,-526.453" style="fill:#263238;fill-rule:nonzero;stroke:#263238;stroke-width:23.81px;"/><path d="M4236.64,3754.39c-45.201,-0 -211.727,24.978 -211.727,24.978c-0,0 -31.402,-15.701 -76.124,-39.012c-34.73,23.563 -61.324,57.311 -76.123,96.58c-5.276,18.921 -8.233,38.413 -8.804,58.048l12.846,3.808c86.355,23.785 190.312,61.61 246.932,57.568c41.364,-5.938 80.782,-21.411 115.141,-45.202c34.354,-23.785 98.722,45.202 123.226,45.202c24.505,-0 57.568,-45.202 28.787,-90.637c-28.787,-45.436 -108.958,-111.333 -154.154,-111.333Z" style="fill:#fff;fill-rule:nonzero;stroke:#263238;stroke-width:23.81px;"/><path d="M2353.25,3019.06c-12.612,3.808 -108.245,108.245 -116.569,229.09c-8.324,120.851 83.26,320.44 99.914,353.749c16.655,33.303 -4.042,91.584 37.585,91.584c41.633,0 170.809,-191.499 170.809,-191.499c-0,0 145.589,8.325 162.244,-29.026c16.648,-37.346 -116.569,-245.739 -145.59,-333.047c-29.027,-87.308 -137.505,-141.548 -208.393,-120.851Z" style="fill:#fff;fill-rule:nonzero;stroke:#263238;stroke-width:23.81px;"/><path d="M2344.92,2956.74c0.291,57.271 -5.287,114.428 -16.649,170.569c-16.654,58.281 -20.696,87.542 41.627,179.132c62.593,82.318 130.791,160.212 204.112,233.132c73.325,72.921 8.33,-95.158 12.612,-149.872c4.282,-54.713 87.302,-87.542 103.956,-112.521c16.655,-24.978 -91.59,-41.632 -133.217,-116.568c-41.633,-74.936 -41.633,-203.872 -99.915,-216.484c-58.287,-12.606 -90.636,-45.675 -112.526,12.612Z" style="fill:#fff;fill-rule:nonzero;stroke:#263238;stroke-width:23.81px;"/><path d="M2903.02,2702.67c-0,-0 116.569,-33.309 95.159,-149.872c-21.411,-116.569 -233.132,-203.877 -461.988,-183.181c-228.85,20.697 -333.047,170.809 -353.983,320.681c-20.931,149.871 137.265,295.461 153.92,320.44c16.648,24.978 -4.048,49.957 45.909,66.611c33.994,9.546 69.969,9.546 103.962,0c25.105,36.112 69.318,54.154 112.521,45.91c71.368,-16.649 49.958,-158.196 79.218,-174.851c29.261,-16.648 49.958,-71.367 137.266,-120.845c87.302,-49.483 88.016,-124.893 88.016,-124.893Z" style="fill:#263238;fill-rule:nonzero;stroke:#263238;stroke-width:23.81px;"/><path d="M2549.03,3048.32c-0,-0 8.33,-66.606 -74.936,-74.936c-83.26,-8.324 -62.324,71.367 -45.675,108.244c16.654,36.872 74.702,66.606 74.702,66.606c-0,0 20.93,95.159 50.191,103.963c29.261,8.798 203.877,83.26 237.894,71.367c34.016,-11.898 66.611,-166.526 66.611,-166.526c0,0 58.282,-29.26 58.282,-58.281c-0,-29.027 -25.932,-113.001 -25.932,-132.744c-0,-19.749 45.915,-79.218 54.239,-124.893c8.33,-45.675 -41.627,-137.505 -41.627,-137.505c-0,-0 -20.937,74.935 -87.548,74.935c-45.122,-1.033 -89.906,-7.993 -133.218,-20.696c-43.311,-12.698 33.303,87.308 8.325,124.893c-24.979,37.591 -66.606,29.027 -74.936,45.675c-8.325,16.655 -4.042,91.591 -8.325,108.245c-4.282,16.648 -33.068,73.982 -58.047,11.653Z" style="fill:#fff;fill-rule:nonzero;stroke:#263238;stroke-width:23.81px;"/><path d="M2952.97,3501.99c0,0 20.697,166.521 62.33,233.132c41.633,66.612 216.483,324.723 216.483,324.723c0,-0 -12.372,87.542 0,112.521c24.927,52.423 45.841,106.657 62.564,162.244c-0,16.654 33.303,29.26 37.351,4.282c2.78,-19.304 4.213,-38.779 4.282,-58.282l71.367,108.239c0,0 37.585,29.021 49.958,4.042c12.366,-24.978 4.282,-158.196 12.606,-212.195c8.324,-54.006 -33.303,-129.176 -66.612,-162.484c-33.303,-33.303 -74.935,-91.585 -87.542,-103.957c-12.606,-12.372 -66.611,-208.154 -91.59,-341.377c-24.979,-133.217 -91.585,-216.478 -141.542,-224.808" style="fill:#fff;fill-rule:nonzero;stroke:#263238;stroke-width:23.81px;"/><path d="M3456.6,4393.37c12.606,-23.791 4.282,-158.202 12.606,-212.202c8.325,-53.999 -33.303,-129.175 -66.611,-162.478c-24.008,-25.504 -46.64,-52.264 -67.799,-80.171c-50.335,14.193 -95.53,42.615 -130.123,81.833l27.119,39.966c0,-0 -12.372,87.548 0,112.526c24.927,52.418 45.841,106.658 62.564,162.239c-0,16.654 33.303,29.26 37.351,4.282c2.78,-19.304 4.213,-38.779 4.282,-58.282l71.367,108.239c0,-0 36.872,27.833 49.244,4.048Z" style="fill:#fff;fill-rule:nonzero;stroke:#263238;stroke-width:23.81px;"/><path d="M1953.6,3335.46c-54.331,43.06 -92.498,103.289 -108.245,170.808c-29.021,116.563 66.612,591.158 91.59,728.423c24.979,137.266 149.872,594.732 187.457,624.466c37.591,29.735 474.594,-24.979 632.796,-53.999c158.196,-29.027 499.573,-149.872 570.94,-170.809c71.368,-20.936 108.239,-128.935 128.936,-149.871c20.696,-20.937 66.611,-91.591 41.633,-116.569c-24.979,-24.979 -95.159,-0 -124.893,-0c-29.741,-0 -83.266,-4.043 -141.548,-4.043c-59.126,1.588 -110.368,42.581 -124.893,99.915c-7.976,31.567 -22.124,61.239 -41.633,87.308c-19.503,26.064 -428.205,58.282 -520.269,58.282c-59.909,-0.434 -119.732,-4.568 -179.133,-12.373c-59.395,-7.799 -49.957,-287.371 -87.542,-466.264c-37.585,-178.898 -71.368,-316.398 -99.915,-362.313" style="fill:#fff;fill-rule:nonzero;stroke:#263238;stroke-width:23.81px;"/><path d="M3373.33,4367.91c-29.021,-0 -83.26,-4.043 -141.542,-4.043c-59.126,1.588 -110.368,42.581 -124.893,99.915c-7.976,31.567 -22.124,61.239 -41.633,87.308l-30.214,4.042c12.012,24.871 19.429,51.71 21.89,79.218c1.244,30.083 -0.588,60.212 -5.476,89.923c123.232,-39.012 237.894,-78.744 276.193,-89.923c71.367,-20.696 108.244,-128.935 128.941,-149.871c20.697,-20.937 66.606,-91.591 41.627,-116.569c-24.978,-24.979 -95.632,-0 -124.893,-0Z" style="fill:#fff;fill-rule:nonzero;stroke:#263238;stroke-width:23.81px;"/><path d="M3091.67,5152.45c0,0 107.291,8.804 142.735,8.804c35.444,0 281.662,-26.646 245.978,-66.851c-35.683,-40.2 -304.499,-76.124 -304.499,-76.124l-84.214,134.171Z" style="fill:#fff;fill-rule:nonzero;stroke:#263238;stroke-width:23.81px;"/><path d="M3627.88,4911l-781.954,362.074l303.792,616.615l768.628,-388.713l-290.466,-589.976Z" style="fill:#fff;fill-rule:nonzero;stroke:#263238;stroke-width:23.81px;"/><path d="M3104.27,5116.54c0,0 93.732,0 116.095,13.56c22.358,13.56 116.09,98.253 129.65,75.889c13.559,-22.363 -40.206,-75.889 -62.564,-98.247c-22.364,-22.364 -44.728,-40.206 -44.728,-40.206" style="fill:#fff;fill-rule:nonzero;stroke:#263238;stroke-width:23.81px;"/><path d="M2370.38,4808.52l805.26,209.82l-126.081,184.602l-847.606,-100.628c-0,0 -201.023,-276.906 168.427,-293.794Z" style="fill:#fff;fill-rule:nonzero;stroke:#263238;stroke-width:23.81px;"/><path d="M1800.39,4843.69c0,-0 -196.26,166.52 -261.679,368.73c-65.418,202.21 -107.051,606.624 -107.051,606.624c0,0 -208.153,297.363 -208.153,327.103c-0,29.735 172.469,0 172.469,0l-166.526,285.47c0,0 0,237.888 130.842,362.782c122.262,116.14 290.78,170.854 457.94,148.684c142.735,-23.791 404.42,-344.945 434.155,-362.787c29.734,-17.842 -71.368,-291.414 -95.159,-392.521c-23.785,-101.103 23.791,-172.47 53.526,-190.312c29.74,-17.842 202.21,-124.893 237.894,-202.21c35.683,-77.311 29.734,-208.153 17.841,-309.255c-11.892,-101.108 -160.577,-451.997 -291.419,-559.048c-130.837,-107.051 -249.786,-178.419 -374.68,-83.26Z" style="fill:#fff;fill-rule:nonzero;stroke:#263238;stroke-width:23.81px;"/><path d="M1919.34,4813.94c0,-0 -89.209,130.842 -89.209,226.001c-0,95.153 77.311,249.786 136.786,321.154c34.958,42.135 72.709,81.872 113,118.944l130.837,-29.735l5.949,101.102c-0,0 29.735,-53.526 113.001,-17.842c83.26,35.684 136.785,11.893 136.785,-5.949c28.439,-115.227 28.439,-235.661 0,-350.888c-47.576,-208.154 -101.102,-243.838 -178.418,-321.154c-77.317,-77.317 -255.736,-107.052 -368.731,-41.633Z" style="fill:#fff;fill-rule:nonzero;stroke:#263238;stroke-width:23.81px;"/><path d="M1978.81,4843.69c0,-0 -65.418,112.994 -29.734,202.204c35.683,89.209 148.684,196.261 237.893,273.577c89.21,77.317 202.205,160.577 202.205,160.577c40.759,-132.915 25.721,-276.849 -41.628,-398.47c-113,-214.103 -315.21,-279.521 -368.736,-237.888Z" style="fill:#fff;fill-rule:nonzero;stroke:#263238;stroke-width:23.81px;"/><path d="M2496.22,4302.49c16.671,38.613 30.585,78.362 41.633,118.944l-0,41.633c-0,0 83.26,47.577 71.367,65.419c-11.892,17.841 -59.474,95.158 -59.474,95.158c6.514,65.401 4.516,131.374 -5.944,196.261c-17.842,77.317 5.944,113 -59.475,113l-166.526,0c0,0 -17.842,249.787 -59.469,249.787c-41.633,-0 -231.945,-89.21 -267.628,-136.792c-35.684,-47.576 -47.582,-95.153 -35.684,-130.836c37.008,-95.33 68.775,-192.619 95.153,-291.42c23.791,-107.051 202.21,-190.311 243.843,-208.153c41.627,-17.842 202.204,-113.001 202.204,-113.001Z" style="fill:#fff;fill-rule:nonzero;stroke:#263238;stroke-width:23.81px;"/><path d="M1836.07,4724.76c0,-0 -142.735,-23.786 -214.102,-11.893c-71.368,11.893 -160.577,113.001 -160.577,214.103c-0,101.102 77.316,160.577 202.21,172.469c124.893,11.899 208.153,-95.153 208.153,-154.627c0.068,-74.794 -11.984,-149.107 -35.684,-220.052Z" style="fill:#263238;fill-rule:nonzero;stroke:#263238;stroke-width:23.81px;"/><path d="M2198.86,4695.01c0,-0 225.995,-243.837 297.363,-392.522c71.368,-148.684 47.582,-303.312 -65.418,-303.312c-113.001,0 -237.894,-35.684 -451.997,41.633c-214.102,77.311 -303.312,327.098 -291.413,457.94c11.892,130.842 208.153,398.471 309.255,416.313c101.108,17.841 101.108,-160.577 101.108,-160.577l101.102,-59.475Z" style="fill:#263238;fill-rule:nonzero;stroke:#263238;stroke-width:23.81px;"/><path d="M2228.6,4736.63c-0,0 -53.526,-118.949 -118.944,-83.266c-65.419,35.684 -5.95,166.527 35.683,196.261c41.633,29.74 107.052,-17.842 107.052,-17.842" style="fill:#fff;fill-rule:nonzero;stroke:#263238;stroke-width:23.81px;"/><path d="M2537.86,4463.07c-0,0 -23.791,77.317 -53.526,89.21" style="fill:none;fill-rule:nonzero;stroke:#263238;stroke-width:23.81px;"/><path d="M2993.89,5540c-0,0 -45.676,-30.448 -51.625,9.038c-5.943,39.492 39.492,82.073 39.492,82.073c0,0 -57.808,-63.751 -60.902,-27.354c-3.089,36.398 33.543,76.124 33.543,76.124c-0,-0 -45.676,-21.41 -45.676,-3.095c0,18.322 63.997,82.073 66.852,112.287c2.854,30.214 60.896,-63.757 73.029,-136.552c5.258,-44.887 -16.164,-88.935 -54.713,-112.521Z" style="fill:#fff;fill-rule:nonzero;stroke:#263238;stroke-width:23.81px;"/><path d="M2906.59,5991.5c14.359,-52.606 24.311,-106.315 29.741,-160.577c-0,-47.576 53.525,-130.837 77.311,-178.419c23.791,-47.576 -77.311,-130.836 -29.735,-154.628c47.577,-23.791 83.26,23.792 124.893,77.317c41.633,53.526 53.526,166.521 17.842,243.837c-33.651,71.539 -77.745,137.683 -130.842,196.261c-17.42,18.653 -37.454,34.679 -59.469,47.577l-29.741,-71.368Z" style="fill:#fff;fill-rule:nonzero;stroke:#263238;stroke-width:23.81px;"/><path d="M2951.55,5877.32l-0,-150.586c-0,-75.409 42.347,-186.743 42.347,-186.743c1.872,-0.251 3.762,-0.376 5.652,-0.376c23.231,-0 42.346,19.115 42.346,42.34c0,3.911 -0.542,7.799 -1.61,11.562c-3.893,48.941 -0.93,98.185 8.804,146.303" style="fill:#fff;fill-rule:nonzero;stroke:#263238;stroke-width:23.81px;"/><path d="M1633.87,5789.33c-0,0 -83.266,118.944 -41.633,249.787c41.633,130.836 636.359,921.828 719.625,921.828c83.26,0 683.935,-779.093 719.619,-826.676c35.683,-47.576 -118.944,-166.52 -118.944,-166.52l-600.675,547.149c-0,0 -160.577,-642.308 -226.001,-761.252c-65.419,-118.949 -220.047,-130.842 -220.047,-130.842" style="fill:#fff;fill-rule:nonzero;stroke:#263238;stroke-width:23.81px;"/><path d="M4510.2,3269.56c-0,0 82.073,-90.397 168.427,-107.051c86.355,-16.649 131.556,41.159 107.052,143.928c-24.499,102.769 -102.77,127.508 -148.205,123.466c-45.436,-4.048 -118.944,-23.791 -139.641,-78.03c-13.56,-27.246 -8.598,-60.252 12.367,-82.313Z" style="fill:#263238;fill-rule:nonzero;stroke:#263238;stroke-width:23.81px;"/><path d="M4559.47,3244.82c0,0 -176.752,23.791 -217.905,53.526c-41.159,29.735 -135.838,189.124 -135.838,209.581c-0,20.462 57.568,41.159 86.355,41.159c28.786,-0 103.009,-98.727 103.009,-98.727l-37.112,103.009c0,-0 37.112,-4.282 41.154,-20.697c4.042,-16.414 61.616,-127.514 61.616,-127.514c-0,0 107.051,4.283 135.832,-45.195c28.787,-49.484 49.244,-82.313 -37.111,-115.142Z" style="fill:#fff;fill-rule:nonzero;stroke:#263238;stroke-width:23.81px;"/><path d="M4914.42,2973.39c-0,-0 -49.484,166.526 -49.484,269.769c0,103.249 71.134,436.535 71.134,436.535c-9.849,56.398 -34.479,109.187 -71.368,152.961c-58.521,63.043 -40.445,148.445 -13.56,175.33c26.88,26.88 81.12,76.597 98.961,44.962c17.842,-31.642 4.522,-89.923 22.598,-112.287c18.082,-22.364 85.407,-58.522 95.159,-126.081c9.752,-67.565 -4.522,-274.291 -4.522,-386.812c0,-112.527 58.521,-278.813 -4.516,-395.616" style="fill:#fff;fill-rule:nonzero;stroke:#263238;stroke-width:23.81px;"/><path d="M5068.06,3626.4c-73.035,-14.508 -113.241,10.231 -134.651,36.877c2.141,10.225 3.568,16.175 3.568,16.175c-9.843,56.397 -34.473,109.186 -71.367,152.966c-58.521,63.037 -40.44,148.444 -13.56,175.324c26.886,26.88 81.125,76.603 98.967,44.962c17.842,-31.642 4.516,-89.923 22.598,-112.287c18.081,-22.358 85.401,-58.521 95.158,-126.081c3.523,-62.603 3.283,-125.361 -0.713,-187.936Z" style="fill:#fff;fill-rule:nonzero;stroke:#263238;stroke-width:23.81px;"/><path d="M5193.21,3620.93l-431.774,490.295l436.296,310.449l418.213,-530.735l-422.735,-270.009Z" style="fill:#fff;fill-rule:nonzero;stroke:#263238;stroke-width:23.81px;"/><path d="M5004.29,3822.43c-0,-0 4.521,152.96 4.521,175.564c0,22.597 49.478,49.477 54,-4.522c0.731,-30.163 3.751,-60.223 9.038,-89.923c4.522,-13.56 31.402,-98.961 -4.516,-162.005" style="fill:#fff;fill-rule:nonzero;stroke:#263238;stroke-width:23.81px;"/><path d="M6218.74,2631.54c-0,0 -121.325,134.885 -179.846,261.685c-58.522,126.795 -103.483,449.616 -103.483,449.616c-0,-0 -233.846,382.29 -265.488,413.931c-31.635,31.636 -13.32,26.88 -89.923,62.804c-76.597,35.918 -175.324,53.999 -188.884,76.597c-13.56,22.604 -63.043,130.369 -76.363,143.929c-13.32,13.559 17.842,40.439 35.923,22.358c18.076,-18.076 80.88,-89.924 80.88,-89.924l-76.363,179.847c0.525,12.669 11.093,22.803 23.768,22.803c1.045,0 2.084,-0.063 3.117,-0.2c32.983,-6.143 64.99,-16.706 95.153,-31.402c30.163,-14.701 76.603,-18.081 103.483,-54.005c26.886,-35.918 126.086,-229.563 126.086,-229.563c0,-0 261.68,-166.527 355.171,-278.808c73.183,-88.724 131.002,-189.078 171.042,-296.889c13.326,-44.961 179.847,-544.06 175.33,-625.179c-4.521,-81.125 -44.961,-95.159 -44.961,-95.159" style="fill:#fff;fill-rule:nonzero;stroke:#263238;stroke-width:23.81px;"/><path d="M5656.65,3770.33c-14.747,16.889 -14.273,19.269 -76.603,47.577c-76.363,36.157 -175.324,53.999 -188.884,76.603c-13.56,22.598 -63.043,130.363 -76.363,143.922c-13.32,13.56 17.841,40.44 35.923,22.364c18.076,-18.082 80.88,-89.923 80.88,-89.923l-76.364,179.846c0.526,12.664 11.094,22.804 23.769,22.804c1.044,-0 2.083,-0.069 3.117,-0.206c32.983,-6.138 64.99,-16.7 95.153,-31.402c30.163,-14.701 76.603,-18.081 103.483,-53.999c26.885,-35.924 126.086,-229.57 126.086,-229.57c0,0 16.175,-10.225 42.341,-27.593c-23.968,-29.095 -56.26,-50.18 -92.538,-60.423Z" style="fill:#fff;fill-rule:nonzero;stroke:#263238;stroke-width:23.81px;"/><path d="M7441.06,3911.64c0,-0 -99.441,187.697 -117.756,261.679c-18.322,73.982 -47.583,154.628 -47.583,154.628c0,-0 -184.128,-29.495 -342.324,-47.577c-158.196,-18.081 -382.77,-58.995 -438.197,-69.94c-55.427,-10.945 -158.196,-40.679 -180.32,-22.124c-22.124,18.556 -7.376,14.748 18.556,25.693c21.421,6.543 44.099,7.85 66.132,3.808c22.032,-4.048 -36.872,10.939 -77.317,25.692c-40.44,14.747 -114.188,40.44 -125.127,55.187c-10.945,14.753 14.747,66.372 55.187,66.372c30.659,-1.947 61.41,-1.947 92.064,-0c22.124,3.568 33.069,25.692 106.817,25.692c73.743,0 176.512,-58.995 176.512,-58.995c0,-0 346.133,158.436 541.206,191.505c195.073,33.063 224.568,-10.945 305.693,-73.749c81.119,-62.803 316.392,-448.901 298.076,-526.218c-11.978,-48.387 -31.921,-94.457 -58.995,-136.312" style="fill:#263238;fill-rule:nonzero;stroke:#263238;stroke-width:23.81px;"/><path d="M6706.89,4247.3c-96.346,-15.7 -180.794,-31.161 -211.962,-37.345c-55.187,-11.184 -158.196,-40.679 -180.32,-22.124c-22.124,18.556 -7.376,14.748 18.556,25.693c21.421,6.543 44.105,7.85 66.132,3.802c22.032,-4.042 -36.872,10.945 -77.311,25.692c-40.446,14.754 -114.188,40.446 -125.133,55.193c-10.945,14.748 14.747,66.372 55.193,66.372c30.653,-1.947 61.404,-1.947 92.064,0c22.124,3.568 33.063,25.692 106.811,25.692c73.749,0 176.518,-58.995 176.518,-58.995c-0,0 27.119,12.367 70.174,30.922l9.278,-114.902Z" style="fill:#fff;fill-rule:nonzero;stroke:#263238;stroke-width:23.81px;"/><path d="M6469.27,3344.74c0,-0 -172.943,84.687 -239.315,142.735c-66.372,58.047 -231.944,430.586 -235.513,456.278c-3.568,25.693 125.128,40.68 139.881,33.303c14.747,-7.376 276.192,-309.261 342.324,-360.88c37.511,-24.425 52.966,-72.178 36.871,-113.954" style="fill:#263238;fill-rule:nonzero;stroke:#263238;stroke-width:23.81px;"/><path d="M6056.99,3867.62c-54.793,11.59 -108.878,26.286 -162.004,44.014c-44.248,18.556 -147.257,151.059 -121.564,158.436c25.692,7.371 95.158,-77.317 95.158,-77.317c-24.448,34.639 -45.407,71.613 -62.564,110.38c-7.376,29.501 -14.753,95.159 14.748,84.693c29.5,-10.471 88.256,-92.064 88.256,-92.064c-0,0 73.508,-44.248 132.509,-44.248c58.996,0 99.435,-110.385 99.435,-110.385c0,-0 47.583,-47.577 29.501,-99.435c-18.082,-51.864 -113.475,25.926 -113.475,25.926Z" style="fill:#fff;fill-rule:nonzero;stroke:#263238;stroke-width:23.81px;"/><path d="M6156.45,3838.13c-29.472,1.199 -57.944,-11.07 -77.316,-33.308c-29.501,-36.632 -47.577,-0 -47.577,36.877c0.919,21.952 15.644,41.073 36.632,47.576c20.993,6.503 -62.564,58.995 -25.693,77.317c24.739,9.792 52.921,5.612 73.749,-10.945" style="fill:#fff;fill-rule:nonzero;stroke:#263238;stroke-width:23.81px;"/><path d="M7450.54,4797.78c-0,0 -182.461,-34.73 -247.646,-47.576c-65.178,-12.847 -278.093,73.982 -338.756,95.152c-60.662,21.177 0,39.253 65.184,52.099c65.179,12.846 195.308,-12.846 195.308,-12.846c-0,-0 -142.735,60.662 -108.479,69.466c34.257,8.804 104.197,-8.804 165.099,-13.086c60.896,-4.282 121.559,-60.897 121.559,-60.897c-0,0 291.179,142.736 325.915,142.736c34.731,-0 86.829,-104.197 12.847,-147.731c-60.983,-31.996 -124.968,-57.894 -191.031,-77.317Z" style="fill:#fff;fill-rule:nonzero;stroke:#263238;stroke-width:23.81px;"/><path d="M7515.74,4957.87c-114.045,86.36 -215.01,188.764 -299.744,304.025c-126.08,178.179 -147.73,538.586 -121.564,642.308c26.172,103.717 43.3,225.756 169.381,309.256c126.08,83.5 217.197,117.282 434.388,-0c217.197,-117.277 330.198,-508.137 309.261,-808.828c-20.936,-300.698 -204.111,-508.377 -299.743,-534.309c-95.633,-25.927 -191.979,87.548 -191.979,87.548Z" style="fill:#fff;fill-rule:nonzero;stroke:#263238;stroke-width:23.81px;"/><path d="M7529.05,5014.28c-0,-0 -78.265,8.798 -117.277,60.896c-39.018,52.098 -26.172,69.466 0,82.552c16.557,10.648 27.616,28.062 30.209,47.577c2.597,19.515 -91.111,147.731 -43.295,177.945c47.816,30.208 260.492,-69.467 317.112,-142.735c56.614,-73.275 30.448,-195.547 -4.282,-230.283c-34.736,-34.731 -182.467,4.048 -182.467,4.048Z" style="fill:#fff;fill-rule:nonzero;stroke:#263238;stroke-width:23.81px;"/><path d="M7476.46,4449.75c-25.15,29.946 -54.376,56.209 -86.828,78.025c-34.736,17.368 -78.031,34.736 -43.3,60.902c19.845,14.571 38.681,30.471 56.38,47.577c17.705,17.111 -43.534,142.735 -25.926,225.761c5.298,36.569 36.974,63.979 73.925,63.979c7.188,0 14.336,-1.033 21.227,-3.077c6.892,-2.044 -13.08,217.191 -30.448,282.376c-17.368,65.184 65.184,60.662 130.363,21.65c65.184,-39.018 73.988,-199.829 99.915,-317.112c25.932,-117.283 182.466,-256.209 73.988,-386.572c-108.479,-130.369 -269.296,-73.509 -269.296,-73.509Z" style="fill:#fff;fill-rule:nonzero;stroke:#263238;stroke-width:23.81px;"/><path d="M8184.71,4302.02c-160.817,-165.098 -404.42,-126.086 -438.677,-117.282c0,-0 -135.598,-33.069 -214.102,-19.983c-78.504,13.086 -107.765,237.894 -59.949,363.021c17.048,44.91 49.301,82.461 91.117,106.103c-7.851,-6.902 -54.24,-50.67 -9.518,-85.406c26.56,-21.793 58.11,-36.672 91.824,-43.295c33.714,-6.623 -37.825,124.18 -21.644,146.064c66.132,88.022 -231.231,503.141 -242.89,496.484c0,-0 86.829,49.004 195.548,101.102c240.034,115.376 523.363,-130.843 612.333,-338.756c70.894,-164.145 139.167,-461.034 -4.042,-608.052Z" style="fill:#263238;fill-rule:nonzero;stroke:#263238;stroke-width:23.81px;"/><path d="M5845.74,4920.99l-219.339,917.552l448.668,204.346l169.615,-862.594l-398.944,-259.304Z" style="fill:#fff;fill-rule:nonzero;stroke:#263238;stroke-width:23.81px;"/><path d="M5860.99,5015.94l-182.227,762.445l372.778,169.855l141.068,-717.004l-331.619,-215.296Z" style="fill:#263238;fill-rule:nonzero;stroke:#263238;stroke-width:23.81px;"/><path d="M6244.72,5180.31l613.287,29.974l-119.664,882.577l-663.238,-49.957l169.615,-862.594Z" style="fill:#fff;fill-rule:nonzero;stroke:#263238;stroke-width:23.81px;"/><path d="M6425.25,5572.38l44.488,1.901l4.516,-28.547l-43.769,-3.095l-5.235,29.741Z" style="fill:#263238;fill-rule:nonzero;"/><path d="M6528.47,5772.66l7.137,-43.535l-61.85,-2.854l-6.663,42.107l61.376,4.282Z" style="fill:#263238;fill-rule:nonzero;"/><path d="M6419.08,5447.45l5.469,-30.688l-55.666,-3.808l-5.71,32.115l55.907,2.381Z" style="fill:#263238;fill-rule:nonzero;"/><path d="M6446.66,5448.88l42.347,1.902l4.516,-29.021l-41.627,-2.855l-5.236,29.974Z" style="fill:#263238;fill-rule:nonzero;"/><path d="M6413.83,5639.23l45.202,3.328l6.423,-41.153l-44.962,-1.901l-6.663,39.726Z" style="fill:#263238;fill-rule:nonzero;"/><path d="M6569.18,5524.76l7.137,-42.58l-63.991,-3.095l-6.423,41.393l63.277,4.282Z" style="fill:#263238;fill-rule:nonzero;"/><path d="M6385.05,5321.62l55.432,2.615l8.085,-47.577l-54.953,-2.854l-8.564,47.816Z" style="fill:#263238;fill-rule:nonzero;"/><path d="M6508.26,5327.33l7.371,-47.102l-39.487,-2.141l-8.09,47.342l40.206,1.901Z" style="fill:#263238;fill-rule:nonzero;"/><path d="M6380.26,5348.74l-6.663,37.351l55.433,3.803l6.657,-38.773l-55.427,-2.381Z" style="fill:#263238;fill-rule:nonzero;"/><path d="M6484.97,5477.89l-43.054,-1.901l-6.903,39.486l43.534,3.095l6.423,-40.68Z" style="fill:#263238;fill-rule:nonzero;"/><path d="M6504.21,5354.45l-40.914,-1.901l-6.902,39.252l41.393,2.854l6.423,-40.205Z" style="fill:#263238;fill-rule:nonzero;"/><path d="M6548.97,5648.71l7.136,-43.061l-63.043,-2.855l-6.423,41.633l62.33,4.283Z" style="fill:#263238;fill-rule:nonzero;"/><path d="M6297.47,5658.47l-45.436,-3.095l-5.949,33.069l45.675,2.141l5.71,-32.115Z" style="fill:#263238;fill-rule:nonzero;"/><path d="M6287.02,5717.68l-45.675,-2.141l-6.189,36.398l45.201,3.328l6.663,-37.585Z" style="fill:#263238;fill-rule:nonzero;"/><path d="M6275.6,5782.2l-45.201,-3.094l-5.709,32.829l45.201,2.141l5.709,-31.876Z" style="fill:#263238;fill-rule:nonzero;"/><path d="M6265.15,5841.17l-45.435,-2.141l-6.423,36.638l44.961,3.328l6.897,-37.825Z" style="fill:#263238;fill-rule:nonzero;"/><path d="M6308.89,5594.24l-45.915,-2.141l-6.183,36.157l45.435,3.335l6.663,-37.351Z" style="fill:#263238;fill-rule:nonzero;"/><path d="M6330.81,5470.81l-46.149,-2.141l-6.183,35.924l45.909,3.089l6.423,-36.872Z" style="fill:#263238;fill-rule:nonzero;"/><path d="M6352.91,5347.31l-46.623,-2.141l-6.189,35.684l46.155,3.094l6.657,-36.637Z" style="fill:#263238;fill-rule:nonzero;"/><path d="M6319.39,5534.75l-45.676,-3.089l-5.943,33.303l45.909,2.141l5.71,-32.355Z" style="fill:#263238;fill-rule:nonzero;"/><path d="M6341.49,5411.09l-46.149,-3.334l-5.949,33.782l46.155,2.141l5.943,-32.589Z" style="fill:#263238;fill-rule:nonzero;"/><path d="M6596.53,5358.73l-64.944,-3.095l-6.423,40.92l64.47,4.522l6.897,-42.347Z" style="fill:#263238;fill-rule:nonzero;"/><path d="M6253.51,5905.86l-44.727,-3.089l-9.038,50.431l44.721,4.522l9.044,-51.864Z" style="fill:#263238;fill-rule:nonzero;"/><path d="M6497.3,5575.69l63.043,2.855l4.516,-26.646l-63.277,-4.282l-4.282,28.073Z" style="fill:#263238;fill-rule:nonzero;"/><path d="M6458.53,5822.62l61.376,2.855l4.282,-25.932l-61.376,-4.283l-4.282,27.36Z" style="fill:#263238;fill-rule:nonzero;"/><path d="M6477.83,5699.18l62.329,2.854l4.282,-26.166l-62.09,-4.282l-4.521,27.594Z" style="fill:#263238;fill-rule:nonzero;"/><path d="M6454.99,5669.44l-45.909,-3.095l-5.236,29.501l46.629,2.141l4.516,-28.547Z" style="fill:#263238;fill-rule:nonzero;"/><path d="M6515.4,5852.59l-60.902,-2.854l-6.663,42.346l60.429,4.282l7.136,-43.774Z" style="fill:#263238;fill-rule:nonzero;"/><path d="M6443.57,5919.22l-9.038,57.808l59.475,5.943l9.752,-59.469l-60.189,-4.282Z" style="fill:#263238;fill-rule:nonzero;"/><path d="M6351.71,5509.8l55.906,3.808l6.897,-39.012l-56.14,-2.381l-6.663,37.585Z" style="fill:#263238;fill-rule:nonzero;"/><path d="M6357.7,5320.19l8.564,-47.816l-46.869,-2.381l-8.324,48.296l46.629,1.901Z" style="fill:#263238;fill-rule:nonzero;"/><path d="M6516.6,5451.96l64.231,3.095l4.282,-26.88l-64.231,-4.522l-4.282,28.307Z" style="fill:#263238;fill-rule:nonzero;"/><path d="M6535.89,5328.53l65.184,3.095l7.611,-46.629l-65.658,-3.329l-7.137,46.863Z" style="fill:#263238;fill-rule:nonzero;"/><path d="M6446.2,5725.1l-46.868,-2.381l-7.137,40.206l47.582,3.329l6.423,-41.154Z" style="fill:#263238;fill-rule:nonzero;"/><path d="M6371.69,5721.51l-57.334,-2.62l-6.657,38.304l57.094,3.803l6.897,-39.487Z" style="fill:#263238;fill-rule:nonzero;"/><path d="M6387.68,5790.02l-4.996,29.021l48.53,2.381l4.516,-28.073l-48.05,-3.329Z" style="fill:#263238;fill-rule:nonzero;"/><path d="M6426.9,5848.54l-49.01,-2.381l-7.137,40.679l49.724,3.329l6.423,-41.627Z" style="fill:#263238;fill-rule:nonzero;"/><path d="M6285.82,5880.91l57.574,4.048l6.897,-39.966l-57.808,-2.621l-6.663,38.539Z" style="fill:#263238;fill-rule:nonzero;"/><path d="M6360.27,5788.13l-57.334,-4.042l-5.469,31.162l57.567,2.62l5.236,-29.74Z" style="fill:#263238;fill-rule:nonzero;"/><path d="M6319.39,5691.76l57.094,2.621l5.235,-29.974l-56.854,-4.048l-5.475,31.401Z" style="fill:#263238;fill-rule:nonzero;"/><path d="M6280.86,5907.8l-9.278,52.572l57.808,5.95l9.518,-54.48l-58.048,-4.042Z" style="fill:#263238;fill-rule:nonzero;"/><path d="M6416.23,5917.28l-49.957,-3.569l-9.518,55.433l50.671,4.996l8.804,-56.86Z" style="fill:#263238;fill-rule:nonzero;"/><path d="M6403.09,5540.69l-56.14,-4.043l-5.709,31.636l56.614,2.621l5.235,-30.214Z" style="fill:#263238;fill-rule:nonzero;"/><path d="M6393.16,5598.07l-56.62,-2.621l-6.897,38.065l56.62,3.808l6.897,-39.252Z" style="fill:#263238;fill-rule:nonzero;"/><path d="M7537.38,5744.11c-0,-0 -55.907,5.235 -151.065,82.546c-95.153,77.317 -473.401,737.467 -473.401,737.467c-0,-0 -343.278,-214.103 -430.113,-273.578c-86.828,-59.469 -156.294,-169.375 -204.111,-234.559c-47.816,-65.184 -56.614,-73.983 -121.798,-78.265c-65.185,-4.282 -112.761,-47.582 -121.565,-17.368c-8.798,30.214 17.368,43.534 34.736,52.099c15.181,5.835 31.31,8.821 47.576,8.803c-40.976,6.172 -82.814,-3.163 -117.282,-26.171c-65.179,-39.013 -82.547,-47.577 -82.547,-4.282c0,43.3 47.577,113 82.547,156.294c34.97,43.301 234.565,60.903 234.565,60.903c72.441,139.84 153.726,274.919 243.363,404.414c130.123,182.467 408.223,378.014 486.487,351.842c78.265,-26.166 490.769,-542.867 603.77,-686.316c113,-143.449 261.679,-312.83 225.761,-408.222" style="fill:#fff;fill-rule:nonzero;stroke:#263238;stroke-width:23.81px;"/><path d="M6364.84,6175.4c-34.022,-42.586 -63.283,-86.121 -87.068,-118.95c-47.582,-65.178 -56.62,-73.982 -121.804,-78.264c-65.179,-4.282 -112.761,-47.577 -121.559,-17.368c-8.804,30.214 17.362,43.534 34.73,52.098c15.181,5.835 31.31,8.821 47.577,8.804c-40.977,6.178 -82.815,-3.157 -117.277,-26.166c-65.185,-39.018 -82.553,-47.582 -82.553,-4.282c0,43.294 47.583,112.995 82.553,156.295c34.97,43.294 234.559,60.896 234.559,60.896c0,0 8.804,17.128 23.791,44.962c28.239,-34.925 65.156,-61.833 107.051,-78.025Z" style="fill:#fff;fill-rule:nonzero;stroke:#263238;stroke-width:23.81px;"/></g></svg>