<?xml version="1.0" encoding="UTF-8" standalone="no"?><!DOCTYPE svg PUBLIC "-//W3C//DTD SVG 1.1//EN" "http://www.w3.org/Graphics/SVG/1.1/DTD/svg11.dtd"><svg width="100%" height="100%" viewBox="0 0 2084 2084" version="1.1" xmlns="http://www.w3.org/2000/svg" xmlns:xlink="http://www.w3.org/1999/xlink" xml:space="preserve" xmlns:serif="http://www.serif.com/" style="fill-rule:evenodd;clip-rule:evenodd;stroke-linejoin:round;stroke-miterlimit:2;"><g id="freepik--background-complete--inject-86" opacity="0.45"><rect x="0" y="1593.33" width="2083.33" height="1.042" style="fill:#ebebeb;"/><rect x="1736.58" y="1660.38" width="138" height="1.042" style="fill:#ebebeb;"/><rect x="1343.88" y="1671.71" width="36.208" height="1.042" style="fill:#ebebeb;"/><rect x="1652.46" y="1621.71" width="79.958" height="1.042" style="fill:#ebebeb;"/><rect x="218.583" y="1628.71" width="179.958" height="1.042" style="fill:#ebebeb;"/><rect x="435.667" y="1628.71" width="26.375" height="1.042" style="fill:#ebebeb;"/><rect x="547.792" y="1646.29" width="390.333" height="1.042" style="fill:#ebebeb;"/><path d="M987.5,1407.5l-804.542,0c-13.036,-0.023 -23.75,-10.756 -23.75,-23.792l0,-1130.96c0.114,-12.957 10.793,-23.561 23.75,-23.583l804.542,-0c13.052,-0 23.792,10.74 23.792,23.791l-0,1130.75c-0,13.052 -10.74,23.792 -23.792,23.792Zm-804.542,-1177.5c-12.464,0.023 -22.708,10.285 -22.708,22.75l0,1130.96c-0,12.465 10.244,22.728 22.708,22.75l804.542,0c12.472,-0.022 22.727,-10.278 22.75,-22.75l0,-1130.96c-0.023,-12.472 -10.278,-22.727 -22.75,-22.75l-804.542,0Z" style="fill:#ebebeb;fill-rule:nonzero;"/><path d="M1888.79,1407.5l-804.584,0c-13.043,-0.023 -23.769,-10.749 -23.791,-23.792l-0,-1130.96c0.136,-12.964 10.826,-23.561 23.791,-23.583l804.584,-0c12.942,0.045 23.595,10.642 23.708,23.583l0,1130.96c0,13.021 -10.688,23.746 -23.708,23.792Zm-804.584,-1177.5c-12.471,0.023 -22.727,10.278 -22.75,22.75l0,1130.96c0.023,12.472 10.279,22.728 22.75,22.75l804.584,0c12.471,-0.022 22.727,-10.278 22.75,-22.75l-0,-1130.96c-0.023,-12.472 -10.279,-22.727 -22.75,-22.75l-804.584,0Z" style="fill:#ebebeb;fill-rule:nonzero;"/><rect x="388.5" y="273.958" width="296.875" height="1007.12" style="fill:#fafafa;"/><path d="M641.167,273.958l-17.334,0l-103.541,1007.12l17.333,0l103.542,-1007.12Z" style="fill:#f5f5f5;fill-rule:nonzero;"/><rect x="386.583" y="277.833" width="293.542" height="8.875" style="fill:#e0e0e0;"/><rect x="386.583" y="1272.25" width="293.542" height="19" style="fill:#ebebeb;"/><rect x="397.875" y="1290.42" width="277.375" height="0.833" style="fill:#ebebeb;"/><path d="M397.875,277.833l277.375,0l0,1012.58l16.625,-0l0,-1025.04l-310.625,-0l0,1025.04l16.625,-0l0,-1012.58Z" style="fill:#ebebeb;fill-rule:nonzero;"/><rect x="718.875" y="273.958" width="296.875" height="1007.12" style="fill:#fafafa;"/><path d="M933.375,273.958l-94.625,0l-103.542,1007.12l94.625,0l103.542,-1007.12Z" style="fill:#f5f5f5;fill-rule:nonzero;"/><rect x="716.958" y="277.833" width="301.875" height="8.875" style="fill:#e0e0e0;"/><rect x="716.958" y="1272.25" width="301.875" height="19" style="fill:#ebebeb;"/><rect x="728.25" y="1290.42" width="277.375" height="0.833" style="fill:#ebebeb;"/><path d="M728.25,277.833l277.375,0l0,1012.58l16.583,-0l0,-1025.04l-310.583,-0l0,1025.04l16.625,-0l0,-1012.58Z" style="fill:#ebebeb;fill-rule:nonzero;"/><rect x="1049.21" y="273.958" width="288.542" height="1007.12" style="fill:#fafafa;"/><path d="M1212.71,273.958l-17.333,0l-103.542,1007.12l17.334,0l103.541,-1007.12Z" style="fill:#f5f5f5;fill-rule:nonzero;"/><rect x="1047.33" y="277.833" width="293.542" height="8.875" style="fill:#e0e0e0;"/><rect x="1047.33" y="1272.25" width="293.542" height="19" style="fill:#ebebeb;"/><rect x="1058.62" y="1290.42" width="277.375" height="0.833" style="fill:#ebebeb;"/><path d="M1058.62,277.833l277.333,0l0,1012.58l16.625,-0l0,-1025.04l-310.583,-0l0,1025.04l16.625,-0l0,-1012.58Z" style="fill:#ebebeb;fill-rule:nonzero;"/><rect x="1379.58" y="273.958" width="296.875" height="1007.12" style="fill:#fafafa;"/><path d="M1647.42,273.958l-94.625,0l-103.584,1007.12l94.667,0l103.542,-1007.12Z" style="fill:#f5f5f5;fill-rule:nonzero;"/><rect x="1377.67" y="277.833" width="293.542" height="8.875" style="fill:#e0e0e0;"/><rect x="1377.67" y="1272.25" width="293.542" height="19" style="fill:#ebebeb;"/><path d="M1388.96,277.833l277.375,0l0,1012.58l16.625,-0l0,-1025.04l-310.583,-0l0,1025.04l16.583,-0l0,-1012.58Z" style="fill:#ebebeb;fill-rule:nonzero;"/><rect x="1388.96" y="1290.42" width="277.375" height="0.833" style="fill:#ebebeb;"/><rect x="485.458" y="1049.42" width="128.875" height="222.875" style="fill:#ebebeb;"/><path d="M589.583,1018.25l0,55.917l-79.375,-0l0,-55.917l79.375,0Z" style="fill:#ebebeb;fill-rule:nonzero;"/><rect x="589.583" y="1057.67" width="16.5" height="16.5" style="fill:#fafafa;"/><rect x="557.667" y="1057.67" width="16.5" height="16.5" style="fill:#fafafa;"/><rect x="525.708" y="1057.67" width="16.5" height="16.5" style="fill:#fafafa;"/><rect x="493.75" y="1057.67" width="16.5" height="16.5" style="fill:#f0f0f0;"/><rect x="589.583" y="1087.62" width="16.5" height="16.5" style="fill:#f0f0f0;"/><rect x="557.667" y="1087.62" width="16.5" height="16.5" style="fill:#f0f0f0;"/><rect x="525.708" y="1087.62" width="16.5" height="16.5" style="fill:#fafafa;"/><rect x="493.75" y="1087.62" width="16.5" height="16.5" style="fill:#fafafa;"/><rect x="589.583" y="1117.62" width="16.5" height="16.5" style="fill:#f0f0f0;"/><rect x="557.667" y="1117.62" width="16.5" height="16.5" style="fill:#fafafa;"/><rect x="525.708" y="1117.62" width="16.5" height="16.5" style="fill:#fafafa;"/><rect x="557.667" y="1031.75" width="16.5" height="16.5" style="fill:#fafafa;"/><rect x="525.708" y="1031.75" width="16.5" height="16.5" style="fill:#f0f0f0;"/><rect x="493.75" y="1117.62" width="16.5" height="16.5" style="fill:#f0f0f0;"/><rect x="589.583" y="1147.62" width="16.5" height="16.5" style="fill:#fafafa;"/><rect x="557.667" y="1147.62" width="16.5" height="16.5" style="fill:#f0f0f0;"/><rect x="525.708" y="1147.62" width="16.5" height="16.5" style="fill:#f0f0f0;"/><rect x="493.75" y="1147.62" width="16.5" height="16.5" style="fill:#fafafa;"/><rect x="589.583" y="1177.62" width="16.5" height="16.5" style="fill:#f0f0f0;"/><rect x="557.667" y="1177.62" width="16.5" height="16.5" style="fill:#fafafa;"/><rect x="525.708" y="1177.62" width="16.5" height="16.5" style="fill:#fafafa;"/><rect x="493.75" y="1177.62" width="16.5" height="16.5" style="fill:#f0f0f0;"/><rect x="589.583" y="1207.58" width="16.5" height="16.5" style="fill:#f0f0f0;"/><rect x="557.667" y="1207.58" width="16.5" height="16.5" style="fill:#fafafa;"/><rect x="525.708" y="1207.58" width="16.5" height="16.5" style="fill:#f0f0f0;"/><rect x="493.75" y="1207.58" width="16.5" height="16.5" style="fill:#fafafa;"/><rect x="589.583" y="1237.58" width="16.5" height="16.5" style="fill:#fafafa;"/><rect x="557.667" y="1237.58" width="16.5" height="16.5" style="fill:#fafafa;"/><rect x="525.708" y="1237.58" width="16.5" height="16.5" style="fill:#f0f0f0;"/><rect x="493.75" y="1237.58" width="16.5" height="16.5" style="fill:#f0f0f0;"/><rect x="1406.79" y="1130.58" width="115.458" height="141.667" style="fill:#f0f0f0;"/><path d="M1416.83,1146.33l41.625,0l0,14.75l-41.625,0l0,-14.75Z" style="fill:#e6e6e6;fill-rule:nonzero;"/><path d="M1416.83,1174.96l41.625,0l0,14.792l-41.625,0l0,-14.792Z" style="fill:#fafafa;fill-rule:nonzero;"/><path d="M1416.83,1203.58l41.625,0l0,14.792l-41.625,0l0,-14.792Z" style="fill:#e6e6e6;fill-rule:nonzero;"/><path d="M1416.83,1232.21l41.625,0l0,14.792l-41.625,0l0,-14.792Z" style="fill:#fafafa;fill-rule:nonzero;"/><path d="M1470.54,1146.33l41.625,0l-0,14.75l-41.625,0l-0,-14.75Z" style="fill:#fafafa;fill-rule:nonzero;"/><path d="M1470.54,1174.96l41.625,0l-0,14.792l-41.625,0l-0,-14.792Z" style="fill:#fafafa;fill-rule:nonzero;"/><path d="M1470.54,1203.58l41.625,0l-0,14.792l-41.625,0l-0,-14.792Z" style="fill:#e6e6e6;fill-rule:nonzero;"/><path d="M1470.54,1232.21l41.625,0l-0,14.792l-41.625,0l-0,-14.792Z" style="fill:#fafafa;fill-rule:nonzero;"/><rect x="860.958" y="1184.25" width="104.917" height="88.042" style="fill:#f0f0f0;"/><rect x="945.75" y="1195.25" width="13.417" height="13.417" style="fill:#fafafa;"/><rect x="919.75" y="1195.25" width="13.417" height="13.417" style="fill:#fafafa;"/><rect x="893.708" y="1195.25" width="13.417" height="13.417" style="fill:#fafafa;"/><rect x="867.708" y="1195.25" width="13.417" height="13.417" style="fill:#fafafa;"/><rect x="945.75" y="1219.62" width="13.417" height="13.417" style="fill:#fafafa;"/><rect x="919.75" y="1219.62" width="13.417" height="13.417" style="fill:#fafafa;"/><rect x="893.708" y="1219.62" width="13.417" height="13.417" style="fill:#fafafa;"/><rect x="867.708" y="1219.62" width="13.417" height="13.417" style="fill:#e6e6e6;"/><rect x="945.75" y="1244.04" width="13.417" height="13.417" style="fill:#e6e6e6;"/><rect x="919.75" y="1244.04" width="13.417" height="13.417" style="fill:#e6e6e6;"/><rect x="893.708" y="1244.04" width="13.417" height="13.417" style="fill:#fafafa;"/><rect x="867.708" y="1244.04" width="13.417" height="13.417" style="fill:#e6e6e6;"/><rect x="741.833" y="1119.17" width="104.917" height="153.125" style="fill:#f0f0f0;"/><rect x="800.583" y="1125.88" width="39.458" height="37.833" style="fill:#fafafa;"/><rect x="748.542" y="1125.88" width="39.458" height="37.833" style="fill:#fafafa;"/><rect x="800.583" y="1174.67" width="39.458" height="37.833" style="fill:#fafafa;"/><rect x="748.542" y="1174.67" width="39.458" height="37.833" style="fill:#fafafa;"/><rect x="800.583" y="1223.46" width="39.458" height="37.833" style="fill:#fafafa;"/><rect x="748.542" y="1223.46" width="39.458" height="37.833" style="fill:#fafafa;"/></g><g id="freepik--Shadow--inject-86" opacity="0.45"><ellipse id="freepik--path--inject-86" cx="1041.67" cy="1734.33" rx="807.875" ry="47.167" style="fill:#f5f5f5;"/></g><g id="freepik--Sheet--inject-86" opacity="0.45"><path d="M1852.38,331.708l0,917.667l-110.417,110.417l-639.208,-0l0,-1028.08l749.625,0Z" style="fill:#92e3a9;fill-rule:nonzero;"/><path d="M1852.38,331.708l0,917.667l-110.417,110.417l-639.208,-0l0,-1028.08l749.625,0Z" style="fill:#fff;fill-opacity:0.8;fill-rule:nonzero;"/><path d="M1741.96,1359.79l0,-107.167l110.417,0l-108.25,108.25" style="fill-opacity:0.2;fill-rule:nonzero;"/><path d="M1386.42,420.833l-206.75,0c-6.012,0 -10.959,-4.946 -10.959,-10.958c0,-0.014 0,-0.028 0,-0.042c0,-6.011 4.947,-10.958 10.959,-10.958l206.75,0c6.018,0.023 10.958,4.981 10.958,11c0,6.012 -4.947,10.958 -10.958,10.958Z" style="fill-opacity:0.1;fill-rule:nonzero;"/><path d="M1761.42,509.75l-498.417,0c-6.012,0 -10.958,-4.947 -10.958,-10.958c-0,-0.014 -0,-0.028 -0,-0.042c-0,-6.012 4.946,-10.958 10.958,-10.958l498.417,-0c6.011,-0 10.958,4.946 10.958,10.958c0,6.019 -4.94,10.977 -10.958,11Z" style="fill-opacity:0.1;fill-rule:nonzero;"/><path d="M1761.42,552.958l-581.75,0c-6.012,0 -10.959,-4.946 -10.959,-10.958c0,-0.014 0,-0.028 0,-0.042c0,-6.011 4.947,-10.958 10.959,-10.958l581.75,0c6.018,0.023 10.958,4.981 10.958,11c0,6.012 -4.947,10.958 -10.958,10.958Z" style="fill-opacity:0.1;fill-rule:nonzero;"/><path d="M1761.42,601.792l-581.75,-0c-6.012,-0 -10.959,-4.947 -10.959,-10.959c0,-0.014 0,-0.027 0,-0.041c0,-6.012 4.947,-10.959 10.959,-10.959l581.75,0c6.011,0 10.958,4.947 10.958,10.959c0,6.018 -4.94,10.977 -10.958,11Z" style="fill-opacity:0.1;fill-rule:nonzero;"/><path d="M1761.42,650.583l-581.75,0c-6.012,0 -10.959,-4.946 -10.959,-10.958c0,-6.012 4.947,-10.958 10.959,-10.958l581.75,-0c6.011,-0 10.958,4.946 10.958,10.958c0,6.012 -4.947,10.958 -10.958,10.958Z" style="fill-opacity:0.1;fill-rule:nonzero;"/><path d="M1761.42,699.417l-581.75,-0c-6.012,-0 -10.959,-4.947 -10.959,-10.959c0,-0.014 0,-0.027 0,-0.041c0,-5.989 4.928,-10.917 10.917,-10.917c0.014,-0 0.028,-0 0.042,0l581.75,0c6.011,0 10.958,4.947 10.958,10.958c0,6.012 -4.947,10.959 -10.958,10.959Z" style="fill-opacity:0.1;fill-rule:nonzero;"/><path d="M1761.42,748.25l-581.75,0c-6.012,0 -10.959,-4.947 -10.959,-10.958c0,-0.014 0,-0.028 0,-0.042c0,-6.012 4.947,-10.958 10.959,-10.958l581.75,-0c6.018,0.022 10.958,4.981 10.958,11c0,6.011 -4.947,10.958 -10.958,10.958Z" style="fill-opacity:0.1;fill-rule:nonzero;"/><path d="M1772.42,786.083c-0,-6.048 -4.911,-10.958 -10.959,-10.958l-581.791,0c-6.048,0 -10.959,4.91 -10.959,10.958l0,0.042c0,6.048 4.911,10.958 10.959,10.958l581.791,0c6.048,0 10.959,-4.91 10.959,-10.958l-0,-0.042Z" style="fill-opacity:0.1;"/><path d="M1761.42,845.833l-581.75,0c-6.012,0 -10.959,-4.946 -10.959,-10.958c0,-6.012 4.947,-10.958 10.959,-10.958l581.75,-0c6.011,-0 10.958,4.946 10.958,10.958c0,6.012 -4.947,10.958 -10.958,10.958Z" style="fill-opacity:0.1;fill-rule:nonzero;"/><path d="M1761.42,894.708l-581.75,0c-6.012,0 -10.959,-4.946 -10.959,-10.958c0,-0.014 0,-0.028 0,-0.042c0,-5.988 4.928,-10.916 10.917,-10.916c0.014,-0 0.028,-0 0.042,-0l581.75,-0c6.011,-0 10.958,4.946 10.958,10.958c0,6.012 -4.947,10.958 -10.958,10.958Z" style="fill-opacity:0.1;fill-rule:nonzero;"/><path d="M1761.42,943.542l-581.75,-0c-6.012,-0 -10.959,-4.947 -10.959,-10.959c0,-0.014 0,-0.027 0,-0.041c0,-6.012 4.947,-10.959 10.959,-10.959l581.75,0c6.018,0.023 10.958,4.982 10.958,11c0,6.012 -4.947,10.959 -10.958,10.959Z" style="fill-opacity:0.1;fill-rule:nonzero;"/><path d="M1761.42,992.375l-581.75,0c-6.012,0 -10.959,-4.947 -10.959,-10.958c0,-0.014 0,-0.028 0,-0.042c0,-6.012 4.947,-10.958 10.959,-10.958l581.75,-0c6.011,-0 10.958,4.946 10.958,10.958c0,6.019 -4.94,10.977 -10.958,11Z" style="fill-opacity:0.1;fill-rule:nonzero;"/><path d="M1428.08,1041.17l-248.416,-0c-6.012,-0 -10.959,-4.947 -10.959,-10.959c0,-6.011 4.947,-10.958 10.959,-10.958l248.416,0c6.012,0 10.959,4.947 10.959,10.958c-0,6.012 -4.947,10.959 -10.959,10.959Z" style="fill-opacity:0.1;fill-rule:nonzero;"/><path d="M1716.67,556.583l-0.792,-0.666c-2.25,-1.709 -3.542,-1.125 -4.583,-4.417c-0.75,-2.375 -0,-5.042 -0.875,-7.5c-1.986,-4.232 -4.255,-8.324 -6.792,-12.25l-10.25,-18.458c-4.733,-8.453 -15.57,-11.534 -24.042,-6.834l-94.375,52.584c-0.375,3.166 -3,5.333 -3.541,8.333c-0.379,1.801 0.224,3.675 1.583,4.917c-1.059,-0.021 -2.084,-0.387 -2.917,-1.042c-5.625,-3.125 -7.125,-5.625 -12.916,-2.458c-2.5,1.333 -4.959,2.75 -7.417,4.166l-25,13.959l-78.333,43.625l-91.667,51.166l-76.375,42.542c-10.417,5.792 -23.042,10.875 -32.333,18.25c2.583,1.333 3.041,3.375 0.75,5.375l-4.167,3.792c-0,1.041 1.5,1.041 2.458,0.625l5.167,-2.209c-3.589,4.558 -7.912,8.487 -12.792,11.625c-8.192,4.757 -16.996,8.374 -26.166,10.75l4.416,-5.541c0.334,-0.459 0.75,-1.042 0.459,-1.584c-0.292,-0.541 -0.834,-0.583 -1.334,-0.625c-2.208,-0.25 -4.416,0 -6.041,-1.625c-14.25,8.334 -29.167,16.25 -43.667,24.334c-8.453,4.733 -11.533,15.57 -6.833,24.041l95.166,170.834c3.104,5.589 9.016,9.069 15.409,9.069c3.008,-0 5.965,-0.77 8.591,-2.236l25.042,-14.125c-0,-2.958 2.333,-6.25 0.583,-8.958c-0.247,-0.329 -0.405,-0.717 -0.458,-1.125c-0,-0.542 0.5,-0.959 0.958,-1.25c2.566,-1.63 5.507,-2.577 8.542,-2.75c1.042,-0 2.417,0.458 2.25,1.458c-0,-0.917 5.375,-2.833 6.25,-3.125c0.417,2.25 -1.125,4.667 1.5,5.125c2.625,0.458 6.625,-4.167 8.333,-5l25,-13.958l79.167,-44.042l86.833,-48.375l57.709,-32.167c2.083,-1.208 4.541,-2.625 6.541,-3.625c0.723,-3.82 2.583,-7.335 5.334,-10.083c4.166,-2.875 10.75,0.292 14.208,-3.792c0.667,-0.791 1.083,-1.75 1.667,-2.583c1.164,-1.355 2.579,-2.473 4.166,-3.292c1.007,-0.791 2.224,-1.269 3.5,-1.375c1.25,0 2.584,1.042 2.417,2.292c8.583,-2 16.333,-7.792 23.917,-12.083c2.75,-1.542 26.875,-12.875 26.791,-14.667c-0.333,-5.542 3.042,-10.292 2.875,-16c0,-1.083 -2.125,-8.333 -1.166,-8.875c-21.667,12.917 -44.167,24.667 -66.25,36.917c-0.75,0.458 -3.584,1.416 -4.167,2.25c-0,-0 -0.208,0.375 -0.292,0.583l-0.625,1.375l0,0.333c-0.896,2.836 -1.954,5.618 -3.166,8.334c-0,0.375 -4.709,6.208 -5.084,4.833c-1.833,-6.708 -4.166,-7.75 -9.291,-5l-7.334,4.167l-23.291,12.958l-78.459,43.75l-92.458,51.5l-77.042,42.917l-32.291,17.958c-6.445,-11.667 -12.931,-23.319 -19.459,-34.958l-12.5,-22.459c-1.265,-3.113 -3.134,-5.946 -5.5,-8.333c-1.791,-1.333 -4.833,-1 -6.416,-2.208c-3.875,-2.959 -6.667,-8.334 -10.334,-11.792c-2.5,-2.333 -6.291,-9.333 -5.25,-13.208c1.25,0.5 2.5,1.041 3.75,1.416c-0.653,-2.565 -0.508,-5.269 0.417,-7.75c-12.5,-21.041 -24,-43.041 -35.958,-64.541l-0.792,-1.375l29.167,-16.25l21.291,-11.875c4.379,-1.883 8.566,-4.185 12.5,-6.875c2.709,-2.334 5.459,-5.25 8.334,-7.75c1.929,-1.468 4.027,-2.699 6.25,-3.667l7.875,-3.833c0.404,-0.244 0.862,-0.387 1.333,-0.417c0.471,0.051 0.933,0.163 1.375,0.333c4.167,0.875 14.5,-6.833 18.25,-8.916l24.25,-13.5l73.167,-40.792l91.166,-50.75l91.25,-50.875l73.417,-40.875l37.5,-20.833l1.75,-0.959l40.542,72.792c2.508,4.906 6.525,8.879 11.458,11.333c1.667,0.542 3.542,1.709 3.333,3.417c-0.208,1.708 -2.708,3.125 -2.125,4.875c0.584,1.75 3.792,1.083 4.542,2.667c0.75,1.583 -1.292,4.166 -1.042,6.333c0.862,2.594 2.143,5.029 3.792,7.208l11.792,21.209c6.583,11.75 13.125,23.541 19.75,35.416l-72.084,40.167c0.357,0.287 0.654,0.641 0.875,1.042l0.375,0.958c1.433,0.507 2.825,1.12 4.167,1.833c1.17,0.654 1.879,1.911 1.833,3.25c-0.02,1.323 -0.754,2.536 -1.916,3.167l-4.417,2.5c-0.32,1.973 -1.834,3.553 -3.792,3.958c-0.513,0.043 -1.028,0.043 -1.541,0c-0.886,0.65 -2.015,0.879 -3.084,0.625c-1.947,-0.599 -3.094,-2.652 -2.583,-4.625c0.172,-0.428 0.396,-0.834 0.667,-1.208c-0.643,-1.236 -0.547,-2.732 0.25,-3.875l-1.334,-0c-0.75,-0 -1.416,-0.417 -2.125,-0.625c-3.746,2.314 -6.665,5.758 -8.333,9.833c-0.181,0.223 -0.271,0.506 -0.25,0.792c-0,0.583 0.917,0.625 1.458,0.875c1.25,0.583 0.959,2.417 0.334,3.625c-0.625,1.208 -1.375,2.75 -0.542,3.833c0.316,0.365 0.664,0.7 1.042,1c1.791,2.042 -0.959,7.959 3.416,5.542c-0.307,-1.286 -0.113,-2.643 0.542,-3.792c0.74,-1.159 1.883,-2.006 3.208,-2.375c3.239,-0.786 6.546,-1.26 9.875,-1.416l86.875,-48.584c8.453,-4.733 11.534,-15.57 6.834,-24.041l-0.5,-0.875l-39.25,-70.459l-22.667,-40.75c-2.208,-3.875 -4.167,-7.916 -6.583,-11.75c-0.665,-1.422 -1.551,-2.73 -2.625,-3.875Z" style="fill:#92e3a9;fill-rule:nonzero;"/><path d="M1315.25,786.792c-2.875,-3.5 -2,-3.584 -2.542,-7.334l0,-0.25l-0.333,-0.375l-0.5,-0.583c-1.958,0.875 -3.917,1.833 -5.875,2.917l-38.375,21.375l15.458,27.708c-2.166,-3.833 5.5,-2.708 5.792,-2.75c0.813,-0.24 1.653,-0.38 2.5,-0.417c0.832,0.177 1.565,0.67 2.042,1.375c1.602,2.801 2.079,6.111 1.333,9.25c-0.458,4.167 1.75,8.334 -0.625,12.5c2.042,3.334 20.5,36.917 20.583,36.875l38.375,-21.375c2.209,-1.25 7.459,-3.458 8.75,-5.666c1.292,-2.209 -0.75,-5.667 1.542,-6.709c1.748,-0.64 3.695,-0.456 5.292,0.5c14.984,-14.836 18.065,-38.108 7.458,-56.333c-10.792,-19.375 -35.292,-30.917 -56.75,-21.917c-1.5,0.625 0.5,7.334 -3.083,8.084c0.685,-1.344 1.668,-2.513 2.875,-3.417m23.916,69.75l-17.875,9.958c-1.458,-2.625 -2.875,-5.25 -4.375,-7.791c1.875,3.166 -3.291,2.166 -4.375,1.458c-2.625,-1.75 -3.333,-6.792 -3.416,-9.625c-0.063,-4.858 -1.509,-9.6 -4.167,-13.667c-4.194,-7.583 -8.361,-15.166 -12.5,-22.75l17.875,-9.958c16.667,-9.333 33.333,-5.458 42.333,10.708c9,16.167 3.292,32.459 -13.5,41.667Z" style="fill:#92e3a9;fill-rule:nonzero;"/><path d="M1442.12,715.833c0.911,1.979 1.174,4.197 0.75,6.334c-0.208,1.166 -2.083,4.166 -1.833,4.916c0.666,1.667 1.333,3.334 1.958,5c0.112,0.273 0.267,0.526 0.458,0.75c0.321,0.216 0.698,0.332 1.084,0.334c6.625,0.583 6.333,1.25 6.75,6.833c0.375,4.792 4.5,7.542 6.833,11.708c2.644,4.619 4.035,9.85 4.035,15.172c0,16.755 -13.787,30.542 -30.542,30.542c-3.759,0 -7.486,-0.694 -10.993,-2.047c-0.156,0.151 -0.323,0.29 -0.5,0.417c-0.876,0.441 -1.879,0.559 -2.833,0.333c-4.408,-1.248 -7.79,-4.822 -8.792,-9.292c-0.062,-0.33 -0.062,-0.669 -0,-1c-1.179,-1.459 -2.225,-3.021 -3.125,-4.666c-2.903,-4.669 -4.443,-10.059 -4.443,-15.557c0,-10.954 6.11,-21.038 15.818,-26.11c5.209,-2.971 11.184,-4.335 17.167,-3.917l-0.334,-0.5c-3.583,-4.75 9.334,-6.666 3.5,-9.875c-2.458,-1.333 -2.041,-7.375 -2.666,-9.833c-9.465,0.214 -18.73,2.777 -26.959,7.458c-26.666,14.875 -35.875,44.334 -21.875,69.459c5.889,10.806 15.637,19.006 27.292,22.958c2.741,1.193 5.679,1.871 8.667,2c3.416,-0.292 1.75,0 3.208,-2.042c1.458,-2.041 0.583,-2.916 2.792,-5.083c2.208,-2.167 4.791,-3.458 5.25,-6.792c-0,1.5 1.666,2.584 1.666,4.167l0,1.333c0.089,0.545 0.336,1.052 0.709,1.459c1.416,1.916 3.791,4.166 3.833,6.375c6.096,-1.011 11.948,-3.16 17.25,-6.334c26.542,-14.791 35.958,-44.208 21.875,-69.416c-7.292,-12.875 -21,-24.25 -36,-25.084Z" style="fill:#92e3a9;fill-rule:nonzero;"/><path d="M1527.33,657.833l28.584,51.292l-70.584,-27.917l-16.166,9.042c10.916,19.583 22.5,38.958 32.75,58.917c0.708,-2.167 2.375,-2.584 4.375,-2.875c3.75,-0.5 3.625,1.375 5.666,5.083c0.25,0.458 0.542,0.917 1,1c0.459,0.083 1.375,-0.667 2.125,-0.583c0.75,0.083 1.042,1 0.834,1.708c-0.264,0.694 -0.614,1.352 -1.042,1.958c-1.208,2.292 0.792,3.75 0.542,5.834c-0,1.083 -3.625,5.5 -3.209,6.25l4.167,7.166l19.333,-10.75l-5.166,-9.25l-0.959,0c-5.625,0.75 -3.125,-6.625 -4.375,-9.666c-2.023,-4.309 -4.319,-8.484 -6.875,-12.5l-11.375,-20.042l57.375,22.583c-0.148,-1.648 0.051,-3.308 0.584,-4.875c0.458,-0.875 4.166,-2.5 4.166,-3.333c0.215,2.686 1.471,5.185 3.5,6.958c2.209,1.959 2.209,1.667 1.792,5.125l3.417,1.375l16.083,-8.958l-47.083,-84.458l-19.459,10.916Z" style="fill:#92e3a9;fill-rule:nonzero;"/><path d="M1624.46,693.875l-10.916,-19.542l39.25,-21.875l-8.334,-15.208l-39.208,21.875l-10.208,-18.375l26.5,-14.75c1.119,-1.443 2.541,-2.624 4.166,-3.458c0.823,-0.423 1.773,-0.527 2.667,-0.292l11.208,-6.208c0,-0 -7.958,-14.209 -8.708,-15.709c-3.833,1.75 0,6.584 -3.875,8.917c0.792,0.833 1.958,3.792 0,4.167c-1.125,-0 -1.958,-1.417 -3.083,-1.292c-1.125,0.125 -1.167,0.667 -1.75,0.5c-0.359,-0.101 -0.652,-0.363 -0.792,-0.708c-0.539,-1.257 -1.224,-2.446 -2.042,-3.542c-2.625,-2.542 -26.583,13.417 -29.916,15.292l-22.292,12.5l47.042,84.458l18.791,-10.458l0.375,-0.5c1.375,-1.75 2.709,-3.542 4.167,-5.167c1.212,-1.153 3.049,-1.374 4.5,-0.542c0.336,0.176 0.634,0.416 0.875,0.709l36.708,-20.459l-8.75,-15.708l-46.375,25.375Z" style="fill:#92e3a9;fill-rule:nonzero;"/></g><g id="freepik--Plant--inject-86" opacity="0.45"><path d="M1674.58,1592.54c0,-0 -27.416,-59.75 3.875,-118.709c31.292,-58.958 40.417,-72.833 20.459,-84.875c-19.959,-12.041 -29.167,47.125 -29.167,47.125c0,0 -16.667,-40.75 -2.958,-83.333c13.708,-42.583 22.625,-112.083 3.666,-119.542c-18.958,-7.458 -3.625,86.625 -20.083,118.709c-8.392,-22.52 -13.813,-46.038 -16.125,-69.959c-2.25,-34.25 1.292,-88.916 -13.708,-102.958c-15,-14.042 -24.542,-4.167 -9.834,71.25c8.842,45.17 13.735,91.023 14.625,137.042c0.891,46.018 -32.541,-99.167 -54.166,-102.042c-21.625,-2.875 -21.792,29.167 -3.084,57.042c18.709,27.875 54.542,77.708 60.417,103.541c0,0 -35.667,-74.583 -67.792,-51.75c-32.125,22.834 27.959,67.959 54.709,84.25c26.75,16.292 45.375,118.334 45.375,118.334l13.791,-4.125Z" style="fill:#92e3a9;fill-rule:nonzero;"/><path d="M1674.58,1592.54c0,-0 -27.416,-59.75 3.875,-118.709c31.292,-58.958 40.417,-72.833 20.459,-84.875c-19.959,-12.041 -29.167,47.125 -29.167,47.125c0,0 -16.667,-40.75 -2.958,-83.333c13.708,-42.583 22.625,-112.083 3.666,-119.542c-18.958,-7.458 -3.625,86.625 -20.083,118.709c-8.392,-22.52 -13.813,-46.038 -16.125,-69.959c-2.25,-34.25 1.292,-88.916 -13.708,-102.958c-15,-14.042 -24.542,-4.167 -9.834,71.25c8.842,45.17 13.735,91.023 14.625,137.042c0.891,46.018 -32.541,-99.167 -54.166,-102.042c-21.625,-2.875 -21.792,29.167 -3.084,57.042c18.709,27.875 54.542,77.708 60.417,103.541c0,0 -35.667,-74.583 -67.792,-51.75c-32.125,22.834 27.959,67.959 54.709,84.25c26.75,16.292 45.375,118.334 45.375,118.334l13.791,-4.125Z" style="fill-opacity:0.2;fill-rule:nonzero;"/><path d="M1652.92,1617.08c-0,0 26.708,-60.208 -5.292,-118.666c-32,-58.459 -41.292,-72.209 -21.458,-84.584c19.833,-12.375 29.666,46.709 29.666,46.709c0,-0 16.334,-40.959 1.959,-83.334c-14.375,-42.375 -23.959,-111.75 -5.084,-119.458c18.875,-7.708 4.667,86.583 21.5,118.375c8.128,-22.622 13.255,-46.212 15.25,-70.167c1.875,-34.291 -2.333,-88.916 12.5,-103.166c14.834,-14.25 24.542,-4.667 10.709,71.125c-8.293,45.273 -12.628,91.183 -12.959,137.208c-0.33,46.025 31.334,-99.625 53.125,-102.833c21.792,-3.209 22.125,28.875 3.792,57c-18.333,28.125 -53.75,78.541 -59.375,104.166c0,0 34.792,-75 67.167,-52.708c32.375,22.292 -27.125,68.333 -53.667,85c-26.542,16.667 -44.083,119.083 -44.083,119.083l-13.75,-3.75Z" style="fill:#92e3a9;fill-rule:nonzero;"/><path d="M1776,1574.17l-220.417,-0l17.834,157.75l184.75,-0l17.833,-157.75Z" style="fill:#263238;fill-rule:nonzero;"/></g><g id="freepik--speech-bubble--inject-86" opacity="0.45"><path d="M648.458,582.292l-145.458,-0c-11.589,-0 -21.125,9.536 -21.125,21.125l0,141.416c0,11.589 9.536,21.125 21.125,21.125l46.542,0l-31.334,42.584l54.167,-42.584l76.042,0c11.588,0 21.125,-9.536 21.125,-21.125l-0,-141.416c-0,-11.573 -9.511,-21.103 -21.084,-21.125Z" style="fill:#92e3a9;fill-rule:nonzero;"/><path d="M648.458,582.292l-145.458,-0c-11.589,-0 -21.125,9.536 -21.125,21.125l0,141.416c0,11.589 9.536,21.125 21.125,21.125l46.542,0l-31.334,42.584l54.167,-42.584l76.042,0c11.588,0 21.125,-9.536 21.125,-21.125l-0,-141.416c-0,-11.573 -9.511,-21.103 -21.084,-21.125Z" style="fill:#fff;fill-opacity:0.6;fill-rule:nonzero;"/><circle cx="575.75" cy="674.125" r="66.042" style="fill:#92e3a9;"/><path d="M520.618,661.075c7.179,-30.416 37.702,-49.282 68.118,-42.103c30.417,7.179 49.283,37.702 42.104,68.118c-7.179,30.416 -37.702,49.282 -68.118,42.103c-30.417,-7.178 -49.283,-37.701 -42.104,-68.118Z" style="fill-opacity:0.2;"/><path d="M568.708,701.167c-1.549,0.033 -3.049,-0.552 -4.166,-1.625l-24.042,-23.542c-1.127,-1.093 -1.763,-2.597 -1.763,-4.167c-0,-3.184 2.62,-5.805 5.805,-5.805c1.508,0 2.959,0.588 4.041,1.639l19.709,19.291l34.083,-38.041c1.087,-1.096 2.568,-1.713 4.111,-1.713c3.178,0 5.792,2.615 5.792,5.792c-0,1.32 -0.451,2.601 -1.278,3.629l-38.125,42.542c-1.062,1.188 -2.573,1.883 -4.167,1.916l0,0.084Z" style="fill:#fff;fill-rule:nonzero;"/></g><g id="freepik--Character--inject-86" opacity="0.5"><path d="M387.083,1637.17l120.042,-11.834l0,-135.375l47.583,0l0,135.334l120.542,11.875c11.907,1.153 21.096,11.287 21.083,23.25l0,18.041l-330.333,0l0,-18.041c-0.013,-11.963 9.176,-22.097 21.083,-23.25Z" style="fill:#263238;fill-rule:nonzero;"/><path d="M387.083,1637.17l120.042,-11.834l0,-135.375l47.583,0l0,135.334l120.542,11.875c11.907,1.153 21.096,11.287 21.083,23.25l0,18.041l-330.333,0l0,-18.041c-0.013,-11.963 9.176,-22.097 21.083,-23.25Z" style="fill:#fff;fill-opacity:0.1;fill-rule:nonzero;"/><circle cx="683.625" cy="1700.79" r="31.125" style="fill:#263238;"/><circle cx="378.708" cy="1700.79" r="31.125" style="fill:#263238;"/><path d="M545.667,1526.21l-29.667,0c-9.44,0 -17.208,-7.768 -17.208,-17.208l-0,-133.083l64.083,-0l0,133.083c0,9.44 -7.768,17.208 -17.208,17.208Z" style="fill:#263238;fill-rule:nonzero;"/><path d="M545.667,1526.21l-29.667,0c-9.44,0 -17.208,-7.768 -17.208,-17.208l-0,-133.083l64.083,-0l0,133.083c0,9.44 -7.768,17.208 -17.208,17.208Z" style="fill:#fff;fill-opacity:0.2;fill-rule:nonzero;"/><path d="M364.75,1115.08c0,0 35.667,222.417 106.083,260.875l-71.583,0c0,0 -70.833,-75.833 -92.167,-260.875l57.667,0Z" style="fill:#263238;fill-rule:nonzero;"/><path d="M364.75,1115.08c0,0 35.667,222.417 106.083,260.875l-71.583,0c0,0 -70.833,-75.833 -92.167,-260.875l57.667,0Z" style="fill:#fff;fill-opacity:0.1;fill-rule:nonzero;"/><path d="M395.833,1344.5l278.834,0c11.428,0 20.833,9.405 20.833,20.833l0,27.875l-320.5,0l0,-27.875c0,-11.428 9.405,-20.833 20.833,-20.833Z" style="fill:#92e3a9;fill-rule:nonzero;"/><path d="M708.708,1377.21c0,-4.622 -3.752,-8.375 -8.375,-8.375l-330.458,0c-4.622,0 -8.375,3.753 -8.375,8.375l0,7.584c0,4.622 3.753,8.375 8.375,8.375l330.458,-0c4.623,-0 8.375,-3.753 8.375,-8.375l0,-7.584Z" style="fill:#263238;"/><path d="M708.708,1377.21c0,-4.622 -3.752,-8.375 -8.375,-8.375l-330.458,0c-4.622,0 -8.375,3.753 -8.375,8.375l0,7.584c0,4.622 3.753,8.375 8.375,8.375l330.458,-0c4.623,-0 8.375,-3.753 8.375,-8.375l0,-7.584Z" style="fill:#fff;fill-opacity:0.6;"/><path d="M298.625,1160.33l114.542,0c33.583,0 55.375,-26.916 48.708,-60.125l-8.917,-44.333c-6.666,-33.333 -39.291,-60.083 -72.833,-60.083l-114.542,-0c-33.583,-0 -55.375,26.916 -48.708,60.083l8.917,44.333c6.666,33.125 39.25,60.125 72.833,60.125Z" style="fill:#92e3a9;fill-rule:nonzero;"/><path d="M906.417,1532.88l-26.25,10.292l-18.875,-35.584l-17.167,-32.375l29.083,-17.416l17.584,39.708l15.625,35.375Z" style="fill:#e4897b;fill-rule:nonzero;"/><path d="M890.792,1497.5l-29.5,10.083l-17.167,-32.375l29.083,-17.416l17.584,39.708Z" style="fill-opacity:0.2;fill-rule:nonzero;"/><path d="M885.333,1478.08l-35.708,19.167c0,0 -134.958,-237.292 -155.708,-235.292c-20.75,2 -217.625,127.417 -277.667,81.084c-60.042,-46.334 -1.625,-185.834 -1.625,-185.834c0,0 124.208,-35.5 137.5,-8.333c3.503,8.134 6.482,16.485 8.917,25c2.625,8.542 4.625,15.75 4.625,15.75c3.791,-1.542 126.458,-51.833 181.208,-25c55.875,27.583 138.458,313.458 138.458,313.458Z" style="fill:#263238;fill-rule:nonzero;"/><path d="M885.333,1478.08l-35.708,19.167c0,0 -134.958,-237.292 -155.708,-235.292c-20.75,2 -217.625,127.417 -277.667,81.084c-60.042,-46.334 -1.625,-185.834 -1.625,-185.834c0,0 124.208,-35.5 137.5,-8.333c3.503,8.134 6.482,16.485 8.917,25c2.625,8.542 4.625,15.75 4.625,15.75c3.791,-1.542 126.458,-51.833 181.208,-25c55.875,27.583 138.458,313.458 138.458,313.458Z" style="fill:#fff;fill-opacity:0.3;fill-rule:nonzero;"/><path d="M691.333,1671.58l-28,-3.208l-0.166,-39.5l-0.042,-36.25l33.875,-1.583l-3,42.625l-2.667,37.916Z" style="fill:#e4897b;fill-rule:nonzero;"/><path d="M693.917,1634.54l-30.834,-4.917l0,-36.625l33.875,-1.792l-3.041,43.334Z" style="fill-opacity:0.2;fill-rule:nonzero;"/><path d="M832.167,1485.46l52.25,-26.166l5.458,22.166l-39.583,20.417l-18.125,-16.417Z" style="fill:#92e3a9;fill-rule:nonzero;"/><path d="M509,1343.42c0,-0 8.583,-0.959 140.625,-25.417c0,0 3,168.833 9.25,294.708l40.667,1.292c-0,0 58.333,-279.167 51.458,-321.5c-6.875,-42.333 -57.042,-47.875 -57.042,-47.875c0,0 -87.125,67.875 -184.958,98.792Z" style="fill:#263238;fill-rule:nonzero;"/><path d="M509,1343.42c0,-0 8.583,-0.959 140.625,-25.417c0,0 3,168.833 9.25,294.708l40.667,1.292c-0,0 58.333,-279.167 51.458,-321.5c-6.875,-42.333 -57.042,-47.875 -57.042,-47.875c0,0 -87.125,67.875 -184.958,98.792Z" style="fill:#fff;fill-opacity:0.4;fill-rule:nonzero;"/><path d="M509,1343.42c0,-0 8.583,-0.959 140.625,-25.417c0,0 3,168.833 9.25,294.708l40.667,1.292c-0,0 58.333,-279.167 51.458,-321.5c-6.875,-42.333 -57.042,-47.875 -57.042,-47.875c0,0 -87.125,67.875 -184.958,98.792Z" style="fill-opacity:0.3;fill-rule:nonzero;"/><path d="M651.417,1601.46l55.458,-1.291l-7.583,22.833l-45,0.417l-2.875,-21.959Z" style="fill:#92e3a9;fill-rule:nonzero;"/><path d="M565.833,1189.71l-71.958,25.625c0,0 37.833,-28.25 67.333,-41.375c2.625,8.542 4.625,15.75 4.625,15.75Z" style="fill-opacity:0.3;fill-rule:nonzero;"/><path d="M406.292,1148.62l2.666,19.958l134.875,-28.625l-3.125,-23.583l-134.416,32.25Z" style="fill:#263238;fill-rule:nonzero;"/><path d="M406.292,1148.62l2.666,19.958l134.875,-28.625l-3.125,-23.583l-134.416,32.25Z" style="fill-opacity:0.2;fill-rule:nonzero;"/><path d="M450.98,1134.12l-6.718,1.246l6.346,34.208l6.719,-1.246l-6.347,-34.208Z" style="fill:#263238;"/><path d="M509.794,1125.47l-29.429,6.632l5.029,22.316l29.429,-6.632l-5.029,-22.316Z" style="fill:#fff;"/><path d="M528.716,1111.53l-6.697,1.23l6.263,34.096l6.696,-1.23l-6.262,-34.096Z" style="fill:#263238;"/><path d="M450.98,1134.12l-6.718,1.246l6.346,34.208l6.719,-1.246l-6.347,-34.208Z" style="fill:#fff;fill-opacity:0.3;"/><path d="M528.716,1111.53l-6.697,1.23l6.263,34.096l6.696,-1.23l-6.262,-34.096Z" style="fill:#fff;fill-opacity:0.3;"/><path d="M958.583,1579.46c-4.38,-1.344 -8.971,-1.867 -13.541,-1.541c-4.571,0.325 -16.959,-7.084 -37.5,-40.792l-17.5,2.292c-6.019,0.904 -10.861,5.496 -12.084,11.458c-0.125,0.829 -0.125,1.671 0,2.5c0.754,4.23 1.784,8.405 3.084,12.5c4.487,13.544 9.788,26.804 15.875,39.708l2.833,-1.166l-9.042,-25.25c-3,-8.625 7.459,-1.334 13,7c5.542,8.333 13.417,16.416 32.125,9.333c21.75,-8.5 30.375,-13 22.75,-16.042Z" style="fill:#263238;fill-rule:nonzero;"/><path d="M903.167,1528.17c-0,-0 28.083,42.666 41.875,49.75c-0,-0 -15.459,12.5 -36.084,-7.584c-26.625,-25.791 -31.083,-16.958 -31.083,-16.958c-0.237,-5.053 -0,-10.117 0.708,-15.125c2.125,-9.792 24.584,-10.083 24.584,-10.083Z" style="fill:#e4897b;fill-rule:nonzero;"/><path d="M733.333,1721.25c-3.991,-2.301 -8.368,-3.854 -12.916,-4.583c-4.549,-0.73 -14.792,-10.875 -26.667,-48.459l-17.542,-1.916c-6.085,-0.576 -11.906,2.778 -14.458,8.333c-0.374,0.747 -0.627,1.549 -0.75,2.375c-0.292,4.259 -0.292,8.533 0,12.792c1.13,14.22 3.134,28.358 6,42.333l3.042,-0.458l-2.709,-26.75c-0.875,-9.084 7.584,0.5 11,9.916c3.417,9.417 9.125,19.125 28.959,16.667c23.166,-3.125 32.583,-5.458 26.041,-10.25Z" style="fill:#263238;fill-rule:nonzero;"/><path d="M691.667,1658.33c-0,0 17.166,48.125 28.875,58.334c-0,-0 -17.959,8.333 -33.334,-15.917c-19.791,-31.375 -26.166,-23.833 -26.166,-23.833c0.932,-4.953 2.327,-9.808 4.166,-14.5c4.417,-9.167 26.459,-4.084 26.459,-4.084Z" style="fill:#e4897b;fill-rule:nonzero;"/><path d="M376.917,808.333l-35.25,7.084c-2.79,2.35 -6.526,3.26 -10.084,2.458c-10.5,-4.167 -25.625,-16.375 -27.541,-20.833c-2.834,-6.292 -0,-24.75 7.416,-28.084c7.417,-3.333 32.959,27.5 32.959,27.5l37.875,-8.541l-5.375,20.416Z" style="fill:#e4897b;fill-rule:nonzero;"/><path d="M488.083,925.5c0,0 -3.208,-114.208 -16.416,-119.083c-13.209,-4.875 -112.5,8.75 -112.5,8.75l-2.417,-26.084c0,0 115.542,-17.791 137.917,-7.25c22.375,10.542 29.75,180.75 25.666,213.542l-32.25,-69.875Z" style="fill:#92e3a9;fill-rule:nonzero;"/><path d="M488.083,925.5c0,0 -3.208,-114.208 -16.416,-119.083c-13.209,-4.875 -112.5,8.75 -112.5,8.75l-2.417,-26.084c0,0 115.542,-17.791 137.917,-7.25c22.375,10.542 29.75,180.75 25.666,213.542l-32.25,-69.875Z" style="fill:#fff;fill-opacity:0.6;fill-rule:nonzero;"/><path d="M360.875,817.667l-6.917,-28.667l9.917,-3.583l6.292,33.125l-9.292,-0.875Z" style="fill:#92e3a9;fill-rule:nonzero;"/><path d="M360.875,817.667l-6.917,-28.667l9.917,-3.583l6.292,33.125l-9.292,-0.875Z" style="fill:#fff;fill-opacity:0.7;fill-rule:nonzero;"/><path d="M487.5,911.25c0,0 -8.875,34.75 -51.625,45.833c-42.75,11.084 -90.042,-17.875 -90.042,-17.875l9.417,82.917l52.333,130.625l133.75,-34.875c0,0 -8,-151.958 -53.833,-206.625Z" style="fill:#92e3a9;fill-rule:nonzero;"/><path d="M487.5,911.25c0,0 -8.875,34.75 -51.625,45.833c-42.75,11.084 -90.042,-17.875 -90.042,-17.875l9.417,82.917l52.333,130.625l133.75,-34.875c0,0 -8,-151.958 -53.833,-206.625Z" style="fill:#fff;fill-opacity:0.7;fill-rule:nonzero;"/><path d="M506.615,1046.89c0.547,1.732 2.397,2.695 4.13,2.149l15.656,-4.94c1.733,-0.546 2.695,-2.397 2.149,-4.129l-9.327,-29.564c-0.547,-1.732 -2.397,-2.695 -4.13,-2.149l-15.656,4.94c-1.732,0.546 -2.695,2.397 -2.149,4.129l9.327,29.564Z" style="fill:#92e3a9;fill-opacity:0.6;"/><path d="M507.556,1040.03l17.802,-5.616l-7.685,-24.358l-17.801,5.616l7.684,24.358Z" style="fill-opacity:0.2;"/><path d="M506.961,1001.25l-3.934,1.241l4.525,14.345l3.934,-1.241l-4.525,-14.345Z" style="fill:#263238;"/><path d="M396.583,781.458c-32.958,0 -54.708,34.917 -47,90.292c7.709,55.375 38.584,71.333 38.584,71.333l-1.959,-13.375c34.276,7.779 69.614,9.751 104.542,5.834c34.928,-3.917 -15.917,-45.167 -10.75,-91.292c0,0 10.458,-62.875 -83.417,-62.792Z" style="fill:#263238;fill-rule:nonzero;"/><path d="M462.042,945.833l13.458,50l-23.667,-18.041c0,-0 23.042,52.666 29.167,83.333c-0,0 -19.917,-52.208 -37.083,-80.833l-10.042,28.666l-40.375,-41.125c-0,0 35.667,-27.333 68.542,-22Z" style="fill-opacity:0.2;fill-rule:nonzero;"/><path d="M442.375,961.958l-41.083,1.25c18.208,-23.291 -14.709,-63.875 -14.709,-63.875l40.584,8.792c9.666,40.167 26.375,41.375 26.375,41.375l-11.167,12.458Z" style="fill:#e4897b;fill-rule:nonzero;"/><path d="M438.5,936.958c-15.671,-1.31 -30.26,-8.575 -40.75,-20.291c-3.242,-6.021 -6.977,-11.763 -11.167,-17.167l40.584,8.833c2.149,10.109 5.98,19.785 11.333,28.625Z" style="fill-opacity:0.2;fill-rule:nonzero;"/><path d="M427.125,798.417c35.375,2.958 45.208,22.833 44.75,59.541c-0.542,45.834 -13.375,77.375 -56.792,63.959c-59,-18.209 -46.75,-128.417 12.042,-123.5Z" style="fill:#e4897b;fill-rule:nonzero;"/><path d="M449.167,854.167c2.395,5.525 5.445,10.743 9.083,15.541c-2.371,2.781 -6.104,4.02 -9.667,3.209l0.584,-18.75Z" style="fill:#de5753;fill-rule:nonzero;"/><path d="M425.208,848.25l7.667,-2.5c0,0 -4.083,6.083 -7.667,2.5Z" style="fill:#263238;fill-rule:nonzero;"/><path d="M427.875,847.375c-2.935,-1.442 -6.523,-0.473 -8.333,2.25c2.645,-1.206 5.688,-1.206 8.333,0l0,-2.25Z" style="fill:#263238;fill-rule:nonzero;"/><path d="M413.625,830.5c-0.394,-0.01 -0.768,-0.175 -1.042,-0.458c-0.293,-0.276 -0.459,-0.661 -0.459,-1.063c-0,-0.402 0.166,-0.787 0.459,-1.062c4.707,-4.118 11.089,-5.786 17.209,-4.5c0.696,0.147 1.199,0.767 1.199,1.479c-0,0.829 -0.682,1.512 -1.512,1.512c-0.105,-0 -0.21,-0.011 -0.312,-0.033c-5.104,-1.042 -10.414,0.293 -14.417,3.625c-0.283,0.324 -0.695,0.508 -1.125,0.5Z" style="fill:#263238;fill-rule:nonzero;"/><path d="M469.125,831.125c-0.33,0.013 -0.655,-0.091 -0.917,-0.292c-3.374,-3.093 -7.971,-4.502 -12.5,-3.833c-0.129,0.035 -0.262,0.053 -0.395,0.053c-0.829,-0 -1.512,-0.682 -1.512,-1.511c0,-0.68 0.459,-1.281 1.116,-1.459c5.469,-0.967 11.089,0.65 15.208,4.375c0.637,0.523 0.749,1.469 0.25,2.125c-0.306,0.37 -0.771,0.572 -1.25,0.542Z" style="fill:#263238;fill-rule:nonzero;"/><path d="M383.333,854.833c0,0 18.959,-27.666 18.334,-50.333c-0,0 72.541,-22.833 70.083,48.667c0,-0 12.083,-62.5 -48.625,-69.125c-60.708,-6.625 -67.75,82.625 -38.542,111.791c0,0 -12.875,-23.666 -1.25,-41Z" style="fill:#263238;fill-rule:nonzero;"/><path d="M388.625,862.792c0,-8.533 -7.009,-15.561 -15.542,-15.584c-11.083,0.292 -18.166,22.375 8.667,30.084c3.833,1.083 6.375,-2.542 6.875,-14.5Z" style="fill:#e4897b;fill-rule:nonzero;"/><path d="M448.875,883.333c-2.595,3.486 -4.921,7.163 -6.958,11c-0.709,-0.25 -1.459,-0.458 -2.167,-0.75c-9.792,-3.458 -13.208,-8.333 -14,-12.5c-0.373,-2.116 -0.216,-4.292 0.458,-6.333c0.347,-1.174 0.852,-2.295 1.5,-3.333c5.091,4.838 11.178,8.507 17.834,10.75c2,0.75 3.333,1.166 3.333,1.166Z" style="fill:#263238;fill-rule:nonzero;"/><path d="M445.542,882.083l-2.125,3.209c-9.25,-3.292 -15.292,-6.834 -17.209,-10.625c0.347,-1.174 0.852,-2.295 1.5,-3.334c5.091,4.839 11.178,8.508 17.834,10.75Z" style="fill:#fff;fill-rule:nonzero;"/><path d="M439.75,893.583c-9.792,-3.458 -13.208,-8.333 -14,-12.5c3.704,1.365 7.134,3.383 10.125,5.959c1.939,1.725 3.294,4.012 3.875,6.541Z" style="fill:#de5753;fill-rule:nonzero;"/><path d="M426.167,801.042c-0,-0 -19.125,57.041 -55.709,53.125c-36.583,-3.917 26.125,-72.834 26.125,-72.834c0,0 61.709,-17.625 88.584,16.667c26.875,34.292 -13.292,55.083 -13.292,55.083c0,0 6,-44.75 -45.708,-52.041Z" style="fill:#263238;fill-rule:nonzero;"/><path d="M397,849.583c-0.43,-0.02 -0.816,-0.277 -1,-0.666c-0.197,-0.549 0.082,-1.163 0.625,-1.375c29.167,-11.125 28.5,-50.25 28.5,-50.667c-0.002,-0.028 -0.004,-0.056 -0.004,-0.084c0,-0.526 0.433,-0.959 0.959,-0.959c0.015,0 0.03,0.001 0.045,0.001c0.557,0.018 1.022,0.446 1.083,1c0,0.417 0.667,41 -29.833,52.667l-0.375,0.083Z" style="fill:#263238;fill-rule:nonzero;"/><path d="M461.125,851.708l7.667,-2.458c-0,0 -4.125,6.042 -7.667,2.458Z" style="fill:#263238;fill-rule:nonzero;"/><path d="M463.792,850.833c-2.943,-1.453 -6.548,-0.462 -8.334,2.292c2.606,-1.297 5.655,-1.389 8.334,-0.25l-0,-2.042Z" style="fill:#263238;fill-rule:nonzero;"/><path d="M407.083,946.375l30.959,15.75l-0.5,31.375l-44.25,-25.792l13.791,-21.333Z" style="fill:#92e3a9;fill-rule:nonzero;"/><path d="M442.75,940.458l1.833,19.042l20.209,21.375l-2.75,-35.167l-19.292,-5.25Z" style="fill:#92e3a9;fill-rule:nonzero;"/><path d="M299.708,725l-12.916,-33.333c0.477,-3.611 -0.775,-7.243 -3.375,-9.792c-9,-6.708 -27.584,-12.792 -32.25,-12.083c-6.792,1 -20.834,13.291 -19.625,21.333c1.208,8.042 40.875,13 40.875,13l13.166,36.542l14.125,-15.667Z" style="fill:#e4897b;fill-rule:nonzero;"/><path d="M355.333,1022.12c0,0 25,-19.875 15.042,-63.792l-26.875,-121.5l-46.167,-125.5l-22.583,11.417c0,0 37.917,122.625 41.417,130.917c1.791,4.166 8.916,67.791 18.625,110.416c8.916,39.25 20.541,58.042 20.541,58.042Z" style="fill:#92e3a9;fill-rule:nonzero;"/><path d="M355.333,1022.12c0,0 25,-19.875 15.042,-63.792l-26.875,-121.5l-46.167,-125.5l-22.583,11.417c0,0 37.917,122.625 41.417,130.917c1.791,4.166 8.916,67.791 18.625,110.416c8.916,39.25 20.541,58.042 20.541,58.042Z" style="fill:#fff;fill-opacity:0.6;fill-rule:nonzero;"/><path d="M270.792,719.167l26.375,-13.209l5.75,8.792l-30.834,13.667l-1.291,-9.25Z" style="fill:#92e3a9;fill-rule:nonzero;"/><path d="M270.792,719.167l26.375,-13.209l5.75,8.792l-30.834,13.667l-1.291,-9.25Z" style="fill:#fff;fill-opacity:0.7;fill-rule:nonzero;"/><path d="M407.083,946.375l30.959,15.75l-0.5,31.375l-44.25,-25.792l13.791,-21.333Z" style="fill:#fff;fill-opacity:0.6;fill-rule:nonzero;"/><path d="M442.75,940.458l1.833,19.042l20.209,21.375l-2.75,-35.167l-19.292,-5.25Z" style="fill:#fff;fill-opacity:0.6;fill-rule:nonzero;"/></g><g id="freepik--Desk--inject-86" opacity="0.5"><rect x="1197.08" y="880.875" width="124.833" height="97" style="fill:#fff;"/><rect x="1289.92" y="880.875" width="32" height="97" style="fill-opacity:0.1;"/><path d="M1189.92,1063.54l141.125,-0l-0,-176.042l-45.459,0l-95.666,45.792l-0,130.25Z" style="fill:#92e3a9;fill-rule:nonzero;"/><rect x="1285.58" y="887.5" width="45.458" height="176.042" style="fill-opacity:0.2;"/><rect x="1204.46" y="968" width="66.083" height="31.667" style="fill:#fff;fill-opacity:0.7;"/><rect x="1204.46" y="1010.25" width="66.083" height="4.542" style="fill:#fff;fill-opacity:0.7;"/><rect x="1289.92" y="1023.54" width="36.708" height="26.875" style="fill:#fff;fill-opacity:0.7;"/><rect x="1144.04" y="875.583" width="124.833" height="102.292" style="fill:#fff;"/><rect x="1236.88" y="875.583" width="32" height="102.292" style="fill-opacity:0.1;"/><path d="M1136.88,1063.54l141.125,-0l0,-176.042l-45.458,0l-95.667,45.792l0,130.25Z" style="fill:#92e3a9;fill-rule:nonzero;"/><rect x="1232.54" y="887.5" width="45.458" height="176.042" style="fill-opacity:0.2;"/><rect x="1151.42" y="968" width="66.083" height="31.667" style="fill:#fff;fill-opacity:0.7;"/><rect x="1151.42" y="1010.25" width="66.083" height="4.542" style="fill:#fff;fill-opacity:0.7;"/><rect x="1236.88" y="1023.54" width="36.708" height="26.875" style="fill:#fff;fill-opacity:0.7;"/><path d="M1049.21,1731.92l25.542,-0l45.833,-638.542l-33.875,0l-37.5,638.542Z" style="fill:#263238;fill-rule:nonzero;"/><path d="M1049.21,1731.92l25.542,-0l43.583,-606.834l2.25,-30.666l-33.875,-0l-1.791,30.666l-35.709,606.834Z" style="fill:#fff;fill-opacity:0.1;fill-rule:nonzero;"/><path d="M1084.92,1123.58l33.416,0l2.25,-29.166l-33.875,-0l-1.791,29.166Z" style="fill-opacity:0.2;fill-rule:nonzero;"/><path d="M861.875,1731.92l25.542,-0l4.166,-638.542l-33.875,0l4.167,638.542Z" style="fill:#263238;fill-rule:nonzero;"/><path d="M857.667,1094.42l0.708,103l3.458,534.5l25.542,-0l3.5,-534.5l0.667,-103l-33.875,-0Z" style="fill:#fff;fill-opacity:0.1;fill-rule:nonzero;"/><path d="M857.667,1094.42l0.708,104.166l32.5,0l0.667,-104.166l-33.875,-0Z" style="fill-opacity:0.2;fill-rule:nonzero;"/><path d="M590.875,1731.92l25.542,-0l45.833,-638.542l-33.875,0l-37.5,638.542Z" style="fill:#263238;fill-rule:nonzero;"/><path d="M590.875,1731.92l25.542,-0l43.625,-606.834l2.208,-30.666l-33.875,-0l-1.792,30.666l-35.708,606.834Z" style="fill:#fff;fill-opacity:0.1;fill-rule:nonzero;"/><path d="M626.583,1123.58l33.459,0l2.208,-29.166l-33.875,-0l-1.792,29.166Z" style="fill-opacity:0.2;fill-rule:nonzero;"/><path d="M1341.21,1731.92l25.542,-0l-37.542,-638.542l-33.875,0l45.875,638.542Z" style="fill:#263238;fill-rule:nonzero;"/><path d="M1295.33,1094.42l2.292,30.666l43.583,606.834l25.5,-0l-35.666,-606.834l-1.834,-30.666l-33.875,-0Z" style="fill:#fff;fill-opacity:0.1;fill-rule:nonzero;"/><path d="M1329.21,1094.42l-33.875,-0l2.292,29.166l33.417,0l-1.834,-29.166Z" style="fill-opacity:0.2;fill-rule:nonzero;"/><path d="M1347.08,1109.38l-736.5,-0c-4.937,-0 -9,-4.063 -9,-9l0,-22.958l754.5,-0l0,22.958c0,4.937 -4.062,9 -9,9Z" style="fill:#92e3a9;fill-rule:nonzero;"/><path d="M1347.08,1109.38l-736.5,-0c-4.937,-0 -9,-4.063 -9,-9l0,-22.958l754.5,-0l0,22.958c0,4.937 -4.062,9 -9,9Z" style="fill:#fff;fill-opacity:0.4;fill-rule:nonzero;"/><rect x="601.583" y="1077.38" width="754.5" height="16" style="fill-opacity:0.2;"/><path d="M585.75,1081.54l786.125,-0c0.014,-0 0.028,-0 0.042,-0c4.914,-0 8.958,-4.044 8.958,-8.959c0,-0.013 0,-0.027 0,-0.041c0,-4.938 -4.063,-9 -9,-9l-786.125,-0c-4.944,-0 -9.019,4.055 -9.042,9c0,-0 0,-0 0,-0c0,4.937 4.063,9 9,9c0.014,-0 0.028,-0 0.042,-0Z" style="fill:#92e3a9;fill-rule:nonzero;"/><path d="M585.75,1081.54l786.125,-0c0.014,-0 0.028,-0 0.042,-0c4.914,-0 8.958,-4.044 8.958,-8.959c0,-0.013 0,-0.027 0,-0.041c0,-4.938 -4.063,-9 -9,-9l-786.125,-0c-4.944,-0 -9.019,4.055 -9.042,9c0,-0 0,-0 0,-0c0,4.937 4.063,9 9,9c0.014,-0 0.028,-0 0.042,-0Z" style="fill:#fff;fill-opacity:0.4;fill-rule:nonzero;"/><path d="M1202.96,1063.46l0,-14.083l9.459,0l-9.459,-5.5l7.084,0l-9.459,-6.167l-8.958,0l0,-7.083l10.417,0l-10.417,-4.125l0,-15.375l10.417,0l-0,-10.042l10.375,0l-10.375,-3.5l-0,-7.166l7.416,-0l-6.083,-6.042l-5.25,-5.292l-161,0l0,7.209l-10.625,-0l11.833,5.333l0,5.958l-21.708,0l0,11.084l-9.625,-0l9.625,4.833l0,12.375l6.833,0l0,5.917l13.667,-0l0,17.583l-7.667,0l6.292,6.292l0,7.875l167.208,-0.084Z" style="fill:#92e3a9;fill-rule:nonzero;"/><path d="M1202.96,1063.46l0,-14.083l9.459,0l-9.459,-5.5l7.084,0l-9.459,-6.167l-8.958,0l0,-7.083l10.417,0l-10.417,-4.125l0,-15.375l10.417,0l-0,-10.042l10.375,0l-10.375,-3.5l-0,-7.166l7.416,-0l-6.083,-6.042l-5.25,-5.292l-161,0l0,7.209l-10.625,-0l11.833,5.333l0,5.958l-21.708,0l0,11.084l-9.625,-0l9.625,4.833l0,12.375l6.833,0l0,5.917l13.667,-0l0,17.583l-7.667,0l6.292,6.292l0,7.875l167.208,-0.084Z" style="fill:#fff;fill-opacity:0.7;fill-rule:nonzero;"/><path d="M1202.96,1063.46l0,-14.083l9.459,0l-9.459,-5.5l7.084,0l-9.459,-6.167l-8.958,0l0,-7.083l10.417,0l-10.417,-4.125l0,-15.375l10.417,0l-0,-10.042l10.375,0l-10.375,-3.5l-0,-7.166l7.416,-0l-6.083,-6.042l-5.25,-5.292l-84.792,0l0,7.209l-10.625,-0l11.792,5.333l0,5.958l-21.708,0l-0,11.084l-9.625,-0l9.625,4.833l-0,12.375l6.833,0l0,5.917l13.708,-0l0,17.583l-7.666,0l6.25,6.292l-0,7.875l91.041,-0.084Z" style="fill-opacity:0.1;fill-rule:nonzero;"/><path d="M1038.33,997.583l76.167,0l-76.167,-2.75l0,2.75Z" style="fill-opacity:0.1;fill-rule:nonzero;"/><path d="M1037.12,1031.79l76.208,-0l0.334,5.333l-76.542,-5.333Z" style="fill-opacity:0.1;fill-rule:nonzero;"/><path d="M1023.46,1025.88l76.167,0l-76.167,2.667l0,-2.667Z" style="fill-opacity:0.1;fill-rule:nonzero;"/><path d="M1037.12,1049.38l76.208,0l-76.208,-2.792l0,2.792Z" style="fill-opacity:0.1;fill-rule:nonzero;"/><path d="M1035.75,1055.67l76.167,-0l-0,2.916l-76.167,-2.916Z" style="fill-opacity:0.1;fill-rule:nonzero;"/><path d="M1016.62,1008.67l76.167,-0l-76.167,-2.417l0,2.417Z" style="fill-opacity:0.1;fill-rule:nonzero;"/><path d="M1037.12,986.292l76.208,-0l-76.208,-2.667l0,2.667Z" style="fill-opacity:0.1;fill-rule:nonzero;"/><path d="M1202.04,990.417l-77.292,-0l77.292,2.375l-0,-2.375Z" style="fill-opacity:0.1;fill-rule:nonzero;"/><path d="M1114.5,997.583l87.542,0l-79.375,2.584l-8.167,-2.584Z" style="fill-opacity:0.1;fill-rule:nonzero;"/><path d="M1092.79,1008.67l109.25,2.458l-0,-2.458l-109.25,-0Z" style="fill-opacity:0.1;fill-rule:nonzero;"/><path d="M1092.79,1013.5l54.041,0l-54.041,2.625l-0,-2.625Z" style="fill-opacity:0.1;fill-rule:nonzero;"/><path d="M1191.62,1026.5l-78.292,-0.625l78.292,-1.75l0,2.375Z" style="fill-opacity:0.1;fill-rule:nonzero;"/><path d="M1191.62,1030.62l-79.708,0l79.708,2.667l0,-2.667Z" style="fill-opacity:0.1;fill-rule:nonzero;"/><path d="M1202.96,1043.88l-88.458,0l0,2.708l88.458,-2.708Z" style="fill-opacity:0.1;fill-rule:nonzero;"/><path d="M1202.96,1049.38l-64.083,0l64.083,1.792l0,-1.792Z" style="fill-opacity:0.1;fill-rule:nonzero;"/><path d="M997.958,1045.29l0,13.375c0,3.416 -4.166,4.833 -7.458,4.833l-267.167,0c-3.416,0 -7.541,-1.417 -7.541,-4.833l-0,-13.375l282.166,-0Z" style="fill:#263238;fill-rule:nonzero;"/><path d="M997.958,1045.29l0,13.375c0,3.416 -4.166,4.833 -7.458,4.833l-267.167,0c-3.416,0 -7.541,-1.417 -7.541,-4.833l-0,-13.375l282.166,-0Z" style="fill:#fff;fill-opacity:0.4;fill-rule:nonzero;"/><path d="M997.958,1045.29l0,13.375c0,3.416 -4.166,4.833 -7.458,4.833l-176.208,0c-3.417,0 -7.5,-1.417 -7.5,-4.833l-0,-13.375l191.166,-0Z" style="fill-opacity:0.2;fill-rule:nonzero;"/><path d="M1042.67,906.458l-31.834,144.292c-1.123,4.803 -5.402,8.253 -10.333,8.333l-173.708,0c-3.782,-0.083 -6.847,-3.216 -6.847,-6.998c0,-0.692 0.103,-1.381 0.305,-2.043l31.75,-143.167c1.337,-4.487 5.666,-7.455 10.333,-7.083l173.75,-0c4.667,-0.167 7.584,1.958 6.584,6.666Z" style="fill:#263238;fill-rule:nonzero;"/><path d="M1042.67,906.458l-31.834,144.292c-1.123,4.803 -5.402,8.253 -10.333,8.333l-167.833,0c-3.782,-0.083 -6.847,-3.216 -6.847,-6.998c0,-0.692 0.103,-1.381 0.305,-2.043l31.792,-143.167c1.323,-4.496 5.662,-7.471 10.333,-7.083l167.833,-0c4.667,-0.167 7.584,1.958 6.584,6.666Z" style="fill:#fff;fill-opacity:0.4;fill-rule:nonzero;"/><path d="M957,979.792c0,12.5 -13.25,22.375 -22.958,22.375c-9.709,-0 -15.459,-10.042 -12.5,-22.375c2.958,-12.334 12.5,-21.959 21.916,-22.334c-2.75,12.5 3.167,22.334 12.834,22.334l0.708,-0Z" style="fill-opacity:0.2;fill-rule:nonzero;"/></g></svg>